ISO-10303-21;
HEADER;
FILE_DESCRIPTION (( 'STEP AP214' ),
    '1' );
FILE_NAME ('Arm.STEP',
    '2026-07-30T17:50:30',
    ( '' ),
    ( '' ),
    'SwSTEP 2.0',
    'SolidWorks 2024',
    '' );
FILE_SCHEMA (( 'AUTOMOTIVE_DESIGN' ));
ENDSEC;

DATA;
#1 = DIRECTION ( 'NONE',  ( -0.000000000000000000, -0.000000000000000000, -1.000000000000000000 ) ) ;
#2 = TOROIDAL_SURFACE ( 'NONE', #56, -583.5111628010125742, 630.9486628010125742 ) ;
#3 = CARTESIAN_POINT ( 'NONE',  ( 0.000000000000000000, -17.99999999999995026, 0.000000000000000000 ) ) ;
#4 = EDGE_CURVE ( 'NONE', #200, #108, #261, .T. ) ;
#5 = CARTESIAN_POINT ( 'NONE',  ( -2.364266303756226595, 43.99950369431431341, 38.40312530212260356 ) ) ;
#6 = DIRECTION ( 'NONE',  ( 0.000000000000000000, 0.000000000000000000, -1.000000000000000000 ) ) ;
#7 = ADVANCED_FACE ( 'NONE', ( #45 ), #2, .T. ) ;
#8 = CARTESIAN_POINT ( 'NONE',  ( 4.932907195655786021E-15, 57.50000000000006395, 40.28024405967722998 ) ) ;
#9 = ORIENTED_EDGE ( 'NONE', *, *, #342, .F. ) ;
#10 = CIRCLE ( 'NONE', #118, 31.39952228935976564 ) ;
#11 = CARTESIAN_POINT ( 'NONE',  ( 33.50378943119724084, 4.688377389924146002E-14, 13.00000000000002487 ) ) ;
#12 = VERTEX_POINT ( 'NONE', #133 ) ;
#13 = AXIS2_PLACEMENT_3D ( 'NONE', #21, #148, #402 ) ;
#14 = CARTESIAN_POINT ( 'NONE',  ( -6.631049719401272746, 42.95014026331769230, 37.79727504275891903 ) ) ;
#15 = CARTESIAN_POINT ( 'NONE',  ( 10.20373951378592992, 41.17710909187653812, 36.77361501864576354 ) ) ;
#16 = DIRECTION ( 'NONE',  ( 0.000000000000000000, 1.000000000000000000, 0.000000000000000000 ) ) ;
#17 = CARTESIAN_POINT ( 'NONE',  ( 9.058504392748856660, 41.81936377766144375, 37.14442093437200043 ) ) ;
#18 = ORIENTED_EDGE ( 'NONE', *, *, #168, .T. ) ;
#19 = CARTESIAN_POINT ( 'NONE',  ( -12.35671449573710845, 39.77119556632820974, 35.96191046621308374 ) ) ;
#20 = EDGE_CURVE ( 'NONE', #170, #86, #392, .T. ) ;
#21 = CARTESIAN_POINT ( 'NONE',  ( 0.000000000000000000, 303.8149999999999977, 0.000000000000000000 ) ) ;
#22 = VERTEX_POINT ( 'NONE', #110 ) ;
#23 = DIRECTION ( 'NONE',  ( 0.000000000000000000, 0.000000000000000000, -1.000000000000000000 ) ) ;
#24 = CARTESIAN_POINT ( 'NONE',  ( 20.96447917645513925, 30.66055727574565637, 30.70188099665590187 ) ) ;
#25 = AXIS2_PLACEMENT_3D ( 'NONE', #257, #351, #387 ) ;
#26 = ORIENTED_EDGE ( 'NONE', *, *, #157, .T. ) ;
#27 = DIRECTION ( 'NONE',  ( 0.000000000000000000, 0.000000000000000000, -1.000000000000000000 ) ) ;
#28 =( NAMED_UNIT ( * ) PLANE_ANGLE_UNIT ( ) SI_UNIT ( $, .RADIAN. ) );
#29 = APPLICATION_CONTEXT ( 'automotive_design' ) ;
#30 = CIRCLE ( 'NONE', #189, 40.28024405967722998 ) ;
#31 = CIRCLE ( 'NONE', #13, 50.31499999999999773 ) ;
#32 = EDGE_CURVE ( 'NONE', #89, #238, #214, .T. ) ;
#33 = SPHERICAL_SURFACE ( 'NONE', #215, 50.31499999999999773 ) ;
#34 = DIRECTION ( 'NONE',  ( 0.000000000000000000, 0.000000000000000000, -1.000000000000000000 ) ) ;
#35 = AXIS2_PLACEMENT_3D ( 'NONE', #166, #319, #292 ) ;
#36 = UNCERTAINTY_MEASURE_WITH_UNIT (LENGTH_MEASURE( 1.000000000000000082E-05 ), #150, 'distance_accuracy_value', 'NONE');
#37 = SPHERICAL_SURFACE ( 'NONE', #328, 34.50000000000000000 ) ;
#38 = DIRECTION ( 'NONE',  ( -0.000000000000000000, -1.000000000000000000, -0.000000000000000000 ) ) ;
#39 = CARTESIAN_POINT ( 'NONE',  ( -5.366453884740431945, 43.38923256246020799, 38.05078509986794444 ) ) ;
#40 = ORIENTED_EDGE ( 'NONE', *, *, #168, .F. ) ;
#41 = PLANE ( 'NONE',  #84 ) ;
#42 = EDGE_LOOP ( 'NONE', ( #266, #105 ) ) ;
#43 = CIRCLE ( 'NONE', #25, 31.39952228935976564 ) ;
#44 = CARTESIAN_POINT ( 'NONE',  ( 4.755012303734512797E-15, 264.5000000000000000, 37.37500000000000000 ) ) ;
#45 = FACE_OUTER_BOUND ( 'NONE', #83, .T. ) ;
#46 = CIRCLE ( 'NONE', #406, 382.8350669847163772 ) ;
#47 = PRODUCT_DEFINITION ( 'UNKNOWN', '', #280, #380 ) ;
#48 = CARTESIAN_POINT ( 'NONE',  ( 22.33595976381961989, 28.61346423340324563, 29.51999127760327468 ) ) ;
#49 = PLANE ( 'NONE',  #142 ) ;
#50 = CARTESIAN_POINT ( 'NONE',  ( 10.75873849969362794, 40.83533762547412493, 36.57629317051700468 ) ) ;
#51 = CARTESIAN_POINT ( 'NONE',  ( 33.50378943119724084, 4.688377389924146002E-14, 13.00000000000002487 ) ) ;
#52 = ADVANCED_FACE ( 'NONE', ( #203, #330 ), #49, .T. ) ;
#53 = CARTESIAN_POINT ( 'NONE',  ( 5.373965867065892077, 43.38642690841037108, 38.04916525474703093 ) ) ;
#54 = ORIENTED_EDGE ( 'NONE', *, *, #265, .T. ) ;
#55 = PLANE ( 'NONE',  #158 ) ;
#56 = AXIS2_PLACEMENT_3D ( 'NONE', #259, #225, #70 ) ;
#57 = CARTESIAN_POINT ( 'NONE',  ( -30.37606470671572723, 11.37121926477625600, 19.56517650353286086 ) ) ;
#58 = ORIENTED_EDGE ( 'NONE', *, *, #297, .F. ) ;
#59 = CARTESIAN_POINT ( 'NONE',  ( 0.000000000000000000, 2.428612866367529932E-14, 0.000000000000000000 ) ) ;
#60 = APPLICATION_PROTOCOL_DEFINITION ( 'draft international standard', 'automotive_design', 1998, #230 ) ;
#61 = AXIS2_PLACEMENT_3D ( 'NONE', #268, #113, #384 ) ;
#62 = CARTESIAN_POINT ( 'NONE',  ( 0.000000000000000000, 303.8149999999999977, 0.000000000000000000 ) ) ;
#63 = DIRECTION ( 'NONE',  ( -1.000000000000000000, 0.000000000000000000, 0.000000000000000000 ) ) ;
#64 =( NAMED_UNIT ( * ) SI_UNIT ( $, .STERADIAN. ) SOLID_ANGLE_UNIT ( ) );
#65 = AXIS2_PLACEMENT_3D ( 'NONE', #190, #155, #343 ) ;
#66 = EDGE_CURVE ( 'NONE', #170, #279, #318, .T. ) ;
#67 = DIRECTION ( 'NONE',  ( 1.000000000000000000, 0.000000000000000000, -1.224646799147353207E-16 ) ) ;
#68 = CARTESIAN_POINT ( 'NONE',  ( 0.000000000000000000, -3.917808660450948293E-23, 0.000000000000000000 ) ) ;
#69 = CARTESIAN_POINT ( 'NONE',  ( -3.374135660942199078, 43.83582736903665733, 38.30862673166354426 ) ) ;
#70 = DIRECTION ( 'NONE',  ( 0.000000000000000000, 0.000000000000000000, -1.000000000000000000 ) ) ;
#71 = DIRECTION ( 'NONE',  ( -0.000000000000000000, -1.000000000000000000, -0.000000000000000000 ) ) ;
#72 = EDGE_LOOP ( 'NONE', ( #138, #404, #147, #165, #184 ) ) ;
#73 = DIRECTION ( 'NONE',  ( 0.000000000000000000, 0.000000000000000000, 1.000000000000000000 ) ) ;
#74 = EDGE_LOOP ( 'NONE', ( #117, #137, #196 ) ) ;
#75 = ADVANCED_FACE ( 'NONE', ( #363 ), #315, .T. ) ;
#76 = COLOUR_RGB ( '',0.7921568627450980005, 0.8196078431372548767, 0.9333333333333333481 ) ;
#77 = CARTESIAN_POINT ( 'NONE',  ( -10.19144303856719347, 41.18440992358062402, 36.77783015579542081 ) ) ;
#78 = CARTESIAN_POINT ( 'NONE',  ( 0.000000000000000000, -17.99999999999995026, 0.000000000000000000 ) ) ;
#79 = CARTESIAN_POINT ( 'NONE',  ( 4.714845380854893029E-15, 44.15385909497098282, 38.49224243424258418 ) ) ;
#80 = PRODUCT_DEFINITION_SHAPE ( 'NONE', 'NONE',  #47 ) ;
#81 = EDGE_CURVE ( 'NONE', #86, #296, #30, .T. ) ;
#82 = CARTESIAN_POINT ( 'NONE',  ( -10.74474475287807174, 40.84408955399202767, 36.58134609880273302 ) ) ;
#83 = EDGE_LOOP ( 'NONE', ( #398, #54, #356, #337 ) ) ;
#84 = AXIS2_PLACEMENT_3D ( 'NONE', #290, #294, #262 ) ;
#85 = CARTESIAN_POINT ( 'NONE',  ( 6.638140197073195914, 42.94772161121295539, 37.79587863331517639 ) ) ;
#86 = VERTEX_POINT ( 'NONE', #405 ) ;
#87 = FILL_AREA_STYLE ('',( #185 ) ) ;
#88 = CARTESIAN_POINT ( 'NONE',  ( 28.76929906411314875, 15.79148009381194129, 22.11721528306505391 ) ) ;
#89 = VERTEX_POINT ( 'NONE', #252 ) ;
#90 = CARTESIAN_POINT ( 'NONE',  ( -7.372388474433786558E-15, -5.629165124598873859, 9.749999999999920064 ) ) ;
#91 = FACE_OUTER_BOUND ( 'NONE', #212, .T. ) ;
#92 = DIRECTION ( 'NONE',  ( 0.000000000000000000, 1.000000000000000000, 0.000000000000000000 ) ) ;
#93 = CIRCLE ( 'NONE', #367, 37.37500000000000000 ) ;
#94 = FACE_OUTER_BOUND ( 'NONE', #340, .T. ) ;
#95 = CARTESIAN_POINT ( 'NONE',  ( 0.000000000000000000, 0.000000000000000000, 0.000000000000000000 ) ) ;
#96 = B_SPLINE_CURVE_WITH_KNOTS ( 'NONE', 3,
 ( #51, #114, #272, #206, #299, #88, #109, #339, #362, #333, #48, #24, #183, #308, #146, #140, #399, #366, #173, #264, #119, #50, #15, #17, #144, #85, #53, #244, #209, #267, #306, #395, #235, #79 ),
 .UNSPECIFIED., .F., .F.,
 ( 4, 2, 2, 2, 2, 2, 2, 2, 2, 2, 2, 2, 2, 2, 2, 2, 4 ),
 ( 2.328688697964445333E-07, 0.008048370059990438835, 0.01609650725111107586, 0.02414464444223171288, 0.03219278163335235338, 0.03621685022891267536, 0.04024091882447299734, 0.04426498742003331932, 0.04828905601559363436, 0.05030109031337380576, 0.05231312461115397716, 0.05432515890893413468, 0.05633719320671430608, 0.06036126180227464888, 0.06136727895116473458, 0.06237329610005482028, 0.06438533039783499168 ),
 .UNSPECIFIED. ) ;
#97 = EDGE_CURVE ( 'NONE', #408, #396, #233, .T. ) ;
#98 = CARTESIAN_POINT ( 'NONE',  ( 0.000000000000000000, -17.99999999999995026, 0.000000000000000000 ) ) ;
#99 = AXIS2_PLACEMENT_3D ( 'NONE', #224, #102, #255 ) ;
#100 = DIRECTION ( 'NONE',  ( -0.000000000000000000, -1.000000000000000000, -0.000000000000000000 ) ) ;
#101 = CARTESIAN_POINT ( 'NONE',  ( 0.000000000000000000, 264.5000000000000000, 0.000000000000000000 ) ) ;
#102 = DIRECTION ( 'NONE',  ( 1.000000000000000000, 0.000000000000000000, -1.224646799147353207E-16 ) ) ;
#103 = CARTESIAN_POINT ( 'NONE',  ( 0.000000000000000000, 152.2654779819493740, 0.000000000000000000 ) ) ;
#104 = DIRECTION ( 'NONE',  ( -0.000000000000000000, -1.000000000000000000, -0.000000000000000000 ) ) ;
#105 = ORIENTED_EDGE ( 'NONE', *, *, #223, .T. ) ;
#106 = DIRECTION ( 'NONE',  ( -0.000000000000000000, -0.000000000000000000, -1.000000000000000000 ) ) ;
#107 = ADVANCED_FACE ( 'NONE', ( #409 ), #33, .F. ) ;
#108 = VERTEX_POINT ( 'NONE', #181 ) ;
#109 = CARTESIAN_POINT ( 'NONE',  ( 27.88140351637354186, 17.98385404027287038, 23.38298297121860969 ) ) ;
#110 = CARTESIAN_POINT ( 'NONE',  ( 31.39952228935976564, 264.5000000000000000, -3.845332446642040857E-15 ) ) ;
#111 = CIRCLE ( 'NONE', #163, 29.43212530552289152 ) ;
#112 = CARTESIAN_POINT ( 'NONE',  ( -17.89655674707848121, 34.59217577050706183, 32.97180199295730318 ) ) ;
#113 = DIRECTION ( 'NONE',  ( -0.000000000000000000, -1.000000000000000000, -0.000000000000000000 ) ) ;
#114 = CARTESIAN_POINT ( 'NONE',  ( 32.98763297350702572, 2.304053561571601350, 14.33024594400069773 ) ) ;
#115 = ORIENTED_EDGE ( 'NONE', *, *, #182, .T. ) ;
#116 = CARTESIAN_POINT ( 'NONE',  ( -18.69476263239337399, 33.64760429547182952, 32.42645339757687850 ) ) ;
#117 = ORIENTED_EDGE ( 'NONE', *, *, #223, .F. ) ;
#118 = AXIS2_PLACEMENT_3D ( 'NONE', #101, #104, #73 ) ;
#119 = CARTESIAN_POINT ( 'NONE',  ( 11.83804463485221525, 40.11583230180141868, 36.16088657821119767 ) ) ;
#120 = ORIENTED_EDGE ( 'NONE', *, *, #324, .T. ) ;
#121 = CARTESIAN_POINT ( 'NONE',  ( 35.93750000000001421, 2.344188694962073001E-14, 13.00000000000001243 ) ) ;
#122 = DIRECTION ( 'NONE',  ( -0.000000000000000000, -0.000000000000000000, -1.000000000000000000 ) ) ;
#123 = ORIENTED_EDGE ( 'NONE', *, *, #124, .T. ) ;
#124 = EDGE_CURVE ( 'NONE', #89, #275, #194, .T. ) ;
#125 = DIRECTION ( 'NONE',  ( -0.000000000000000000, -0.000000000000000000, -1.000000000000000000 ) ) ;
#126 = CARTESIAN_POINT ( 'NONE',  ( -31.39952228935976564, 264.5000000000000000, 0.000000000000000000 ) ) ;
#127 = AXIS2_PLACEMENT_3D ( 'NONE', #350, #67, #192 ) ;
#128 = DIRECTION ( 'NONE',  ( -1.000000000000000000, 0.000000000000000000, 0.000000000000000000 ) ) ;
#129 = MANIFOLD_SOLID_BREP ( 'Oto\X2\010d\X0\it kolem osy2', #389 ) ;
#130 = CARTESIAN_POINT ( 'NONE',  ( -2.701111746461529517, 43.95134523226874279, 38.37532100109682176 ) ) ;
#131 = DIRECTION ( 'NONE',  ( -0.000000000000000000, -1.000000000000000000, -0.000000000000000000 ) ) ;
#132 = CARTESIAN_POINT ( 'NONE',  ( -2.112515728529184461E-15, -52.49999999999995026, 0.000000000000000000 ) ) ;
#133 = CARTESIAN_POINT ( 'NONE',  ( 4.714845380854893029E-15, 44.15385909497098282, 38.49224243424258418 ) ) ;
#134 = CIRCLE ( 'NONE', #99, 630.9486628010125742 ) ;
#135 = EDGE_CURVE ( 'NONE', #296, #86, #201, .T. ) ;
#136 = CARTESIAN_POINT ( 'NONE',  ( 0.000000000000000000, -17.99999999999995026, 0.000000000000000000 ) ) ;
#137 = ORIENTED_EDGE ( 'NONE', *, *, #342, .T. ) ;
#138 = ORIENTED_EDGE ( 'NONE', *, *, #314, .F. ) ;
#139 = AXIS2_PLACEMENT_3D ( 'NONE', #293, #172, #298 ) ;
#140 = CARTESIAN_POINT ( 'NONE',  ( 16.22432597406514176, 36.39361752297803321, 34.01186487367588285 ) ) ;
#141 = DIRECTION ( 'NONE',  ( 0.000000000000000000, -0.000000000000000000, 1.000000000000000000 ) ) ;
#142 = AXIS2_PLACEMENT_3D ( 'NONE', #300, #16, #141 ) ;
#143 = PRODUCT ( 'Arm', 'Arm', '', ( #159 ) ) ;
#144 = CARTESIAN_POINT ( 'NONE',  ( 8.467232762300087145, 42.12034556505566485, 37.31819285034522693 ) ) ;
#145 = ORIENTED_EDGE ( 'NONE', *, *, #157, .F. ) ;
#146 = CARTESIAN_POINT ( 'NONE',  ( 17.92346393297905038, 34.56134844638737746, 32.95400382907842385 ) ) ;
#147 = ORIENTED_EDGE ( 'NONE', *, *, #135, .T. ) ;
#148 = DIRECTION ( 'NONE',  ( -1.224646799147353207E-16, 0.000000000000000000, -1.000000000000000000 ) ) ;
#149 = ORIENTED_EDGE ( 'NONE', *, *, #210, .F. ) ;
#150 =( LENGTH_UNIT ( ) NAMED_UNIT ( * ) SI_UNIT ( .MILLI., .METRE. ) );
#151 = AXIS2_PLACEMENT_3D ( 'NONE', #68, #71, #199 ) ;
#152 = ADVANCED_FACE ( 'NONE', ( #94 ), #55, .F. ) ;
#153 = ORIENTED_EDGE ( 'NONE', *, *, #265, .F. ) ;
#154 = DIRECTION ( 'NONE',  ( 0.000000000000000000, 0.000000000000000000, -1.000000000000000000 ) ) ;
#155 = DIRECTION ( 'NONE',  ( -0.000000000000000000, -1.000000000000000000, -0.000000000000000000 ) ) ;
#156 = CARTESIAN_POINT ( 'NONE',  ( -33.50378943119729058, 5.166038560441937322E-14, 12.99999999999997691 ) ) ;
#157 = EDGE_CURVE ( 'NONE', #396, #305, #385, .T. ) ;
#158 = AXIS2_PLACEMENT_3D ( 'NONE', #90, #161, #213 ) ;
#159 = PRODUCT_CONTEXT ( 'NONE', #230, 'mechanical' ) ;
#160 = AXIS2_PLACEMENT_3D ( 'NONE', #62, #122, #407 ) ;
#161 = DIRECTION ( 'NONE',  ( 6.548385338899792012E-16, 0.5000000000000045519, -0.8660254037844360431 ) ) ;
#162 = DIRECTION ( 'NONE',  ( -6.548385338899792012E-16, -0.5000000000000046629, 0.8660254037844361541 ) ) ;
#163 = AXIS2_PLACEMENT_3D ( 'NONE', #222, #325, #226 ) ;
#164 = FACE_OUTER_BOUND ( 'NONE', #167, .T. ) ;
#165 = ORIENTED_EDGE ( 'NONE', *, *, #386, .F. ) ;
#166 = CARTESIAN_POINT ( 'NONE',  ( 0.000000000000000000, 2.428612866367529932E-14, 0.000000000000000000 ) ) ;
#167 = EDGE_LOOP ( 'NONE', ( #149, #174, #145, #307, #323 ) ) ;
#168 = EDGE_CURVE ( 'NONE', #263, #305, #286, .T. ) ;
#169 = DIRECTION ( 'NONE',  ( -0.000000000000000000, -1.000000000000000000, -0.000000000000000000 ) ) ;
#170 = VERTEX_POINT ( 'NONE', #338 ) ;
#171 = AXIS2_PLACEMENT_3D ( 'NONE', #373, #276, #23 ) ;
#172 = DIRECTION ( 'NONE',  ( -1.000000000000000000, 0.000000000000000000, 0.000000000000000000 ) ) ;
#173 = CARTESIAN_POINT ( 'NONE',  ( 13.38369869242528765, 38.95068084851067169, 35.48818607300708550 ) ) ;
#174 = ORIENTED_EDGE ( 'NONE', *, *, #324, .F. ) ;
#175 = CARTESIAN_POINT ( 'NONE',  ( -32.98750625209889620, 2.304619229029651439, 14.33057253225982386 ) ) ;
#176 = ORIENTED_EDGE ( 'NONE', *, *, #220, .F. ) ;
#177 = CARTESIAN_POINT ( 'NONE',  ( -14.80960865337730503, 37.72982604452658251, 34.78332522328539511 ) ) ;
#178 = ORIENTED_EDGE ( 'NONE', *, *, #32, .F. ) ;
#179 = CARTESIAN_POINT ( 'NONE',  ( -22.31520789802089766, 28.70983018444175627, 29.57562818537605054 ) ) ;
#180 = ORIENTED_EDGE ( 'NONE', *, *, #66, .F. ) ;
#181 = CARTESIAN_POINT ( 'NONE',  ( -3.080905184954953560E-15, 253.5000000000000000, 0.000000000000000000 ) ) ;
#182 = EDGE_CURVE ( 'NONE', #275, #238, #186, .T. ) ;
#183 = CARTESIAN_POINT ( 'NONE',  ( 20.24415535232301622, 31.66255655753780118, 31.28038555172640756 ) ) ;
#184 = ORIENTED_EDGE ( 'NONE', *, *, #97, .F. ) ;
#185 = FILL_AREA_STYLE_COLOUR ( '', #76 ) ;
#186 = CIRCLE ( 'NONE', #287, 34.50000000000000000 ) ;
#187 = DIRECTION ( 'NONE',  ( 1.000000000000000000, 0.000000000000000000, 0.000000000000000000 ) ) ;
#188 = DIRECTION ( 'NONE',  ( 0.000000000000000000, 0.000000000000000000, 1.000000000000000000 ) ) ;
#189 = AXIS2_PLACEMENT_3D ( 'NONE', #205, #131, #154 ) ;
#190 = CARTESIAN_POINT ( 'NONE',  ( 0.000000000000000000, 4.688377389924146002E-14, 0.000000000000000000 ) ) ;
#191 = ADVANCED_FACE ( 'NONE', ( #283 ), #295, .F. ) ;
#192 = DIRECTION ( 'NONE',  ( -1.224646799147353207E-16, 0.000000000000000000, -1.000000000000000000 ) ) ;
#193 = CARTESIAN_POINT ( 'NONE',  ( -29.43212530552289152, 2.428612866367529932E-14, 0.000000000000000000 ) ) ;
#194 = CIRCLE ( 'NONE', #311, 29.43212530552289152 ) ;
#195 = CARTESIAN_POINT ( 'NONE',  ( 26.40549185302180391, 2.081668171172168513E-14, 13.00000000000000711 ) ) ;
#196 = ORIENTED_EDGE ( 'NONE', *, *, #4, .F. ) ;
#197 = CARTESIAN_POINT ( 'NONE',  ( -26.40549185302182522, 2.081668171172168513E-14, 12.99999999999996447 ) ) ;
#198 = ORIENTED_EDGE ( 'NONE', *, *, #401, .F. ) ;
#199 = DIRECTION ( 'NONE',  ( 0.000000000000000000, 0.000000000000000000, -1.000000000000000000 ) ) ;
#200 = VERTEX_POINT ( 'NONE', #126 ) ;
#201 = CIRCLE ( 'NONE', #171, 40.28024405967722998 ) ;
#202 = CARTESIAN_POINT ( 'NONE',  ( -24.74621421004560773, 24.49498251845520258, 27.14218475082541460 ) ) ;
#203 = FACE_OUTER_BOUND ( 'NONE', #245, .T. ) ;
#204 = FACE_OUTER_BOUND ( 'NONE', #74, .T. ) ;
#205 = CARTESIAN_POINT ( 'NONE',  ( 0.000000000000000000, 57.50000000000006395, 0.000000000000000000 ) ) ;
#206 = CARTESIAN_POINT ( 'NONE',  ( 31.10362584962701860, 9.115410408679364807, 18.26278465322501532 ) ) ;
#207 = EDGE_LOOP ( 'NONE', ( #178, #391, #332, #371, #115 ) ) ;
#208 = PRESENTATION_LAYER_ASSIGNMENT (  '', '', ( #403 ) ) ;
#209 = CARTESIAN_POINT ( 'NONE',  ( 3.393462371040989467, 43.83212929594228058, 38.30649164816705365 ) ) ;
#210 = EDGE_CURVE ( 'NONE', #12, #296, #379, .T. ) ;
#211 = CARTESIAN_POINT ( 'NONE',  ( -24.16279043000036708, 25.55886797697107582, 27.75641930668648527 ) ) ;
#212 = EDGE_LOOP ( 'NONE', ( #368, #236, #309 ) ) ;
#213 = DIRECTION ( 'NONE',  ( 0.000000000000000000, 0.8660254037844360431, 0.5000000000000045519 ) ) ;
#214 = CIRCLE ( 'NONE', #254, 34.50000000000000000 ) ;
#215 = AXIS2_PLACEMENT_3D ( 'NONE', #281, #125, #369 ) ;
#216 = PRESENTATION_STYLE_ASSIGNMENT (( #345 ) ) ;
#217 = DIRECTION ( 'NONE',  ( 1.000000000000000000, 0.000000000000000000, 0.000000000000000000 ) ) ;
#218 = LINE ( 'NONE', #347, #349 ) ;
#219 = AXIS2_PLACEMENT_3D ( 'NONE', #381, #100, #221 ) ;
#220 = EDGE_CURVE ( 'NONE', #263, #291, #269, .T. ) ;
#221 = DIRECTION ( 'NONE',  ( 0.000000000000000000, 0.000000000000000000, -1.000000000000000000 ) ) ;
#222 = CARTESIAN_POINT ( 'NONE',  ( 0.000000000000000000, 2.428612866367529932E-14, 0.000000000000000000 ) ) ;
#223 = EDGE_CURVE ( 'NONE', #22, #200, #10, .T. ) ;
#224 = CARTESIAN_POINT ( 'NONE',  ( -7.145950777910101672E-14, 152.2654779819493740, -583.5111628010125742 ) ) ;
#225 = DIRECTION ( 'NONE',  ( -0.000000000000000000, -1.000000000000000000, -0.000000000000000000 ) ) ;
#226 = DIRECTION ( 'NONE',  ( 0.000000000000000000, 0.000000000000000000, -1.000000000000000000 ) ) ;
#227 = DIRECTION ( 'NONE',  ( -1.000000000000000000, 0.000000000000000000, 1.224646799147353207E-16 ) ) ;
#228 = CARTESIAN_POINT ( 'NONE',  ( -0.6770365857410675092, 44.15385909497102546, 38.49224243424262681 ) ) ;
#229 = CARTESIAN_POINT ( 'NONE',  ( 0.000000000000000000, 303.8149999999999977, 0.000000000000000000 ) ) ;
#230 = APPLICATION_CONTEXT ( 'automotive_design' ) ;
#231 = CARTESIAN_POINT ( 'NONE',  ( -16.62175934470111116, 35.96409422627517927, 33.76387948270125605 ) ) ;
#232 = EDGE_LOOP ( 'NONE', ( #153, #400, #273, #270 ) ) ;
#233 = CIRCLE ( 'NONE', #376, 35.93750000000006395 ) ;
#234 = EDGE_CURVE ( 'NONE', #200, #22, #43, .T. ) ;
#235 = CARTESIAN_POINT ( 'NONE',  ( 0.6781943385266091529, 44.15385909497101835, 38.49224243424260550 ) ) ;
#236 = ORIENTED_EDGE ( 'NONE', *, *, #32, .T. ) ;
#237 = CARTESIAN_POINT ( 'NONE',  ( -15.27838621561062560, 37.29624284593821670, 34.53299584686430279 ) ) ;
#238 = VERTEX_POINT ( 'NONE', #132 ) ;
#239 = UNCERTAINTY_MEASURE_WITH_UNIT (LENGTH_MEASURE( 1.000000000000000082E-05 ), #411, 'distance_accuracy_value', 'NONE');
#240 = EDGE_CURVE ( 'NONE', #275, #291, #111, .T. ) ;
#241 = CARTESIAN_POINT ( 'NONE',  ( -25.85189898937872499, 22.35422019888709499, 25.90621504935174002 ) ) ;
#242 = ORIENTED_EDGE ( 'NONE', *, *, #97, .T. ) ;
#243 = AXIS2_PLACEMENT_3D ( 'NONE', #317, #162, #288 ) ;
#244 = CARTESIAN_POINT ( 'NONE',  ( 3.726372011606104095, 43.76496859487883739, 38.26771639932910318 ) ) ;
#245 = EDGE_LOOP ( 'NONE', ( #180, #58 ) ) ;
#246 =( NAMED_UNIT ( * ) PLANE_ANGLE_UNIT ( ) SI_UNIT ( $, .RADIAN. ) );
#247 = AXIS2_PLACEMENT_3D ( 'NONE', #229, #256, #358 ) ;
#248 = SPHERICAL_SURFACE ( 'NONE', #289, 34.50000000000000000 ) ;
#249 = EDGE_LOOP ( 'NONE', ( #40, #360, #123, #334, #198, #242, #26 ) ) ;
#250 = DIRECTION ( 'NONE',  ( -0.000000000000000000, 0.000000000000000000, 1.000000000000000000 ) ) ;
#251 = DIRECTION ( 'NONE',  ( -1.000000000000000000, 0.000000000000000000, 0.000000000000000000 ) ) ;
#252 = CARTESIAN_POINT ( 'NONE',  ( 29.43212530552289152, 2.428612866367529932E-14, -3.604395804751242103E-15 ) ) ;
#253 = ADVANCED_FACE ( 'NONE', ( #355 ), #41, .T. ) ;
#254 = AXIS2_PLACEMENT_3D ( 'NONE', #78, #388, #227 ) ;
#255 = DIRECTION ( 'NONE',  ( -1.224646799147353454E-16, 0.000000000000000000, -1.000000000000000000 ) ) ;
#256 = DIRECTION ( 'NONE',  ( -0.000000000000000000, 0.000000000000000000, 1.000000000000000000 ) ) ;
#257 = CARTESIAN_POINT ( 'NONE',  ( 0.000000000000000000, 264.5000000000000000, 0.000000000000000000 ) ) ;
#258 = VECTOR ( 'NONE', #341, 1000.000000000000000 ) ;
#259 = CARTESIAN_POINT ( 'NONE',  ( 0.000000000000000000, 152.2654779819493740, 0.000000000000000000 ) ) ;
#260 =( GEOMETRIC_REPRESENTATION_CONTEXT ( 3 ) GLOBAL_UNCERTAINTY_ASSIGNED_CONTEXT ( ( #239 ) ) GLOBAL_UNIT_ASSIGNED_CONTEXT ( ( #411, #28, #64 ) ) REPRESENTATION_CONTEXT ( 'NONE', 'WORKASPACE' ) );
#261 = CIRCLE ( 'NONE', #247, 50.31499999999999773 ) ;
#262 = DIRECTION ( 'NONE',  ( 0.000000000000000000, 0.000000000000000000, -1.000000000000000000 ) ) ;
#263 = VERTEX_POINT ( 'NONE', #195 ) ;
#264 = CARTESIAN_POINT ( 'NONE',  ( 12.36233902819876462, 39.73808349811974239, 35.94279320471951422 ) ) ;
#265 = EDGE_CURVE ( 'NONE', #279, #296, #134, .T. ) ;
#266 = ORIENTED_EDGE ( 'NONE', *, *, #234, .T. ) ;
#267 = CARTESIAN_POINT ( 'NONE',  ( 2.720474909392838647, 43.94838129139203886, 38.37360976903378429 ) ) ;
#268 = CARTESIAN_POINT ( 'NONE',  ( 0.000000000000000000, 264.5000000000000000, 0.000000000000000000 ) ) ;
#269 = CIRCLE ( 'NONE', #243, 34.42600680423971937 ) ;
#270 = ORIENTED_EDGE ( 'NONE', *, *, #135, .F. ) ;
#271 = ADVANCED_FACE ( 'NONE', ( #164 ), #326, .F. ) ;
#272 = CARTESIAN_POINT ( 'NONE',  ( 32.40723139695413835, 4.588806300766989921, 15.64934855300690408 ) ) ;
#273 = ORIENTED_EDGE ( 'NONE', *, *, #20, .T. ) ;
#274 = CARTESIAN_POINT ( 'NONE',  ( -13.36781982738314767, 38.98709285337756825, 35.50920855381870922 ) ) ;
#275 = VERTEX_POINT ( 'NONE', #193 ) ;
#276 = DIRECTION ( 'NONE',  ( -0.000000000000000000, -1.000000000000000000, -0.000000000000000000 ) ) ;
#277 =( GEOMETRIC_REPRESENTATION_CONTEXT ( 3 ) GLOBAL_UNCERTAINTY_ASSIGNED_CONTEXT ( ( #36 ) ) GLOBAL_UNIT_ASSIGNED_CONTEXT ( ( #150, #246, #375 ) ) REPRESENTATION_CONTEXT ( 'NONE', 'WORKASPACE' ) );
#278 = DIRECTION ( 'NONE',  ( 1.000000000000000000, 0.000000000000000000, 7.561424076342410092E-16 ) ) ;
#279 = VERTEX_POINT ( 'NONE', #44 ) ;
#280 = PRODUCT_DEFINITION_FORMATION_WITH_SPECIFIED_SOURCE ( 'ANY', '', #143, .NOT_KNOWN. ) ;
#281 = CARTESIAN_POINT ( 'NONE',  ( 0.000000000000000000, 303.8149999999999977, 0.000000000000000000 ) ) ;
#282 = DIRECTION ( 'NONE',  ( 0.000000000000000000, 0.000000000000000000, 1.000000000000000000 ) ) ;
#283 = FACE_OUTER_BOUND ( 'NONE', #72, .T. ) ;
#284 = SPHERICAL_SURFACE ( 'NONE', #160, 50.31499999999999773 ) ;
#285 = EDGE_CURVE ( 'NONE', #263, #89, #394, .T. ) ;
#286 = LINE ( 'NONE', #121, #258 ) ;
#287 = AXIS2_PLACEMENT_3D ( 'NONE', #3, #250, #187 ) ;
#288 = DIRECTION ( 'NONE',  ( 0.000000000000000000, 0.8660254037844361541, 0.5000000000000046629 ) ) ;
#289 = AXIS2_PLACEMENT_3D ( 'NONE', #98, #1, #251 ) ;
#290 = CARTESIAN_POINT ( 'NONE',  ( 35.93750000000002132, 2.344188694962073001E-14, 0.000000000000000000 ) ) ;
#291 = VERTEX_POINT ( 'NONE', #197 ) ;
#292 = DIRECTION ( 'NONE',  ( 5.329070518200751394E-15, 0.000000000000000000, -1.000000000000000000 ) ) ;
#293 = CARTESIAN_POINT ( 'NONE',  ( 0.000000000000000000, 152.2654779819493740, 583.5111628010125742 ) ) ;
#294 = DIRECTION ( 'NONE',  ( 0.000000000000000000, -1.000000000000000000, -0.000000000000000000 ) ) ;
#295 = TOROIDAL_SURFACE ( 'NONE', #219, 418.7725669847164340, 382.8350669847163772 ) ;
#296 = VERTEX_POINT ( 'NONE', #8 ) ;
#297 = EDGE_CURVE ( 'NONE', #279, #170, #93, .T. ) ;
#298 = DIRECTION ( 'NONE',  ( 0.000000000000000000, 0.000000000000000000, 1.000000000000000000 ) ) ;
#299 = CARTESIAN_POINT ( 'NONE',  ( 30.38056212517945909, 11.35730391086092972, 19.55714247020402041 ) ) ;
#300 = CARTESIAN_POINT ( 'NONE',  ( 0.000000000000000000, 264.5000000000000000, 0.000000000000000000 ) ) ;
#301 = CARTESIAN_POINT ( 'NONE',  ( -31.10085523289905041, 9.124566233123372783, 18.26807077093236487 ) ) ;
#302 = ORIENTED_EDGE ( 'NONE', *, *, #234, .F. ) ;
#303 = ADVANCED_FACE ( 'NONE', ( #352 ), #37, .T. ) ;
#304 = CARTESIAN_POINT ( 'NONE',  ( -32.40665051700991484, 4.591286929837337105, 15.65078074486837423 ) ) ;
#305 = VERTEX_POINT ( 'NONE', #11 ) ;
#306 = CARTESIAN_POINT ( 'NONE',  ( 2.379108747863973861, 43.99758015760159680, 38.40201474768370815 ) ) ;
#307 = ORIENTED_EDGE ( 'NONE', *, *, #386, .T. ) ;
#308 = CARTESIAN_POINT ( 'NONE',  ( 18.72373638260845397, 33.61270024382570654, 32.40630153396317326 ) ) ;
#309 = ORIENTED_EDGE ( 'NONE', *, *, #182, .F. ) ;
#310 = DIRECTION ( 'NONE',  ( -0.000000000000000000, -1.000000000000000000, -0.000000000000000000 ) ) ;
#311 = AXIS2_PLACEMENT_3D ( 'NONE', #59, #92, #34 ) ;
#312 = SHAPE_DEFINITION_REPRESENTATION ( #80, #335 ) ;
#313 = SURFACE_STYLE_FILL_AREA ( #87 ) ;
#314 = EDGE_CURVE ( 'NONE', #12, #408, #354, .T. ) ;
#315 = TOROIDAL_SURFACE ( 'NONE', #348, -583.5111628010125742, 630.9486628010125742 ) ;
#316 = CARTESIAN_POINT ( 'NONE',  ( 0.000000000000000000, 4.688377389924146002E-14, 0.000000000000000000 ) ) ;
#317 = CARTESIAN_POINT ( 'NONE',  ( -1.478841669423938742E-15, -19.12916512459875662, 1.955771365939945605 ) ) ;
#318 = CIRCLE ( 'NONE', #61, 37.37500000000000000 ) ;
#319 = DIRECTION ( 'NONE',  ( 0.000000000000000000, 1.000000000000000000, 0.000000000000000000 ) ) ;
#320 = CARTESIAN_POINT ( 'NONE',  ( -3.710372963773879817, 43.76836718358568135, 38.26967857543386486 ) ) ;
#321 = ORIENTED_EDGE ( 'NONE', *, *, #401, .T. ) ;
#322 = CARTESIAN_POINT ( 'NONE',  ( 0.000000000000000000, 264.5000000000000000, 0.000000000000000000 ) ) ;
#323 = ORIENTED_EDGE ( 'NONE', *, *, #81, .T. ) ;
#324 = EDGE_CURVE ( 'NONE', #305, #12, #96, .T. ) ;
#325 = DIRECTION ( 'NONE',  ( 0.000000000000000000, 1.000000000000000000, 0.000000000000000000 ) ) ;
#326 = TOROIDAL_SURFACE ( 'NONE', #151, 418.7725669847164340, 382.8350669847163772 ) ;
#327 = EDGE_LOOP ( 'NONE', ( #9, #302, #353 ) ) ;
#328 = AXIS2_PLACEMENT_3D ( 'NONE', #136, #106, #128 ) ;
#329 = CARTESIAN_POINT ( 'NONE',  ( -26.37513832509328537, 21.27560922613805516, 25.28347871388419321 ) ) ;
#330 = FACE_BOUND ( 'NONE', #42, .T. ) ;
#331 = CARTESIAN_POINT ( 'NONE',  ( -20.96531914421307619, 30.74194179769750335, 30.74886837231264280 ) ) ;
#332 = ORIENTED_EDGE ( 'NONE', *, *, #220, .T. ) ;
#333 = CARTESIAN_POINT ( 'NONE',  ( 22.98095193526279800, 27.57767596868137261, 28.92197864414264075 ) ) ;
#334 = ORIENTED_EDGE ( 'NONE', *, *, #240, .T. ) ;
#335 = ADVANCED_BREP_SHAPE_REPRESENTATION ( 'Arm', ( #129, #361 ), #260 ) ;
#336 = CARTESIAN_POINT ( 'NONE',  ( -27.86725427423968071, 18.01820250594295914, 23.40281406711943646 ) ) ;
#337 = ORIENTED_EDGE ( 'NONE', *, *, #20, .F. ) ;
#338 = CARTESIAN_POINT ( 'NONE',  ( 0.000000000000000000, 264.5000000000000000, -37.37500000000000000 ) ) ;
#339 = CARTESIAN_POINT ( 'NONE',  ( 25.90379816683403646, 22.30797194076022905, 25.87951360507268816 ) ) ;
#340 = EDGE_LOOP ( 'NONE', ( #176, #18, #120, #365, #321 ) ) ;
#341 = DIRECTION ( 'NONE',  ( 1.000000000000000000, 0.000000000000000000, 7.561424076342410092E-16 ) ) ;
#342 = EDGE_CURVE ( 'NONE', #22, #108, #31, .T. ) ;
#343 = DIRECTION ( 'NONE',  ( 0.000000000000000000, 0.000000000000000000, -1.000000000000000000 ) ) ;
#344 = MECHANICAL_DESIGN_GEOMETRIC_PRESENTATION_REPRESENTATION (  '', ( #403 ), #277 ) ;
#345 = SURFACE_STYLE_USAGE ( .BOTH. , #410 ) ;
#346 = CARTESIAN_POINT ( 'NONE',  ( 0.000000000000000000, 4.688377389924146002E-14, -35.93750000000006395 ) ) ;
#347 = CARTESIAN_POINT ( 'NONE',  ( 35.93750000000001421, 2.344188694962073001E-14, 13.00000000000001243 ) ) ;
#348 = AXIS2_PLACEMENT_3D ( 'NONE', #103, #38, #6 ) ;
#349 = VECTOR ( 'NONE', #278, 1000.000000000000000 ) ;
#350 = CARTESIAN_POINT ( 'NONE',  ( 5.128484837285535442E-14, -3.917808660450948293E-23, 418.7725669847164340 ) ) ;
#351 = DIRECTION ( 'NONE',  ( -0.000000000000000000, -1.000000000000000000, -0.000000000000000000 ) ) ;
#352 = FACE_OUTER_BOUND ( 'NONE', #207, .T. ) ;
#353 = ORIENTED_EDGE ( 'NONE', *, *, #4, .T. ) ;
#354 = B_SPLINE_CURVE_WITH_KNOTS ( 'NONE', 3,
 ( #383, #228, #357, #5, #130, #69, #320, #39, #14, #370, #364, #77, #82, #19, #274, #177, #237, #359, #231, #112, #116, #331, #179, #211, #202, #241, #329, #336, #397, #57, #301, #304, #175, #393 ),
 .UNSPECIFIED., .F., .F.,
 ( 4, 2, 2, 2, 2, 2, 2, 2, 2, 2, 2, 2, 2, 2, 2, 2, 4 ),
 ( 0.06438533039783499168, 0.06639392993041508262, 0.06739822969670512809, 0.06840252946299515968, 0.07241972852815534156, 0.07442832806073543250, 0.07643692759331552344, 0.08045412665847569145, 0.08246272619105578239, 0.08447132572363587333, 0.08848852478879604133, 0.09652292291911637734, 0.1005401219842765592, 0.1045573210494367133, 0.1125917191797570771, 0.1206261173100774409, 0.1286605154403978046 ),
 .UNSPECIFIED. ) ;
#355 = FACE_OUTER_BOUND ( 'NONE', #249, .T. ) ;
#356 = ORIENTED_EDGE ( 'NONE', *, *, #81, .F. ) ;
#357 = CARTESIAN_POINT ( 'NONE',  ( -1.352728900531322775, 44.11515986003099243, 38.46989942053255618 ) ) ;
#358 = DIRECTION ( 'NONE',  ( 1.000000000000000000, 0.000000000000000000, 0.000000000000000000 ) ) ;
#359 = CARTESIAN_POINT ( 'NONE',  ( -16.18384731749302929, 36.41387300679879502, 34.02355938271233526 ) ) ;
#360 = ORIENTED_EDGE ( 'NONE', *, *, #285, .T. ) ;
#361 = AXIS2_PLACEMENT_3D ( 'NONE', #95, #282, #217 ) ;
#362 = CARTESIAN_POINT ( 'NONE',  ( 24.81485681162481072, 24.43994675514487724, 27.11040983806317684 ) ) ;
#363 = FACE_OUTER_BOUND ( 'NONE', #232, .T. ) ;
#364 = CARTESIAN_POINT ( 'NONE',  ( -9.047819184612913901, 41.82494299154618744, 37.14764209501021952 ) ) ;
#365 = ORIENTED_EDGE ( 'NONE', *, *, #314, .T. ) ;
#366 = CARTESIAN_POINT ( 'NONE',  ( 13.88196300491365953, 38.53988081183290859, 35.25101056124807997 ) ) ;
#367 = AXIS2_PLACEMENT_3D ( 'NONE', #322, #169, #390 ) ;
#368 = ORIENTED_EDGE ( 'NONE', *, *, #124, .F. ) ;
#369 = DIRECTION ( 'NONE',  ( -1.000000000000000000, 0.000000000000000000, 0.000000000000000000 ) ) ;
#370 = CARTESIAN_POINT ( 'NONE',  ( -8.454669698420110180, 42.12641750463447465, 37.32169848629553854 ) ) ;
#371 = ORIENTED_EDGE ( 'NONE', *, *, #240, .F. ) ;
#372 = ADVANCED_FACE ( 'NONE', ( #204 ), #284, .F. ) ;
#373 = CARTESIAN_POINT ( 'NONE',  ( 0.000000000000000000, 57.50000000000006395, 0.000000000000000000 ) ) ;
#374 = APPLICATION_PROTOCOL_DEFINITION ( 'draft international standard', 'automotive_design', 1998, #29 ) ;
#375 =( NAMED_UNIT ( * ) SI_UNIT ( $, .STERADIAN. ) SOLID_ANGLE_UNIT ( ) );
#376 = AXIS2_PLACEMENT_3D ( 'NONE', #316, #310, #27 ) ;
#377 = ADVANCED_FACE ( 'NONE', ( #91 ), #248, .T. ) ;
#378 = CARTESIAN_POINT ( 'NONE',  ( 0.000000000000000000, -3.917808660450948293E-23, -418.7725669847164340 ) ) ;
#379 = CIRCLE ( 'NONE', #127, 382.8350669847163772 ) ;
#380 = PRODUCT_DEFINITION_CONTEXT ( 'detailed design', #29, 'design' ) ;
#381 = CARTESIAN_POINT ( 'NONE',  ( 0.000000000000000000, -3.917808660450948293E-23, 0.000000000000000000 ) ) ;
#382 = PRODUCT_RELATED_PRODUCT_CATEGORY ( 'part', '', ( #143 ) ) ;
#383 = CARTESIAN_POINT ( 'NONE',  ( 4.714845380854893029E-15, 44.15385909497098282, 38.49224243424258418 ) ) ;
#384 = DIRECTION ( 'NONE',  ( 0.000000000000000000, 0.000000000000000000, -1.000000000000000000 ) ) ;
#385 = CIRCLE ( 'NONE', #65, 35.93750000000006395 ) ;
#386 = EDGE_CURVE ( 'NONE', #396, #86, #46, .T. ) ;
#387 = DIRECTION ( 'NONE',  ( 0.000000000000000000, 0.000000000000000000, 1.000000000000000000 ) ) ;
#388 = DIRECTION ( 'NONE',  ( -1.224646799147353207E-16, 0.000000000000000000, -1.000000000000000000 ) ) ;
#389 = CLOSED_SHELL ( 'NONE', ( #377, #372, #191, #7, #253, #152, #52, #75, #271, #107, #303 ) ) ;
#390 = DIRECTION ( 'NONE',  ( 0.000000000000000000, 0.000000000000000000, -1.000000000000000000 ) ) ;
#391 = ORIENTED_EDGE ( 'NONE', *, *, #285, .F. ) ;
#392 = CIRCLE ( 'NONE', #139, 630.9486628010125742 ) ;
#393 = CARTESIAN_POINT ( 'NONE',  ( -33.50378943119729058, 5.166038560441937322E-14, 12.99999999999997691 ) ) ;
#394 = CIRCLE ( 'NONE', #35, 29.43212530552289152 ) ;
#395 = CARTESIAN_POINT ( 'NONE',  ( 1.357737499292547723, 44.11502883630909366, 38.46982377395144681 ) ) ;
#396 = VERTEX_POINT ( 'NONE', #346 ) ;
#397 = CARTESIAN_POINT ( 'NONE',  ( -28.75910115025531510, 15.81799206484045150, 22.13252197667505783 ) ) ;
#398 = ORIENTED_EDGE ( 'NONE', *, *, #66, .T. ) ;
#399 = CARTESIAN_POINT ( 'NONE',  ( 15.32570170833948531, 37.27739750987166190, 34.52211548701334465 ) ) ;
#400 = ORIENTED_EDGE ( 'NONE', *, *, #297, .T. ) ;
#401 = EDGE_CURVE ( 'NONE', #408, #291, #218, .T. ) ;
#402 = DIRECTION ( 'NONE',  ( -1.000000000000000000, 0.000000000000000000, 1.224646799147353207E-16 ) ) ;
#403 = STYLED_ITEM ( 'NONE', ( #216 ), #129 ) ;
#404 = ORIENTED_EDGE ( 'NONE', *, *, #210, .T. ) ;
#405 = CARTESIAN_POINT ( 'NONE',  ( 0.000000000000000000, 57.50000000000006395, -40.28024405967722998 ) ) ;
#406 = AXIS2_PLACEMENT_3D ( 'NONE', #378, #63, #188 ) ;
#407 = DIRECTION ( 'NONE',  ( -1.000000000000000000, 0.000000000000000000, 0.000000000000000000 ) ) ;
#408 = VERTEX_POINT ( 'NONE', #156 ) ;
#409 = FACE_OUTER_BOUND ( 'NONE', #327, .T. ) ;
#410 = SURFACE_SIDE_STYLE ('',( #313 ) ) ;
#411 =( LENGTH_UNIT ( ) NAMED_UNIT ( * ) SI_UNIT ( .MILLI., .METRE. ) );
ENDSEC;
END-ISO-10303-21;
