ISO-10303-21;
HEADER;
FILE_DESCRIPTION (( 'STEP AP214' ),
    '1' );
FILE_NAME ('Body.STEP',
    '2026-07-30T17:52:32',
    ( '' ),
    ( '' ),
    'SwSTEP 2.0',
    'SolidWorks 2024',
    '' );
FILE_SCHEMA (( 'AUTOMOTIVE_DESIGN' ));
ENDSEC;

DATA;
#1 = EDGE_LOOP ( 'NONE', ( #368, #92, #467, #217 ) ) ;
#2 = ADVANCED_FACE ( 'NONE', ( #29 ), #282, .F. ) ;
#3 = DIRECTION ( 'NONE',  ( 0.000000000000000000, -1.000000000000000000, -0.000000000000000000 ) ) ;
#4 = CARTESIAN_POINT ( 'NONE',  ( 4.132853198965170449, 24.03132592457992445, -89.99999999999997158 ) ) ;
#5 = ORIENTED_EDGE ( 'NONE', *, *, #36, .F. ) ;
#6 = ORIENTED_EDGE ( 'NONE', *, *, #160, .T. ) ;
#7 = PRODUCT_DEFINITION_SHAPE ( 'NONE', 'NONE',  #277 ) ;
#8 = SPHERICAL_SURFACE ( 'NONE', #363, 51.75000000000000711 ) ;
#9 = CARTESIAN_POINT ( 'NONE',  ( 19.47258144975819150, 36.45540417976280168, -89.99999999999998579 ) ) ;
#10 = VERTEX_POINT ( 'NONE', #449 ) ;
#11 = CARTESIAN_POINT ( 'NONE',  ( -42.45034324364802814, 82.85907874890018832, -90.00000000000000000 ) ) ;
#12 = DIRECTION ( 'NONE',  ( -0.9910509439004033805, -0.1334841810632238224, 0.000000000000000000 ) ) ;
#13 = PRESENTATION_LAYER_ASSIGNMENT (  '', '', ( #61 ) ) ;
#14 = EDGE_CURVE ( 'NONE', #515, #293, #323, .T. ) ;
#15 = CARTESIAN_POINT ( 'NONE',  ( 160.0000000000000000, 201.2500000000000000, 0.000000000000000000 ) ) ;
#16 = CARTESIAN_POINT ( 'NONE',  ( 17.92240071516852140, 34.48319729905049513, -90.00000000000001421 ) ) ;
#17 = CIRCLE ( 'NONE', #329, 51.75000000000000711 ) ;
#18 = EDGE_CURVE ( 'NONE', #50, #543, #512, .T. ) ;
#19 = EDGE_LOOP ( 'NONE', ( #308, #107, #433, #131, #382, #356, #63, #428, #222, #517, #399, #97 ) ) ;
#20 = PRODUCT_RELATED_PRODUCT_CATEGORY ( 'part', '', ( #309 ) ) ;
#21 = CARTESIAN_POINT ( 'NONE',  ( 0.000000000000000000, 0.000000000000000000, 0.000000000000000000 ) ) ;
#22 = ORIENTED_EDGE ( 'NONE', *, *, #119, .F. ) ;
#23 = APPLICATION_CONTEXT ( 'automotive_design' ) ;
#24 = CARTESIAN_POINT ( 'NONE',  ( -38.86088528837609601, 73.61617485584787346, -90.00000000000000000 ) ) ;
#25 = DIRECTION ( 'NONE',  ( 0.9910509439004033805, -0.1334841810632238224, 0.000000000000000000 ) ) ;
#26 = AXIS2_PLACEMENT_3D ( 'NONE', #15, #406, #275 ) ;
#27 = DIRECTION ( 'NONE',  ( 0.000000000000000000, 0.000000000000000000, -1.000000000000000000 ) ) ;
#28 = CARTESIAN_POINT ( 'NONE',  ( -2.085933975958453868, 23.58945475422224547, -90.00000000000001421 ) ) ;
#29 = FACE_OUTER_BOUND ( 'NONE', #203, .T. ) ;
#30 = AXIS2_PLACEMENT_3D ( 'NONE', #542, #78, #122 ) ;
#31 = CARTESIAN_POINT ( 'NONE',  ( 48.63206794208637973, 282.3086329619134176, 0.000000000000000000 ) ) ;
#32 =( NAMED_UNIT ( * ) SI_UNIT ( $, .STERADIAN. ) SOLID_ANGLE_UNIT ( ) );
#33 = EDGE_CURVE ( 'NONE', #240, #322, #218, .T. ) ;
#34 = CARTESIAN_POINT ( 'NONE',  ( 0.000000000000000000, 0.000000000000000000, 0.000000000000000000 ) ) ;
#35 = AXIS2_PLACEMENT_3D ( 'NONE', #331, #77, #123 ) ;
#36 = EDGE_CURVE ( 'NONE', #293, #278, #420, .T. ) ;
#37 = DIRECTION ( 'NONE',  ( -1.000000000000000000, 0.000000000000000000, -1.224646799147353207E-16 ) ) ;
#38 = ORIENTED_EDGE ( 'NONE', *, *, #231, .T. ) ;
#39 = DIRECTION ( 'NONE',  ( 0.000000000000000000, 0.000000000000000000, -1.000000000000000000 ) ) ;
#40 = DIRECTION ( 'NONE',  ( -0.000000000000000000, -1.000000000000000000, -0.000000000000000000 ) ) ;
#41 = EDGE_CURVE ( 'NONE', #10, #278, #346, .T. ) ;
#42 = AXIS2_PLACEMENT_3D ( 'NONE', #83, #139, #263 ) ;
#43 = CIRCLE ( 'NONE', #412, 113.5503240288141598 ) ;
#44 = DIRECTION ( 'NONE',  ( 0.000000000000000000, 0.000000000000000000, 1.000000000000000000 ) ) ;
#45 = FACE_OUTER_BOUND ( 'NONE', #55, .T. ) ;
#46 = ORIENTED_EDGE ( 'NONE', *, *, #369, .F. ) ;
#47 = DIRECTION ( 'NONE',  ( -0.1334841810632239612, 0.9910509439004033805, 5.329070518200752183E-15 ) ) ;
#48 = APPLICATION_PROTOCOL_DEFINITION ( 'draft international standard', 'automotive_design', 1998, #23 ) ;
#49 = CARTESIAN_POINT ( 'NONE',  ( 42.52119690333310587, 83.04828728093959000, -90.00000000000000000 ) ) ;
#50 = VERTEX_POINT ( 'NONE', #499 ) ;
#51 = VERTEX_POINT ( 'NONE', #200 ) ;
#52 = DIRECTION ( 'NONE',  ( 1.224646799147353207E-16, -0.000000000000000000, 1.000000000000000000 ) ) ;
#53 = CARTESIAN_POINT ( 'NONE',  ( 35.07617243485946545, 64.61911481720991901, -90.00000000000000000 ) ) ;
#54 = ORIENTED_EDGE ( 'NONE', *, *, #237, .F. ) ;
#55 = EDGE_LOOP ( 'NONE', ( #189, #216, #475, #67 ) ) ;
#56 = DIRECTION ( 'NONE',  ( -0.000000000000000000, -1.000000000000000000, -0.000000000000000000 ) ) ;
#57 = CARTESIAN_POINT ( 'NONE',  ( 3.316289552978821220, 23.82024165507523605, -90.00000000000001421 ) ) ;
#58 = CIRCLE ( 'NONE', #296, 51.75000000000000711 ) ;
#59 = PLANE ( 'NONE',  #340 ) ;
#60 = CARTESIAN_POINT ( 'NONE',  ( -160.0000000000000000, 201.2500000000000000, 0.000000000000000000 ) ) ;
#61 = STYLED_ITEM ( 'NONE', ( #540 ), #125 ) ;
#62 = ADVANCED_FACE ( 'NONE', ( #166 ), #461, .T. ) ;
#63 = ORIENTED_EDGE ( 'NONE', *, *, #33, .F. ) ;
#64 = CARTESIAN_POINT ( 'NONE',  ( 0.000000000000000000, -47.67648136135886716, 0.000000000000000000 ) ) ;
#65 = AXIS2_PLACEMENT_3D ( 'NONE', #248, #504, #547 ) ;
#66 = ORIENTED_EDGE ( 'NONE', *, *, #317, .T. ) ;
#67 = ORIENTED_EDGE ( 'NONE', *, *, #379, .F. ) ;
#68 = DIRECTION ( 'NONE',  ( 1.000000000000000000, 0.000000000000000000, 0.000000000000000000 ) ) ;
#69 = CARTESIAN_POINT ( 'NONE',  ( 1.102182119234567817E-14, 23.44417114155688608, -90.00000000000000000 ) ) ;
#70 = AXIS2_PLACEMENT_3D ( 'NONE', #551, #311, #396 ) ;
#71 = AXIS2_PLACEMENT_3D ( 'NONE', #64, #186, #364 ) ;
#72 = CARTESIAN_POINT ( 'NONE',  ( 0.000000000000000000, -47.67648136135886716, 0.000000000000000000 ) ) ;
#73 = CARTESIAN_POINT ( 'NONE',  ( -15.67418900485342448, 31.87409818514148796, -90.00000000000000000 ) ) ;
#74 = DIRECTION ( 'NONE',  ( -0.1334841810632239612, -0.9910509439004033805, 2.664535259100376091E-15 ) ) ;
#75 = FACE_OUTER_BOUND ( 'NONE', #472, .T. ) ;
#76 = EDGE_CURVE ( 'NONE', #10, #265, #176, .T. ) ;
#77 = DIRECTION ( 'NONE',  ( 1.224646799147353207E-16, -0.000000000000000000, 1.000000000000000000 ) ) ;
#78 = DIRECTION ( 'NONE',  ( 0.000000000000000000, -1.000000000000000000, 0.000000000000000000 ) ) ;
#79 =( NAMED_UNIT ( * ) PLANE_ANGLE_UNIT ( ) SI_UNIT ( $, .RADIAN. ) );
#80 = ORIENTED_EDGE ( 'NONE', *, *, #119, .T. ) ;
#81 = AXIS2_PLACEMENT_3D ( 'NONE', #235, #229, #366 ) ;
#82 = CARTESIAN_POINT ( 'NONE',  ( 0.000000000000000000, 161.7647808767424635, 0.000000000000000000 ) ) ;
#83 = CARTESIAN_POINT ( 'NONE',  ( 0.000000000000000000, 282.3086329619134176, 0.000000000000000000 ) ) ;
#84 = MECHANICAL_DESIGN_GEOMETRIC_PRESENTATION_REPRESENTATION (  '', ( #61 ), #510 ) ;
#85 = DIRECTION ( 'NONE',  ( -0.000000000000000000, 0.000000000000000000, -1.000000000000000000 ) ) ;
#86 = CARTESIAN_POINT ( 'NONE',  ( -160.0000000000000000, 201.2500000000000000, 0.000000000000000000 ) ) ;
#87 = CARTESIAN_POINT ( 'NONE',  ( 0.000000000000000000, 179.6996759711858545, 0.000000000000000000 ) ) ;
#88 = CARTESIAN_POINT ( 'NONE',  ( 21.89632063706772414, 39.83117302452735231, -90.00000000000000000 ) ) ;
#89 = ORIENTED_EDGE ( 'NONE', *, *, #153, .F. ) ;
#90 = PRODUCT_DEFINITION_CONTEXT ( 'detailed design', #23, 'design' ) ;
#91 = EDGE_CURVE ( 'NONE', #284, #223, #298, .T. ) ;
#92 = ORIENTED_EDGE ( 'NONE', *, *, #204, .T. ) ;
#93 = VERTEX_POINT ( 'NONE', #292 ) ;
#94 = DIRECTION ( 'NONE',  ( -1.000000000000000000, 1.072679250845561708E-15, 0.000000000000000000 ) ) ;
#95 = CARTESIAN_POINT ( 'NONE',  ( 12.12003890508922588, 28.50865681159226739, -90.00000000000000000 ) ) ;
#96 = ORIENTED_EDGE ( 'NONE', *, *, #291, .F. ) ;
#97 = ORIENTED_EDGE ( 'NONE', *, *, #36, .T. ) ;
#98 = DIRECTION ( 'NONE',  ( -1.000000000000000000, 0.000000000000000000, 1.224646799147353207E-16 ) ) ;
#99 = AXIS2_PLACEMENT_3D ( 'NONE', #171, #463, #354 ) ;
#100 = DIRECTION ( 'NONE',  ( 0.000000000000000000, 0.000000000000000000, 1.000000000000000000 ) ) ;
#101 = CARTESIAN_POINT ( 'NONE',  ( 37.68274302514145546, 70.72605994404543139, -90.00000000000000000 ) ) ;
#102 = CARTESIAN_POINT ( 'NONE',  ( -59.80697452523727264, 136.2847995368219074, -90.00000000000000000 ) ) ;
#103 = CARTESIAN_POINT ( 'NONE',  ( 59.82836865207722354, 136.3592676498385288, -89.99999999999997158 ) ) ;
#104 = CIRCLE ( 'NONE', #273, 86.25000000000000000 ) ;
#105 = CARTESIAN_POINT ( 'NONE',  ( 0.000000000000000000, 161.7647808767424635, 0.000000000000000000 ) ) ;
#106 = CARTESIAN_POINT ( 'NONE',  ( 6.527496294364095952, 24.83471547298194793, -90.00000000000000000 ) ) ;
#107 = ORIENTED_EDGE ( 'NONE', *, *, #76, .T. ) ;
#108 = DIRECTION ( 'NONE',  ( -0.1334841810632239612, 0.9910509439004033805, -8.881784197001252323E-16 ) ) ;
#109 = VERTEX_POINT ( 'NONE', #300 ) ;
#110 = ORIENTED_EDGE ( 'NONE', *, *, #33, .T. ) ;
#111 = CARTESIAN_POINT ( 'NONE',  ( -0.8359869833319665267, 23.46237330635633356, -90.00000000000000000 ) ) ;
#112 = AXIS2_PLACEMENT_3D ( 'NONE', #242, #221, #483 ) ;
#113 = B_SPLINE_CURVE_WITH_KNOTS ( 'NONE', 3,
 ( #451, #158, #111, #456, #28, #243, #534, #459, #418, #162, #327, #246, #333, #501, #205, #283, #73, #241, #165, #156, #198, #377, #539, #161, #330, #498, #193, #484, #24, #487, #11, #315, #270, #267, #481, #224, #102, #445, #184, #359 ),
 .UNSPECIFIED., .F., .F.,
 ( 4, 2, 2, 2, 2, 2, 2, 2, 2, 2, 2, 2, 2, 2, 2, 2, 2, 2, 2, 4 ),
 ( 0.7681168240588237550, 0.7693438846958728927, 0.7705709453329219194, 0.7730250666070200838, 0.7754791878811183592, 0.7779333091552165236, 0.7803874304293146880, 0.7828415517034128523, 0.7877497942516092921, 0.7926580367998056209, 0.7975662793480020607, 0.8073827644443948293, 0.8171992495407877088, 0.8270157346371804774, 0.8368322197335732460, 0.8466487048299661256, 0.8662816750227516627, 0.8859146452155371998, 0.9055476154083228479, 0.9251805856011084961 ),
 .UNSPECIFIED. ) ;
#114 = VERTEX_POINT ( 'NONE', #121 ) ;
#115 = CIRCLE ( 'NONE', #374, 12.90271782098533038 ) ;
#116 = CARTESIAN_POINT ( 'NONE',  ( -110.0829793633062508, 207.5459278113631569, 1.348127683178771679E-14 ) ) ;
#117 = CIRCLE ( 'NONE', #337, 12.90271782098533038 ) ;
#118 = CARTESIAN_POINT ( 'NONE',  ( -111.8052880851303428, 194.7586771359950717, 0.000000000000000000 ) ) ;
#119 = EDGE_CURVE ( 'NONE', #232, #137, #380, .T. ) ;
#120 = DIRECTION ( 'NONE',  ( 0.000000000000000000, 0.000000000000000000, -1.000000000000000000 ) ) ;
#121 = CARTESIAN_POINT ( 'NONE',  ( -210.3125000000000000, 201.2500000000000000, 1.232270318060831970E-14 ) ) ;
#122 = DIRECTION ( 'NONE',  ( 0.000000000000000000, 0.000000000000000000, 1.000000000000000000 ) ) ;
#123 = DIRECTION ( 'NONE',  ( 1.000000000000000000, 0.000000000000000000, -1.224646799147353207E-16 ) ) ;
#124 = ORIENTED_EDGE ( 'NONE', *, *, #153, .T. ) ;
#125 = MANIFOLD_SOLID_BREP ( 'Oto\X2\010d\X0\it kolem osy4', #541 ) ;
#126 = DIRECTION ( 'NONE',  ( -0.000000000000000000, -0.000000000000000000, -1.000000000000000000 ) ) ;
#127 = DIRECTION ( 'NONE',  ( 0.000000000000000000, 0.000000000000000000, 1.000000000000000000 ) ) ;
#128 = AXIS2_PLACEMENT_3D ( 'NONE', #458, #239, #415 ) ;
#129 = AXIS2_PLACEMENT_3D ( 'NONE', #82, #423, #39 ) ;
#130 = CARTESIAN_POINT ( 'NONE',  ( 0.000000000000000000, 0.000000000000000000, 86.25000000000000000 ) ) ;
#131 = ORIENTED_EDGE ( 'NONE', *, *, #212, .T. ) ;
#132 = AXIS2_PLACEMENT_3D ( 'NONE', #34, #168, #206 ) ;
#133 = CARTESIAN_POINT ( 'NONE',  ( 160.0000000000000000, 201.2500000000000000, 0.000000000000000000 ) ) ;
#134 = ADVANCED_FACE ( 'NONE', ( #251 ), #294, .T. ) ;
#135 = DIRECTION ( 'NONE',  ( 0.000000000000000000, 1.000000000000000000, 0.000000000000000000 ) ) ;
#136 = ORIENTED_EDGE ( 'NONE', *, *, #369, .T. ) ;
#137 = VERTEX_POINT ( 'NONE', #502 ) ;
#138 = APPLICATION_CONTEXT ( 'automotive_design' ) ;
#139 = DIRECTION ( 'NONE',  ( 0.000000000000000000, -1.000000000000000000, 0.000000000000000000 ) ) ;
#140 = CARTESIAN_POINT ( 'NONE',  ( 65.16557730927020486, 155.3978939582007399, -90.00000000000000000 ) ) ;
#141 = EDGE_LOOP ( 'NONE', ( #334, #490, #6, #452, #347, #257, #89, #480, #370, #307, #503 ) ) ;
#142 = EDGE_LOOP ( 'NONE', ( #409, #191, #260, #5 ) ) ;
#143 = DIRECTION ( 'NONE',  ( 0.000000000000000000, 0.000000000000000000, -1.000000000000000000 ) ) ;
#144 = CARTESIAN_POINT ( 'NONE',  ( 11.13609262573310232, 27.73137859233230174, -90.00000000000000000 ) ) ;
#145 = EDGE_CURVE ( 'NONE', #437, #240, #357, .T. ) ;
#146 = DIRECTION ( 'NONE',  ( 0.000000000000000000, 0.000000000000000000, 1.000000000000000000 ) ) ;
#147 = CIRCLE ( 'NONE', #210, 71.87500000000000000 ) ;
#148 = CARTESIAN_POINT ( 'NONE',  ( 38.93292313029698448, 73.79488734161581931, -89.99999999999998579 ) ) ;
#149 = CARTESIAN_POINT ( 'NONE',  ( 0.000000000000000000, 300.0000000000000000, 0.000000000000000000 ) ) ;
#150 = CARTESIAN_POINT ( 'NONE',  ( 10.12088262268288830, 26.98673087854013986, -90.00000000000000000 ) ) ;
#151 = ORIENTED_EDGE ( 'NONE', *, *, #212, .F. ) ;
#152 = DIRECTION ( 'NONE',  ( -0.9910509439004033805, -0.1334841810632238224, 0.000000000000000000 ) ) ;
#153 = EDGE_CURVE ( 'NONE', #322, #320, #538, .T. ) ;
#154 = AXIS2_PLACEMENT_3D ( 'NONE', #324, #25, #157 ) ;
#155 = ORIENTED_EDGE ( 'NONE', *, *, #466, .T. ) ;
#156 = CARTESIAN_POINT ( 'NONE',  ( -20.87309189697371892, 38.34652338243808600, -90.00000000000000000 ) ) ;
#157 = DIRECTION ( 'NONE',  ( -0.1334841810632239612, -0.9910509439004033805, 0.000000000000000000 ) ) ;
#158 = CARTESIAN_POINT ( 'NONE',  ( -0.4162517946376476097, 23.44417114155688608, -90.00000000000001421 ) ) ;
#159 = COLOUR_RGB ( '',0.7921568627450980005, 0.8196078431372548767, 0.9333333333333333481 ) ;
#160 = EDGE_CURVE ( 'NONE', #278, #450, #494, .T. ) ;
#161 = CARTESIAN_POINT ( 'NONE',  ( -29.34250064319935447, 52.51822083923701712, -90.00000000000001421 ) ) ;
#162 = CARTESIAN_POINT ( 'NONE',  ( -7.958761904281845823, 25.62082541964655036, -90.00000000000002842 ) ) ;
#163 = DIRECTION ( 'NONE',  ( 0.000000000000000000, 0.000000000000000000, 1.000000000000000000 ) ) ;
#164 = ORIENTED_EDGE ( 'NONE', *, *, #250, .F. ) ;
#165 = CARTESIAN_POINT ( 'NONE',  ( -18.88903501710503363, 35.67099789437259716, -90.00000000000000000 ) ) ;
#166 = FACE_OUTER_BOUND ( 'NONE', #281, .T. ) ;
#167 = CIRCLE ( 'NONE', #328, 86.25000000000000000 ) ;
#168 = DIRECTION ( 'NONE',  ( -0.000000000000000000, 1.000000000000000000, -0.000000000000000000 ) ) ;
#169 = AXIS2_PLACEMENT_3D ( 'NONE', #430, #552, #94 ) ;
#170 = FACE_BOUND ( 'NONE', #394, .T. ) ;
#171 = CARTESIAN_POINT ( 'NONE',  ( 160.0000000000000000, 201.2500000000000000, 0.000000000000000000 ) ) ;
#172 = EDGE_CURVE ( 'NONE', #284, #322, #274, .T. ) ;
#173 = SPHERICAL_SURFACE ( 'NONE', #314, 50.31250000000000711 ) ;
#174 = UNCERTAINTY_MEASURE_WITH_UNIT (LENGTH_MEASURE( 1.000000000000000082E-05 ), #220, 'distance_accuracy_value', 'NONE');
#175 = ORIENTED_EDGE ( 'NONE', *, *, #529, .T. ) ;
#176 = CIRCLE ( 'NONE', #532, 48.63206794208637973 ) ;
#177 = DIRECTION ( 'NONE',  ( 0.000000000000000000, 1.000000000000000000, -0.000000000000000000 ) ) ;
#178 = DIRECTION ( 'NONE',  ( 0.000000000000000000, 0.000000000000000000, -1.000000000000000000 ) ) ;
#179 = ORIENTED_EDGE ( 'NONE', *, *, #343, .T. ) ;
#180 = EDGE_LOOP ( 'NONE', ( #266, #262 ) ) ;
#181 = FACE_OUTER_BOUND ( 'NONE', #1, .T. ) ;
#182 = DIRECTION ( 'NONE',  ( 1.000000000000000000, 0.000000000000000000, 0.000000000000000000 ) ) ;
#183 = CARTESIAN_POINT ( 'NONE',  ( 18.96563353814299902, 35.79257359655859005, -90.00000000000000000 ) ) ;
#184 = CARTESIAN_POINT ( 'NONE',  ( -65.16100489464284351, 155.3808449774340374, -90.00000000000001421 ) ) ;
#185 = DIRECTION ( 'NONE',  ( -0.1334841810632239612, 0.9910509439004033805, 0.000000000000000000 ) ) ;
#186 = DIRECTION ( 'NONE',  ( 0.000000000000000000, 0.000000000000000000, 1.000000000000000000 ) ) ;
#187 = AXIS2_PLACEMENT_3D ( 'NONE', #530, #152, #108 ) ;
#188 = CARTESIAN_POINT ( 'NONE',  ( 17.38655682965847760, 33.83734111259856547, -89.99999999999998579 ) ) ;
#189 = ORIENTED_EDGE ( 'NONE', *, *, #231, .F. ) ;
#190 = DIRECTION ( 'NONE',  ( -1.224646799147353207E-16, 7.226511938027945234E-32, -1.000000000000000000 ) ) ;
#191 = ORIENTED_EDGE ( 'NONE', *, *, #495, .T. ) ;
#192 = ADVANCED_FACE ( 'NONE', ( #350 ), #199, .T. ) ;
#193 = CARTESIAN_POINT ( 'NONE',  ( -35.00863067185618860, 64.46601084360369782, -89.99999999999998579 ) ) ;
#194 = ORIENTED_EDGE ( 'NONE', *, *, #362, .F. ) ;
#195 = CARTESIAN_POINT ( 'NONE',  ( -111.8052880851303428, 194.7586771359950717, 0.000000000000000000 ) ) ;
#196 = CARTESIAN_POINT ( 'NONE',  ( -110.9309748907868709, 201.2500000000000000, -11.11658360654987199 ) ) ;
#197 = CIRCLE ( 'NONE', #536, 112.1250000000000000 ) ;
#198 = CARTESIAN_POINT ( 'NONE',  ( -21.81531600624639822, 39.71154423476132678, -89.99999999999998579 ) ) ;
#199 = CONICAL_SURFACE ( 'NONE', #521, 86.25000000000000000, 0.1586108696123296191 ) ;
#200 = CARTESIAN_POINT ( 'NONE',  ( 2.736835703567151095E-14, 351.7500000000000000, 0.000000000000000000 ) ) ;
#201 = DIRECTION ( 'NONE',  ( -0.000000000000000000, -1.000000000000000000, -0.000000000000000000 ) ) ;
#202 = AXIS2_PLACEMENT_3D ( 'NONE', #72, #372, #68 ) ;
#203 = EDGE_LOOP ( 'NONE', ( #164, #46, #395 ) ) ;
#204 = EDGE_CURVE ( 'NONE', #114, #293, #253, .T. ) ;
#205 = CARTESIAN_POINT ( 'NONE',  ( -12.68502291837636520, 28.99272598174671600, -90.00000000000000000 ) ) ;
#206 = DIRECTION ( 'NONE',  ( 0.000000000000000000, 0.000000000000000000, 1.000000000000000000 ) ) ;
#207 = CARTESIAN_POINT ( 'NONE',  ( 0.000000000000000000, 0.000000000000000000, 0.000000000000000000 ) ) ;
#208 = DIRECTION ( 'NONE',  ( 0.000000000000000000, 0.000000000000000000, -1.000000000000000000 ) ) ;
#209 = AXIS2_PLACEMENT_3D ( 'NONE', #482, #100, #182 ) ;
#210 = AXIS2_PLACEMENT_3D ( 'NONE', #21, #310, #526 ) ;
#211 = CARTESIAN_POINT ( 'NONE',  ( 0.000000000000000000, 0.000000000000000000, 86.25000000000000000 ) ) ;
#212 = EDGE_CURVE ( 'NONE', #535, #93, #115, .T. ) ;
#213 = CARTESIAN_POINT ( 'NONE',  ( 111.8052880851303428, 194.7586771359950717, 0.000000000000000000 ) ) ;
#214 = PLANE ( 'NONE',  #411 ) ;
#215 = CARTESIAN_POINT ( 'NONE',  ( 12.75227332920571222, 29.05160946663494670, -90.00000000000001421 ) ) ;
#216 = ORIENTED_EDGE ( 'NONE', *, *, #349, .T. ) ;
#217 = ORIENTED_EDGE ( 'NONE', *, *, #544, .F. ) ;
#218 = CIRCLE ( 'NONE', #279, 112.1250000000000000 ) ;
#219 = FACE_OUTER_BOUND ( 'NONE', #518, .T. ) ;
#220 =( LENGTH_UNIT ( ) NAMED_UNIT ( * ) SI_UNIT ( .MILLI., .METRE. ) );
#221 = DIRECTION ( 'NONE',  ( 0.000000000000000000, 0.000000000000000000, -1.000000000000000000 ) ) ;
#222 = ORIENTED_EDGE ( 'NONE', *, *, #343, .F. ) ;
#223 = VERTEX_POINT ( 'NONE', #393 ) ;
#224 = CARTESIAN_POINT ( 'NONE',  ( -57.95572139022610259, 129.9353389699772947, -90.00000000000002842 ) ) ;
#225 = CARTESIAN_POINT ( 'NONE',  ( 2.906206466797017551, 23.73155715692041667, -90.00000000000002842 ) ) ;
#226 = AXIS2_PLACEMENT_3D ( 'NONE', #417, #422, #384 ) ;
#227 = DIRECTION ( 'NONE',  ( 0.000000000000000000, 0.000000000000000000, 1.000000000000000000 ) ) ;
#228 = CARTESIAN_POINT ( 'NONE',  ( 111.8052880851303428, 194.7586771359950717, 0.000000000000000000 ) ) ;
#229 = DIRECTION ( 'NONE',  ( -0.000000000000000000, -1.000000000000000000, -0.000000000000000000 ) ) ;
#230 = FACE_OUTER_BOUND ( 'NONE', #141, .T. ) ;
#231 = EDGE_CURVE ( 'NONE', #352, #93, #507, .T. ) ;
#232 = VERTEX_POINT ( 'NONE', #355 ) ;
#233 = DIRECTION ( 'NONE',  ( -1.000000000000000000, 0.000000000000000000, 0.000000000000000000 ) ) ;
#234 = ORIENTED_EDGE ( 'NONE', *, *, #349, .F. ) ;
#235 = CARTESIAN_POINT ( 'NONE',  ( 0.000000000000000000, 0.000000000000000000, 0.000000000000000000 ) ) ;
#236 = CIRCLE ( 'NONE', #313, 50.31250000000000711 ) ;
#237 = EDGE_CURVE ( 'NONE', #240, #109, #506, .T. ) ;
#238 = AXIS2_PLACEMENT_3D ( 'NONE', #87, #52, #299 ) ;
#239 = DIRECTION ( 'NONE',  ( 0.000000000000000000, 0.000000000000000000, -1.000000000000000000 ) ) ;
#240 = VERTEX_POINT ( 'NONE', #288 ) ;
#241 = CARTESIAN_POINT ( 'NONE',  ( -17.85507555311612293, 34.37088481581998423, -90.00000000000001421 ) ) ;
#242 = CARTESIAN_POINT ( 'NONE',  ( 0.000000000000000000, 179.6996759711858545, 0.000000000000000000 ) ) ;
#243 = CARTESIAN_POINT ( 'NONE',  ( -3.314586703363330500, 23.80235605534814525, -90.00000000000002842 ) ) ;
#244 = CARTESIAN_POINT ( 'NONE',  ( 0.000000000000000000, 282.3086329619134176, 0.000000000000000000 ) ) ;
#245 = ADVANCED_FACE ( 'NONE', ( #75 ), #421, .F. ) ;
#246 = CARTESIAN_POINT ( 'NONE',  ( -10.06603471809679462, 26.93596998224655792, -90.00000000000002842 ) ) ;
#247 = AXIS2_PLACEMENT_3D ( 'NONE', #207, #135, #163 ) ;
#248 = CARTESIAN_POINT ( 'NONE',  ( 111.8052880851303428, 194.7586771359950717, 0.000000000000000000 ) ) ;
#249 = VERTEX_POINT ( 'NONE', #373 ) ;
#250 = EDGE_CURVE ( 'NONE', #232, #249, #104, .T. ) ;
#251 = FACE_OUTER_BOUND ( 'NONE', #19, .T. ) ;
#252 = CARTESIAN_POINT ( 'NONE',  ( 0.000000000000000000, 300.0000000000000000, 0.000000000000000000 ) ) ;
#253 = CIRCLE ( 'NONE', #358, 50.31250000000000711 ) ;
#254 = DIRECTION ( 'NONE',  ( 0.000000000000000000, -1.000000000000000000, 0.000000000000000000 ) ) ;
#255 = CIRCLE ( 'NONE', #71, 86.25000000000000000 ) ;
#256 = CARTESIAN_POINT ( 'NONE',  ( -66.87313081499925715, 161.7647808767424635, -90.00000000000000000 ) ) ;
#257 = ORIENTED_EDGE ( 'NONE', *, *, #271, .F. ) ;
#258 = DIRECTION ( 'NONE',  ( 1.934288788544557156E-17, 0.9874476445487511134, -0.1579466659196173683 ) ) ;
#259 = CARTESIAN_POINT ( 'NONE',  ( 14.59140394612421687, 30.74055703804953765, -90.00000000000001421 ) ) ;
#260 = ORIENTED_EDGE ( 'NONE', *, *, #160, .F. ) ;
#261 = ORIENTED_EDGE ( 'NONE', *, *, #237, .T. ) ;
#262 = ORIENTED_EDGE ( 'NONE', *, *, #18, .T. ) ;
#263 = DIRECTION ( 'NONE',  ( 0.000000000000000000, 0.000000000000000000, 1.000000000000000000 ) ) ;
#264 = CARTESIAN_POINT ( 'NONE',  ( 54.16751198918551324, 117.4142209229203928, -90.00000000000002842 ) ) ;
#265 = VERTEX_POINT ( 'NONE', #31 ) ;
#266 = ORIENTED_EDGE ( 'NONE', *, *, #508, .T. ) ;
#267 = CARTESIAN_POINT ( 'NONE',  ( -52.14565747252926542, 110.9664688418413903, -89.99999999999998579 ) ) ;
#268 = APPLICATION_PROTOCOL_DEFINITION ( 'draft international standard', 'automotive_design', 1998, #138 ) ;
#269 = CARTESIAN_POINT ( 'NONE',  ( 8.010697002474373107, 25.60057684095435349, -90.00000000000002842 ) ) ;
#270 = CARTESIAN_POINT ( 'NONE',  ( -48.01545201078523206, 98.41118952264062614, -90.00000000000000000 ) ) ;
#271 = EDGE_CURVE ( 'NONE', #320, #471, #197, .T. ) ;
#272 = CARTESIAN_POINT ( 'NONE',  ( 20.95631458811765313, 38.46449589541983727, -90.00000000000001421 ) ) ;
#273 = AXIS2_PLACEMENT_3D ( 'NONE', #290, #496, #37 ) ;
#274 = CIRCLE ( 'NONE', #112, 113.5503240288141598 ) ;
#275 = DIRECTION ( 'NONE',  ( 0.000000000000000000, 0.000000000000000000, -1.000000000000000000 ) ) ;
#276 = CARTESIAN_POINT ( 'NONE',  ( 4.539232064338929895, 24.15389000215266790, -90.00000000000000000 ) ) ;
#277 = PRODUCT_DEFINITION ( 'UNKNOWN', '', #524, #90 ) ;
#278 = VERTEX_POINT ( 'NONE', #116 ) ;
#279 = AXIS2_PLACEMENT_3D ( 'NONE', #410, #405, #27 ) ;
#280 = CARTESIAN_POINT ( 'NONE',  ( 0.000000000000000000, 179.6996759711858545, 0.000000000000000000 ) ) ;
#281 = EDGE_LOOP ( 'NONE', ( #389, #155, #54, #110, #124, #436 ) ) ;
#282 = SPHERICAL_SURFACE ( 'NONE', #202, 86.25000000000000000 ) ;
#283 = CARTESIAN_POINT ( 'NONE',  ( -14.52770565473661435, 30.67674999465535279, -90.00000000000001421 ) ) ;
#284 = VERTEX_POINT ( 'NONE', #492 ) ;
#285 = CIRCLE ( 'NONE', #42, 48.63206794208637973 ) ;
#286 = CIRCLE ( 'NONE', #426, 112.1250000000000000 ) ;
#287 = FACE_OUTER_BOUND ( 'NONE', #142, .T. ) ;
#288 = CARTESIAN_POINT ( 'NONE',  ( 66.87313081499924294, 161.7647808767424635, -90.00000000000000000 ) ) ;
#289 =( LENGTH_UNIT ( ) NAMED_UNIT ( * ) SI_UNIT ( .MILLI., .METRE. ) );
#290 = CARTESIAN_POINT ( 'NONE',  ( 0.000000000000000000, -47.67648136135886716, 0.000000000000000000 ) ) ;
#291 = EDGE_CURVE ( 'NONE', #51, #10, #58, .T. ) ;
#292 = CARTESIAN_POINT ( 'NONE',  ( 110.9309748907868709, 201.2500000000000000, -11.11658360654987199 ) ) ;
#293 = VERTEX_POINT ( 'NONE', #196 ) ;
#294 = SPHERICAL_SURFACE ( 'NONE', #226, 113.5503240288141598 ) ;
#295 = ADVANCED_FACE ( 'NONE', ( #287 ), #537, .T. ) ;
#296 = AXIS2_PLACEMENT_3D ( 'NONE', #335, #383, #325 ) ;
#297 = FACE_OUTER_BOUND ( 'NONE', #304, .T. ) ;
#298 = CIRCLE ( 'NONE', #65, 12.90271782098533038 ) ;
#299 = DIRECTION ( 'NONE',  ( 1.000000000000000000, 0.000000000000000000, -1.224646799147353207E-16 ) ) ;
#300 = CARTESIAN_POINT ( 'NONE',  ( 1.102182119234567817E-14, 23.44417114155688608, -90.00000000000000000 ) ) ;
#301 = CARTESIAN_POINT ( 'NONE',  ( 160.0000000000000000, 201.2500000000000000, 0.000000000000000000 ) ) ;
#302 = EDGE_LOOP ( 'NONE', ( #491, #351, #175, #414, #179, #342 ) ) ;
#303 = UNCERTAINTY_MEASURE_WITH_UNIT (LENGTH_MEASURE( 1.000000000000000082E-05 ), #289, 'distance_accuracy_value', 'NONE');
#304 = EDGE_LOOP ( 'NONE', ( #514, #398, #326 ) ) ;
#305 = DIRECTION ( 'NONE',  ( 0.000000000000000000, 0.000000000000000000, 1.000000000000000000 ) ) ;
#306 = CARTESIAN_POINT ( 'NONE',  ( 63.41921119199790979, 149.0422293178099267, -90.00000000000001421 ) ) ;
#307 = ORIENTED_EDGE ( 'NONE', *, *, #438, .T. ) ;
#308 = ORIENTED_EDGE ( 'NONE', *, *, #41, .F. ) ;
#309 = PRODUCT ( 'Body', 'Body', '', ( #392 ) ) ;
#310 = DIRECTION ( 'NONE',  ( -0.000000000000000000, 1.000000000000000000, -0.000000000000000000 ) ) ;
#311 = DIRECTION ( 'NONE',  ( 0.9910509439004033805, -0.1334841810632238224, 0.000000000000000000 ) ) ;
#312 = CARTESIAN_POINT ( 'NONE',  ( 9.772715310071477646, 26.74733199611709722, -90.00000000000002842 ) ) ;
#313 = AXIS2_PLACEMENT_3D ( 'NONE', #86, #177, #127 ) ;
#314 = AXIS2_PLACEMENT_3D ( 'NONE', #388, #254, #44 ) ;
#315 = CARTESIAN_POINT ( 'NONE',  ( -45.86481717586074325, 92.16373379725543202, -90.00000000000001421 ) ) ;
#316 = CARTESIAN_POINT ( 'NONE',  ( 33.72481368875697427, 61.59228611811153797, -90.00000000000000000 ) ) ;
#317 = EDGE_CURVE ( 'NONE', #109, #437, #113, .T. ) ;
#318 = DIRECTION ( 'NONE',  ( 1.000000000000000000, 0.000000000000000000, 0.000000000000000000 ) ) ;
#319 = CARTESIAN_POINT ( 'NONE',  ( 52.19562582366832970, 111.1237631472418599, -90.00000000000000000 ) ) ;
#320 = VERTEX_POINT ( 'NONE', #522 ) ;
#321 = DIRECTION ( 'NONE',  ( 0.000000000000000000, 0.000000000000000000, -1.000000000000000000 ) ) ;
#322 = VERTEX_POINT ( 'NONE', #441 ) ;
#323 = CIRCLE ( 'NONE', #154, 12.90271782098533038 ) ;
#324 = CARTESIAN_POINT ( 'NONE',  ( -111.8052880851303428, 194.7586771359950717, 0.000000000000000000 ) ) ;
#325 = DIRECTION ( 'NONE',  ( 1.000000000000000000, 0.000000000000000000, 0.000000000000000000 ) ) ;
#326 = ORIENTED_EDGE ( 'NONE', *, *, #500, .F. ) ;
#327 = CARTESIAN_POINT ( 'NONE',  ( -8.675939818161960915, 26.03595571973916734, -90.00000000000000000 ) ) ;
#328 = AXIS2_PLACEMENT_3D ( 'NONE', #424, #40, #208 ) ;
#329 = AXIS2_PLACEMENT_3D ( 'NONE', #149, #190, #98 ) ;
#330 = CARTESIAN_POINT ( 'NONE',  ( -30.82330621021417727, 55.46917777273917238, -89.99999999999998579 ) ) ;
#331 = CARTESIAN_POINT ( 'NONE',  ( 0.000000000000000000, 179.6996759711858545, 0.000000000000000000 ) ) ;
#332 = ADVANCED_FACE ( 'NONE', ( #400 ), #59, .F. ) ;
#333 = CARTESIAN_POINT ( 'NONE',  ( -10.73890736952532876, 27.42092381446953908, -90.00000000000000000 ) ) ;
#334 = ORIENTED_EDGE ( 'NONE', *, *, #500, .T. ) ;
#335 = CARTESIAN_POINT ( 'NONE',  ( 0.000000000000000000, 300.0000000000000000, 0.000000000000000000 ) ) ;
#336 = FILL_AREA_STYLE_COLOUR ( '', #159 ) ;
#337 = AXIS2_PLACEMENT_3D ( 'NONE', #213, #505, #47 ) ;
#338 = ADVANCED_BREP_SHAPE_REPRESENTATION ( 'Body', ( #125, #209 ), #453 ) ;
#339 = ADVANCED_FACE ( 'NONE', ( #230 ), #476, .T. ) ;
#340 = AXIS2_PLACEMENT_3D ( 'NONE', #408, #227, #367 ) ;
#341 = SPHERICAL_SURFACE ( 'NONE', #169, 51.75000000000000711 ) ;
#342 = ORIENTED_EDGE ( 'NONE', *, *, #317, .F. ) ;
#343 = EDGE_CURVE ( 'NONE', #471, #437, #286, .T. ) ;
#344 = FACE_OUTER_BOUND ( 'NONE', #407, .T. ) ;
#345 = FILL_AREA_STYLE ('',( #336 ) ) ;
#346 = CIRCLE ( 'NONE', #35, 113.5503240288141598 ) ;
#347 = ORIENTED_EDGE ( 'NONE', *, *, #464, .T. ) ;
#348 = LINE ( 'NONE', #465, #549 ) ;
#349 = EDGE_CURVE ( 'NONE', #352, #223, #454, .T. ) ;
#350 = FACE_OUTER_BOUND ( 'NONE', #302, .T. ) ;
#351 = ORIENTED_EDGE ( 'NONE', *, *, #508, .F. ) ;
#352 = VERTEX_POINT ( 'NONE', #439 ) ;
#353 = ORIENTED_EDGE ( 'NONE', *, *, #145, .T. ) ;
#354 = DIRECTION ( 'NONE',  ( 0.000000000000000000, 0.000000000000000000, 1.000000000000000000 ) ) ;
#355 = CARTESIAN_POINT ( 'NONE',  ( -71.87500000000000000, 0.000000000000000000, -8.802148868871601395E-15 ) ) ;
#356 = ORIENTED_EDGE ( 'NONE', *, *, #172, .T. ) ;
#357 = CIRCLE ( 'NONE', #376, 69.23637835017578368 ) ;
#358 = AXIS2_PLACEMENT_3D ( 'NONE', #60, #432, #178 ) ;
#359 = CARTESIAN_POINT ( 'NONE',  ( -66.87313081499925715, 161.7647808767424635, -90.00000000000000000 ) ) ;
#360 = CARTESIAN_POINT ( 'NONE',  ( 26.26893761433325380, 46.84630466262278503, -90.00000000000000000 ) ) ;
#361 = CIRCLE ( 'NONE', #70, 12.90271782098533038 ) ;
#362 = EDGE_CURVE ( 'NONE', #137, #249, #255, .T. ) ;
#363 = AXIS2_PLACEMENT_3D ( 'NONE', #252, #85, #427 ) ;
#364 = DIRECTION ( 'NONE',  ( 1.000000000000000000, 0.000000000000000000, 0.000000000000000000 ) ) ;
#365 = CARTESIAN_POINT ( 'NONE',  ( 10.80215532858344396, 27.47850140513419959, -90.00000000000001421 ) ) ;
#366 = DIRECTION ( 'NONE',  ( 0.000000000000000000, 0.000000000000000000, -1.000000000000000000 ) ) ;
#367 = DIRECTION ( 'NONE',  ( 1.000000000000000000, 0.000000000000000000, -0.000000000000000000 ) ) ;
#368 = ORIENTED_EDGE ( 'NONE', *, *, #495, .F. ) ;
#369 = EDGE_CURVE ( 'NONE', #137, #232, #147, .T. ) ;
#370 = ORIENTED_EDGE ( 'NONE', *, *, #91, .T. ) ;
#371 = CARTESIAN_POINT ( 'NONE',  ( 1.670399162834913964, 23.51752021973153362, -90.00000000000001421 ) ) ;
#372 = DIRECTION ( 'NONE',  ( 0.000000000000000000, 0.000000000000000000, -1.000000000000000000 ) ) ;
#373 = CARTESIAN_POINT ( 'NONE',  ( 5.281289321322960364E-15, 38.57351863864112573, 0.000000000000000000 ) ) ;
#374 = AXIS2_PLACEMENT_3D ( 'NONE', #228, #12, #185 ) ;
#375 = EDGE_CURVE ( 'NONE', #51, #265, #17, .T. ) ;
#376 = AXIS2_PLACEMENT_3D ( 'NONE', #546, #126, #462 ) ;
#377 = CARTESIAN_POINT ( 'NONE',  ( -24.53105493433941220, 43.86732108268905250, -90.00000000000001421 ) ) ;
#378 = SURFACE_STYLE_USAGE ( .BOTH. , #381 ) ;
#379 = EDGE_CURVE ( 'NONE', #93, #284, #525, .T. ) ;
#380 = CIRCLE ( 'NONE', #132, 71.87500000000000000 ) ;
#381 = SURFACE_SIDE_STYLE ('',( #469 ) ) ;
#382 = ORIENTED_EDGE ( 'NONE', *, *, #379, .T. ) ;
#383 = DIRECTION ( 'NONE',  ( -0.000000000000000000, 0.000000000000000000, 1.000000000000000000 ) ) ;
#384 = DIRECTION ( 'NONE',  ( 1.000000000000000000, 0.000000000000000000, 0.000000000000000000 ) ) ;
#385 = FACE_OUTER_BOUND ( 'NONE', #180, .T. ) ;
#386 = AXIS2_PLACEMENT_3D ( 'NONE', #403, #146, #318 ) ;
#387 = CARTESIAN_POINT ( 'NONE',  ( 110.0829793633062508, 207.5459278113631569, 0.000000000000000000 ) ) ;
#388 = CARTESIAN_POINT ( 'NONE',  ( -160.0000000000000000, 201.2500000000000000, 0.000000000000000000 ) ) ;
#389 = ORIENTED_EDGE ( 'NONE', *, *, #18, .F. ) ;
#390 = EDGE_CURVE ( 'NONE', #265, #535, #43, .T. ) ;
#391 = CARTESIAN_POINT ( 'NONE',  ( 86.25000000000000000, 0.000000000000000000, 0.000000000000000000 ) ) ;
#392 = PRODUCT_CONTEXT ( 'NONE', #138, 'mechanical' ) ;
#393 = CARTESIAN_POINT ( 'NONE',  ( 110.9309748907868709, 201.2500000000000000, 11.11658360654987199 ) ) ;
#394 = EDGE_LOOP ( 'NONE', ( #136, #80 ) ) ;
#395 = ORIENTED_EDGE ( 'NONE', *, *, #362, .T. ) ;
#396 = DIRECTION ( 'NONE',  ( -0.1334841810632239612, -0.9910509439004033805, -4.440892098500626951E-15 ) ) ;
#397 = CARTESIAN_POINT ( 'NONE',  ( 0.000000000000000000, 0.000000000000000000, 0.000000000000000000 ) ) ;
#398 = ORIENTED_EDGE ( 'NONE', *, *, #291, .T. ) ;
#399 = ORIENTED_EDGE ( 'NONE', *, *, #14, .T. ) ;
#400 = FACE_OUTER_BOUND ( 'NONE', #533, .T. ) ;
#401 = DIRECTION ( 'NONE',  ( 0.000000000000000000, 0.000000000000000000, 1.000000000000000000 ) ) ;
#402 = ADVANCED_FACE ( 'NONE', ( #181 ), #173, .T. ) ;
#403 = CARTESIAN_POINT ( 'NONE',  ( 0.000000000000000000, 179.6996759711858545, 0.000000000000000000 ) ) ;
#404 = CARTESIAN_POINT ( 'NONE',  ( 45.93136292426214595, 92.35318529409858002, -90.00000000000000000 ) ) ;
#405 = DIRECTION ( 'NONE',  ( -0.000000000000000000, -1.000000000000000000, -0.000000000000000000 ) ) ;
#406 = DIRECTION ( 'NONE',  ( -0.000000000000000000, -1.000000000000000000, 0.000000000000000000 ) ) ;
#407 = EDGE_LOOP ( 'NONE', ( #234, #38, #151, #486 ) ) ;
#408 = CARTESIAN_POINT ( 'NONE',  ( 0.000000000000000000, 0.000000000000000000, -90.00000000000000000 ) ) ;
#409 = ORIENTED_EDGE ( 'NONE', *, *, #204, .F. ) ;
#410 = CARTESIAN_POINT ( 'NONE',  ( 0.000000000000000000, 161.7647808767424635, 0.000000000000000000 ) ) ;
#411 = AXIS2_PLACEMENT_3D ( 'NONE', #391, #3, #143 ) ;
#412 = AXIS2_PLACEMENT_3D ( 'NONE', #280, #447, #233 ) ;
#413 = CARTESIAN_POINT ( 'NONE',  ( 0.000000000000000000, 161.7647808767424635, 0.000000000000000000 ) ) ;
#414 = ORIENTED_EDGE ( 'NONE', *, *, #271, .T. ) ;
#415 = DIRECTION ( 'NONE',  ( 1.000000000000000000, 0.000000000000000000, 0.000000000000000000 ) ) ;
#416 = ADVANCED_FACE ( 'NONE', ( #297 ), #8, .T. ) ;
#417 = CARTESIAN_POINT ( 'NONE',  ( 0.000000000000000000, 179.6996759711858545, 0.000000000000000000 ) ) ;
#418 = CARTESIAN_POINT ( 'NONE',  ( -6.469592936624612101, 24.87694839610621145, -90.00000000000000000 ) ) ;
#419 = DIRECTION ( 'NONE',  ( 0.000000000000000000, -1.000000000000000000, 0.000000000000000000 ) ) ;
#420 = CIRCLE ( 'NONE', #489, 12.90271782098533038 ) ;
#421 = SPHERICAL_SURFACE ( 'NONE', #128, 86.25000000000000000 ) ;
#422 = DIRECTION ( 'NONE',  ( 0.000000000000000000, 0.000000000000000000, 1.000000000000000000 ) ) ;
#423 = DIRECTION ( 'NONE',  ( -0.000000000000000000, -1.000000000000000000, -0.000000000000000000 ) ) ;
#424 = CARTESIAN_POINT ( 'NONE',  ( 0.000000000000000000, 0.000000000000000000, 0.000000000000000000 ) ) ;
#425 = CARTESIAN_POINT ( 'NONE',  ( -113.5275968069544490, 181.9714264606269865, 1.390312080445280352E-14 ) ) ;
#426 = AXIS2_PLACEMENT_3D ( 'NONE', #105, #56, #321 ) ;
#427 = DIRECTION ( 'NONE',  ( -1.000000000000000000, 1.072679250845561708E-15, 0.000000000000000000 ) ) ;
#428 = ORIENTED_EDGE ( 'NONE', *, *, #145, .F. ) ;
#429 = ADVANCED_FACE ( 'NONE', ( #45 ), #468, .T. ) ;
#430 = CARTESIAN_POINT ( 'NONE',  ( 0.000000000000000000, 300.0000000000000000, 0.000000000000000000 ) ) ;
#431 =( NAMED_UNIT ( * ) SI_UNIT ( $, .STERADIAN. ) SOLID_ANGLE_UNIT ( ) );
#432 = DIRECTION ( 'NONE',  ( 2.249565377136128827E-32, -1.000000000000000000, 1.224646799147353207E-16 ) ) ;
#433 = ORIENTED_EDGE ( 'NONE', *, *, #390, .T. ) ;
#434 = DIRECTION ( 'NONE',  ( 0.000000000000000000, 0.9874476445487511134, 0.1579466659196173683 ) ) ;
#435 = DIRECTION ( 'NONE',  ( 0.000000000000000000, 0.000000000000000000, 1.000000000000000000 ) ) ;
#436 = ORIENTED_EDGE ( 'NONE', *, *, #529, .F. ) ;
#437 = VERTEX_POINT ( 'NONE', #256 ) ;
#438 = EDGE_CURVE ( 'NONE', #223, #535, #117, .T. ) ;
#439 = CARTESIAN_POINT ( 'NONE',  ( 210.3125000000000000, 201.2500000000000000, 1.232270318060831970E-14 ) ) ;
#440 = CARTESIAN_POINT ( 'NONE',  ( 41.35222650997962290, 79.95597890803230712, -90.00000000000000000 ) ) ;
#441 = CARTESIAN_POINT ( 'NONE',  ( 112.1249999999999858, 161.7647808767424635, 0.000000000000000000 ) ) ;
#442 = AXIS2_PLACEMENT_3D ( 'NONE', #301, #516, #435 ) ;
#443 = CARTESIAN_POINT ( 'NONE',  ( 66.87313081499924294, 161.7647808767424635, -90.00000000000000000 ) ) ;
#444 = AXIS2_PLACEMENT_3D ( 'NONE', #118, #457, #74 ) ;
#445 = CARTESIAN_POINT ( 'NONE',  ( -63.40954117150529612, 149.0069873615773872, -90.00000000000004263 ) ) ;
#446 = ORIENTED_EDGE ( 'NONE', *, *, #375, .T. ) ;
#447 = DIRECTION ( 'NONE',  ( 0.000000000000000000, 0.000000000000000000, -1.000000000000000000 ) ) ;
#448 = ADVANCED_FACE ( 'NONE', ( #344 ), #473, .T. ) ;
#449 = CARTESIAN_POINT ( 'NONE',  ( -48.63206794208637973, 282.3086329619134176, 9.843531434779483173E-15 ) ) ;
#450 = VERTEX_POINT ( 'NONE', #511 ) ;
#451 = CARTESIAN_POINT ( 'NONE',  ( 1.102182119234567817E-14, 23.44417114155688608, -90.00000000000000000 ) ) ;
#452 = ORIENTED_EDGE ( 'NONE', *, *, #544, .T. ) ;
#453 =( GEOMETRIC_REPRESENTATION_CONTEXT ( 3 ) GLOBAL_UNCERTAINTY_ASSIGNED_CONTEXT ( ( #174 ) ) GLOBAL_UNIT_ASSIGNED_CONTEXT ( ( #220, #477, #431 ) ) REPRESENTATION_CONTEXT ( 'NONE', 'WORKASPACE' ) );
#454 = CIRCLE ( 'NONE', #26, 50.31250000000000711 ) ;
#455 = ADVANCED_FACE ( 'NONE', ( #219 ), #341, .T. ) ;
#456 = CARTESIAN_POINT ( 'NONE',  ( -1.672232216933706050, 23.53521635167914638, -90.00000000000000000 ) ) ;
#457 = DIRECTION ( 'NONE',  ( 0.9910509439004033805, -0.1334841810632238224, 0.000000000000000000 ) ) ;
#458 = CARTESIAN_POINT ( 'NONE',  ( 0.000000000000000000, -47.67648136135886716, 0.000000000000000000 ) ) ;
#459 = CARTESIAN_POINT ( 'NONE',  ( -5.692736827108937803, 24.54716937837188340, -90.00000000000002842 ) ) ;
#460 = ORIENTED_EDGE ( 'NONE', *, *, #250, .T. ) ;
#461 = CONICAL_SURFACE ( 'NONE', #247, 86.25000000000000000, 0.1586108696123296191 ) ;
#462 = DIRECTION ( 'NONE',  ( 1.000000000000000000, 0.000000000000000000, 0.000000000000000000 ) ) ;
#463 = DIRECTION ( 'NONE',  ( 0.000000000000000000, 1.000000000000000000, -0.000000000000000000 ) ) ;
#464 = EDGE_CURVE ( 'NONE', #515, #471, #479, .T. ) ;
#465 = CARTESIAN_POINT ( 'NONE',  ( 1.056257864264592073E-14, 0.000000000000000000, -86.25000000000000000 ) ) ;
#466 = EDGE_CURVE ( 'NONE', #50, #109, #348, .T. ) ;
#467 = ORIENTED_EDGE ( 'NONE', *, *, #14, .F. ) ;
#468 = SPHERICAL_SURFACE ( 'NONE', #497, 50.31250000000000711 ) ;
#469 = SURFACE_STYLE_FILL_AREA ( #345 ) ;
#470 = CARTESIAN_POINT ( 'NONE',  ( 24.60657231282453594, 43.99213540707722814, -89.99999999999998579 ) ) ;
#471 = VERTEX_POINT ( 'NONE', #519 ) ;
#472 = EDGE_LOOP ( 'NONE', ( #22, #460, #194 ) ) ;
#473 = SPHERICAL_SURFACE ( 'NONE', #99, 50.31250000000000711 ) ;
#474 = CARTESIAN_POINT ( 'NONE',  ( 15.74141779231337956, 31.94592107309514972, -90.00000000000001421 ) ) ;
#475 = ORIENTED_EDGE ( 'NONE', *, *, #91, .F. ) ;
#476 = SPHERICAL_SURFACE ( 'NONE', #386, 113.5503240288141598 ) ;
#477 =( NAMED_UNIT ( * ) PLANE_ANGLE_UNIT ( ) SI_UNIT ( $, .RADIAN. ) );
#478 = CARTESIAN_POINT ( 'NONE',  ( 30.89290676798390578, 55.61038285512885437, -90.00000000000000000 ) ) ;
#479 = CIRCLE ( 'NONE', #238, 113.5503240288141598 ) ;
#480 = ORIENTED_EDGE ( 'NONE', *, *, #172, .F. ) ;
#481 = CARTESIAN_POINT ( 'NONE',  ( -54.12438878947592968, 117.2745886247226963, -89.99999999999998579 ) ) ;
#482 = CARTESIAN_POINT ( 'NONE',  ( 0.000000000000000000, 0.000000000000000000, 0.000000000000000000 ) ) ;
#483 = DIRECTION ( 'NONE',  ( -1.000000000000000000, 0.000000000000000000, 0.000000000000000000 ) ) ;
#484 = CARTESIAN_POINT ( 'NONE',  ( -37.61135280294914196, 70.55392678730981970, -90.00000000000001421 ) ) ;
#485 = DIRECTION ( 'NONE',  ( 0.000000000000000000, 1.000000000000000000, 0.000000000000000000 ) ) ;
#486 = ORIENTED_EDGE ( 'NONE', *, *, #438, .F. ) ;
#487 = CARTESIAN_POINT ( 'NONE',  ( -41.28045153136910983, 79.76872577303880973, -90.00000000000001421 ) ) ;
#488 = ADVANCED_FACE ( 'NONE', ( #170, #385 ), #214, .T. ) ;
#489 = AXIS2_PLACEMENT_3D ( 'NONE', #195, #493, #528 ) ;
#490 = ORIENTED_EDGE ( 'NONE', *, *, #41, .T. ) ;
#491 = ORIENTED_EDGE ( 'NONE', *, *, #466, .F. ) ;
#492 = CARTESIAN_POINT ( 'NONE',  ( 113.5275968069544490, 181.9714264606269865, 0.000000000000000000 ) ) ;
#493 = DIRECTION ( 'NONE',  ( 0.9910509439004033805, -0.1334841810632238224, 0.000000000000000000 ) ) ;
#494 = CIRCLE ( 'NONE', #444, 12.90271782098533038 ) ;
#495 = EDGE_CURVE ( 'NONE', #114, #450, #236, .T. ) ;
#496 = DIRECTION ( 'NONE',  ( 1.224646799147353207E-16, 0.000000000000000000, -1.000000000000000000 ) ) ;
#497 = AXIS2_PLACEMENT_3D ( 'NONE', #133, #550, #305 ) ;
#498 = CARTESIAN_POINT ( 'NONE',  ( -33.65609625093674850, 61.44159593655523821, -90.00000000000001421 ) ) ;
#499 = CARTESIAN_POINT ( 'NONE',  ( 1.214696543904280986E-14, 0.000000000000000000, -86.25000000000000000 ) ) ;
#500 = EDGE_CURVE ( 'NONE', #265, #10, #285, .T. ) ;
#501 = CARTESIAN_POINT ( 'NONE',  ( -12.04792093853946611, 28.44871939687995877, -90.00000000000002842 ) ) ;
#502 = CARTESIAN_POINT ( 'NONE',  ( 71.87500000000000000, 0.000000000000000000, 0.000000000000000000 ) ) ;
#503 = ORIENTED_EDGE ( 'NONE', *, *, #390, .F. ) ;
#504 = DIRECTION ( 'NONE',  ( -0.9910509439004033805, -0.1334841810632238224, 0.000000000000000000 ) ) ;
#505 = DIRECTION ( 'NONE',  ( -0.9910509439004033805, -0.1334841810632238224, 0.000000000000000000 ) ) ;
#506 = B_SPLINE_CURVE_WITH_KNOTS ( 'NONE', 3,
 ( #443, #140, #306, #103, #520, #264, #319, #523, #404, #49, #440, #148, #101, #53, #316, #478, #527, #360, #470, #88, #272, #9, #183, #16, #188, #474, #259, #215, #95, #144, #365, #150, #312, #269, #106, #276, #4, #57, #225, #371, #545, #69 ),
 .UNSPECIFIED., .F., .F.,
 ( 4, 2, 2, 2, 2, 2, 2, 2, 2, 2, 2, 2, 2, 2, 2, 2, 2, 2, 2, 2, 4 ),
 ( 0.6098051004849409651, 0.6295940659316763277, 0.6493830313784116903, 0.6691719968251470529, 0.6889609622718824156, 0.6988554449952500969, 0.7087499277186177782, 0.7186444104419854595, 0.7285388931653531408, 0.7384333758887207111, 0.7433806172504046073, 0.7458542379312464998, 0.7483278586120883924, 0.7532750999737722886, 0.7557487206546141811, 0.7569855309950351829, 0.7582223413354560737, 0.7631695826971399699, 0.7644063930375608606, 0.7656432033779818624, 0.7681168240588237550 ),
 .UNSPECIFIED. ) ;
#507 = CIRCLE ( 'NONE', #442, 50.31250000000000711 ) ;
#508 = EDGE_CURVE ( 'NONE', #543, #50, #167, .T. ) ;
#509 = LINE ( 'NONE', #211, #548 ) ;
#510 =( GEOMETRIC_REPRESENTATION_CONTEXT ( 3 ) GLOBAL_UNCERTAINTY_ASSIGNED_CONTEXT ( ( #303 ) ) GLOBAL_UNIT_ASSIGNED_CONTEXT ( ( #289, #79, #32 ) ) REPRESENTATION_CONTEXT ( 'NONE', 'WORKASPACE' ) );
#511 = CARTESIAN_POINT ( 'NONE',  ( -110.9309748907868709, 201.2500000000000000, 11.11658360654987199 ) ) ;
#512 = CIRCLE ( 'NONE', #81, 86.25000000000000000 ) ;
#513 = DIRECTION ( 'NONE',  ( 0.000000000000000000, 0.000000000000000000, 1.000000000000000000 ) ) ;
#514 = ORIENTED_EDGE ( 'NONE', *, *, #375, .F. ) ;
#515 = VERTEX_POINT ( 'NONE', #425 ) ;
#516 = DIRECTION ( 'NONE',  ( -2.249565377136128827E-32, 1.000000000000000000, 1.224646799147353207E-16 ) ) ;
#517 = ORIENTED_EDGE ( 'NONE', *, *, #464, .F. ) ;
#518 = EDGE_LOOP ( 'NONE', ( #96, #446, #531 ) ) ;
#519 = CARTESIAN_POINT ( 'NONE',  ( -112.1249999999999858, 161.7647808767424635, 1.373135223543969742E-14 ) ) ;
#520 = CARTESIAN_POINT ( 'NONE',  ( 57.98406377364765518, 130.0319210219639956, -89.99999999999997158 ) ) ;
#521 = AXIS2_PLACEMENT_3D ( 'NONE', #397, #485, #401 ) ;
#522 = CARTESIAN_POINT ( 'NONE',  ( 0.000000000000000000, 161.7647808767424635, 112.1250000000000000 ) ) ;
#523 = CARTESIAN_POINT ( 'NONE',  ( 48.07711120990127540, 98.59337257793563936, -90.00000000000001421 ) ) ;
#524 = PRODUCT_DEFINITION_FORMATION_WITH_SPECIFIED_SOURCE ( 'ANY', '', #309, .NOT_KNOWN. ) ;
#525 = CIRCLE ( 'NONE', #187, 12.90271782098533038 ) ;
#526 = DIRECTION ( 'NONE',  ( 0.000000000000000000, 0.000000000000000000, 1.000000000000000000 ) ) ;
#527 = CARTESIAN_POINT ( 'NONE',  ( 29.41290076807136700, 52.65498657074188316, -90.00000000000000000 ) ) ;
#528 = DIRECTION ( 'NONE',  ( -0.1334841810632239612, -0.9910509439004033805, 1.776356839400250465E-15 ) ) ;
#529 = EDGE_CURVE ( 'NONE', #543, #320, #509, .T. ) ;
#530 = CARTESIAN_POINT ( 'NONE',  ( 111.8052880851303428, 194.7586771359950717, 0.000000000000000000 ) ) ;
#531 = ORIENTED_EDGE ( 'NONE', *, *, #76, .F. ) ;
#532 = AXIS2_PLACEMENT_3D ( 'NONE', #244, #419, #513 ) ;
#533 = EDGE_LOOP ( 'NONE', ( #261, #66, #353 ) ) ;
#534 = CARTESIAN_POINT ( 'NONE',  ( -4.117105874298899515, 24.01112141209720363, -90.00000000000000000 ) ) ;
#535 = VERTEX_POINT ( 'NONE', #387 ) ;
#536 = AXIS2_PLACEMENT_3D ( 'NONE', #413, #201, #120 ) ;
#537 = SPHERICAL_SURFACE ( 'NONE', #30, 50.31250000000000711 ) ;
#538 = CIRCLE ( 'NONE', #129, 112.1250000000000000 ) ;
#539 = CARTESIAN_POINT ( 'NONE',  ( -26.19555751367158081, 46.71773991061134268, -89.99999999999998579 ) ) ;
#540 = PRESENTATION_STYLE_ASSIGNMENT (( #378 ) ) ;
#541 = CLOSED_SHELL ( 'NONE', ( #455, #448, #402, #245, #62, #339, #134, #192, #488, #2, #332, #295, #429, #416 ) ) ;
#542 = CARTESIAN_POINT ( 'NONE',  ( -160.0000000000000000, 201.2500000000000000, 0.000000000000000000 ) ) ;
#543 = VERTEX_POINT ( 'NONE', #130 ) ;
#544 = EDGE_CURVE ( 'NONE', #450, #515, #361, .T. ) ;
#545 = CARTESIAN_POINT ( 'NONE',  ( 0.8391183096946441822, 23.44417114155688964, -90.00000000000001421 ) ) ;
#546 = CARTESIAN_POINT ( 'NONE',  ( 0.000000000000000000, 179.6996759711858545, -90.00000000000000000 ) ) ;
#547 = DIRECTION ( 'NONE',  ( -0.1334841810632239612, 0.9910509439004033805, -1.776356839400250465E-15 ) ) ;
#548 = VECTOR ( 'NONE', #434, 1000.000000000000227 ) ;
#549 = VECTOR ( 'NONE', #258, 1000.000000000000227 ) ;
#550 = DIRECTION ( 'NONE',  ( 0.000000000000000000, 1.000000000000000000, -0.000000000000000000 ) ) ;
#551 = CARTESIAN_POINT ( 'NONE',  ( -111.8052880851303428, 194.7586771359950717, 0.000000000000000000 ) ) ;
#552 = DIRECTION ( 'NONE',  ( -0.000000000000000000, 0.000000000000000000, -1.000000000000000000 ) ) ;
#553 = SHAPE_DEFINITION_REPRESENTATION ( #7, #338 ) ;
ENDSEC;
END-ISO-10303-21;
