ISO-10303-21;
HEADER;
FILE_DESCRIPTION (( 'STEP AP214' ),
    '1' );
FILE_NAME ('Femur.STEP',
    '2026-07-30T17:54:24',
    ( '' ),
    ( '' ),
    'SwSTEP 2.0',
    'SolidWorks 2024',
    '' );
FILE_SCHEMA (( 'AUTOMOTIVE_DESIGN' ));
ENDSEC;

DATA;
#1 = CIRCLE ( 'NONE', #251, 907.8576194181874826 ) ;
#2 = EDGE_CURVE ( 'NONE', #108, #263, #150, .T. ) ;
#3 = DIRECTION ( 'NONE',  ( 0.7071067811865462405, 0.7071067811865487940, 0.000000000000000000 ) ) ;
#4 = AXIS2_PLACEMENT_3D ( 'NONE', #245, #237, #212 ) ;
#5 = ORIENTED_EDGE ( 'NONE', *, *, #373, .F. ) ;
#6 = CARTESIAN_POINT ( 'NONE',  ( 30.63427395418545984, 16.25927395418568722, -21.68285873924051899 ) ) ;
#7 = VERTEX_POINT ( 'NONE', #149 ) ;
#8 = CARTESIAN_POINT ( 'NONE',  ( 24.03425682180376910, 9.659256821804000026, -28.70185302797843718 ) ) ;
#9 = VERTEX_POINT ( 'NONE', #356 ) ;
#10 = CARTESIAN_POINT ( 'NONE',  ( 0.000000000000000000, 237.3298757900007843, 194.9879132927544276 ) ) ;
#11 = ORIENTED_EDGE ( 'NONE', *, *, #384, .F. ) ;
#12 = AXIS2_PLACEMENT_3D ( 'NONE', #213, #87, #177 ) ;
#13 = DIRECTION ( 'NONE',  ( -0.000000000000000000, -1.000000000000000000, -0.000000000000000000 ) ) ;
#14 = ORIENTED_EDGE ( 'NONE', *, *, #355, .T. ) ;
#15 = DIRECTION ( 'NONE',  ( -1.000000000000000000, 0.000000000000000000, 0.000000000000000000 ) ) ;
#16 = ORIENTED_EDGE ( 'NONE', *, *, #384, .T. ) ;
#17 = CARTESIAN_POINT ( 'NONE',  ( 0.000000000000000000, 1.111804927702018196E-13, -37.37500000000004974 ) ) ;
#18 = CIRCLE ( 'NONE', #250, 43.12500000000000000 ) ;
#19 = DIRECTION ( 'NONE',  ( -0.000000000000000000, -1.000000000000000000, -0.000000000000000000 ) ) ;
#20 = DIRECTION ( 'NONE',  ( 0.000000000000000000, 1.000000000000000000, 0.000000000000000000 ) ) ;
#21 = AXIS2_PLACEMENT_3D ( 'NONE', #390, #307, #330 ) ;
#22 = CARTESIAN_POINT ( 'NONE',  ( -39.43602414037197690, 333.5000000000000000, 0.000000000000000000 ) ) ;
#23 = DIRECTION ( 'NONE',  ( 0.000000000000000000, 0.000000000000000000, 1.000000000000000000 ) ) ;
#24 = DIRECTION ( 'NONE',  ( -1.000000000000000000, 0.000000000000000000, 0.000000000000000000 ) ) ;
#25 = CIRCLE ( 'NONE', #4, 48.88000000000002387 ) ;
#26 = ORIENTED_EDGE ( 'NONE', *, *, #68, .T. ) ;
#27 = ADVANCED_FACE ( 'NONE', ( #396 ), #374, .T. ) ;
#28 = CARTESIAN_POINT ( 'NONE',  ( 0.000000000000000000, 1.111804927702018196E-13, 0.000000000000000000 ) ) ;
#29 = AXIS2_PLACEMENT_3D ( 'NONE', #338, #20, #333 ) ;
#30 = DIRECTION ( 'NONE',  ( 1.000000000000000000, 0.000000000000000000, -1.224646799147353207E-16 ) ) ;
#31 = CARTESIAN_POINT ( 'NONE',  ( 0.000000000000000000, 0.000000000000000000, 0.000000000000000000 ) ) ;
#32 = CARTESIAN_POINT ( 'NONE',  ( 0.000000000000000000, 1.111804927702018196E-13, 0.000000000000000000 ) ) ;
#33 = SHAPE_DEFINITION_REPRESENTATION ( #115, #39 ) ;
#34 = FACE_OUTER_BOUND ( 'NONE', #164, .T. ) ;
#35 = ORIENTED_EDGE ( 'NONE', *, *, #163, .T. ) ;
#36 = CARTESIAN_POINT ( 'NONE',  ( 36.33339706604937192, 21.95839706604956376, -9.847201409446578069 ) ) ;
#37 = EDGE_LOOP ( 'NONE', ( #85, #261, #198, #376 ) ) ;
#38 = CARTESIAN_POINT ( 'NONE',  ( 28.98744702748847502, 14.61244702748870061, -23.84657821467062888 ) ) ;
#39 = ADVANCED_BREP_SHAPE_REPRESENTATION ( 'Femur', ( #332, #278 ), #180 ) ;
#40 = ORIENTED_EDGE ( 'NONE', *, *, #122, .F. ) ;
#41 = CARTESIAN_POINT ( 'NONE',  ( 17.24450152931927960, 2.869501529319284039, 33.20133966575642148 ) ) ;
#42 = AXIS2_PLACEMENT_3D ( 'NONE', #61, #217, #186 ) ;
#43 = EDGE_LOOP ( 'NONE', ( #350, #385, #234, #314 ) ) ;
#44 = ADVANCED_FACE ( 'NONE', ( #389 ), #327, .F. ) ;
#45 = DIRECTION ( 'NONE',  ( 0.000000000000000000, 0.000000000000000000, -1.000000000000000000 ) ) ;
#46 = ORIENTED_EDGE ( 'NONE', *, *, #91, .F. ) ;
#47 = AXIS2_PLACEMENT_3D ( 'NONE', #270, #50, #175 ) ;
#48 = CARTESIAN_POINT ( 'NONE',  ( 14.37500000000012079, 1.135844755180809942E-13, 34.50000000000002132 ) ) ;
#49 = CARTESIAN_POINT ( 'NONE',  ( 7.482344821854743665E-16, 362.3800000000000523, 0.000000000000000000 ) ) ;
#50 = DIRECTION ( 'NONE',  ( 0.000000000000000000, 1.000000000000000000, 0.000000000000000000 ) ) ;
#51 = PRODUCT_DEFINITION_CONTEXT ( 'detailed design', #320, 'design' ) ;
#52 = CARTESIAN_POINT ( 'NONE',  ( 7.482344821854743665E-16, 333.5000000000000000, 0.000000000000000000 ) ) ;
#53 = DIRECTION ( 'NONE',  ( -1.224646799147353454E-16, 0.000000000000000000, -1.000000000000000000 ) ) ;
#54 = FACE_OUTER_BOUND ( 'NONE', #296, .T. ) ;
#55 = CARTESIAN_POINT ( 'NONE',  ( 0.000000000000000000, -9.860761315262647568E-29, -945.2326194181874826 ) ) ;
#56 = DIRECTION ( 'NONE',  ( 1.000000000000000000, 0.000000000000000000, 0.000000000000000000 ) ) ;
#57 = FACE_OUTER_BOUND ( 'NONE', #169, .T. ) ;
#58 = ORIENTED_EDGE ( 'NONE', *, *, #159, .T. ) ;
#59 = EDGE_CURVE ( 'NONE', #108, #9, #25, .T. ) ;
#60 = CIRCLE ( 'NONE', #281, 34.50000000000000000 ) ;
#61 = CARTESIAN_POINT ( 'NONE',  ( 0.000000000000000000, 333.5000000000000000, 0.000000000000000000 ) ) ;
#62 = DIRECTION ( 'NONE',  ( 0.000000000000000000, 0.000000000000000000, -1.000000000000000000 ) ) ;
#63 = DIRECTION ( 'NONE',  ( 0.000000000000000000, 0.000000000000000000, -1.000000000000000000 ) ) ;
#64 = CIRCLE ( 'NONE', #103, 907.8576194181874826 ) ;
#65 =( NAMED_UNIT ( * ) PLANE_ANGLE_UNIT ( ) SI_UNIT ( $, .RADIAN. ) );
#66 = AXIS2_PLACEMENT_3D ( 'NONE', #151, #392, #53 ) ;
#67 = DIRECTION ( 'NONE',  ( 0.000000000000000000, 1.000000000000000000, 0.000000000000000000 ) ) ;
#68 = EDGE_CURVE ( 'NONE', #321, #161, #79, .T. ) ;
#69 = ORIENTED_EDGE ( 'NONE', *, *, #287, .T. ) ;
#70 = CARTESIAN_POINT ( 'NONE',  ( -2.112515728529184461E-15, -50.49999999999995737, 0.000000000000000000 ) ) ;
#71 = ORIENTED_EDGE ( 'NONE', *, *, #99, .F. ) ;
#72 = CARTESIAN_POINT ( 'NONE',  ( 31.16461325960758089, 16.78961325960779050, -20.93204251584287690 ) ) ;
#73 = MECHANICAL_DESIGN_GEOMETRIC_PRESENTATION_REPRESENTATION (  '', ( #189 ), #367 ) ;
#74 = EDGE_LOOP ( 'NONE', ( #69, #380, #105, #283, #273, #110, #26 ) ) ;
#75 = CARTESIAN_POINT ( 'NONE',  ( 14.37499999999989342, 1.111804927702018196E-13, -34.50000000000009948 ) ) ;
#76 = ADVANCED_FACE ( 'NONE', ( #54 ), #265, .T. ) ;
#77 = CARTESIAN_POINT ( 'NONE',  ( 37.48266072272458871, 23.10766072272475569, 4.288607243364650046 ) ) ;
#78 = ORIENTED_EDGE ( 'NONE', *, *, #203, .T. ) ;
#79 = CIRCLE ( 'NONE', #305, 37.37500000000004974 ) ;
#80 = CARTESIAN_POINT ( 'NONE',  ( 36.70376160243682762, 22.32876160243697683, 8.402498425707850771 ) ) ;
#81 = ADVANCED_FACE ( 'NONE', ( #393 ), #354, .F. ) ;
#82 = ORIENTED_EDGE ( 'NONE', *, *, #221, .F. ) ;
#83 = AXIS2_PLACEMENT_3D ( 'NONE', #32, #128, #62 ) ;
#84 = FACE_BOUND ( 'NONE', #231, .T. ) ;
#85 = ORIENTED_EDGE ( 'NONE', *, *, #271, .F. ) ;
#86 = CARTESIAN_POINT ( 'NONE',  ( 14.37499999999995026, 5.559024638510090978E-14, 7.412032851346784184E-14 ) ) ;
#87 = DIRECTION ( 'NONE',  ( -0.000000000000000000, -1.000000000000000000, -0.000000000000000000 ) ) ;
#88 = DIRECTION ( 'NONE',  ( -1.000000000000000000, 0.000000000000000000, 0.000000000000000000 ) ) ;
#89 = CARTESIAN_POINT ( 'NONE',  ( 7.482344821854743665E-16, 362.3800000000000523, 0.000000000000000000 ) ) ;
#90 = ORIENTED_EDGE ( 'NONE', *, *, #335, .F. ) ;
#91 = EDGE_CURVE ( 'NONE', #378, #202, #60, .T. ) ;
#92 = SPHERICAL_SURFACE ( 'NONE', #343, 48.88000000000002387 ) ;
#93 = DIRECTION ( 'NONE',  ( 0.7071067811865462405, 0.7071067811865487940, 0.000000000000000000 ) ) ;
#94 = CARTESIAN_POINT ( 'NONE',  ( -30.56550343115584667, 5.724587470723463412E-14, 0.000000000000000000 ) ) ;
#95 = AXIS2_PLACEMENT_3D ( 'NONE', #49, #142, #88 ) ;
#96 = DIRECTION ( 'NONE',  ( -0.7071067811865487940, 0.7071067811865463515, 2.278738561549895028E-15 ) ) ;
#97 = AXIS2_PLACEMENT_3D ( 'NONE', #229, #227, #262 ) ;
#98 = DIRECTION ( 'NONE',  ( 1.000000000000000000, 0.000000000000000000, 0.000000000000000000 ) ) ;
#99 = EDGE_CURVE ( 'NONE', #263, #108, #113, .T. ) ;
#100 = AXIS2_PLACEMENT_3D ( 'NONE', #10, #15, #170 ) ;
#101 = CARTESIAN_POINT ( 'NONE',  ( 34.87999706425243573, 20.50499706425265956, -14.20308128553185512 ) ) ;
#102 = ORIENTED_EDGE ( 'NONE', *, *, #248, .T. ) ;
#103 = AXIS2_PLACEMENT_3D ( 'NONE', #341, #30, #294 ) ;
#104 = CARTESIAN_POINT ( 'NONE',  ( 27.81549885448300330, 13.44049885448323067, -25.17130627674399790 ) ) ;
#105 = ORIENTED_EDGE ( 'NONE', *, *, #335, .T. ) ;
#106 = CARTESIAN_POINT ( 'NONE',  ( 34.06810391479628919, 19.69310391479651301, -15.99931651253038645 ) ) ;
#107 = PRODUCT_DEFINITION_FORMATION_WITH_SPECIFIED_SOURCE ( 'ANY', '', #295, .NOT_KNOWN. ) ;
#108 = VERTEX_POINT ( 'NONE', #300 ) ;
#109 = CARTESIAN_POINT ( 'NONE',  ( 35.87717918559939534, 21.50217918559953745, 11.39424705723071618 ) ) ;
#110 = ORIENTED_EDGE ( 'NONE', *, *, #282, .T. ) ;
#111 = CARTESIAN_POINT ( 'NONE',  ( 37.62992935860553700, 23.25492935860573240, -2.090156405987621646 ) ) ;
#112 = ORIENTED_EDGE ( 'NONE', *, *, #2, .F. ) ;
#113 = CIRCLE ( 'NONE', #340, 39.43602414037196979 ) ;
#114 = DIRECTION ( 'NONE',  ( 0.000000000000000000, 0.000000000000000000, 1.000000000000000000 ) ) ;
#115 = PRODUCT_DEFINITION_SHAPE ( 'NONE', 'NONE',  #304 ) ;
#116 = CARTESIAN_POINT ( 'NONE',  ( 0.000000000000000000, -15.99999999999995204, 0.000000000000000000 ) ) ;
#117 = SURFACE_SIDE_STYLE ('',( #388 ) ) ;
#118 = DIRECTION ( 'NONE',  ( 0.000000000000000000, 0.000000000000000000, -1.000000000000000000 ) ) ;
#119 = CARTESIAN_POINT ( 'NONE',  ( 14.37499999999995026, 5.559024638510090978E-14, 7.412032851346784184E-14 ) ) ;
#120 = CIRCLE ( 'NONE', #339, 56.42417147472958305 ) ;
#121 = LINE ( 'NONE', #86, #309 ) ;
#122 = EDGE_CURVE ( 'NONE', #7, #171, #18, .T. ) ;
#123 = DIRECTION ( 'NONE',  ( -0.000000000000000000, -1.000000000000000000, -0.000000000000000000 ) ) ;
#124 = LINE ( 'NONE', #119, #127 ) ;
#125 = DIRECTION ( 'NONE',  ( -1.000000000000000000, 0.000000000000000000, 0.000000000000000000 ) ) ;
#126 = AXIS2_PLACEMENT_3D ( 'NONE', #152, #329, #23 ) ;
#127 = VECTOR ( 'NONE', #236, 1000.000000000000000 ) ;
#128 = DIRECTION ( 'NONE',  ( -0.000000000000000000, -1.000000000000000000, -0.000000000000000000 ) ) ;
#129 = CARTESIAN_POINT ( 'NONE',  ( -0.8125000000000028866, -15.18749999999995026, 2.618381170312720581E-15 ) ) ;
#130 = CIRCLE ( 'NONE', #21, 34.50000000000000000 ) ;
#131 = ORIENTED_EDGE ( 'NONE', *, *, #148, .F. ) ;
#132 = CARTESIAN_POINT ( 'NONE',  ( 35.88693241356211416, 21.51193241356232733, -11.33145057388463250 ) ) ;
#133 = CARTESIAN_POINT ( 'NONE',  ( 15.82473057735455590, 1.449730577354559902, 33.89594559276891061 ) ) ;
#134 = ORIENTED_EDGE ( 'NONE', *, *, #159, .F. ) ;
#135 = CARTESIAN_POINT ( 'NONE',  ( 34.86401897261421823, 20.48901897261434968, 14.23952417084103672 ) ) ;
#136 = CIRCLE ( 'NONE', #66, 256.8004132927543992 ) ;
#137 = ORIENTED_EDGE ( 'NONE', *, *, #260, .F. ) ;
#138 = DIRECTION ( 'NONE',  ( 0.000000000000000000, 0.000000000000000000, -1.000000000000000000 ) ) ;
#139 = ORIENTED_EDGE ( 'NONE', *, *, #224, .F. ) ;
#140 = CARTESIAN_POINT ( 'NONE',  ( 36.72941507161094421, 22.35441507161115027, -8.340722338524399149 ) ) ;
#141 = ADVANCED_FACE ( 'NONE', ( #361 ), #370, .T. ) ;
#142 = DIRECTION ( 'NONE',  ( -0.000000000000000000, 0.000000000000000000, -1.000000000000000000 ) ) ;
#143 = CARTESIAN_POINT ( 'NONE',  ( 0.000000000000000000, 5.551115123125782702E-14, 0.000000000000000000 ) ) ;
#144 = DIRECTION ( 'NONE',  ( -0.000000000000000000, -0.000000000000000000, -1.000000000000000000 ) ) ;
#145 = AXIS2_PLACEMENT_3D ( 'NONE', #397, #342, #219 ) ;
#146 = VERTEX_POINT ( 'NONE', #211 ) ;
#147 = FACE_OUTER_BOUND ( 'NONE', #258, .T. ) ;
#148 = EDGE_CURVE ( 'NONE', #171, #7, #362, .T. ) ;
#149 = CARTESIAN_POINT ( 'NONE',  ( 6.095628710214929341E-15, 333.5000000000000000, 43.12500000000000000 ) ) ;
#150 = CIRCLE ( 'NONE', #126, 39.43602414037196979 ) ;
#151 = CARTESIAN_POINT ( 'NONE',  ( -2.387913238863933319E-14, 237.3298757900007843, -194.9879132927544276 ) ) ;
#152 = CARTESIAN_POINT ( 'NONE',  ( 7.482344821854743665E-16, 333.5000000000000000, 0.000000000000000000 ) ) ;
#153 = DIRECTION ( 'NONE',  ( -0.000000000000000000, -1.000000000000000000, -0.000000000000000000 ) ) ;
#154 = AXIS2_PLACEMENT_3D ( 'NONE', #129, #96, #3 ) ;
#155 = EDGE_CURVE ( 'NONE', #267, #292, #280, .T. ) ;
#156 = CARTESIAN_POINT ( 'NONE',  ( 0.000000000000000000, -15.99999999999995204, 0.000000000000000000 ) ) ;
#157 =( NAMED_UNIT ( * ) SI_UNIT ( $, .STERADIAN. ) SOLID_ANGLE_UNIT ( ) );
#158 =( NAMED_UNIT ( * ) SI_UNIT ( $, .STERADIAN. ) SOLID_ANGLE_UNIT ( ) );
#159 = EDGE_CURVE ( 'NONE', #344, #214, #64, .T. ) ;
#160 = PRODUCT_RELATED_PRODUCT_CATEGORY ( 'part', '', ( #295 ) ) ;
#161 = VERTEX_POINT ( 'NONE', #75 ) ;
#162 = CARTESIAN_POINT ( 'NONE',  ( 28.96761419833460494, 14.59261419833468132, 23.87025362880450174 ) ) ;
#163 = EDGE_CURVE ( 'NONE', #214, #243, #120, .T. ) ;
#164 = EDGE_LOOP ( 'NONE', ( #82, #184, #14, #352, #324 ) ) ;
#165 = CARTESIAN_POINT ( 'NONE',  ( 25.96046366334791600, 11.58546366334814870, -27.00400121860880986 ) ) ;
#166 = ORIENTED_EDGE ( 'NONE', *, *, #248, .F. ) ;
#167 = AXIS2_PLACEMENT_3D ( 'NONE', #199, #288, #45 ) ;
#168 = CARTESIAN_POINT ( 'NONE',  ( 27.79179133955646464, 13.41679133955653214, 25.19742368984778835 ) ) ;
#169 = EDGE_LOOP ( 'NONE', ( #134, #5, #78, #302, #317, #285 ) ) ;
#170 = DIRECTION ( 'NONE',  ( 0.000000000000000000, 0.000000000000000000, 1.000000000000000000 ) ) ;
#171 = VERTEX_POINT ( 'NONE', #192 ) ;
#172 = EDGE_CURVE ( 'NONE', #243, #214, #220, .T. ) ;
#173 = CARTESIAN_POINT ( 'NONE',  ( 36.92861538728705284, 22.55361538728721627, 7.379982560527283297 ) ) ;
#174 = EDGE_LOOP ( 'NONE', ( #191, #102, #46, #139 ) ) ;
#175 = DIRECTION ( 'NONE',  ( 0.000000000000000000, -0.000000000000000000, 1.000000000000000000 ) ) ;
#176 = DIRECTION ( 'NONE',  ( 0.000000000000000000, 0.000000000000000000, 1.000000000000000000 ) ) ;
#177 = DIRECTION ( 'NONE',  ( 0.000000000000000000, 0.000000000000000000, -1.000000000000000000 ) ) ;
#178 = UNCERTAINTY_MEASURE_WITH_UNIT (LENGTH_MEASURE( 1.000000000000000082E-05 ), #279, 'distance_accuracy_value', 'NONE');
#179 = DIRECTION ( 'NONE',  ( -1.000000000000000000, 0.000000000000000000, 0.000000000000000000 ) ) ;
#180 =( GEOMETRIC_REPRESENTATION_CONTEXT ( 3 ) GLOBAL_UNCERTAINTY_ASSIGNED_CONTEXT ( ( #178 ) ) GLOBAL_UNIT_ASSIGNED_CONTEXT ( ( #279, #65, #158 ) ) REPRESENTATION_CONTEXT ( 'NONE', 'WORKASPACE' ) );
#181 = CARTESIAN_POINT ( 'NONE',  ( 0.000000000000000000, -9.860761315262647568E-29, 0.000000000000000000 ) ) ;
#182 = DIRECTION ( 'NONE',  ( -0.000000000000000000, -1.000000000000000000, -0.000000000000000000 ) ) ;
#183 = DIRECTION ( 'NONE',  ( 3.222622978846413346E-15, 0.000000000000000000, 1.000000000000000000 ) ) ;
#184 = ORIENTED_EDGE ( 'NONE', *, *, #155, .T. ) ;
#185 = DIRECTION ( 'NONE',  ( 0.000000000000000000, 0.000000000000000000, -1.000000000000000000 ) ) ;
#186 = DIRECTION ( 'NONE',  ( 0.000000000000000000, 0.000000000000000000, -1.000000000000000000 ) ) ;
#187 = APPLICATION_PROTOCOL_DEFINITION ( 'draft international standard', 'automotive_design', 1998, #320 ) ;
#188 = ADVANCED_FACE ( 'NONE', ( #379 ), #319, .T. ) ;
#189 = STYLED_ITEM ( 'NONE', ( #298 ), #332 ) ;
#190 = CARTESIAN_POINT ( 'NONE',  ( 5.743542755460073678E-15, 1.111804927702018196E-13, 37.37500000000004974 ) ) ;
#191 = ORIENTED_EDGE ( 'NONE', *, *, #355, .F. ) ;
#192 = CARTESIAN_POINT ( 'NONE',  ( 0.000000000000000000, 333.5000000000000000, -43.12500000000000000 ) ) ;
#193 = AXIS2_PLACEMENT_3D ( 'NONE', #365, #123, #206 ) ;
#194 = CARTESIAN_POINT ( 'NONE',  ( 32.66789016155220082, 18.29289016155243885, -18.54009684528466906 ) ) ;
#195 = AXIS2_PLACEMENT_3D ( 'NONE', #28, #153, #394 ) ;
#196 = EDGE_LOOP ( 'NONE', ( #382, #71, #16 ) ) ;
#197 = CARTESIAN_POINT ( 'NONE',  ( 24.01910800014793423, 9.644108000147975090, 28.74828524823891485 ) ) ;
#198 = ORIENTED_EDGE ( 'NONE', *, *, #201, .T. ) ;
#199 = CARTESIAN_POINT ( 'NONE',  ( 0.000000000000000000, 185.0000000000000853, 0.000000000000000000 ) ) ;
#200 = CLOSED_SHELL ( 'NONE', ( #141, #44, #27, #81, #188, #364, #233, #293, #312, #209, #76 ) ) ;
#201 = EDGE_CURVE ( 'NONE', #171, #243, #241, .T. ) ;
#202 = VERTEX_POINT ( 'NONE', #70 ) ;
#203 = EDGE_CURVE ( 'NONE', #226, #161, #311, .T. ) ;
#204 = CARTESIAN_POINT ( 'NONE',  ( 32.90733919678815056, 18.53233919678837083, -18.12197422491844989 ) ) ;
#205 = CIRCLE ( 'NONE', #83, 37.37500000000004974 ) ;
#206 = DIRECTION ( 'NONE',  ( 0.000000000000000000, 0.000000000000000000, -1.000000000000000000 ) ) ;
#207 = CARTESIAN_POINT ( 'NONE',  ( 14.37499999999989342, 1.111804927702018196E-13, -34.50000000000009948 ) ) ;
#208 = DIRECTION ( 'NONE',  ( 0.000000000000000000, 0.000000000000000000, -1.000000000000000000 ) ) ;
#209 = ADVANCED_FACE ( 'NONE', ( #369 ), #92, .F. ) ;
#210 = CARTESIAN_POINT ( 'NONE',  ( 20.03075162819744648, 5.655751628197669412, -31.61425205272826133 ) ) ;
#211 = CARTESIAN_POINT ( 'NONE',  ( 14.37499999999986500, 5.724587470723463412E-14, -26.97423539231471423 ) ) ;
#212 = DIRECTION ( 'NONE',  ( -1.000000000000000000, 0.000000000000000000, 1.224646799147353207E-16 ) ) ;
#213 = CARTESIAN_POINT ( 'NONE',  ( 0.000000000000000000, 237.3298757900007843, 0.000000000000000000 ) ) ;
#214 = VERTEX_POINT ( 'NONE', #247 ) ;
#215 = APPLICATION_CONTEXT ( 'automotive_design' ) ;
#216 = DIRECTION ( 'NONE',  ( -1.000000000000000000, 0.000000000000000000, 0.000000000000000000 ) ) ;
#217 = DIRECTION ( 'NONE',  ( -0.000000000000000000, -1.000000000000000000, -0.000000000000000000 ) ) ;
#218 = PLANE ( 'NONE',  #375 ) ;
#219 = DIRECTION ( 'NONE',  ( 1.000000000000000000, 0.000000000000000000, 0.000000000000000000 ) ) ;
#220 = CIRCLE ( 'NONE', #167, 56.42417147472958305 ) ;
#221 = EDGE_CURVE ( 'NONE', #267, #226, #121, .T. ) ;
#222 = PRODUCT_CONTEXT ( 'NONE', #215, 'mechanical' ) ;
#223 = PRESENTATION_LAYER_ASSIGNMENT (  '', '', ( #189 ) ) ;
#224 = EDGE_CURVE ( 'NONE', #146, #378, #299, .T. ) ;
#225 = CARTESIAN_POINT ( 'NONE',  ( 31.92938432465350473, 17.55438432465372500, -19.75694885872675854 ) ) ;
#226 = VERTEX_POINT ( 'NONE', #386 ) ;
#227 = DIRECTION ( 'NONE',  ( 0.000000000000000000, -1.000000000000000000, -0.000000000000000000 ) ) ;
#228 = ORIENTED_EDGE ( 'NONE', *, *, #99, .T. ) ;
#229 = CARTESIAN_POINT ( 'NONE',  ( 37.37500000000005684, 5.559024638510090978E-14, 0.000000000000000000 ) ) ;
#230 = AXIS2_PLACEMENT_3D ( 'NONE', #181, #303, #185 ) ;
#231 = EDGE_LOOP ( 'NONE', ( #228, #239 ) ) ;
#232 = CARTESIAN_POINT ( 'NONE',  ( 32.19140207591239999, 17.81640207591251013, 19.42724615626144313 ) ) ;
#233 = ADVANCED_FACE ( 'NONE', ( #57 ), #291, .F. ) ;
#234 = ORIENTED_EDGE ( 'NONE', *, *, #172, .F. ) ;
#235 = CARTESIAN_POINT ( 'NONE',  ( 37.44710641679506580, 23.07210641679525764, -4.212244688992516473 ) ) ;
#236 = DIRECTION ( 'NONE',  ( 3.222622978846413346E-15, 0.000000000000000000, 1.000000000000000000 ) ) ;
#237 = DIRECTION ( 'NONE',  ( -1.224646799147353207E-16, 7.720405701393999264E-48, -1.000000000000000000 ) ) ;
#238 = CARTESIAN_POINT ( 'NONE',  ( 0.000000000000000000, 185.0000000000000853, -56.42417147472962569 ) ) ;
#239 = ORIENTED_EDGE ( 'NONE', *, *, #2, .T. ) ;
#240 =( LENGTH_UNIT ( ) NAMED_UNIT ( * ) SI_UNIT ( .MILLI., .METRE. ) );
#241 = CIRCLE ( 'NONE', #100, 256.8004132927543992 ) ;
#242 = AXIS2_PLACEMENT_3D ( 'NONE', #249, #308, #93 ) ;
#243 = VERTEX_POINT ( 'NONE', #238 ) ;
#244 = CARTESIAN_POINT ( 'NONE',  ( 15.82614339759565247, 1.451143397595872742, -33.89535691766855052 ) ) ;
#245 = CARTESIAN_POINT ( 'NONE',  ( 7.482344821854743665E-16, 362.3800000000000523, 0.000000000000000000 ) ) ;
#246 = CIRCLE ( 'NONE', #195, 37.37500000000004974 ) ;
#247 = CARTESIAN_POINT ( 'NONE',  ( 6.909968099106899895E-15, 185.0000000000000853, 56.42417147472962569 ) ) ;
#248 = EDGE_CURVE ( 'NONE', #292, #202, #130, .T. ) ;
#249 = CARTESIAN_POINT ( 'NONE',  ( -0.8125000000000028866, -15.18749999999995026, 2.618381170312720581E-15 ) ) ;
#250 = AXIS2_PLACEMENT_3D ( 'NONE', #297, #19, #118 ) ;
#251 = AXIS2_PLACEMENT_3D ( 'NONE', #55, #24, #114 ) ;
#252 = DIRECTION ( 'NONE',  ( 0.000000000000000000, 0.000000000000000000, 1.000000000000000000 ) ) ;
#253 = COLOUR_RGB ( '',0.7921568627450980005, 0.8196078431372548767, 0.9333333333333333481 ) ;
#254 = ORIENTED_EDGE ( 'NONE', *, *, #282, .F. ) ;
#255 = CARTESIAN_POINT ( 'NONE',  ( 32.17917586148069375, 17.80417586148092113, -19.35709150793888256 ) ) ;
#256 = ORIENTED_EDGE ( 'NONE', *, *, #91, .T. ) ;
#257 = CARTESIAN_POINT ( 'NONE',  ( 23.37999306737163963, 9.004993067371866999, -29.22802145628566350 ) ) ;
#258 = EDGE_LOOP ( 'NONE', ( #131, #40 ) ) ;
#259 = CARTESIAN_POINT ( 'NONE',  ( 25.30583406125133550, 10.93083406125138879, 27.64798580811228845 ) ) ;
#260 = EDGE_CURVE ( 'NONE', #321, #243, #1, .T. ) ;
#261 = ORIENTED_EDGE ( 'NONE', *, *, #122, .T. ) ;
#262 = DIRECTION ( 'NONE',  ( 0.000000000000000000, 0.000000000000000000, -1.000000000000000000 ) ) ;
#263 = VERTEX_POINT ( 'NONE', #22 ) ;
#264 = CARTESIAN_POINT ( 'NONE',  ( 36.95173518456520867, 22.57673518456541828, -7.322701015652872236 ) ) ;
#265 = SPHERICAL_SURFACE ( 'NONE', #372, 34.50000000000000000 ) ;
#266 = FILL_AREA_STYLE ('',( #336 ) ) ;
#267 = VERTEX_POINT ( 'NONE', #357 ) ;
#268 = UNCERTAINTY_MEASURE_WITH_UNIT (LENGTH_MEASURE( 1.000000000000000082E-05 ), #240, 'distance_accuracy_value', 'NONE');
#269 = EDGE_LOOP ( 'NONE', ( #112, #289, #11 ) ) ;
#270 = CARTESIAN_POINT ( 'NONE',  ( 0.000000000000000000, 333.5000000000000000, 0.000000000000000000 ) ) ;
#271 = EDGE_CURVE ( 'NONE', #7, #214, #136, .T. ) ;
#272 = CARTESIAN_POINT ( 'NONE',  ( 23.56914973396996871, 9.194149733970105487, -2.886388378033101399E-15 ) ) ;
#273 = ORIENTED_EDGE ( 'NONE', *, *, #373, .T. ) ;
#274 = TOROIDAL_SURFACE ( 'NONE', #12, -194.9879132927544276, 256.8004132927543992 ) ;
#275 = DIRECTION ( 'NONE',  ( -0.000000000000000000, -0.000000000000000000, -1.000000000000000000 ) ) ;
#276 = DIRECTION ( 'NONE',  ( 0.7071067811865487940, -0.7071067811865463515, -2.278738561549895422E-15 ) ) ;
#277 = APPLICATION_PROTOCOL_DEFINITION ( 'draft international standard', 'automotive_design', 1998, #215 ) ;
#278 = AXIS2_PLACEMENT_3D ( 'NONE', #31, #252, #98 ) ;
#279 =( LENGTH_UNIT ( ) NAMED_UNIT ( * ) SI_UNIT ( .MILLI., .METRE. ) );
#280 = CIRCLE ( 'NONE', #242, 34.48085972681076328 ) ;
#281 = AXIS2_PLACEMENT_3D ( 'NONE', #387, #334, #56 ) ;
#282 = EDGE_CURVE ( 'NONE', #344, #321, #246, .T. ) ;
#283 = ORIENTED_EDGE ( 'NONE', *, *, #221, .T. ) ;
#284 = CARTESIAN_POINT ( 'NONE',  ( 36.19050720195282622, 21.81550720195304649, -10.34728328807085873 ) ) ;
#285 = ORIENTED_EDGE ( 'NONE', *, *, #172, .T. ) ;
#286 = CARTESIAN_POINT ( 'NONE',  ( 25.32397532533751772, 10.94897532533775930, -27.59047173626062133 ) ) ;
#287 = EDGE_CURVE ( 'NONE', #161, #146, #124, .T. ) ;
#288 = DIRECTION ( 'NONE',  ( -0.000000000000000000, -1.000000000000000000, -0.000000000000000000 ) ) ;
#289 = ORIENTED_EDGE ( 'NONE', *, *, #59, .T. ) ;
#290 = CARTESIAN_POINT ( 'NONE',  ( 21.37699909974767820, 7.001999099747711064, 30.73422881342540336 ) ) ;
#291 = TOROIDAL_SURFACE ( 'NONE', #230, 945.2326194181874826, 907.8576194181874826 ) ;
#292 = VERTEX_POINT ( 'NONE', #272 ) ;
#293 = ADVANCED_FACE ( 'NONE', ( #147, #84 ), #328, .T. ) ;
#294 = DIRECTION ( 'NONE',  ( -1.224646799147353207E-16, 0.000000000000000000, -1.000000000000000000 ) ) ;
#295 = PRODUCT ( 'Femur', 'Femur', '', ( #222 ) ) ;
#296 = EDGE_LOOP ( 'NONE', ( #166, #306, #90, #256 ) ) ;
#297 = CARTESIAN_POINT ( 'NONE',  ( 0.000000000000000000, 333.5000000000000000, 0.000000000000000000 ) ) ;
#298 = PRESENTATION_STYLE_ASSIGNMENT (( #360 ) ) ;
#299 = CIRCLE ( 'NONE', #29, 30.56550343115584667 ) ;
#300 = CARTESIAN_POINT ( 'NONE',  ( 39.43602414037197690, 333.5000000000000000, -4.829520073460428705E-15 ) ) ;
#301 = DIRECTION ( 'NONE',  ( -0.000000000000000000, 0.000000000000000000, -1.000000000000000000 ) ) ;
#302 = ORIENTED_EDGE ( 'NONE', *, *, #68, .F. ) ;
#303 = DIRECTION ( 'NONE',  ( -0.000000000000000000, -1.000000000000000000, -0.000000000000000000 ) ) ;
#304 = PRODUCT_DEFINITION ( 'UNKNOWN', '', #107, #51 ) ;
#305 = AXIS2_PLACEMENT_3D ( 'NONE', #337, #331, #368 ) ;
#306 = ORIENTED_EDGE ( 'NONE', *, *, #155, .F. ) ;
#307 = DIRECTION ( 'NONE',  ( -1.224646799147353207E-16, 0.000000000000000000, -1.000000000000000000 ) ) ;
#308 = DIRECTION ( 'NONE',  ( -0.7071067811865487940, 0.7071067811865463515, 2.278738561549895028E-15 ) ) ;
#309 = VECTOR ( 'NONE', #183, 1000.000000000000000 ) ;
#310 = CARTESIAN_POINT ( 'NONE',  ( 7.187499999999973355, -7.187499999999947597, -2.316260266045850888E-14 ) ) ;
#311 = B_SPLINE_CURVE_WITH_KNOTS ( 'NONE', 3,
 ( #48, #133, #41, #381, #290, #197, #259, #168, #162, #316, #232, #353, #135, #109, #351, #348, #80, #173, #345, #77, #323, #383, #111, #235, #325, #264, #140, #36, #284, #132, #377, #101, #106, #204, #194, #255, #225, #72, #6, #38, #104, #165, #286, #8, #257, #349, #210, #363, #244, #207 ),
 .UNSPECIFIED., .F., .F.,
 ( 4, 2, 2, 2, 2, 2, 2, 2, 2, 2, 2, 2, 2, 2, 2, 2, 2, 2, 2, 2, 2, 2, 2, 2, 4 ),
 ( 2.915025866690565484E-07, 0.006339300752217951092, 0.01267831000184923423, 0.01901731925148051477, 0.02535632850111179878, 0.03169533775074307586, 0.03803434700037435640, 0.04120385162519000360, 0.04278860393759782721, 0.04437335625000565081, 0.05071236549963697993, 0.05388187012445264101, 0.05705137474926830210, 0.06022087937408397706, 0.06180563168649180067, 0.06339038399889963815, 0.06972939324853096033, 0.07131414556093879087, 0.07289889787334662141, 0.07606840249816226862, 0.08240741174779357692, 0.08557691637260923800, 0.08874642099742488521, 0.09508543024705617963, 0.1014244394966874740 ),
 .UNSPECIFIED. ) ;
#312 = ADVANCED_FACE ( 'NONE', ( #366 ), #274, .T. ) ;
#313 = DIRECTION ( 'NONE',  ( 0.7071067811865463515, 0.7071067811865487940, 0.000000000000000000 ) ) ;
#314 = ORIENTED_EDGE ( 'NONE', *, *, #201, .F. ) ;
#315 = AXIS2_PLACEMENT_3D ( 'NONE', #391, #359, #208 ) ;
#316 = CARTESIAN_POINT ( 'NONE',  ( 31.16712877903591661, 16.79212877903600898, 20.98509957517971003 ) ) ;
#317 = ORIENTED_EDGE ( 'NONE', *, *, #260, .T. ) ;
#318 = CIRCLE ( 'NONE', #326, 30.56550343115584667 ) ;
#319 = PLANE ( 'NONE',  #97 ) ;
#320 = APPLICATION_CONTEXT ( 'automotive_design' ) ;
#321 = VERTEX_POINT ( 'NONE', #17 ) ;
#322 = CARTESIAN_POINT ( 'NONE',  ( 0.000000000000000000, 185.0000000000000853, 0.000000000000000000 ) ) ;
#323 = CARTESIAN_POINT ( 'NONE',  ( 37.67057026812237552, 23.29557026812254961, 2.191814340589302024 ) ) ;
#324 = ORIENTED_EDGE ( 'NONE', *, *, #203, .F. ) ;
#325 = CARTESIAN_POINT ( 'NONE',  ( 37.31057450886495985, 22.93557450886516591, -5.258460104535529922 ) ) ;
#326 = AXIS2_PLACEMENT_3D ( 'NONE', #143, #67, #63 ) ;
#327 = SPHERICAL_SURFACE ( 'NONE', #95, 48.88000000000002387 ) ;
#328 = PLANE ( 'NONE',  #47 ) ;
#329 = DIRECTION ( 'NONE',  ( -0.000000000000000000, -1.000000000000000000, -0.000000000000000000 ) ) ;
#330 = DIRECTION ( 'NONE',  ( -1.000000000000000000, 0.000000000000000000, 1.224646799147353207E-16 ) ) ;
#331 = DIRECTION ( 'NONE',  ( -0.000000000000000000, -1.000000000000000000, -0.000000000000000000 ) ) ;
#332 = MANIFOLD_SOLID_BREP ( 'Oto\X2\010d\X0\it kolem osy2', #200 ) ;
#333 = DIRECTION ( 'NONE',  ( 0.000000000000000000, 0.000000000000000000, -1.000000000000000000 ) ) ;
#334 = DIRECTION ( 'NONE',  ( -0.000000000000000000, 0.000000000000000000, 1.000000000000000000 ) ) ;
#335 = EDGE_CURVE ( 'NONE', #378, #267, #318, .T. ) ;
#336 = FILL_AREA_STYLE_COLOUR ( '', #253 ) ;
#337 = CARTESIAN_POINT ( 'NONE',  ( 0.000000000000000000, 1.111804927702018196E-13, 0.000000000000000000 ) ) ;
#338 = CARTESIAN_POINT ( 'NONE',  ( 0.000000000000000000, 5.551115123125782702E-14, 0.000000000000000000 ) ) ;
#339 = AXIS2_PLACEMENT_3D ( 'NONE', #322, #13, #138 ) ;
#340 = AXIS2_PLACEMENT_3D ( 'NONE', #52, #182, #176 ) ;
#341 = CARTESIAN_POINT ( 'NONE',  ( 1.157576101820151435E-13, -9.860761315262647568E-29, 945.2326194181874826 ) ) ;
#342 = DIRECTION ( 'NONE',  ( -0.000000000000000000, 0.000000000000000000, 1.000000000000000000 ) ) ;
#343 = AXIS2_PLACEMENT_3D ( 'NONE', #89, #301, #216 ) ;
#344 = VERTEX_POINT ( 'NONE', #190 ) ;
#345 = CARTESIAN_POINT ( 'NONE',  ( 37.03009143849488538, 22.65509143849504525, 6.866559491733852383 ) ) ;
#346 = EDGE_LOOP ( 'NONE', ( #254, #58, #35, #137 ) ) ;
#347 = AXIS2_PLACEMENT_3D ( 'NONE', #156, #275, #125 ) ;
#348 = CARTESIAN_POINT ( 'NONE',  ( 36.57994252898614462, 22.20494252898630450, 8.913064163324204259 ) ) ;
#349 = CARTESIAN_POINT ( 'NONE',  ( 21.39118308391253365, 7.016183083912760132, -30.72484987381712784 ) ) ;
#350 = ORIENTED_EDGE ( 'NONE', *, *, #148, .T. ) ;
#351 = CARTESIAN_POINT ( 'NONE',  ( 36.18081779381289920, 21.80581779381304841, 10.41930525812996855 ) ) ;
#352 = ORIENTED_EDGE ( 'NONE', *, *, #287, .F. ) ;
#353 = CARTESIAN_POINT ( 'NONE',  ( 34.05296686262107642, 19.67796686262121497, 16.03086661773702915 ) ) ;
#354 = TOROIDAL_SURFACE ( 'NONE', #193, 945.2326194181874826, 907.8576194181874826 ) ;
#355 = EDGE_CURVE ( 'NONE', #292, #146, #395, .T. ) ;
#356 = CARTESIAN_POINT ( 'NONE',  ( -2.244802294930661190E-15, 313.5000000000000000, 0.000000000000000000 ) ) ;
#357 = CARTESIAN_POINT ( 'NONE',  ( 14.37500000000003908, 5.724587470723463412E-14, 26.97423539231462541 ) ) ;
#358 = CIRCLE ( 'NONE', #145, 48.88000000000002387 ) ;
#359 = DIRECTION ( 'NONE',  ( -0.000000000000000000, -1.000000000000000000, -0.000000000000000000 ) ) ;
#360 = SURFACE_STYLE_USAGE ( .BOTH. , #117 ) ;
#361 = FACE_OUTER_BOUND ( 'NONE', #174, .T. ) ;
#362 = CIRCLE ( 'NONE', #42, 43.12500000000000000 ) ;
#363 = CARTESIAN_POINT ( 'NONE',  ( 17.24825646992631434, 2.873256469926533718, -33.19958306440963725 ) ) ;
#364 = ADVANCED_FACE ( 'NONE', ( #34 ), #218, .T. ) ;
#365 = CARTESIAN_POINT ( 'NONE',  ( 0.000000000000000000, -9.860761315262647568E-29, 0.000000000000000000 ) ) ;
#366 = FACE_OUTER_BOUND ( 'NONE', #37, .T. ) ;
#367 =( GEOMETRIC_REPRESENTATION_CONTEXT ( 3 ) GLOBAL_UNCERTAINTY_ASSIGNED_CONTEXT ( ( #268 ) ) GLOBAL_UNIT_ASSIGNED_CONTEXT ( ( #240, #371, #157 ) ) REPRESENTATION_CONTEXT ( 'NONE', 'WORKASPACE' ) );
#368 = DIRECTION ( 'NONE',  ( 0.000000000000000000, 0.000000000000000000, -1.000000000000000000 ) ) ;
#369 = FACE_OUTER_BOUND ( 'NONE', #196, .T. ) ;
#370 = SPHERICAL_SURFACE ( 'NONE', #347, 34.50000000000000000 ) ;
#371 =( NAMED_UNIT ( * ) PLANE_ANGLE_UNIT ( ) SI_UNIT ( $, .RADIAN. ) );
#372 = AXIS2_PLACEMENT_3D ( 'NONE', #116, #144, #179 ) ;
#373 = EDGE_CURVE ( 'NONE', #226, #344, #205, .T. ) ;
#374 = TOROIDAL_SURFACE ( 'NONE', #315, -194.9879132927544276, 256.8004132927543992 ) ;
#375 = AXIS2_PLACEMENT_3D ( 'NONE', #310, #276, #313 ) ;
#376 = ORIENTED_EDGE ( 'NONE', *, *, #163, .F. ) ;
#377 = CARTESIAN_POINT ( 'NONE',  ( 35.72619576783506545, 21.35119576783528217, -11.81601183011336786 ) ) ;
#378 = VERTEX_POINT ( 'NONE', #94 ) ;
#379 = FACE_OUTER_BOUND ( 'NONE', #74, .T. ) ;
#380 = ORIENTED_EDGE ( 'NONE', *, *, #224, .T. ) ;
#381 = CARTESIAN_POINT ( 'NONE',  ( 20.02061217325099562, 5.645612173251017829, 31.62040989404311375 ) ) ;
#382 = ORIENTED_EDGE ( 'NONE', *, *, #59, .F. ) ;
#383 = CARTESIAN_POINT ( 'NONE',  ( 37.67567363367812305, 23.30067363367830779, -1.008094568544238179 ) ) ;
#384 = EDGE_CURVE ( 'NONE', #263, #9, #358, .T. ) ;
#385 = ORIENTED_EDGE ( 'NONE', *, *, #271, .T. ) ;
#386 = CARTESIAN_POINT ( 'NONE',  ( 14.37500000000012079, 1.135844755180809942E-13, 34.50000000000002132 ) ) ;
#387 = CARTESIAN_POINT ( 'NONE',  ( 0.000000000000000000, -15.99999999999995204, 0.000000000000000000 ) ) ;
#388 = SURFACE_STYLE_FILL_AREA ( #266 ) ;
#389 = FACE_OUTER_BOUND ( 'NONE', #269, .T. ) ;
#390 = CARTESIAN_POINT ( 'NONE',  ( 0.000000000000000000, -15.99999999999995204, 0.000000000000000000 ) ) ;
#391 = CARTESIAN_POINT ( 'NONE',  ( 0.000000000000000000, 237.3298757900007843, 0.000000000000000000 ) ) ;
#392 = DIRECTION ( 'NONE',  ( 1.000000000000000000, 0.000000000000000000, -1.224646799147353207E-16 ) ) ;
#393 = FACE_OUTER_BOUND ( 'NONE', #346, .T. ) ;
#394 = DIRECTION ( 'NONE',  ( 0.000000000000000000, 0.000000000000000000, -1.000000000000000000 ) ) ;
#395 = CIRCLE ( 'NONE', #154, 34.48085972681076328 ) ;
#396 = FACE_OUTER_BOUND ( 'NONE', #43, .T. ) ;
#397 = CARTESIAN_POINT ( 'NONE',  ( 7.482344821854743665E-16, 362.3800000000000523, 0.000000000000000000 ) ) ;
ENDSEC;
END-ISO-10303-21;
