ISO-10303-21;
HEADER;
FILE_DESCRIPTION (( 'STEP AP214' ),
    '1' );
FILE_NAME ('Foot.STEP',
    '2026-07-30T17:55:17',
    ( '' ),
    ( '' ),
    'SwSTEP 2.0',
    'SolidWorks 2024',
    '' );
FILE_SCHEMA (( 'AUTOMOTIVE_DESIGN' ));
ENDSEC;

DATA;
#1 = CARTESIAN_POINT ( 'NONE',  ( -103.9519087113744149, -63.25000000000000000, 48.68286582504366322 ) ) ;
#2 = EDGE_LOOP ( 'NONE', ( #44, #241, #286 ) ) ;
#3 = AXIS2_PLACEMENT_3D ( 'NONE', #224, #138, #274 ) ;
#4 = LINE ( 'NONE', #207, #177 ) ;
#5 = EDGE_CURVE ( 'NONE', #40, #91, #242, .T. ) ;
#6 = CARTESIAN_POINT ( 'NONE',  ( -109.2500000000000142, -63.25000000000000000, 0.000000000000000000 ) ) ;
#7 = DIRECTION ( 'NONE',  ( -1.000000000000000000, 0.000000000000000000, 0.000000000000000000 ) ) ;
#8 = CARTESIAN_POINT ( 'NONE',  ( -6.165532876211870850, -24.19984610741168396, 14.28668962873928017 ) ) ;
#9 = CARTESIAN_POINT ( 'NONE',  ( 5.670389700279720557, -24.79837599419085237, 13.40716706383792456 ) ) ;
#10 = CARTESIAN_POINT ( 'NONE',  ( -19.98798009723741487, -20.66502242032275305, -3.795149770510766326E-15 ) ) ;
#11 = CARTESIAN_POINT ( 'NONE',  ( -19.41910388465542070, -20.87019959182822149, 3.767932272977791985 ) ) ;
#12 = CARTESIAN_POINT ( 'NONE',  ( -14.87692404637132348, -22.32379452870424785, -10.35315278623036050 ) ) ;
#13 = CARTESIAN_POINT ( 'NONE',  ( -17.76737278792340291, -21.43697292625020978, -7.186337425634864218 ) ) ;
#14 = AXIS2_PLACEMENT_3D ( 'NONE', #161, #47, #157 ) ;
#15 = CARTESIAN_POINT ( 'NONE',  ( 16.25641966336254995, -23.45169498537226360, -3.519320633106250540 ) ) ;
#16 = ORIENTED_EDGE ( 'NONE', *, *, #139, .F. ) ;
#17 = CARTESIAN_POINT ( 'NONE',  ( 2.530717356903610771, -24.85489209959562729, -14.23704606431719100 ) ) ;
#18 = EDGE_LOOP ( 'NONE', ( #38, #129 ) ) ;
#19 = SURFACE_SIDE_STYLE ('',( #132 ) ) ;
#20 = ORIENTED_EDGE ( 'NONE', *, *, #273, .F. ) ;
#21 =( NAMED_UNIT ( * ) PLANE_ANGLE_UNIT ( ) SI_UNIT ( $, .RADIAN. ) );
#22 = CIRCLE ( 'NONE', #112, 73.14338235294118817 ) ;
#23 = DIRECTION ( 'NONE',  ( 1.000000000000000000, -0.000000000000000000, -0.000000000000000000 ) ) ;
#24 = DIRECTION ( 'NONE',  ( 0.000000000000000000, 0.000000000000000000, 1.000000000000000000 ) ) ;
#25 = ADVANCED_FACE ( 'NONE', ( #50 ), #70, .T. ) ;
#26 = DIRECTION ( 'NONE',  ( 0.000000000000000000, 0.000000000000000000, -1.000000000000000000 ) ) ;
#27 =( LENGTH_UNIT ( ) NAMED_UNIT ( * ) SI_UNIT ( .MILLI., .METRE. ) );
#28 = DIRECTION ( 'NONE',  ( -1.000000000000000000, 0.000000000000000000, 0.000000000000000000 ) ) ;
#29 = CARTESIAN_POINT ( 'NONE',  ( 10.99227582174305162, -24.34452643074548917, 10.64791244732776931 ) ) ;
#30 = AXIS2_PLACEMENT_3D ( 'NONE', #75, #134, #28 ) ;
#31 = CARTESIAN_POINT ( 'NONE',  ( -19.23304369453596152, -20.93604029937192834, -4.290773848000687174 ) ) ;
#32 = CARTESIAN_POINT ( 'NONE',  ( 8.697512330916627121, -24.60143067630000857, 12.11974466205117729 ) ) ;
#33 = PRODUCT_DEFINITION ( 'UNKNOWN', '', #219, #71 ) ;
#34 = CARTESIAN_POINT ( 'NONE',  ( -15.70100380333839674, -22.08751453867876080, 9.663443986655448015 ) ) ;
#35 = ADVANCED_FACE ( 'NONE', ( #272 ), #275, .T. ) ;
#36 = CARTESIAN_POINT ( 'NONE',  ( 0.000000000000000000, 0.000000000000000000, 0.000000000000000000 ) ) ;
#37 = CARTESIAN_POINT ( 'NONE',  ( -12.22188527941807656, -23.02712498187861101, -12.17111673186242449 ) ) ;
#38 = ORIENTED_EDGE ( 'NONE', *, *, #285, .T. ) ;
#39 =( NAMED_UNIT ( * ) SI_UNIT ( $, .STERADIAN. ) SOLID_ANGLE_UNIT ( ) );
#40 = VERTEX_POINT ( 'NONE', #97 ) ;
#41 = CARTESIAN_POINT ( 'NONE',  ( -14.45575515480619266, -22.44210022088198642, -10.68875817771398573 ) ) ;
#42 = CARTESIAN_POINT ( 'NONE',  ( 51.75000000000000000, -63.25000000000000000, 0.000000000000000000 ) ) ;
#43 = CARTESIAN_POINT ( 'NONE',  ( 13.76568205081324869, -23.92914436861044436, -8.047928807366670156 ) ) ;
#44 = ORIENTED_EDGE ( 'NONE', *, *, #243, .F. ) ;
#45 = DIRECTION ( 'NONE',  ( -1.000000000000000000, 0.000000000000000000, 0.000000000000000000 ) ) ;
#46 = APPLICATION_PROTOCOL_DEFINITION ( 'draft international standard', 'automotive_design', 1998, #180 ) ;
#47 = DIRECTION ( 'NONE',  ( 0.000000000000000000, -1.000000000000000000, 6.982962677686266711E-15 ) ) ;
#48 = EDGE_CURVE ( 'NONE', #67, #203, #159, .T. ) ;
#49 = DIRECTION ( 'NONE',  ( 0.000000000000000000, 6.982962677686266711E-15, 1.000000000000000000 ) ) ;
#50 = FACE_OUTER_BOUND ( 'NONE', #2, .T. ) ;
#51 = CIRCLE ( 'NONE', #3, 28.75000000000000711 ) ;
#52 = CARTESIAN_POINT ( 'NONE',  ( 51.75000000000000000, -63.25000000000026290, -37.37500000000000000 ) ) ;
#53 = CARTESIAN_POINT ( 'NONE',  ( 6.699920179637713247, -24.74579319913566522, 13.02388914695045763 ) ) ;
#54 = CARTESIAN_POINT ( 'NONE',  ( -19.40862778618149420, -20.87382924568650466, -3.771858092098333337 ) ) ;
#55 = CIRCLE ( 'NONE', #238, 48.68286582504366322 ) ;
#56 = CARTESIAN_POINT ( 'NONE',  ( -9.304523550296263323, -23.66499654147321152, 13.45906673726009295 ) ) ;
#57 = EDGE_CURVE ( 'NONE', #127, #203, #4, .T. ) ;
#58 = CARTESIAN_POINT ( 'NONE',  ( 14.44160822693688928, -23.80955086986366354, 7.170210817538919201 ) ) ;
#59 = CARTESIAN_POINT ( 'NONE',  ( -19.69966870666522496, -20.76972881374221913, -2.720939807685819112 ) ) ;
#60 = AXIS2_PLACEMENT_3D ( 'NONE', #247, #45, #24 ) ;
#61 = CARTESIAN_POINT ( 'NONE',  ( 16.48430853681754016, -23.40330251149568141, -2.724093670568856318 ) ) ;
#62 = ORIENTED_EDGE ( 'NONE', *, *, #57, .T. ) ;
#63 =( NAMED_UNIT ( * ) PLANE_ANGLE_UNIT ( ) SI_UNIT ( $, .RADIAN. ) );
#64 = VERTEX_POINT ( 'NONE', #179 ) ;
#65 = CARTESIAN_POINT ( 'NONE',  ( -18.05961547253723865, -21.33971197539299780, -6.732651715217704336 ) ) ;
#66 = CARTESIAN_POINT ( 'NONE',  ( 0.3749108690268319055, -24.80980794912431620, -14.56306780524774425 ) ) ;
#67 = VERTEX_POINT ( 'NONE', #1 ) ;
#68 = PLANE ( 'NONE',  #60 ) ;
#69 = VECTOR ( 'NONE', #73, 1000.000000000000000 ) ;
#70 = SPHERICAL_SURFACE ( 'NONE', #197, 28.75000000000000711 ) ;
#71 = PRODUCT_DEFINITION_CONTEXT ( 'detailed design', #279, 'design' ) ;
#72 = DIRECTION ( 'NONE',  ( 0.000000000000000000, 0.000000000000000000, 1.000000000000000000 ) ) ;
#73 = DIRECTION ( 'NONE',  ( 0.9973731844388979972, 5.058061651145355326E-16, 0.07243432171430841393 ) ) ;
#74 = DIRECTION ( 'NONE',  ( 0.000000000000000000, 0.000000000000000000, -1.000000000000000000 ) ) ;
#75 = CARTESIAN_POINT ( 'NONE',  ( 0.000000000000000000, 0.000000000000000000, 0.000000000000000000 ) ) ;
#76 = VECTOR ( 'NONE', #205, 1000.000000000000000 ) ;
#77 = CARTESIAN_POINT ( 'NONE',  ( 14.75122165594367019, -23.75207639423234340, 6.715864990195732354 ) ) ;
#78 = CARTESIAN_POINT ( 'NONE',  ( -16.78744584999452627, -21.75257698634135295, 8.477583584949153206 ) ) ;
#79 = CARTESIAN_POINT ( 'NONE',  ( -1.760429773774320516E-15, 28.75000000000000711, 0.000000000000000000 ) ) ;
#80 = EDGE_CURVE ( 'NONE', #133, #266, #51, .T. ) ;
#81 = AXIS2_PLACEMENT_3D ( 'NONE', #164, #137, #141 ) ;
#82 = CARTESIAN_POINT ( 'NONE',  ( -19.98798009723738645, -20.66502242032276726, -0.2752547802288421996 ) ) ;
#83 = CARTESIAN_POINT ( 'NONE',  ( -14.89981400241994258, -22.32205461300090477, 10.36793935898691643 ) ) ;
#84 = CARTESIAN_POINT ( 'NONE',  ( -7.193266114995631177, -24.04156929326323322, -14.07193690764630745 ) ) ;
#85 = PRESENTATION_LAYER_ASSIGNMENT (  '', '', ( #89 ) ) ;
#86 = CARTESIAN_POINT ( 'NONE',  ( 15.55432913724186506, -23.59635435182191543, -5.304459949941173313 ) ) ;
#87 = ORIENTED_EDGE ( 'NONE', *, *, #264, .T. ) ;
#88 = CARTESIAN_POINT ( 'NONE',  ( 9.639582994017191098, -24.50730569070967135, -11.58679455851493678 ) ) ;
#89 = STYLED_ITEM ( 'NONE', ( #173 ), #282 ) ;
#90 = CARTESIAN_POINT ( 'NONE',  ( 11.44622935274711217, -24.28990256853871799, -10.33285379132375859 ) ) ;
#91 = VERTEX_POINT ( 'NONE', #226 ) ;
#92 = PRODUCT_DEFINITION_SHAPE ( 'NONE', 'NONE',  #33 ) ;
#93 = CARTESIAN_POINT ( 'NONE',  ( 51.75000000000000000, -63.25000000000000000, 37.37500000000000000 ) ) ;
#94 = FACE_BOUND ( 'NONE', #208, .T. ) ;
#95 = DIRECTION ( 'NONE',  ( 0.000000000000000000, 0.000000000000000000, 1.000000000000000000 ) ) ;
#96 = CARTESIAN_POINT ( 'NONE',  ( 51.75000000000000000, -63.25000000000026290, -37.37500000000000000 ) ) ;
#97 = CARTESIAN_POINT ( 'NONE',  ( -178.2500000000000284, -63.25000000000000000, 0.000000000000000000 ) ) ;
#98 = CARTESIAN_POINT ( 'NONE',  ( -19.91486733049935154, -20.69167003366051105, -1.374820120461489825 ) ) ;
#99 = MECHANICAL_DESIGN_GEOMETRIC_PRESENTATION_REPRESENTATION (  '', ( #89 ), #191 ) ;
#100 = CARTESIAN_POINT ( 'NONE',  ( -10.30201711399594089, -23.46133694637151024, 13.08344108166851605 ) ) ;
#101 = CARTESIAN_POINT ( 'NONE',  ( 2.509249498536630263, -24.86181982125398093, 14.26041233363859639 ) ) ;
#102 = CARTESIAN_POINT ( 'NONE',  ( -19.94215766974649995, -20.68172957165306158, -1.102144050005633868 ) ) ;
#103 = CARTESIAN_POINT ( 'NONE',  ( -19.97874091501259031, -20.66839589428769131, -0.5528423959627346562 ) ) ;
#104 = CARTESIAN_POINT ( 'NONE',  ( -16.06107877527780303, -21.97649604038047855, -9.270260633058278188 ) ) ;
#105 = CARTESIAN_POINT ( 'NONE',  ( -13.14524936648340514, -22.79599220151773764, -11.63283034549911399 ) ) ;
#106 = FILL_AREA_STYLE ('',( #267 ) ) ;
#107 = CARTESIAN_POINT ( 'NONE',  ( 3.603883044558468196, -24.85326046268002997, -14.00682489488226068 ) ) ;
#108 = ORIENTED_EDGE ( 'NONE', *, *, #5, .F. ) ;
#109 = UNCERTAINTY_MEASURE_WITH_UNIT (LENGTH_MEASURE( 1.000000000000000082E-05 ), #261, 'distance_accuracy_value', 'NONE');
#110 = CARTESIAN_POINT ( 'NONE',  ( -19.13651282220526184, -20.97005745618828598, -4.548492652312654094 ) ) ;
#111 = EDGE_LOOP ( 'NONE', ( #62, #119, #156, #223, #202 ) ) ;
#112 = AXIS2_PLACEMENT_3D ( 'NONE', #162, #250, #140 ) ;
#113 = APPLICATION_PROTOCOL_DEFINITION ( 'draft international standard', 'automotive_design', 1998, #279 ) ;
#114 = DIRECTION ( 'NONE',  ( 0.000000000000000000, 0.000000000000000000, 1.000000000000000000 ) ) ;
#115 = DIRECTION ( 'NONE',  ( 1.000000000000000000, 0.000000000000000000, 0.000000000000000000 ) ) ;
#116 = FACE_OUTER_BOUND ( 'NONE', #152, .T. ) ;
#117 = CARTESIAN_POINT ( 'NONE',  ( 16.79238715858873476, -23.33620006590757257, 2.056474318381031885E-15 ) ) ;
#118 = ORIENTED_EDGE ( 'NONE', *, *, #243, .T. ) ;
#119 = ORIENTED_EDGE ( 'NONE', *, *, #48, .F. ) ;
#120 = CARTESIAN_POINT ( 'NONE',  ( 12.66163484687626450, -24.10910374481756691, 9.235594696416388416 ) ) ;
#121 = AXIS2_PLACEMENT_3D ( 'NONE', #42, #136, #74 ) ;
#122 = CARTESIAN_POINT ( 'NONE',  ( 16.63667849645558050, -23.37093119473361469, 2.188553647986164918 ) ) ;
#123 = CARTESIAN_POINT ( 'NONE',  ( -17.13176557590669447, -21.64327155304992800, 8.058463789185797310 ) ) ;
#124 = CARTESIAN_POINT ( 'NONE',  ( -18.06267950662777366, -21.33868662087131085, 6.727669526203153616 ) ) ;
#125 = CARTESIAN_POINT ( 'NONE',  ( 0.8804731910056439181, -24.82174015253531252, 14.49031753305930792 ) ) ;
#126 = CARTESIAN_POINT ( 'NONE',  ( -10.27433509240846909, -23.46186934467706919, -13.07075759983392693 ) ) ;
#127 = VERTEX_POINT ( 'NONE', #96 ) ;
#128 = CARTESIAN_POINT ( 'NONE',  ( -6.137396339379280974, -24.20395027529565368, -14.29194264616526411 ) ) ;
#129 = ORIENTED_EDGE ( 'NONE', *, *, #57, .F. ) ;
#130 = EDGE_CURVE ( 'NONE', #91, #67, #55, .T. ) ;
#131 = CARTESIAN_POINT ( 'NONE',  ( -10.76968729855322415, -23.35545772629288308, -12.86071796947829426 ) ) ;
#132 = SURFACE_STYLE_FILL_AREA ( #106 ) ;
#133 = VERTEX_POINT ( 'NONE', #117 ) ;
#134 = DIRECTION ( 'NONE',  ( 0.000000000000000000, 0.000000000000000000, 1.000000000000000000 ) ) ;
#135 = ADVANCED_BREP_SHAPE_REPRESENTATION ( 'Foot', ( #282, #196 ), #158 ) ;
#136 = DIRECTION ( 'NONE',  ( 1.000000000000000000, -0.000000000000000000, -0.000000000000000000 ) ) ;
#137 = DIRECTION ( 'NONE',  ( 0.000000000000000000, 1.000000000000000000, -6.982962677686266711E-15 ) ) ;
#138 = DIRECTION ( 'NONE',  ( -1.224646799147353207E-16, 0.000000000000000000, 1.000000000000000000 ) ) ;
#139 = EDGE_CURVE ( 'NONE', #91, #127, #184, .T. ) ;
#140 = DIRECTION ( 'NONE',  ( 0.000000000000000000, 0.000000000000000000, -1.000000000000000000 ) ) ;
#141 = DIRECTION ( 'NONE',  ( 0.000000000000000000, 6.982962677686266711E-15, 1.000000000000000000 ) ) ;
#142 = CARTESIAN_POINT ( 'NONE',  ( 5.150601838929151022, -24.81860471085943942, 13.57825477621939925 ) ) ;
#143 = CARTESIAN_POINT ( 'NONE',  ( -19.48781490718505793, -20.84559057867360821, -3.510530225772461765 ) ) ;
#144 = AXIS2_PLACEMENT_3D ( 'NONE', #182, #271, #72 ) ;
#145 = CARTESIAN_POINT ( 'NONE',  ( 7.209196922115634898, -24.71340445921872941, 12.81164803834254506 ) ) ;
#146 = CARTESIAN_POINT ( 'NONE',  ( -0.7624388303871559858, -24.74571916850652542, 14.62640724959282856 ) ) ;
#147 = CARTESIAN_POINT ( 'NONE',  ( 13.77280021323029935, -23.92791982169559972, 8.039360127886991947 ) ) ;
#148 = B_SPLINE_CURVE_WITH_KNOTS ( 'NONE', 3,
 ( #10, #82, #103, #102, #98, #254, #59, #143, #54, #31, #110, #245, #262, #65, #13, #151, #174, #104, #240, #12, #41, #105, #37, #131, #126, #201, #194, #84, #128, #171, #288, #220, #66, #287, #17, #107, #283, #216, #200, #195, #88, #90, #221, #284, #43, #258, #176, #217, #86, #215, #265, #198, #15, #61, #154, #244, #239, #178 ),
 .UNSPECIFIED., .F., .F.,
 ( 4, 2, 2, 2, 2, 2, 2, 2, 2, 2, 2, 2, 2, 2, 2, 2, 2, 2, 2, 2, 2, 2, 2, 2, 2, 2, 2, 2, 4 ),
 ( 0.05240240902430713665, 0.05321927238826736767, 0.05403613575222759174, 0.05566986248014804683, 0.05648672584410827091, 0.05730358920806849499, 0.05893731593598894314, 0.06057104266390939129, 0.06220476939182983944, 0.06383849611975028759, 0.06547222284767073575, 0.06873967630351163205, 0.07037340303143209408, 0.07200712975935254223, 0.07527458321519345241, 0.07854203667103437647, 0.08180949012687527278, 0.08344321685479573480, 0.08507694358271619683, 0.08834439703855710702, 0.09161185049439801720, 0.09487930395023894126, 0.09651303067815938941, 0.09814675740607985144, 0.09978048413400031347, 0.1005973474979605375, 0.1014142108619207616, 0.1030479375898412375, 0.1046816643177616857 ),
 .UNSPECIFIED. ) ;
#149 = SURFACE_STYLE_USAGE ( .BOTH. , #19 ) ;
#150 = EDGE_CURVE ( 'NONE', #40, #67, #22, .T. ) ;
#151 = CARTESIAN_POINT ( 'NONE',  ( -17.12898626861329276, -21.64415858746349386, -8.061948776275734474 ) ) ;
#152 = EDGE_LOOP ( 'NONE', ( #290, #260, #175, #16 ) ) ;
#153 = UNCERTAINTY_MEASURE_WITH_UNIT (LENGTH_MEASURE( 1.000000000000000082E-05 ), #27, 'distance_accuracy_value', 'NONE');
#154 = CARTESIAN_POINT ( 'NONE',  ( 16.59891973849572722, -23.37844726313498356, -2.187894680893411881 ) ) ;
#155 = ORIENTED_EDGE ( 'NONE', *, *, #150, .T. ) ;
#156 = ORIENTED_EDGE ( 'NONE', *, *, #150, .F. ) ;
#157 = DIRECTION ( 'NONE',  ( 0.000000000000000000, 7.020158657845924887E-15, 1.000000000000000000 ) ) ;
#158 =( GEOMETRIC_REPRESENTATION_CONTEXT ( 3 ) GLOBAL_UNCERTAINTY_ASSIGNED_CONTEXT ( ( #153 ) ) GLOBAL_UNIT_ASSIGNED_CONTEXT ( ( #27, #21, #229 ) ) REPRESENTATION_CONTEXT ( 'NONE', 'WORKASPACE' ) );
#159 = LINE ( 'NONE', #93, #76 ) ;
#160 = SHAPE_DEFINITION_REPRESENTATION ( #92, #135 ) ;
#161 = CARTESIAN_POINT ( 'NONE',  ( -109.2500000000000142, -63.24999999999983658, 24.26838235294118107 ) ) ;
#162 = CARTESIAN_POINT ( 'NONE',  ( -109.2500000000000142, -63.25000000000000000, -24.26838235294118107 ) ) ;
#163 = AXIS2_PLACEMENT_3D ( 'NONE', #6, #252, #204 ) ;
#164 = CARTESIAN_POINT ( 'NONE',  ( -109.2500000000000142, -63.24999999999983658, 24.26838235294118107 ) ) ;
#165 = CARTESIAN_POINT ( 'NONE',  ( 13.41602461803106472, -23.98839794090148914, 8.451576033369160967 ) ) ;
#166 = CARTESIAN_POINT ( 'NONE',  ( -19.98798009723741487, -20.66502242032275305, -3.795149770510766326E-15 ) ) ;
#167 = CARTESIAN_POINT ( 'NONE',  ( 16.18502816604361172, -23.46686262029940551, 3.770333256855214810 ) ) ;
#168 = AXIS2_PLACEMENT_3D ( 'NONE', #36, #212, #7 ) ;
#169 = CARTESIAN_POINT ( 'NONE',  ( 9.645309674184964877, -24.50662200517160372, 11.58285442551667366 ) ) ;
#170 = CARTESIAN_POINT ( 'NONE',  ( -19.84327029649883301, -20.71829788115423909, 2.183075364246213734 ) ) ;
#171 = CARTESIAN_POINT ( 'NONE',  ( -3.987100560068425281, -24.47851711100843275, -14.58299340076849937 ) ) ;
#172 = CLOSED_SHELL ( 'NONE', ( #25, #183, #234, #213, #35, #192 ) ) ;
#173 = PRESENTATION_STYLE_ASSIGNMENT (( #149 ) ) ;
#174 = CARTESIAN_POINT ( 'NONE',  ( -16.78552113012984748, -21.75318182922368848, -8.479842129312640253 ) ) ;
#175 = ORIENTED_EDGE ( 'NONE', *, *, #285, .F. ) ;
#176 = CARTESIAN_POINT ( 'NONE',  ( 14.74590915150444381, -23.75307202621758051, -6.723995748014066187 ) ) ;
#177 = VECTOR ( 'NONE', #49, 1000.000000000000000 ) ;
#178 = CARTESIAN_POINT ( 'NONE',  ( 16.79238715858873476, -23.33620006590757257, 2.056474318381031885E-15 ) ) ;
#179 = CARTESIAN_POINT ( 'NONE',  ( -19.98798009723741487, -20.66502242032275305, -3.795149770510766326E-15 ) ) ;
#180 = APPLICATION_CONTEXT ( 'automotive_design' ) ;
#181 = CARTESIAN_POINT ( 'NONE',  ( 0.000000000000000000, 0.000000000000000000, 0.000000000000000000 ) ) ;
#182 = CARTESIAN_POINT ( 'NONE',  ( -103.9519087113744149, -63.25000000000000000, 0.000000000000000000 ) ) ;
#183 = ADVANCED_FACE ( 'NONE', ( #230 ), #185, .T. ) ;
#184 = LINE ( 'NONE', #52, #69 ) ;
#185 = SPHERICAL_SURFACE ( 'NONE', #30, 28.75000000000000711 ) ;
#186 = CARTESIAN_POINT ( 'NONE',  ( -17.77052241812352307, -21.43593560924938757, 7.181687228749551899 ) ) ;
#187 = CARTESIAN_POINT ( 'NONE',  ( -11.74362988903658689, -23.13518346972136541, 12.39789891344866746 ) ) ;
#188 = PRODUCT ( 'Foot', 'Foot', '', ( #225 ) ) ;
#189 = CARTESIAN_POINT ( 'NONE',  ( -19.98798009723739000, -20.66502242032276371, 1.103612780899958290 ) ) ;
#190 = CARTESIAN_POINT ( 'NONE',  ( -19.24128904281757713, -20.93340848888069061, 4.292971617247800964 ) ) ;
#191 =( GEOMETRIC_REPRESENTATION_CONTEXT ( 3 ) GLOBAL_UNCERTAINTY_ASSIGNED_CONTEXT ( ( #109 ) ) GLOBAL_UNIT_ASSIGNED_CONTEXT ( ( #261, #63, #39 ) ) REPRESENTATION_CONTEXT ( 'NONE', 'WORKASPACE' ) );
#192 = ADVANCED_FACE ( 'NONE', ( #270 ), #248, .F. ) ;
#193 = CARTESIAN_POINT ( 'NONE',  ( 15.30916211409812533, -23.64514453524151705, 5.779205068049445337 ) ) ;
#194 = CARTESIAN_POINT ( 'NONE',  ( -8.747265781044383459, -23.76492089949465480, -13.62261487199529597 ) ) ;
#195 = CARTESIAN_POINT ( 'NONE',  ( 8.694202227833232044, -24.60155517730113672, -12.12076658614305913 ) ) ;
#196 = AXIS2_PLACEMENT_3D ( 'NONE', #246, #95, #115 ) ;
#197 = AXIS2_PLACEMENT_3D ( 'NONE', #181, #114, #249 ) ;
#198 = CARTESIAN_POINT ( 'NONE',  ( 16.17091522305019780, -23.46971412074919527, -3.783181062515396764 ) ) ;
#199 = ORIENTED_EDGE ( 'NONE', *, *, #130, .F. ) ;
#200 = CARTESIAN_POINT ( 'NONE',  ( 6.732312864688737797, -24.74940648036695023, -13.03385954034841276 ) ) ;
#201 = CARTESIAN_POINT ( 'NONE',  ( -9.261332584547377067, -23.66697899617613743, -13.45242739896292505 ) ) ;
#202 = ORIENTED_EDGE ( 'NONE', *, *, #139, .T. ) ;
#203 = VERTEX_POINT ( 'NONE', #209 ) ;
#204 = DIRECTION ( 'NONE',  ( 0.000000000000000000, 0.000000000000000000, -1.000000000000000000 ) ) ;
#205 = DIRECTION ( 'NONE',  ( 0.9973731844388979972, -0.000000000000000000, -0.07243432171430841393 ) ) ;
#206 = COLOUR_RGB ( '',0.7921568627450980005, 0.8196078431372548767, 0.9333333333333333481 ) ;
#207 = CARTESIAN_POINT ( 'NONE',  ( 51.75000000000000000, -63.25000000000000000, 0.000000000000000000 ) ) ;
#208 = EDGE_LOOP ( 'NONE', ( #263, #118 ) ) ;
#209 = CARTESIAN_POINT ( 'NONE',  ( 51.75000000000000000, -63.25000000000000000, 37.37500000000000000 ) ) ;
#210 = CARTESIAN_POINT ( 'NONE',  ( -1.307509498784339419, -24.71098040227683512, 14.64641308492461036 ) ) ;
#211 = CARTESIAN_POINT ( 'NONE',  ( 11.43009924807870448, -24.28697008745748676, 10.31310997421722675 ) ) ;
#212 = DIRECTION ( 'NONE',  ( -0.000000000000000000, -0.000000000000000000, -1.000000000000000000 ) ) ;
#213 = ADVANCED_FACE ( 'NONE', ( #269 ), #68, .F. ) ;
#214 = CARTESIAN_POINT ( 'NONE',  ( 15.55900730539432253, -23.59541855142618871, 5.295008200909066431 ) ) ;
#215 = CARTESIAN_POINT ( 'NONE',  ( 15.88249316386919041, -23.52958536968894165, -4.554392986107009378 ) ) ;
#216 = CARTESIAN_POINT ( 'NONE',  ( 5.715657945917126170, -24.80308164308091179, -13.41263839799780300 ) ) ;
#217 = CARTESIAN_POINT ( 'NONE',  ( 15.30441101298063522, -23.64607723720744659, -5.787954823959056583 ) ) ;
#218 = EDGE_LOOP ( 'NONE', ( #222, #20, #87 ) ) ;
#219 = PRODUCT_DEFINITION_FORMATION_WITH_SPECIFIED_SOURCE ( 'ANY', '', #188, .NOT_KNOWN. ) ;
#220 = CARTESIAN_POINT ( 'NONE',  ( -0.7088435868355782432, -24.75592349208428189, -14.64229347320400620 ) ) ;
#221 = CARTESIAN_POINT ( 'NONE',  ( 12.27874294552328038, -24.17028758391264276, -9.632537539997672482 ) ) ;
#222 = ORIENTED_EDGE ( 'NONE', *, *, #80, .F. ) ;
#223 = ORIENTED_EDGE ( 'NONE', *, *, #5, .T. ) ;
#224 = CARTESIAN_POINT ( 'NONE',  ( 0.000000000000000000, 0.000000000000000000, 0.000000000000000000 ) ) ;
#225 = PRODUCT_CONTEXT ( 'NONE', #180, 'mechanical' ) ;
#226 = CARTESIAN_POINT ( 'NONE',  ( -103.9519087113744149, -63.25000000000033396, -48.68286582504366322 ) ) ;
#227 = CARTESIAN_POINT ( 'NONE',  ( -103.9519087113744149, -63.25000000000000000, 0.000000000000000000 ) ) ;
#228 = CIRCLE ( 'NONE', #168, 28.75000000000000711 ) ;
#229 =( NAMED_UNIT ( * ) SI_UNIT ( $, .STERADIAN. ) SOLID_ANGLE_UNIT ( ) );
#230 = FACE_OUTER_BOUND ( 'NONE', #218, .T. ) ;
#231 = PRODUCT_RELATED_PRODUCT_CATEGORY ( 'part', '', ( #188 ) ) ;
#232 = CARTESIAN_POINT ( 'NONE',  ( 16.79238715858873476, -23.33620006590757257, 2.056474318381031885E-15 ) ) ;
#233 = CARTESIAN_POINT ( 'NONE',  ( 15.99652327807872965, -23.50636817399039558, 4.292492874390466895 ) ) ;
#234 = ADVANCED_FACE ( 'NONE', ( #116, #94 ), #259, .T. ) ;
#235 = CARTESIAN_POINT ( 'NONE',  ( -13.13831190964534024, -22.79339670668890960, 11.60638670487222335 ) ) ;
#236 = CARTESIAN_POINT ( 'NONE',  ( -7.239915101539987852, -24.03395475873316656, 14.06077327964712786 ) ) ;
#237 = CARTESIAN_POINT ( 'NONE',  ( -18.82767636950282153, -21.07807281780952025, 5.300740430399607739 ) ) ;
#238 = AXIS2_PLACEMENT_3D ( 'NONE', #227, #23, #26 ) ;
#239 = CARTESIAN_POINT ( 'NONE',  ( 16.79238715858875253, -23.33620006590758322, -0.5527890490371272225 ) ) ;
#240 = CARTESIAN_POINT ( 'NONE',  ( -15.67895201074325584, -22.09116415082141671, -9.644344154094033783 ) ) ;
#241 = ORIENTED_EDGE ( 'NONE', *, *, #80, .T. ) ;
#242 = CIRCLE ( 'NONE', #14, 73.14338235294118817 ) ;
#243 = EDGE_CURVE ( 'NONE', #133, #64, #268, .T. ) ;
#244 = CARTESIAN_POINT ( 'NONE',  ( 16.75295134045838452, -23.34489740773953770, -1.103268988614321877 ) ) ;
#245 = CARTESIAN_POINT ( 'NONE',  ( -18.82556029678608667, -21.07880757029163732, -5.305423960468119482 ) ) ;
#246 = CARTESIAN_POINT ( 'NONE',  ( 0.000000000000000000, 0.000000000000000000, 0.000000000000000000 ) ) ;
#247 = CARTESIAN_POINT ( 'NONE',  ( 51.75000000000000000, -63.25000000000000000, 0.000000000000000000 ) ) ;
#248 = PLANE ( 'NONE',  #81 ) ;
#249 = DIRECTION ( 'NONE',  ( -1.000000000000000000, 0.000000000000000000, 0.000000000000000000 ) ) ;
#250 = DIRECTION ( 'NONE',  ( -0.000000000000000000, 1.000000000000000000, -0.000000000000000000 ) ) ;
#251 = CIRCLE ( 'NONE', #121, 37.37500000000000000 ) ;
#252 = DIRECTION ( 'NONE',  ( 1.000000000000000000, -0.000000000000000000, -0.000000000000000000 ) ) ;
#253 = CARTESIAN_POINT ( 'NONE',  ( 16.79238715858874897, -23.33620006590758322, 1.108182497596828187 ) ) ;
#254 = CARTESIAN_POINT ( 'NONE',  ( -19.80671809755800794, -20.73094740677258230, -2.187088834294677486 ) ) ;
#255 = CARTESIAN_POINT ( 'NONE',  ( -4.018092677862030726, -24.47505737101307943, 14.58020389897597546 ) ) ;
#256 = CARTESIAN_POINT ( 'NONE',  ( 0.3310595032797739590, -24.80111398964633906, 14.54850039163734543 ) ) ;
#257 = CARTESIAN_POINT ( 'NONE',  ( -2.937789756545696740, -24.58602200661812276, 14.65085705267477145 ) ) ;
#258 = CARTESIAN_POINT ( 'NONE',  ( 14.43560836701963979, -23.81064733169996828, -7.178676434118417049 ) ) ;
#259 = CONICAL_SURFACE ( 'NONE', #144, 48.68286582504366322, 0.07249781229835280949 ) ;
#260 = ORIENTED_EDGE ( 'NONE', *, *, #48, .T. ) ;
#261 =( LENGTH_UNIT ( ) NAMED_UNIT ( * ) SI_UNIT ( .MILLI., .METRE. ) );
#262 = CARTESIAN_POINT ( 'NONE',  ( -18.58869928503578706, -21.16063387892228675, -5.792188710649713634 ) ) ;
#263 = ORIENTED_EDGE ( 'NONE', *, *, #273, .T. ) ;
#264 = EDGE_CURVE ( 'NONE', #64, #266, #228, .T. ) ;
#265 = CARTESIAN_POINT ( 'NONE',  ( 15.98407681331916841, -23.50863258188881488, -4.300223432359575604 ) ) ;
#266 = VERTEX_POINT ( 'NONE', #79 ) ;
#267 = FILL_AREA_STYLE_COLOUR ( '', #206 ) ;
#268 = B_SPLINE_CURVE_WITH_KNOTS ( 'NONE', 3,
 ( #232, #253, #122, #167, #233, #214, #193, #77, #58, #147, #165, #120, #276, #211, #29, #169, #32, #145, #53, #9, #142, #278, #101, #125, #256, #146, #210, #257, #255, #8, #236, #56, #100, #187, #277, #235, #281, #83, #34, #78, #123, #186, #124, #280, #237, #190, #11, #170, #189, #166 ),
 .UNSPECIFIED., .F., .F.,
 ( 4, 2, 2, 2, 2, 2, 2, 2, 2, 2, 2, 2, 2, 2, 2, 2, 2, 2, 2, 2, 2, 2, 2, 2, 4 ),
 ( 4.496481649102181088E-18, 0.003275150564019197776, 0.004912725846028794495, 0.006550301128038391214, 0.008187876410047990536, 0.009825451692057588990, 0.01146302697406718918, 0.01310060225607679110, 0.01637575282009598454, 0.01801332810210558646, 0.01965090338411518145, 0.02292605394813438183, 0.02456362923014398028, 0.02620120451215357874, 0.02947635507617277564, 0.03275150564019196908, 0.03602665620421116599, 0.03766423148622076444, 0.03930180676823035596, 0.04257695733224955287, 0.04421453261425915132, 0.04585210789626874978, 0.04748968317827834823, 0.04912725846028793975, 0.05240240902430713665 ),
 .UNSPECIFIED. ) ;
#269 = FACE_OUTER_BOUND ( 'NONE', #18, .T. ) ;
#270 = FACE_OUTER_BOUND ( 'NONE', #111, .T. ) ;
#271 = DIRECTION ( 'NONE',  ( -1.000000000000000000, 0.000000000000000000, 0.000000000000000000 ) ) ;
#272 = FACE_OUTER_BOUND ( 'NONE', #289, .T. ) ;
#273 = EDGE_CURVE ( 'NONE', #64, #133, #148, .T. ) ;
#274 = DIRECTION ( 'NONE',  ( 1.000000000000000000, 0.000000000000000000, 1.224646799147353207E-16 ) ) ;
#275 = TOROIDAL_SURFACE ( 'NONE', #163, -24.26838235294118107, 73.14338235294118817 ) ;
#276 = CARTESIAN_POINT ( 'NONE',  ( 12.26400182023956908, -24.16933743936051115, 9.607377856926932580 ) ) ;
#277 = CARTESIAN_POINT ( 'NONE',  ( -12.21501253279234689, -23.02302947131103750, 12.14890811528052872 ) ) ;
#278 = CARTESIAN_POINT ( 'NONE',  ( 3.577061605636196351, -24.85998135454800817, 14.03359628822940941 ) ) ;
#279 = APPLICATION_CONTEXT ( 'automotive_design' ) ;
#280 = CARTESIAN_POINT ( 'NONE',  ( -18.59124725690856650, -21.15975962220707629, 5.787190430563912358 ) ) ;
#281 = CARTESIAN_POINT ( 'NONE',  ( -13.59257686056579928, -22.67525927843788125, 11.31103586972749575 ) ) ;
#282 = MANIFOLD_SOLID_BREP ( 'Oto\X2\010d\X0\it kolem osy2', #172 ) ;
#283 = CARTESIAN_POINT ( 'NONE',  ( 4.139937244132473992, -24.84549456811155110, -13.87170907518109431 ) ) ;
#284 = CARTESIAN_POINT ( 'NONE',  ( 13.40881957934237612, -23.98959055015848563, -8.459551119419835175 ) ) ;
#285 = EDGE_CURVE ( 'NONE', #127, #203, #251, .T. ) ;
#286 = ORIENTED_EDGE ( 'NONE', *, *, #264, .F. ) ;
#287 = CARTESIAN_POINT ( 'NONE',  ( 1.992747682470061843, -24.84884522350024483, -14.33259365452175338 ) ) ;
#288 = CARTESIAN_POINT ( 'NONE',  ( -2.886570485239494666, -24.59084655289043297, -14.65308643180343395 ) ) ;
#289 = EDGE_LOOP ( 'NONE', ( #155, #199, #108 ) ) ;
#290 = ORIENTED_EDGE ( 'NONE', *, *, #130, .T. ) ;
ENDSEC;
END-ISO-10303-21;
