ISO-10303-21;
HEADER;
FILE_DESCRIPTION (( 'STEP AP214' ),
    '1' );
FILE_NAME ('Hand.STEP',
    '2026-07-30T17:56:36',
    ( '' ),
    ( '' ),
    'SwSTEP 2.0',
    'SolidWorks 2024',
    '' );
FILE_SCHEMA (( 'AUTOMOTIVE_DESIGN' ));
ENDSEC;

DATA;
#1 = CARTESIAN_POINT ( 'NONE',  ( 13.72750383435344368, 17.90896152025809585, 14.86093305020424360 ) ) ;
#2 = ADVANCED_BREP_SHAPE_REPRESENTATION ( 'Hand', ( #53, #170 ), #142 ) ;
#3 = CARTESIAN_POINT ( 'NONE',  ( 11.12448558171407598, 25.34098738236441051, 23.66184424040982393 ) ) ;
#4 = AXIS2_PLACEMENT_3D ( 'NONE', #195, #50, #220 ) ;
#5 = DIRECTION ( 'NONE',  ( -1.224646799147353207E-16, 0.000000000000000000, -1.000000000000000000 ) ) ;
#6 = CARTESIAN_POINT ( 'NONE',  ( 5.523588067339182265E-15, 57.10314059127713904, 41.72349845320304951 ) ) ;
#7 = CARTESIAN_POINT ( 'NONE',  ( -29.91051737277614109, 142.5023645260508545, 2.490659673206499836 ) ) ;
#8 = ORIENTED_EDGE ( 'NONE', *, *, #163, .F. ) ;
#9 = CARTESIAN_POINT ( 'NONE',  ( -28.71947081122232959, 139.1017395632926252, -14.05518186295826055 ) ) ;
#10 = ORIENTED_EDGE ( 'NONE', *, *, #252, .T. ) ;
#11 = AXIS2_PLACEMENT_3D ( 'NONE', #91, #22, #68 ) ;
#12 = CARTESIAN_POINT ( 'NONE',  ( -13.02217701777115977, 94.28350084379131602, -43.86564616975807240 ) ) ;
#13 = UNCERTAINTY_MEASURE_WITH_UNIT (LENGTH_MEASURE( 1.000000000000000082E-05 ), #239, 'distance_accuracy_value', 'NONE');
#14 = CARTESIAN_POINT ( 'NONE',  ( -29.81882278869901626, 142.2405620897501137, -4.028909828760759204 ) ) ;
#15 = ORIENTED_EDGE ( 'NONE', *, *, #52, .F. ) ;
#16 = PLANE ( 'NONE',  #71 ) ;
#17 = CARTESIAN_POINT ( 'NONE',  ( -26.55020811191024066, 132.9081539183810321, 23.24314831049287378 ) ) ;
#18 = CARTESIAN_POINT ( 'NONE',  ( 13.47810411807988196, 18.62103687334778002, -15.90215449496521316 ) ) ;
#19 = AXIS2_PLACEMENT_3D ( 'NONE', #94, #243, #168 ) ;
#20 = ADVANCED_FACE ( 'NONE', ( #139 ), #16, .T. ) ;
#21 = CARTESIAN_POINT ( 'NONE',  ( -27.80575620004169934, 136.4929408681649932, -18.57884179467901475 ) ) ;
#22 = DIRECTION ( 'NONE',  ( 1.224646799147353207E-16, -0.000000000000000000, 1.000000000000000000 ) ) ;
#23 = CARTESIAN_POINT ( 'NONE',  ( 12.43081138001126007, 21.61122209645560588, 19.73693078970207893 ) ) ;
#24 = CARTESIAN_POINT ( 'NONE',  ( 11.16486368129975837, 25.22570156749191383, -23.61431265087129816 ) ) ;
#25 = CARTESIAN_POINT ( 'NONE',  ( 0.000000000000000000, 148.4681655373205729, -25.87499999999998934 ) ) ;
#26 = CARTESIAN_POINT ( 'NONE',  ( 6.718726251614212330, 37.92012210426558738, 33.31510044854384489 ) ) ;
#27 = CARTESIAN_POINT ( 'NONE',  ( 15.30546972560002139, 13.40362111345341667, 4.911649869255197309 ) ) ;
#28 = EDGE_CURVE ( 'NONE', #107, #210, #293, .T. ) ;
#29 = APPLICATION_PROTOCOL_DEFINITION ( 'draft international standard', 'automotive_design', 1998, #246 ) ;
#30 = CARTESIAN_POINT ( 'NONE',  ( 1.746083598185006469, 52.11779773171303276, -40.12349713980900390 ) ) ;
#31 = DIRECTION ( 'NONE',  ( 0.000000000000000000, 0.000000000000000000, -1.000000000000000000 ) ) ;
#32 = CARTESIAN_POINT ( 'NONE',  ( -8.378055957572978940, 81.02380595262098950, 45.08002217371873144 ) ) ;
#33 = ORIENTED_EDGE ( 'NONE', *, *, #119, .T. ) ;
#34 = CARTESIAN_POINT ( 'NONE',  ( -29.67350673341655209, 141.8256619330019532, -6.359383004639803438 ) ) ;
#35 = CARTESIAN_POINT ( 'NONE',  ( -15.28746482377955118, 100.7512532471015021, -42.51515750214992551 ) ) ;
#36 = CARTESIAN_POINT ( 'NONE',  ( -19.62418076563607627, 113.1332582537148426, 37.87039647951772992 ) ) ;
#37 = ORIENTED_EDGE ( 'NONE', *, *, #233, .T. ) ;
#38 = CARTESIAN_POINT ( 'NONE',  ( -1.505303077825009384, 61.40101725555329182, -42.87328312414077658 ) ) ;
#39 = CARTESIAN_POINT ( 'NONE',  ( -7.215177340975698961, 77.70360489591377018, 45.04371080662244964 ) ) ;
#40 = CARTESIAN_POINT ( 'NONE',  ( 14.78226079247544966, 14.89746477679463865, -9.377326908559941998 ) ) ;
#41 = CARTESIAN_POINT ( 'NONE',  ( -20.67853029797690567, 116.1435917325950840, -36.32109233237602552 ) ) ;
#42 = PRODUCT_DEFINITION_SHAPE ( 'NONE', 'NONE',  #196 ) ;
#43 = CARTESIAN_POINT ( 'NONE',  ( -28.62697114908855767, 138.8376385027190736, -14.58009076753429056 ) ) ;
#44 = CARTESIAN_POINT ( 'NONE',  ( 13.05235934866948888, 19.83660504452989315, -17.54693179914794143 ) ) ;
#45 = ORIENTED_EDGE ( 'NONE', *, *, #78, .T. ) ;
#46 = CARTESIAN_POINT ( 'NONE',  ( 12.90446930723679486, 20.25885433592894103, -18.08530529986229496 ) ) ;
#47 = CARTESIAN_POINT ( 'NONE',  ( -2.960042247373551773E-15, 57.10314059127711772, -41.72349845320304240 ) ) ;
#48 = CARTESIAN_POINT ( 'NONE',  ( 0.000000000000000000, 148.4681655373205729, 0.000000000000000000 ) ) ;
#49 = CARTESIAN_POINT ( 'NONE',  ( 9.395656447076701667, 30.27706603903908800, -27.96768455062070302 ) ) ;
#50 = DIRECTION ( 'NONE',  ( -0.000000000000000000, -1.000000000000000000, -0.000000000000000000 ) ) ;
#51 = CARTESIAN_POINT ( 'NONE',  ( 9.001585529934425622, 31.40220038826457838, 28.88765464012498541 ) ) ;
#52 = EDGE_CURVE ( 'NONE', #302, #210, #150, .T. ) ;
#53 = MANIFOLD_SOLID_BREP ( 'Odebrat povrchem1', #203 ) ;
#54 = CARTESIAN_POINT ( 'NONE',  ( 0.000000000000000000, 161.0000000000000000, 0.000000000000000000 ) ) ;
#55 = CARTESIAN_POINT ( 'NONE',  ( 0.000000000000000000, 161.0000000000000000, 0.000000000000000000 ) ) ;
#56 = CARTESIAN_POINT ( 'NONE',  ( -14.11718037284298788, 97.40990737042073988, 43.21442167607887086 ) ) ;
#57 = CARTESIAN_POINT ( 'NONE',  ( -28.02587212624285229, 137.1214064021771719, -17.61292043291013343 ) ) ;
#58 = ORIENTED_EDGE ( 'NONE', *, *, #28, .F. ) ;
#59 =( NAMED_UNIT ( * ) SI_UNIT ( $, .STERADIAN. ) SOLID_ANGLE_UNIT ( ) );
#60 = CARTESIAN_POINT ( 'NONE',  ( -27.06117512695262661, 134.3670449832545728, 21.47403832565140291 ) ) ;
#61 = CARTESIAN_POINT ( 'NONE',  ( -9.550880918745999537, 84.37240538496205033, -44.97803898639698872 ) ) ;
#62 = CARTESIAN_POINT ( 'NONE',  ( -12.22183762561120446, 91.99840620222903453, 44.33603211943047029 ) ) ;
#63 = CARTESIAN_POINT ( 'NONE',  ( -10.71109976082786375, 87.68501236776454277, -44.73885125843746380 ) ) ;
#64 = CARTESIAN_POINT ( 'NONE',  ( -17.47922609338657196, 107.0090758431458369, 40.43501703821055315 ) ) ;
#65 = DIRECTION ( 'NONE',  ( 0.000000000000000000, 0.000000000000000000, -1.000000000000000000 ) ) ;
#66 = CARTESIAN_POINT ( 'NONE',  ( -2.987930300075526180, 65.63415079138465558, 43.87200248074844211 ) ) ;
#67 = CARTESIAN_POINT ( 'NONE',  ( 13.88137774541203839, 17.46962734143266260, -14.21417004893084801 ) ) ;
#68 = DIRECTION ( 'NONE',  ( 1.000000000000000000, 0.000000000000000000, -1.224646799147353454E-16 ) ) ;
#69 = CARTESIAN_POINT ( 'NONE',  ( 1.743680093352022231, 52.12466011543256172, 40.12701729960772923 ) ) ;
#70 = CIRCLE ( 'NONE', #248, 25.87499999999998224 ) ;
#71 = AXIS2_PLACEMENT_3D ( 'NONE', #106, #127, #207 ) ;
#72 = DIRECTION ( 'NONE',  ( 0.000000000000000000, 0.000000000000000000, -1.000000000000000000 ) ) ;
#73 = DIRECTION ( 'NONE',  ( 0.000000000000000000, 0.000000000000000000, 1.000000000000000000 ) ) ;
#74 = AXIS2_PLACEMENT_3D ( 'NONE', #88, #188, #184 ) ;
#75 = DIRECTION ( 'NONE',  ( -1.000000000000000000, 0.000000000000000000, 0.000000000000000000 ) ) ;
#76 = CARTESIAN_POINT ( 'NONE',  ( -2.960042247373551773E-15, 57.10314059127711772, -41.72349845320304240 ) ) ;
#77 = CARTESIAN_POINT ( 'NONE',  ( -16.74630289057381560, 104.9164650085045309, 41.16557458638356337 ) ) ;
#78 = EDGE_CURVE ( 'NONE', #210, #230, #272, .T. ) ;
#79 = AXIS2_PLACEMENT_3D ( 'NONE', #55, #149, #174 ) ;
#80 = CARTESIAN_POINT ( 'NONE',  ( -28.43175825580096472, 138.2802750381875398, 15.76510181955904599 ) ) ;
#81 = PRESENTATION_LAYER_ASSIGNMENT (  '', '', ( #137 ) ) ;
#82 = EDGE_LOOP ( 'NONE', ( #124, #153 ) ) ;
#83 = CARTESIAN_POINT ( 'NONE',  ( -7.621070470038292299, 78.86249351660845264, -45.18512743167055135 ) ) ;
#84 = CARTESIAN_POINT ( 'NONE',  ( -29.91459953262354787, 142.5140197334349068, -0.4789436205148895898 ) ) ;
#85 = VERTEX_POINT ( 'NONE', #191 ) ;
#86 = CARTESIAN_POINT ( 'NONE',  ( -19.62967211824984304, 113.1489369277317962, -37.86384190357399859 ) ) ;
#87 = CARTESIAN_POINT ( 'NONE',  ( -29.86736672929704284, 142.3791626629912912, -2.850045121158199191 ) ) ;
#88 = CARTESIAN_POINT ( 'NONE',  ( 0.000000000000000000, 148.4681655373205729, 0.000000000000000000 ) ) ;
#89 = CARTESIAN_POINT ( 'NONE',  ( -29.15837859929585818, 140.3548902197410655, -11.40753832400841716 ) ) ;
#90 = CARTESIAN_POINT ( 'NONE',  ( 15.40987155075063697, 13.10553750847533649, -3.402989409583681901 ) ) ;
#91 = CARTESIAN_POINT ( 'NONE',  ( 0.000000000000000000, 161.0000000000000000, 0.000000000000000000 ) ) ;
#92 = CARTESIAN_POINT ( 'NONE',  ( 14.22933690529529649, 16.47614930009085299, 12.53149439261929388 ) ) ;
#93 = CARTESIAN_POINT ( 'NONE',  ( 0.000000000000000000, 148.4681655373205729, 0.000000000000000000 ) ) ;
#94 = CARTESIAN_POINT ( 'NONE',  ( 0.000000000000000000, 161.0000000000000000, 0.000000000000000000 ) ) ;
#95 = CARTESIAN_POINT ( 'NONE',  ( 13.85872672698834585, 17.53429955591183642, 14.28588150361705544 ) ) ;
#96 = CARTESIAN_POINT ( 'NONE',  ( 14.10950134593310246, 16.81829863979553963, 13.12173669242164209 ) ) ;
#97 = AXIS2_PLACEMENT_3D ( 'NONE', #54, #198, #75 ) ;
#98 = SHAPE_DEFINITION_REPRESENTATION ( #42, #2 ) ;
#99 = DIRECTION ( 'NONE',  ( 1.000000000000000000, 0.000000000000000000, -1.224646799147353207E-16 ) ) ;
#100 = ADVANCED_FACE ( 'NONE', ( #267 ), #121, .T. ) ;
#101 = CARTESIAN_POINT ( 'NONE',  ( -29.51031222118049868, 141.3597159742047893, 8.219305927620631280 ) ) ;
#102 = ORIENTED_EDGE ( 'NONE', *, *, #28, .T. ) ;
#103 = CIRCLE ( 'NONE', #97, 28.74999999999998224 ) ;
#104 = DIRECTION ( 'NONE',  ( 1.000000000000000000, 0.000000000000000000, 0.000000000000000000 ) ) ;
#105 = CARTESIAN_POINT ( 'NONE',  ( -29.32573838385620490, 140.8327286850947644, 9.904984097026757084 ) ) ;
#106 = CARTESIAN_POINT ( 'NONE',  ( 17.81466660932699497, 6.239469992320629821, -3.478314840091796814E-15 ) ) ;
#107 = VERTEX_POINT ( 'NONE', #132 ) ;
#108 = SURFACE_STYLE_FILL_AREA ( #242 ) ;
#109 = CARTESIAN_POINT ( 'NONE',  ( -27.30809977885670392, 135.0720536389110862, 20.56066083913171738 ) ) ;
#110 = CIRCLE ( 'NONE', #237, 25.87499999999998224 ) ;
#111 = CARTESIAN_POINT ( 'NONE',  ( 15.27060011378438453, 13.50317933074699894, -5.449918138430882131 ) ) ;
#112 = CARTESIAN_POINT ( 'NONE',  ( -21.02629304121924037, 117.1365089735838581, -35.77855791551169773 ) ) ;
#113 = CARTESIAN_POINT ( 'NONE',  ( -27.42918044596018490, 135.4177579567358976, 20.09492278913729635 ) ) ;
#114 = CARTESIAN_POINT ( 'NONE',  ( 15.24573226363900602, 13.57418094789971263, 5.594709733387321471 ) ) ;
#115 = FILL_AREA_STYLE_COLOUR ( '', #222 ) ;
#116 = CARTESIAN_POINT ( 'NONE',  ( 15.03054892048344549, 14.18856318275537909, 7.577821260028597017 ) ) ;
#117 = CARTESIAN_POINT ( 'NONE',  ( 10.43327716040774078, 27.31449596535095026, 25.48575869325048515 ) ) ;
#118 = CARTESIAN_POINT ( 'NONE',  ( 12.11618978060625373, 22.50951616764943708, 20.74922357656026506 ) ) ;
#119 = EDGE_CURVE ( 'NONE', #85, #260, #225, .T. ) ;
#120 = CARTESIAN_POINT ( 'NONE',  ( 7.889183755078634341, 34.57828213544338070, -31.12607713871329551 ) ) ;
#121 = TOROIDAL_SURFACE ( 'NONE', #148, -58.76141656242911182, 104.7614165624291189 ) ;
#122 = CARTESIAN_POINT ( 'NONE',  ( -7.196198070654308073E-15, 86.72975454677292362, -58.76141656242911182 ) ) ;
#123 = CARTESIAN_POINT ( 'NONE',  ( -18.91815932705463510, 111.1174561803262861, 38.78738845590351758 ) ) ;
#124 = ORIENTED_EDGE ( 'NONE', *, *, #119, .F. ) ;
#125 = CARTESIAN_POINT ( 'NONE',  ( -29.90906308594078311, 142.4982123087698938, -1.074230919792385386 ) ) ;
#126 = ORIENTED_EDGE ( 'NONE', *, *, #252, .F. ) ;
#127 = DIRECTION ( 'NONE',  ( -0.9437866975468292008, -0.3305550930384373309, 1.842744154549396620E-16 ) ) ;
#128 = CARTESIAN_POINT ( 'NONE',  ( -15.62717039534519614, 101.7211659977391918, 42.12455559126614446 ) ) ;
#129 = ORIENTED_EDGE ( 'NONE', *, *, #163, .T. ) ;
#130 = PRODUCT ( 'Hand', 'Hand', '', ( #224 ) ) ;
#131 = CARTESIAN_POINT ( 'NONE',  ( 14.47253236785943464, 15.78178806559279579, -11.24517852953484898 ) ) ;
#132 = CARTESIAN_POINT ( 'NONE',  ( 1.760429773774319332E-15, 189.7499999999999716, 0.000000000000000000 ) ) ;
#133 = CARTESIAN_POINT ( 'NONE',  ( -29.88544491620352872, 142.4307787254191169, -2.259116616856882587 ) ) ;
#134 = DIRECTION ( 'NONE',  ( 0.000000000000000000, 0.000000000000000000, -1.000000000000000000 ) ) ;
#135 = PRODUCT_RELATED_PRODUCT_CATEGORY ( 'part', '', ( #130 ) ) ;
#136 = CARTESIAN_POINT ( 'NONE',  ( 5.523588067339182265E-15, 57.10314059127713904, 41.72349845320304951 ) ) ;
#137 = STYLED_ITEM ( 'NONE', ( #211 ), #53 ) ;
#138 = CARTESIAN_POINT ( 'NONE',  ( 12.45130064743834986, 21.55272202053050634, -19.66945793284613941 ) ) ;
#139 = FACE_OUTER_BOUND ( 'NONE', #82, .T. ) ;
#140 = CARTESIAN_POINT ( 'NONE',  ( -1.482388834070048400, 61.33559349141926020, 42.97137977088963368 ) ) ;
#141 = CARTESIAN_POINT ( 'NONE',  ( 9.027013780467395776, 31.32959874000580669, -28.78530259924765389 ) ) ;
#142 =( GEOMETRIC_REPRESENTATION_CONTEXT ( 3 ) GLOBAL_UNCERTAINTY_ASSIGNED_CONTEXT ( ( #208 ) ) GLOBAL_UNIT_ASSIGNED_CONTEXT ( ( #145, #204, #255 ) ) REPRESENTATION_CONTEXT ( 'NONE', 'WORKASPACE' ) );
#143 = CARTESIAN_POINT ( 'NONE',  ( 3.461603362995215427, 47.21971941585947263, 38.15371794302738806 ) ) ;
#144 = CARTESIAN_POINT ( 'NONE',  ( 10.08031457181119528, 28.32225958135542854, 26.36098988312753733 ) ) ;
#145 =( LENGTH_UNIT ( ) NAMED_UNIT ( * ) SI_UNIT ( .MILLI., .METRE. ) );
#146 = FACE_OUTER_BOUND ( 'NONE', #254, .T. ) ;
#147 = EDGE_CURVE ( 'NONE', #257, #302, #110, .T. ) ;
#148 = AXIS2_PLACEMENT_3D ( 'NONE', #156, #285, #65 ) ;
#149 = DIRECTION ( 'NONE',  ( 0.000000000000000000, 0.000000000000000000, 1.000000000000000000 ) ) ;
#150 = CIRCLE ( 'NONE', #280, 25.87499999999998224 ) ;
#151 = DIRECTION ( 'NONE',  ( 0.000000000000000000, 0.000000000000000000, 1.000000000000000000 ) ) ;
#152 = CARTESIAN_POINT ( 'NONE',  ( -23.00522743695226779, 122.7866774246067365, 32.24414366579478752 ) ) ;
#153 = ORIENTED_EDGE ( 'NONE', *, *, #233, .F. ) ;
#154 = CARTESIAN_POINT ( 'NONE',  ( -27.10845051128185901, 134.5020236291474589, -21.39235530780798555 ) ) ;
#155 = ORIENTED_EDGE ( 'NONE', *, *, #247, .T. ) ;
#156 = CARTESIAN_POINT ( 'NONE',  ( 0.000000000000000000, 86.72975454677292362, 0.000000000000000000 ) ) ;
#157 = CARTESIAN_POINT ( 'NONE',  ( -22.67751876066445860, 121.8510176938545300, 32.88626239754904645 ) ) ;
#158 = ORIENTED_EDGE ( 'NONE', *, *, #78, .F. ) ;
#159 = CARTESIAN_POINT ( 'NONE',  ( -0.7483680159477744676, 59.23984879271115034, -42.33011570396553935 ) ) ;
#160 = CARTESIAN_POINT ( 'NONE',  ( -8.764424956552050006, 82.12695011606166418, 45.06183657837863166 ) ) ;
#161 = ORIENTED_EDGE ( 'NONE', *, *, #247, .F. ) ;
#162 = CARTESIAN_POINT ( 'NONE',  ( -26.93520200016002875, 134.0073719247565691, 21.92227178637725160 ) ) ;
#163 = EDGE_CURVE ( 'NONE', #230, #85, #181, .T. ) ;
#164 = CARTESIAN_POINT ( 'NONE',  ( -1.886095222529678761, 62.48823862430953824, -43.12313543511869085 ) ) ;
#165 = DIRECTION ( 'NONE',  ( -1.000000000000000000, 0.000000000000000000, 0.000000000000000000 ) ) ;
#166 = CARTESIAN_POINT ( 'NONE',  ( 4.298157941333474952, 44.83122473090315907, 37.05523351235466123 ) ) ;
#167 = CARTESIAN_POINT ( 'NONE',  ( 15.50393967896578928, 12.83695823094395294, -0.6108711161235980125 ) ) ;
#168 = DIRECTION ( 'NONE',  ( 1.000000000000000000, 0.000000000000000000, 0.000000000000000000 ) ) ;
#169 =( GEOMETRIC_REPRESENTATION_CONTEXT ( 3 ) GLOBAL_UNCERTAINTY_ASSIGNED_CONTEXT ( ( #13 ) ) GLOBAL_UNIT_ASSIGNED_CONTEXT ( ( #239, #292, #59 ) ) REPRESENTATION_CONTEXT ( 'NONE', 'WORKASPACE' ) );
#170 = AXIS2_PLACEMENT_3D ( 'NONE', #171, #151, #104 ) ;
#171 = CARTESIAN_POINT ( 'NONE',  ( 0.000000000000000000, 0.000000000000000000, 0.000000000000000000 ) ) ;
#172 = ADVANCED_FACE ( 'NONE', ( #265 ), #194, .T. ) ;
#173 = CARTESIAN_POINT ( 'NONE',  ( 0.000000000000000000, 148.4681655373205729, 0.000000000000000000 ) ) ;
#174 = DIRECTION ( 'NONE',  ( 1.000000000000000000, 0.000000000000000000, 0.000000000000000000 ) ) ;
#175 = CARTESIAN_POINT ( 'NONE',  ( -28.43500769514563942, 138.2895526977746101, -15.61018951070653493 ) ) ;
#176 = CARTESIAN_POINT ( 'NONE',  ( -29.43564676296380966, 141.1465343663119256, -9.213552826112758609 ) ) ;
#177 = EDGE_LOOP ( 'NONE', ( #232, #206, #10, #37, #8 ) ) ;
#178 = CARTESIAN_POINT ( 'NONE',  ( -11.09934764236757943, 88.79352103595594770, -44.62774141084845070 ) ) ;
#179 = CARTESIAN_POINT ( 'NONE',  ( -26.28413231713106768, 132.1484657425204716, 24.09203309761456424 ) ) ;
#180 = SURFACE_SIDE_STYLE ('',( #108 ) ) ;
#181 = CIRCLE ( 'NONE', #250, 104.7614165624291047 ) ;
#182 = CARTESIAN_POINT ( 'NONE',  ( -15.25014747980475782, 100.6447063701272810, 42.42177537496282014 ) ) ;
#183 = CARTESIAN_POINT ( 'NONE',  ( 14.87682727450777520, 14.62746262085893711, -8.735005196609927580 ) ) ;
#184 = DIRECTION ( 'NONE',  ( 0.000000000000000000, 0.000000000000000000, -1.000000000000000000 ) ) ;
#185 = PRODUCT_DEFINITION_CONTEXT ( 'detailed design', #192, 'design' ) ;
#186 = CARTESIAN_POINT ( 'NONE',  ( -29.56439417772560674, 141.5141284526071956, 7.653993530263852207 ) ) ;
#187 = CARTESIAN_POINT ( 'NONE',  ( 15.13443153186724821, 13.89196201461346014, -6.780647554553564049 ) ) ;
#188 = DIRECTION ( 'NONE',  ( -0.000000000000000000, -1.000000000000000000, -0.000000000000000000 ) ) ;
#189 = CARTESIAN_POINT ( 'NONE',  ( 14.57037009392763593, 15.50244599425264802, 10.73358210996613238 ) ) ;
#190 = CARTESIAN_POINT ( 'NONE',  ( 15.44543516820657381, 13.00399779609931272, -2.712183965137412223 ) ) ;
#191 = CARTESIAN_POINT ( 'NONE',  ( -2.960042247373551773E-15, 57.10314059127711772, -41.72349845320304240 ) ) ;
#192 = APPLICATION_CONTEXT ( 'automotive_design' ) ;
#193 = CARTESIAN_POINT ( 'NONE',  ( -25.87499999999998224, 148.4681655373205729, 3.168773592793773931E-15 ) ) ;
#194 = SPHERICAL_SURFACE ( 'NONE', #19, 28.74999999999998224 ) ;
#195 = CARTESIAN_POINT ( 'NONE',  ( 0.000000000000000000, 86.72975454677292362, 0.000000000000000000 ) ) ;
#196 = PRODUCT_DEFINITION ( 'UNKNOWN', '', #226, #185 ) ;
#197 = CARTESIAN_POINT ( 'NONE',  ( 8.273988523633525105, 33.47960409549417449, -30.36411749503277235 ) ) ;
#198 = DIRECTION ( 'NONE',  ( 0.000000000000000000, 0.000000000000000000, -1.000000000000000000 ) ) ;
#199 = CARTESIAN_POINT ( 'NONE',  ( -29.78825607160069922, 142.1532893125560975, -4.618152388876130665 ) ) ;
#200 = AXIS2_PLACEMENT_3D ( 'NONE', #122, #99, #5 ) ;
#201 = EDGE_LOOP ( 'NONE', ( #126, #306, #45, #129, #33 ) ) ;
#202 = CARTESIAN_POINT ( 'NONE',  ( -3.027659526837824355, 65.74758397245408048, -43.80312712942570386 ) ) ;
#203 = CLOSED_SHELL ( 'NONE', ( #172, #100, #221, #291, #20 ) ) ;
#204 =( NAMED_UNIT ( * ) PLANE_ANGLE_UNIT ( ) SI_UNIT ( $, .RADIAN. ) );
#205 = CARTESIAN_POINT ( 'NONE',  ( -28.33532037419257321, 138.0049297425970281, -16.11679147788345290 ) ) ;
#206 = ORIENTED_EDGE ( 'NONE', *, *, #147, .T. ) ;
#207 = DIRECTION ( 'NONE',  ( 0.3305550930384373309, -0.9437866975468292008, 0.000000000000000000 ) ) ;
#208 = UNCERTAINTY_MEASURE_WITH_UNIT (LENGTH_MEASURE( 1.000000000000000082E-05 ), #145, 'distance_accuracy_value', 'NONE');
#209 = CARTESIAN_POINT ( 'NONE',  ( -29.39109615388561636, 141.0193353816309525, 9.343994745566851279 ) ) ;
#210 = VERTEX_POINT ( 'NONE', #193 ) ;
#211 = PRESENTATION_STYLE_ASSIGNMENT (( #289 ) ) ;
#212 = CARTESIAN_POINT ( 'NONE',  ( -25.46048011861990901, 129.7968093780256424, 26.55306776993814566 ) ) ;
#213 = CARTESIAN_POINT ( 'NONE',  ( 15.50094773954756988, 12.84550068780589704, 1.477643252055992562 ) ) ;
#214 = CARTESIAN_POINT ( 'NONE',  ( -16.76296443262775782, 104.9640363274231589, -41.25563307208551578 ) ) ;
#215 = CARTESIAN_POINT ( 'NONE',  ( 13.32073273410372138, 19.07035688655951944, 16.55481392775914884 ) ) ;
#216 = CARTESIAN_POINT ( 'NONE',  ( 15.49265453573626772, 12.86917908696535129, -1.311870088696150072 ) ) ;
#217 = EDGE_LOOP ( 'NONE', ( #161, #102, #15, #282 ) ) ;
#218 = CARTESIAN_POINT ( 'NONE',  ( 5.523588067339182265E-15, 57.10314059127713904, 41.72349845320304951 ) ) ;
#219 = CARTESIAN_POINT ( 'NONE',  ( 13.03305819323967718, 19.89171287413405409, 17.63965956070337882 ) ) ;
#220 = DIRECTION ( 'NONE',  ( 0.000000000000000000, 0.000000000000000000, -1.000000000000000000 ) ) ;
#221 = ADVANCED_FACE ( 'NONE', ( #270 ), #276, .T. ) ;
#222 = COLOUR_RGB ( '',0.7921568627450980005, 0.8196078431372548767, 0.9333333333333333481 ) ;
#223 = CARTESIAN_POINT ( 'NONE',  ( 0.8809309527162352271, 54.58794438906896573, -40.98192697559812103 ) ) ;
#224 = PRODUCT_CONTEXT ( 'NONE', #246, 'mechanical' ) ;
#225 = B_SPLINE_CURVE_WITH_KNOTS ( 'NONE', 3,
 ( #47, #311, #159, #38, #164, #202, #258, #304, #83, #61, #262, #63, #178, #264, #12, #35, #214, #307, #86, #41, #112, #309, #231, #235, #308, #228, #256, #279, #154, #21, #57, #205, #175, #43, #9, #89, #176, #34, #263, #199, #14, #87, #133, #125, #84, #7, #229, #186, #101, #209, #105, #305, #301, #80, #281, #113, #109, #60, #162, #17, #179, #212, #238, #284, #300, #152, #157, #287, #259, #36, #123, #64, #77, #128, #182, #286, #56, #62, #253, #160, #32, #261, #39, #296, #294, #66, #140, #218 ),
 .UNSPECIFIED., .F., .F.,
 ( 4, 2, 2, 2, 2, 2, 2, 2, 2, 2, 2, 2, 2, 2, 2, 2, 2, 2, 2, 2, 2, 2, 2, 2, 2, 2, 2, 2, 2, 2, 2, 2, 2, 2, 2, 2, 2, 2, 2, 2, 2, 2, 2, 4 ),
 ( 0.2452386053476005578, 0.2487498533258340749, 0.2522611013040675920, 0.2592835972605346262, 0.2733285891734686945, 0.2768398371517022394, 0.2803510851299357287, 0.2873735810864027629, 0.3014185729993368312, 0.3084410689558038099, 0.3119523169340373547, 0.3154635649122708441, 0.3224860608687378782, 0.3295085568252049679, 0.3365310527816720021, 0.3400423007599054914, 0.3417979247490222638, 0.3435535487381390363, 0.3505760446946061260, 0.3523316686837228984, 0.3540872926728396708, 0.3558429166619564432, 0.3575985406510732711, 0.3646210366075404163, 0.3663766605966571888, 0.3681322845857739612, 0.3716435325640075615, 0.3786660285204747067, 0.3804216525095914792, 0.3821772764987083071, 0.3856885244769418519, 0.3927110204334091081, 0.3962222684116427640, 0.3997335163898763644, 0.4067560123463436206, 0.4137785083028108213, 0.4208010042592780220, 0.4243122522375115668, 0.4278235002157452227, 0.4418684921286796241, 0.4453797401069132800, 0.4488909880851468803, 0.4559134840416141365, 0.4699584759545487600 ),
 .UNSPECIFIED. ) ;
#226 = PRODUCT_DEFINITION_FORMATION_WITH_SPECIFIED_SOURCE ( 'ANY', '', #130, .NOT_KNOWN. ) ;
#227 = APPLICATION_PROTOCOL_DEFINITION ( 'draft international standard', 'automotive_design', 1998, #192 ) ;
#228 = CARTESIAN_POINT ( 'NONE',  ( -24.89662477490766790, 128.1869138297684572, -28.03234259217750690 ) ) ;
#229 = CARTESIAN_POINT ( 'NONE',  ( -29.80659413493880194, 142.2056473630044877, 4.812280391428338078 ) ) ;
#230 = VERTEX_POINT ( 'NONE', #25 ) ;
#231 = CARTESIAN_POINT ( 'NONE',  ( -22.04519351273278716, 120.0456298172516654, -34.05900090413724968 ) ) ;
#232 = ORIENTED_EDGE ( 'NONE', *, *, #298, .T. ) ;
#233 = EDGE_CURVE ( 'NONE', #260, #85, #245, .T. ) ;
#234 = ORIENTED_EDGE ( 'NONE', *, *, #298, .F. ) ;
#235 = CARTESIAN_POINT ( 'NONE',  ( -23.03562496347608857, 122.8734671361425086, -32.21906230023102324 ) ) ;
#236 = CARTESIAN_POINT ( 'NONE',  ( 14.13178123672372521, 16.75468605298675584, -13.05338020140825428 ) ) ;
#237 = AXIS2_PLACEMENT_3D ( 'NONE', #48, #312, #72 ) ;
#238 = CARTESIAN_POINT ( 'NONE',  ( -24.87765691348530339, 128.1327576068925964, 28.08019743549878200 ) ) ;
#239 =( LENGTH_UNIT ( ) NAMED_UNIT ( * ) SI_UNIT ( .MILLI., .METRE. ) );
#240 = CARTESIAN_POINT ( 'NONE',  ( 0.8758014047488267284, 54.60259005400666155, 40.98624505121335204 ) ) ;
#241 = CARTESIAN_POINT ( 'NONE',  ( 12.13722996700273349, 22.44944313155615490, -20.68269427681704187 ) ) ;
#242 = FILL_AREA_STYLE ('',( #115 ) ) ;
#243 = DIRECTION ( 'NONE',  ( 0.000000000000000000, 0.000000000000000000, 1.000000000000000000 ) ) ;
#244 = CARTESIAN_POINT ( 'NONE',  ( 5.926705420661127377, 40.18146594732232302, 34.63585506518207779 ) ) ;
#245 = B_SPLINE_CURVE_WITH_KNOTS ( 'NONE', 3,
 ( #136, #240, #69, #143, #166, #244, #26, #271, #51, #144, #117, #3, #268, #118, #23, #219, #215, #1, #95, #96, #92, #189, #290, #116, #288, #114, #27, #295, #213, #167, #216, #190, #90, #111, #187, #183, #40, #266, #131, #236, #67, #18, #310, #44, #46, #138, #241, #24, #269, #49, #141, #197, #120, #297, #249, #299, #251, #30, #223, #76 ),
 .UNSPECIFIED., .F., .F.,
 ( 4, 2, 2, 2, 2, 2, 2, 2, 2, 2, 2, 2, 2, 2, 2, 2, 2, 2, 2, 2, 2, 2, 2, 2, 2, 2, 2, 2, 2, 4 ),
 ( 0.1124731838676126527, 0.1207710227101118777, 0.1290688615526111027, 0.1373667003951103138, 0.1456645392376095249, 0.1498134586588591444, 0.1539623780801087638, 0.1581112975013583555, 0.1622602169226079749, 0.1643346766332327846, 0.1664091363438575943, 0.1705580557651072138, 0.1726325154757320235, 0.1747069751863568610, 0.1788558946076064804, 0.1809303543182312901, 0.1830048140288560998, 0.1871537334501057193, 0.1892281931607305567, 0.1913026528713553942, 0.1954515722926050136, 0.1975260320032298234, 0.1996004917138546331, 0.2037494111351042525, 0.2120472499776034914, 0.2161961693988531386, 0.2203450888201027857, 0.2286429276626020246, 0.2369407665051013190, 0.2452386053476005578 ),
 .UNSPECIFIED. ) ;
#246 = APPLICATION_CONTEXT ( 'automotive_design' ) ;
#247 = EDGE_CURVE ( 'NONE', #107, #257, #103, .T. ) ;
#248 = AXIS2_PLACEMENT_3D ( 'NONE', #173, #277, #31 ) ;
#249 = CARTESIAN_POINT ( 'NONE',  ( 5.913367257379473330, 40.21954849797738518, -34.65760594600769195 ) ) ;
#250 = AXIS2_PLACEMENT_3D ( 'NONE', #313, #165, #73 ) ;
#251 = CARTESIAN_POINT ( 'NONE',  ( 3.444927468879274368, 47.26733171216881857, -38.17362578591892230 ) ) ;
#252 = EDGE_CURVE ( 'NONE', #302, #260, #278, .T. ) ;
#253 = CARTESIAN_POINT ( 'NONE',  ( -10.69226727964919732, 87.63124267674315604, 44.85788861232911273 ) ) ;
#254 = EDGE_LOOP ( 'NONE', ( #58, #155, #234, #158 ) ) ;
#255 =( NAMED_UNIT ( * ) SI_UNIT ( $, .STERADIAN. ) SOLID_ANGLE_UNIT ( ) );
#256 = CARTESIAN_POINT ( 'NONE',  ( -25.48304274464714325, 129.8612292183326815, -26.49325064108784389 ) ) ;
#257 = VERTEX_POINT ( 'NONE', #274 ) ;
#258 = CARTESIAN_POINT ( 'NONE',  ( -3.790538299103823228, 67.92572266179442408, -44.16599307508089822 ) ) ;
#259 = CARTESIAN_POINT ( 'NONE',  ( -21.00766163457069169, 117.0833133819206182, 35.83847228658710549 ) ) ;
#260 = VERTEX_POINT ( 'NONE', #6 ) ;
#261 = CARTESIAN_POINT ( 'NONE',  ( -7.603710269641246633, 78.81292741841026839, 45.07099841001504359 ) ) ;
#262 = CARTESIAN_POINT ( 'NONE',  ( -9.937305450196946666, 85.47570810233015948, -44.91383505045462954 ) ) ;
#263 = CARTESIAN_POINT ( 'NONE',  ( -29.71560241466369590, 141.9458517132288762, -5.782923500377332715 ) ) ;
#264 = CARTESIAN_POINT ( 'NONE',  ( -12.25833020409591612, 92.10259824421652297, -44.22520373273019345 ) ) ;
#265 = FACE_OUTER_BOUND ( 'NONE', #217, .T. ) ;
#266 = CARTESIAN_POINT ( 'NONE',  ( 14.58027003499702090, 15.47418010791610854, -10.63120396326047690 ) ) ;
#267 = FACE_OUTER_BOUND ( 'NONE', #177, .T. ) ;
#268 = CARTESIAN_POINT ( 'NONE',  ( 11.46348943074620230, 24.37307815975115233, 22.71065260696914123 ) ) ;
#269 = CARTESIAN_POINT ( 'NONE',  ( 10.47676048175180163, 27.19034425474664118, -25.42584662226543912 ) ) ;
#270 = FACE_OUTER_BOUND ( 'NONE', #201, .T. ) ;
#271 = CARTESIAN_POINT ( 'NONE',  ( 8.256122379190784955, 33.53061474339109793, 30.44078099383641600 ) ) ;
#272 = CIRCLE ( 'NONE', #74, 25.87499999999998224 ) ;
#273 = CARTESIAN_POINT ( 'NONE',  ( 3.168773592793774719E-15, 148.4681655373205729, 25.87499999999998934 ) ) ;
#274 = CARTESIAN_POINT ( 'NONE',  ( 25.87499999999998224, 148.4681655373205729, 0.000000000000000000 ) ) ;
#275 = SPHERICAL_SURFACE ( 'NONE', #79, 28.74999999999998224 ) ;
#276 = TOROIDAL_SURFACE ( 'NONE', #4, -58.76141656242911182, 104.7614165624291189 ) ;
#277 = DIRECTION ( 'NONE',  ( -0.000000000000000000, -1.000000000000000000, -0.000000000000000000 ) ) ;
#278 = CIRCLE ( 'NONE', #200, 104.7614165624291047 ) ;
#279 = CARTESIAN_POINT ( 'NONE',  ( -26.59459751105796954, 133.0348926233957343, -23.15636863292726488 ) ) ;
#280 = AXIS2_PLACEMENT_3D ( 'NONE', #93, #283, #134 ) ;
#281 = CARTESIAN_POINT ( 'NONE',  ( -28.01627563809037369, 137.0940069215695019, 17.74108071808927889 ) ) ;
#282 = ORIENTED_EDGE ( 'NONE', *, *, #147, .F. ) ;
#283 = DIRECTION ( 'NONE',  ( -0.000000000000000000, -1.000000000000000000, -0.000000000000000000 ) ) ;
#284 = CARTESIAN_POINT ( 'NONE',  ( -23.95954291972313044, 125.5113979836615954, 30.22312596630073500 ) ) ;
#285 = DIRECTION ( 'NONE',  ( -0.000000000000000000, -1.000000000000000000, -0.000000000000000000 ) ) ;
#286 = CARTESIAN_POINT ( 'NONE',  ( -14.49541104135644254, 98.48981532242353865, 42.96644106657819151 ) ) ;
#287 = CARTESIAN_POINT ( 'NONE',  ( -21.68514688899326259, 119.0176401685110790, 34.72371903583692188 ) ) ;
#288 = CARTESIAN_POINT ( 'NONE',  ( 15.10838174770135822, 13.96633823899333926, 6.925768203056959393 ) ) ;
#289 = SURFACE_STYLE_USAGE ( .BOTH. , #180 ) ;
#290 = CARTESIAN_POINT ( 'NONE',  ( 14.77331201123626236, 14.92301495245575715, 9.499047222824588133 ) ) ;
#291 = ADVANCED_FACE ( 'NONE', ( #146 ), #275, .T. ) ;
#292 =( NAMED_UNIT ( * ) PLANE_ANGLE_UNIT ( ) SI_UNIT ( $, .RADIAN. ) );
#293 = CIRCLE ( 'NONE', #11, 28.74999999999998224 ) ;
#294 = CARTESIAN_POINT ( 'NONE',  ( -5.280874497836650860, 72.18086653601997682, 44.70350274177766892 ) ) ;
#295 = CARTESIAN_POINT ( 'NONE',  ( 15.44997002302286226, 12.99105007349255025, 2.857938955338840348 ) ) ;
#296 = CARTESIAN_POINT ( 'NONE',  ( -6.050994086248906889, 74.37967889248007225, 44.89360439814087300 ) ) ;
#297 = CARTESIAN_POINT ( 'NONE',  ( 6.714436652565226815, 37.93236958314429330, -33.32455844067273887 ) ) ;
#298 = EDGE_CURVE ( 'NONE', #230, #257, #70, .T. ) ;
#299 = CARTESIAN_POINT ( 'NONE',  ( 4.278630153310095885, 44.88697963214990239, -37.08226913775339284 ) ) ;
#300 = CARTESIAN_POINT ( 'NONE',  ( -23.64614023118034325, 124.6165840943844358, 30.91263440952229047 ) ) ;
#301 = CARTESIAN_POINT ( 'NONE',  ( -28.95708342575820637, 139.7801608899978021, 12.63330335185538544 ) ) ;
#302 = VERTEX_POINT ( 'NONE', #273 ) ;
#303 = MECHANICAL_DESIGN_GEOMETRIC_PRESENTATION_REPRESENTATION (  '', ( #137 ), #169 ) ;
#304 = CARTESIAN_POINT ( 'NONE',  ( -6.084567843839145063, 74.47553724247265450, -44.98884623374267022 ) ) ;
#305 = CARTESIAN_POINT ( 'NONE',  ( -29.11576711953110674, 140.2332277537505831, 11.56121328980503549 ) ) ;
#306 = ORIENTED_EDGE ( 'NONE', *, *, #52, .T. ) ;
#307 = CARTESIAN_POINT ( 'NONE',  ( -18.92006331647089823, 111.1228923690921846, -38.78497198207170271 ) ) ;
#308 = CARTESIAN_POINT ( 'NONE',  ( -23.67297784277781503, 124.6932096897936333, -30.89545668231637876 ) ) ;
#309 = CARTESIAN_POINT ( 'NONE',  ( -21.70928575801661964, 119.0865604300887952, -34.64794089263727983 ) ) ;
#310 = CARTESIAN_POINT ( 'NONE',  ( 13.33902635369662626, 19.01812572998266049, -16.45586883847815685 ) ) ;
#311 = CARTESIAN_POINT ( 'NONE',  ( -0.3727677875407697794, 58.16745116026909557, -42.03729598541347201 ) ) ;
#312 = DIRECTION ( 'NONE',  ( -0.000000000000000000, -1.000000000000000000, -0.000000000000000000 ) ) ;
#313 = CARTESIAN_POINT ( 'NONE',  ( 0.000000000000000000, 86.72975454677292362, 58.76141656242911182 ) ) ;
ENDSEC;
END-ISO-10303-21;
