ISO-10303-21;
HEADER;
FILE_DESCRIPTION (( 'STEP AP214' ),
    '1' );
FILE_NAME ('Head.STEP',
    '2026-07-30T17:57:10',
    ( '' ),
    ( '' ),
    'SwSTEP 2.0',
    'SolidWorks 2024',
    '' );
FILE_SCHEMA (( 'AUTOMOTIVE_DESIGN' ));
ENDSEC;

DATA;
#1 = DIRECTION ( 'NONE',  ( 1.224646799147353207E-16, 2.756178712364280726E-33, -1.000000000000000000 ) ) ;
#2 = CARTESIAN_POINT ( 'NONE',  ( 63.59005817199260235, 139.8403312934878784, -62.90593778266254077 ) ) ;
#3 = CIRCLE ( 'NONE', #267, 40.39113954838121145 ) ;
#4 = CARTESIAN_POINT ( 'NONE',  ( 62.34428791902753630, 140.4095637133224272, -60.18301014333079735 ) ) ;
#5 = LINE ( 'NONE', #377, #552 ) ;
#6 = ORIENTED_EDGE ( 'NONE', *, *, #581, .T. ) ;
#7 = EDGE_CURVE ( 'NONE', #489, #562, #19, .T. ) ;
#8 = CARTESIAN_POINT ( 'NONE',  ( 47.05874527724021306, -1.692455933127272941E-16, -37.82347310773857174 ) ) ;
#9 = ORIENTED_EDGE ( 'NONE', *, *, #537, .T. ) ;
#10 = EDGE_CURVE ( 'NONE', #168, #281, #213, .T. ) ;
#11 = COLOUR_RGB ( '',0.7921568627450980005, 0.8196078431372548767, 0.9333333333333333481 ) ;
#12 = LINE ( 'NONE', #379, #77 ) ;
#13 = ORIENTED_EDGE ( 'NONE', *, *, #477, .F. ) ;
#14 = CARTESIAN_POINT ( 'NONE',  ( -34.68672157409229584, 154.6617016461166827, -75.81609262791519654 ) ) ;
#15 = DIRECTION ( 'NONE',  ( -0.8350098400741086113, 0.4716182658151730767, 0.2834339046919057137 ) ) ;
#16 = ORIENTED_EDGE ( 'NONE', *, *, #442, .F. ) ;
#17 = CARTESIAN_POINT ( 'NONE',  ( -5.335668356124885560E-16, 0.000000000000000000, 0.000000000000000000 ) ) ;
#18 = VERTEX_POINT ( 'NONE', #265 ) ;
#19 = CIRCLE ( 'NONE', #454, 92.00000000000000000 ) ;
#20 = AXIS2_PLACEMENT_3D ( 'NONE', #161, #484, #157 ) ;
#21 = CARTESIAN_POINT ( 'NONE',  ( 9.420130587861605065, 135.5596660099645305, -83.38253294676465543 ) ) ;
#22 = ORIENTED_EDGE ( 'NONE', *, *, #477, .T. ) ;
#23 = CARTESIAN_POINT ( 'NONE',  ( 9.752763547080693473E-33, -7.673480951660704878E-16, 0.000000000000000000 ) ) ;
#24 = PRODUCT_DEFINITION_FORMATION_WITH_SPECIFIED_SOURCE ( 'ANY', '', #431, .NOT_KNOWN. ) ;
#25 = ORIENTED_EDGE ( 'NONE', *, *, #241, .T. ) ;
#26 = CARTESIAN_POINT ( 'NONE',  ( 0.000000000000000000, 170.5111782335950181, 0.000000000000000000 ) ) ;
#27 = CARTESIAN_POINT ( 'NONE',  ( 9.420130587861613947, 148.7101143843060811, -86.13165541403391501 ) ) ;
#28 = CARTESIAN_POINT ( 'NONE',  ( -62.59844172169912468, 98.11523865337007067, -51.22503495006534990 ) ) ;
#29 = VECTOR ( 'NONE', #367, 1000.000000000000000 ) ;
#30 = PRODUCT_DEFINITION_CONTEXT ( 'detailed design', #597, 'design' ) ;
#31 = VERTEX_POINT ( 'NONE', #582 ) ;
#32 = DIRECTION ( 'NONE',  ( -1.270969929881690398E-17, 1.000000000000000000, 0.000000000000000000 ) ) ;
#33 = DIRECTION ( 'NONE',  ( 0.3683866941505637982, -0.8617995078079638827, 0.3487016660625098519 ) ) ;
#34 = VECTOR ( 'NONE', #407, 1000.000000000000000 ) ;
#35 = CARTESIAN_POINT ( 'NONE',  ( -5.335668356124885560E-16, 0.000000000000000000, 0.000000000000000000 ) ) ;
#36 = ORIENTED_EDGE ( 'NONE', *, *, #411, .F. ) ;
#37 = LINE ( 'NONE', #459, #149 ) ;
#38 = VECTOR ( 'NONE', #373, 1000.000000000000114 ) ;
#39 = ORIENTED_EDGE ( 'NONE', *, *, #588, .F. ) ;
#40 = VECTOR ( 'NONE', #438, 999.9999999999997726 ) ;
#41 = LINE ( 'NONE', #456, #339 ) ;
#42 = DIRECTION ( 'NONE',  ( -1.000000000000000000, 0.000000000000000000, 0.000000000000000000 ) ) ;
#43 = VERTEX_POINT ( 'NONE', #75 ) ;
#44 = ADVANCED_FACE ( 'NONE', ( #307, #402 ), #543, .F. ) ;
#45 = CARTESIAN_POINT ( 'NONE',  ( -6.938893903907228378E-15, 164.8676905796306187, -93.81923930695982961 ) ) ;
#46 = DIRECTION ( 'NONE',  ( 0.3683866941505635206, -0.8617995078079641047, 0.3487016660625097964 ) ) ;
#47 = ORIENTED_EDGE ( 'NONE', *, *, #537, .F. ) ;
#48 = EDGE_CURVE ( 'NONE', #123, #526, #261, .T. ) ;
#49 = DIRECTION ( 'NONE',  ( -0.8350098400741085003, -0.4716182658151734652, -0.2834339046919057137 ) ) ;
#50 = LINE ( 'NONE', #56, #124 ) ;
#51 = VECTOR ( 'NONE', #599, 1000.000000000000000 ) ;
#52 =( GEOMETRIC_REPRESENTATION_CONTEXT ( 3 ) GLOBAL_UNCERTAINTY_ASSIGNED_CONTEXT ( ( #492 ) ) GLOBAL_UNIT_ASSIGNED_CONTEXT ( ( #296, #249, #252 ) ) REPRESENTATION_CONTEXT ( 'NONE', 'WORKASPACE' ) );
#53 = CARTESIAN_POINT ( 'NONE',  ( 49.19350857609210692, 171.1743425313131297, -72.63106741498620522 ) ) ;
#54 = FACE_OUTER_BOUND ( 'NONE', #190, .T. ) ;
#55 = EDGE_CURVE ( 'NONE', #489, #80, #218, .T. ) ;
#56 = CARTESIAN_POINT ( 'NONE',  ( 10.66590084082667644, 148.1408819644715607, -88.85458305336565843 ) ) ;
#57 = ORIENTED_EDGE ( 'NONE', *, *, #375, .T. ) ;
#58 = DIRECTION ( 'NONE',  ( 1.000000000000000000, 1.270969929881690244E-17, 0.000000000000000000 ) ) ;
#59 = ORIENTED_EDGE ( 'NONE', *, *, #263, .F. ) ;
#60 = EDGE_LOOP ( 'NONE', ( #587, #187 ) ) ;
#61 =( GEOMETRIC_REPRESENTATION_CONTEXT ( 3 ) GLOBAL_UNCERTAINTY_ASSIGNED_CONTEXT ( ( #539 ) ) GLOBAL_UNIT_ASSIGNED_CONTEXT ( ( #246, #295, #106 ) ) REPRESENTATION_CONTEXT ( 'NONE', 'WORKASPACE' ) );
#62 = FACE_BOUND ( 'NONE', #558, .T. ) ;
#63 = ORIENTED_EDGE ( 'NONE', *, *, #174, .F. ) ;
#64 = FILL_AREA_STYLE_COLOUR ( '', #11 ) ;
#65 = EDGE_LOOP ( 'NONE', ( #207, #310, #268, #25 ) ) ;
#66 = CONICAL_SURFACE ( 'NONE', #146, 60.37500000000000000, 0.2060836931830037078 ) ;
#67 = CARTESIAN_POINT ( 'NONE',  ( 62.34428791902753630, 140.4095637133224272, -60.18301014333079735 ) ) ;
#68 = ORIENTED_EDGE ( 'NONE', *, *, #370, .F. ) ;
#69 = EDGE_CURVE ( 'NONE', #360, #470, #271, .T. ) ;
#70 = ADVANCED_FACE ( 'NONE', ( #594 ), #258, .F. ) ;
#71 = CARTESIAN_POINT ( 'NONE',  ( 9.752763547080693473E-33, -7.673480951660704878E-16, 0.000000000000000000 ) ) ;
#72 = DIRECTION ( 'NONE',  ( 0.4087172745948361996, -0.1867560432527944347, -0.8933489630353469435 ) ) ;
#73 = ADVANCED_FACE ( 'NONE', ( #184 ), #554, .F. ) ;
#74 = SPHERICAL_SURFACE ( 'NONE', #194, 93.98882176640499608 ) ;
#75 = CARTESIAN_POINT ( 'NONE',  ( 49.19350857609210692, 171.1743425313131297, -72.63106741498620522 ) ) ;
#76 = LINE ( 'NONE', #264, #389 ) ;
#77 = VECTOR ( 'NONE', #15, 1000.000000000000000 ) ;
#78 = DIRECTION ( 'NONE',  ( -0.4087172745948361996, 0.1867560432527944347, 0.8933489630353469435 ) ) ;
#79 = CARTESIAN_POINT ( 'NONE',  ( -47.05874527724021306, -1.365450597019413731E-15, -37.82347310773857174 ) ) ;
#80 = VERTEX_POINT ( 'NONE', #8 ) ;
#81 = DIRECTION ( 'NONE',  ( 0.8350098400741086113, 0.4716182658151730767, 0.2834339046919057137 ) ) ;
#82 = ADVANCED_FACE ( 'NONE', ( #54 ), #139, .F. ) ;
#83 = CARTESIAN_POINT ( 'NONE',  ( 47.05874527724021306, -1.692455933127272941E-16, -37.82347310773857174 ) ) ;
#84 = LINE ( 'NONE', #138, #448 ) ;
#85 = AXIS2_PLACEMENT_3D ( 'NONE', #416, #229, #239 ) ;
#86 = DIRECTION ( 'NONE',  ( -0.3683866941505637982, -0.8617995078079638827, 0.3487016660625098519 ) ) ;
#87 = VECTOR ( 'NONE', #359, 1000.000000000000114 ) ;
#88 = LINE ( 'NONE', #178, #498 ) ;
#89 = CARTESIAN_POINT ( 'NONE',  ( -63.59005817199260235, 139.8403312934879352, -62.90593778266254077 ) ) ;
#90 = ORIENTED_EDGE ( 'NONE', *, *, #7, .T. ) ;
#91 = PLANE ( 'NONE',  #298 ) ;
#92 = CARTESIAN_POINT ( 'NONE',  ( 0.000000000000000000, 170.5111782335950181, 0.000000000000000000 ) ) ;
#93 = DIRECTION ( 'NONE',  ( 1.000000000000000000, 0.000000000000000000, 0.000000000000000000 ) ) ;
#94 = EDGE_CURVE ( 'NONE', #472, #523, #325, .T. ) ;
#95 = CARTESIAN_POINT ( 'NONE',  ( -1.922703351593264394E-15, 151.2784296771081927, 0.000000000000000000 ) ) ;
#96 = FACE_OUTER_BOUND ( 'NONE', #102, .T. ) ;
#97 = DIRECTION ( 'NONE',  ( 1.000000000000000000, 1.270969929881690398E-17, 0.000000000000000000 ) ) ;
#98 = APPLICATION_CONTEXT ( 'automotive_design' ) ;
#99 = CARTESIAN_POINT ( 'NONE',  ( 0.000000000000000000, -23.70785734730154459, 0.000000000000000000 ) ) ;
#100 = EDGE_LOOP ( 'NONE', ( #404, #209, #348, #421 ) ) ;
#101 = DIRECTION ( 'NONE',  ( 0.9093477348258980353, 0.000000000000000000, -0.4160368939974055658 ) ) ;
#102 = EDGE_LOOP ( 'NONE', ( #199, #57, #16, #275 ) ) ;
#103 = CIRCLE ( 'NONE', #524, 92.00000000000000000 ) ;
#104 = EDGE_CURVE ( 'NONE', #281, #360, #50, .T. ) ;
#105 = VERTEX_POINT ( 'NONE', #463 ) ;
#106 =( NAMED_UNIT ( * ) SI_UNIT ( $, .STERADIAN. ) SOLID_ANGLE_UNIT ( ) );
#107 = AXIS2_PLACEMENT_3D ( 'NONE', #502, #513, #93 ) ;
#108 = CARTESIAN_POINT ( 'NONE',  ( 10.66590084082667467, 148.1408819644716175, -88.85458305336567264 ) ) ;
#109 = ORIENTED_EDGE ( 'NONE', *, *, #308, .F. ) ;
#110 = DIRECTION ( 'NONE',  ( 1.270969929881690398E-17, -1.000000000000000000, -0.000000000000000000 ) ) ;
#111 = EDGE_CURVE ( 'NONE', #253, #168, #225, .T. ) ;
#112 = ORIENTED_EDGE ( 'NONE', *, *, #10, .T. ) ;
#113 = CIRCLE ( 'NONE', #455, 46.00000000000000000 ) ;
#114 = CARTESIAN_POINT ( 'NONE',  ( -22.91730180516710647, -10.47165087750662238, -50.09122216209057399 ) ) ;
#115 = EDGE_CURVE ( 'NONE', #185, #123, #182, .T. ) ;
#116 = CARTESIAN_POINT ( 'NONE',  ( -1.922703351593264394E-15, 151.2784296771081927, 0.000000000000000000 ) ) ;
#117 = DIRECTION ( 'NONE',  ( -5.618660087365892913E-16, 0.9788398053191056380, -0.2046280418780751786 ) ) ;
#118 = VECTOR ( 'NONE', #593, 1000.000000000000000 ) ;
#119 = EDGE_LOOP ( 'NONE', ( #36, #497, #495, #479 ) ) ;
#120 = ADVANCED_FACE ( 'NONE', ( #327, #511 ), #135, .T. ) ;
#121 = CARTESIAN_POINT ( 'NONE',  ( -9.420130587861605065, 135.5596660099645305, -83.38253294676465543 ) ) ;
#122 = EDGE_CURVE ( 'NONE', #148, #562, #304, .T. ) ;
#123 = VERTEX_POINT ( 'NONE', #89 ) ;
#124 = VECTOR ( 'NONE', #320, 1000.000000000000000 ) ;
#125 = VECTOR ( 'NONE', #449, 1000.000000000000000 ) ;
#126 = DIRECTION ( 'NONE',  ( 1.270969929881690398E-17, -1.000000000000000000, -0.000000000000000000 ) ) ;
#127 = EDGE_CURVE ( 'NONE', #31, #562, #322, .T. ) ;
#128 = CARTESIAN_POINT ( 'NONE',  ( 9.420130587861613947, 148.7101143843060811, -86.13165541403391501 ) ) ;
#129 = DIRECTION ( 'NONE',  ( 1.000000000000000000, 0.000000000000000000, 0.000000000000000000 ) ) ;
#130 = AXIS2_PLACEMENT_3D ( 'NONE', #366, #412, #319 ) ;
#131 = DIRECTION ( 'NONE',  ( -1.000000000000000000, 0.000000000000000000, -1.224646799147353207E-16 ) ) ;
#132 = EDGE_CURVE ( 'NONE', #80, #31, #485, .T. ) ;
#133 = CARTESIAN_POINT ( 'NONE',  ( 46.00000000000000000, 5.176358638957330999E-16, 0.000000000000000000 ) ) ;
#134 = PLANE ( 'NONE',  #130 ) ;
#135 = PLANE ( 'NONE',  #232 ) ;
#136 = EDGE_CURVE ( 'NONE', #470, #105, #286, .T. ) ;
#137 = ORIENTED_EDGE ( 'NONE', *, *, #152, .T. ) ;
#138 = CARTESIAN_POINT ( 'NONE',  ( 49.19350857609210692, 171.1743425313131297, -72.63106741498620522 ) ) ;
#139 = PLANE ( 'NONE',  #590 ) ;
#140 = VERTEX_POINT ( 'NONE', #557 ) ;
#141 = DIRECTION ( 'NONE',  ( -0.3683866941505637982, -0.8617995078079638827, 0.3487016660625098519 ) ) ;
#142 = CARTESIAN_POINT ( 'NONE',  ( -92.00000000000000000, 151.2784296771081927, 1.126675055215565099E-14 ) ) ;
#143 = CARTESIAN_POINT ( 'NONE',  ( 9.420130587861624605, 135.5596660099645590, -83.38253294676465543 ) ) ;
#144 = CARTESIAN_POINT ( 'NONE',  ( -62.34428791902753630, 140.4095637133224272, -60.18301014333079735 ) ) ;
#145 = AXIS2_PLACEMENT_3D ( 'NONE', #92, #189, #42 ) ;
#146 = AXIS2_PLACEMENT_3D ( 'NONE', #347, #529, #255 ) ;
#147 = FACE_OUTER_BOUND ( 'NONE', #171, .T. ) ;
#148 = VERTEX_POINT ( 'NONE', #514 ) ;
#149 = VECTOR ( 'NONE', #368, 1000.000000000000000 ) ;
#150 = SURFACE_STYLE_USAGE ( .BOTH. , #387 ) ;
#151 = VERTEX_POINT ( 'NONE', #142 ) ;
#152 = EDGE_CURVE ( 'NONE', #562, #151, #425, .T. ) ;
#153 = DIRECTION ( 'NONE',  ( 1.224646799147353207E-16, 1.556489256442148045E-33, 1.000000000000000000 ) ) ;
#154 = LINE ( 'NONE', #575, #262 ) ;
#155 = EDGE_LOOP ( 'NONE', ( #555, #521, #63, #256 ) ) ;
#156 = DIRECTION ( 'NONE',  ( 1.000000000000000000, 0.000000000000000000, 0.000000000000000000 ) ) ;
#157 = DIRECTION ( 'NONE',  ( 0.9093477348258979243, 0.000000000000000000, -0.4160368939974055658 ) ) ;
#158 = EDGE_LOOP ( 'NONE', ( #287, #568, #417, #285 ) ) ;
#159 = ADVANCED_FACE ( 'NONE', ( #413 ), #284, .F. ) ;
#160 = AXIS2_PLACEMENT_3D ( 'NONE', #143, #224, #227 ) ;
#161 = CARTESIAN_POINT ( 'NONE',  ( -21.67153155220204397, -9.902418457672105490, -47.36829452275883767 ) ) ;
#162 = VERTEX_POINT ( 'NONE', #419 ) ;
#163 = CARTESIAN_POINT ( 'NONE',  ( -57.42012312087346970, 65.41001182710485296, -46.75709391537327519 ) ) ;
#164 = ORIENTED_EDGE ( 'NONE', *, *, #565, .T. ) ;
#165 = VECTOR ( 'NONE', #596, 1000.000000000000114 ) ;
#166 = AXIS2_PLACEMENT_3D ( 'NONE', #443, #583, #175 ) ;
#167 = DIRECTION ( 'NONE',  ( 1.000000000000000000, 1.270969929881690244E-17, 0.000000000000000000 ) ) ;
#168 = VERTEX_POINT ( 'NONE', #423 ) ;
#169 = CARTESIAN_POINT ( 'NONE',  ( -71.01498272827049618, 151.2784296771081927, -58.48822298637087869 ) ) ;
#170 = PRODUCT_RELATED_PRODUCT_CATEGORY ( 'part', '', ( #431 ) ) ;
#171 = EDGE_LOOP ( 'NONE', ( #461, #164, #220 ) ) ;
#172 = FACE_OUTER_BOUND ( 'NONE', #536, .T. ) ;
#173 = CARTESIAN_POINT ( 'NONE',  ( 63.03251166406894157, 100.8520123090948744, -51.59856998419011376 ) ) ;
#174 = EDGE_CURVE ( 'NONE', #534, #123, #5, .T. ) ;
#175 = DIRECTION ( 'NONE',  ( 0.9093477348258978132, 0.000000000000000000, 0.4160368939974055658 ) ) ;
#176 = PRESENTATION_LAYER_ASSIGNMENT (  '', '', ( #254 ) ) ;
#177 = ORIENTED_EDGE ( 'NONE', *, *, #115, .T. ) ;
#178 = CARTESIAN_POINT ( 'NONE',  ( -49.19350857609210692, 171.1743425313131297, -72.63106741498620522 ) ) ;
#179 = ORIENTED_EDGE ( 'NONE', *, *, #174, .T. ) ;
#180 = CIRCLE ( 'NONE', #490, 51.74999999999999289 ) ;
#181 = PLANE ( 'NONE',  #160 ) ;
#182 = LINE ( 'NONE', #551, #352 ) ;
#183 = PLANE ( 'NONE',  #420 ) ;
#184 = FACE_OUTER_BOUND ( 'NONE', #358, .T. ) ;
#185 = VERTEX_POINT ( 'NONE', #144 ) ;
#186 = CARTESIAN_POINT ( 'NONE',  ( 60.37500000000000000, 0.000000000000000000, 7.393805049852144036E-15 ) ) ;
#187 = ORIENTED_EDGE ( 'NONE', *, *, #236, .T. ) ;
#188 = CARTESIAN_POINT ( 'NONE',  ( 0.000000000000000000, -23.70785734730154459, 0.000000000000000000 ) ) ;
#189 = DIRECTION ( 'NONE',  ( 0.000000000000000000, 0.000000000000000000, -1.000000000000000000 ) ) ;
#190 = EDGE_LOOP ( 'NONE', ( #530, #9, #302, #196 ) ) ;
#191 = EDGE_CURVE ( 'NONE', #151, #18, #103, .T. ) ;
#192 = PLANE ( 'NONE',  #20 ) ;
#193 = ORIENTED_EDGE ( 'NONE', *, *, #437, .T. ) ;
#194 = AXIS2_PLACEMENT_3D ( 'NONE', #26, #208, #494 ) ;
#195 = DIRECTION ( 'NONE',  ( -2.250590712590144033E-17, 1.000000000000000000, -0.000000000000000000 ) ) ;
#196 = ORIENTED_EDGE ( 'NONE', *, *, #10, .F. ) ;
#197 = SHAPE_DEFINITION_REPRESENTATION ( #299, #422 ) ;
#198 = DIRECTION ( 'NONE',  ( 0.000000000000000000, 0.000000000000000000, -1.000000000000000000 ) ) ;
#199 = ORIENTED_EDGE ( 'NONE', *, *, #501, .T. ) ;
#200 = DIRECTION ( 'NONE',  ( 0.000000000000000000, 0.000000000000000000, 1.000000000000000000 ) ) ;
#201 = LINE ( 'NONE', #247, #203 ) ;
#202 = EDGE_LOOP ( 'NONE', ( #436, #318, #570 ) ) ;
#203 = VECTOR ( 'NONE', #382, 1000.000000000000114 ) ;
#204 = FACE_OUTER_BOUND ( 'NONE', #342, .T. ) ;
#205 = VERTEX_POINT ( 'NONE', #133 ) ;
#206 = CARTESIAN_POINT ( 'NONE',  ( 27.47018803708371237, -3.453621794974397368E-17, -71.92130470894399252 ) ) ;
#207 = ORIENTED_EDGE ( 'NONE', *, *, #94, .F. ) ;
#208 = DIRECTION ( 'NONE',  ( 0.000000000000000000, -0.000000000000000000, 1.000000000000000000 ) ) ;
#209 = ORIENTED_EDGE ( 'NONE', *, *, #516, .F. ) ;
#210 = AXIS2_PLACEMENT_3D ( 'NONE', #466, #457, #235 ) ;
#211 = PLANE ( 'NONE',  #305 ) ;
#212 = EDGE_CURVE ( 'NONE', #253, #105, #154, .T. ) ;
#213 = LINE ( 'NONE', #27, #532 ) ;
#214 = DIRECTION ( 'NONE',  ( -1.000000000000000000, -1.270969929881690244E-17, 0.000000000000000000 ) ) ;
#215 = VECTOR ( 'NONE', #117, 1000.000000000000114 ) ;
#216 = EDGE_CURVE ( 'NONE', #512, #483, #12, .T. ) ;
#217 = EDGE_LOOP ( 'NONE', ( #432, #574, #591, #424, #68 ) ) ;
#218 = B_SPLINE_CURVE_WITH_KNOTS ( 'NONE', 3,
 ( #397, #173, #585, #83 ),
 .UNSPECIFIED., .F., .F.,
 ( 4, 4 ),
 ( 2.043258047254313387E-07, 0.1545514789434161429 ),
 .UNSPECIFIED. ) ;
#219 = DIRECTION ( 'NONE',  ( -1.000000000000000000, -2.250590712590144033E-17, 0.000000000000000000 ) ) ;
#220 = ORIENTED_EDGE ( 'NONE', *, *, #581, .F. ) ;
#221 = LINE ( 'NONE', #372, #118 ) ;
#222 = CONICAL_SURFACE ( 'NONE', #564, 60.37500000000000000, 0.2060836931830037078 ) ;
#223 = ORIENTED_EDGE ( 'NONE', *, *, #584, .F. ) ;
#224 = DIRECTION ( 'NONE',  ( 0.9126610484992603300, 0.08363501558208540076, 0.4000687374949648545 ) ) ;
#225 = LINE ( 'NONE', #410, #165 ) ;
#226 = ORIENTED_EDGE ( 'NONE', *, *, #122, .T. ) ;
#227 = DIRECTION ( 'NONE',  ( -5.618660087365892913E-16, 0.9788398053191056380, -0.2046280418780751786 ) ) ;
#228 = EDGE_CURVE ( 'NONE', #31, #577, #572, .T. ) ;
#229 = DIRECTION ( 'NONE',  ( 1.270969929881690398E-17, -1.000000000000000000, -0.000000000000000000 ) ) ;
#230 = EDGE_LOOP ( 'NONE', ( #519, #476, #6 ) ) ;
#231 = FACE_OUTER_BOUND ( 'NONE', #371, .T. ) ;
#232 = AXIS2_PLACEMENT_3D ( 'NONE', #233, #503, #97 ) ;
#233 = CARTESIAN_POINT ( 'NONE',  ( 60.37500000000000000, 3.836740475830352439E-16, 0.000000000000000000 ) ) ;
#234 = CARTESIAN_POINT ( 'NONE',  ( 0.000000000000000000, -23.70785734730154459, 0.000000000000000000 ) ) ;
#235 = DIRECTION ( 'NONE',  ( -0.9093477348258979243, 0.000000000000000000, -0.4160368939974055658 ) ) ;
#236 = EDGE_CURVE ( 'NONE', #140, #205, #406, .T. ) ;
#237 = EDGE_LOOP ( 'NONE', ( #193, #381, #388, #344 ) ) ;
#238 = CIRCLE ( 'NONE', #345, 60.37500000000000000 ) ;
#239 = DIRECTION ( 'NONE',  ( 1.000000000000000000, 1.270969929881690244E-17, 0.000000000000000000 ) ) ;
#240 = ORIENTED_EDGE ( 'NONE', *, *, #115, .F. ) ;
#241 = EDGE_CURVE ( 'NONE', #80, #523, #573, .T. ) ;
#242 = DIRECTION ( 'NONE',  ( 0.4087172745948361996, -0.1867560432527944347, -0.8933489630353469435 ) ) ;
#243 = ORIENTED_EDGE ( 'NONE', *, *, #212, .F. ) ;
#244 = VECTOR ( 'NONE', #81, 1000.000000000000000 ) ;
#245 = ADVANCED_FACE ( 'NONE', ( #62, #481 ), #192, .F. ) ;
#246 =( LENGTH_UNIT ( ) NAMED_UNIT ( * ) SI_UNIT ( .MILLI., .METRE. ) );
#247 = CARTESIAN_POINT ( 'NONE',  ( -62.34428791902753630, 140.4095637133224272, -60.18301014333079735 ) ) ;
#248 = ORIENTED_EDGE ( 'NONE', *, *, #559, .T. ) ;
#249 =( NAMED_UNIT ( * ) PLANE_ANGLE_UNIT ( ) SI_UNIT ( $, .RADIAN. ) );
#250 = ORIENTED_EDGE ( 'NONE', *, *, #136, .F. ) ;
#251 = MANIFOLD_SOLID_BREP ( 'Espelhar2', #474 ) ;
#252 =( NAMED_UNIT ( * ) SI_UNIT ( $, .STERADIAN. ) SOLID_ANGLE_UNIT ( ) );
#253 = VERTEX_POINT ( 'NONE', #21 ) ;
#254 = STYLED_ITEM ( 'NONE', ( #475 ), #251 ) ;
#255 = DIRECTION ( 'NONE',  ( -1.000000000000000000, -1.270969929881690244E-17, 0.000000000000000000 ) ) ;
#256 = ORIENTED_EDGE ( 'NONE', *, *, #504, .F. ) ;
#257 = DIRECTION ( 'NONE',  ( -2.250590712590144033E-17, 1.000000000000000000, -0.000000000000000000 ) ) ;
#258 = PLANE ( 'NONE',  #434 ) ;
#259 = ADVANCED_FACE ( 'NONE', ( #478 ), #378, .F. ) ;
#260 = LINE ( 'NONE', #531, #125 ) ;
#261 = LINE ( 'NONE', #444, #331 ) ;
#262 = VECTOR ( 'NONE', #242, 1000.000000000000000 ) ;
#263 = EDGE_CURVE ( 'NONE', #185, #439, #201, .T. ) ;
#264 = CARTESIAN_POINT ( 'NONE',  ( -9.420130587861613947, 148.7101143843060811, -86.13165541403391501 ) ) ;
#265 = CARTESIAN_POINT ( 'NONE',  ( -71.01498272827049618, 151.2784296771081927, -58.48822298637087869 ) ) ;
#266 = CARTESIAN_POINT ( 'NONE',  ( -9.420130587861624605, 135.5596660099645590, -83.38253294676465543 ) ) ;
#267 = AXIS2_PLACEMENT_3D ( 'NONE', #14, #386, #101 ) ;
#268 = ORIENTED_EDGE ( 'NONE', *, *, #55, .T. ) ;
#269 = EDGE_CURVE ( 'NONE', #579, #253, #527, .T. ) ;
#270 = CARTESIAN_POINT ( 'NONE',  ( -62.34428791902753630, 140.4095637133224272, -60.18301014333079735 ) ) ;
#271 = LINE ( 'NONE', #453, #563 ) ;
#272 = DIRECTION ( 'NONE',  ( -0.9126610484992603300, 0.08363501558208540076, 0.4000687374949648545 ) ) ;
#273 = AXIS2_PLACEMENT_3D ( 'NONE', #71, #403, #586 ) ;
#274 = DIRECTION ( 'NONE',  ( 0.8350098400741086113, 0.4716182658151730767, 0.2834339046919057137 ) ) ;
#275 = ORIENTED_EDGE ( 'NONE', *, *, #393, .F. ) ;
#276 = FACE_OUTER_BOUND ( 'NONE', #292, .T. ) ;
#277 = DIRECTION ( 'NONE',  ( 1.000000000000000000, 0.000000000000000000, 0.000000000000000000 ) ) ;
#278 = EDGE_LOOP ( 'NONE', ( #458, #515, #385, #90 ) ) ;
#279 = CARTESIAN_POINT ( 'NONE',  ( -9.420130587861624605, 135.5596660099645590, -83.38253294676465543 ) ) ;
#280 = DIRECTION ( 'NONE',  ( 0.000000000000000000, 0.9788398053191057491, -0.2046280418780749566 ) ) ;
#281 = VERTEX_POINT ( 'NONE', #108 ) ;
#282 = ADVANCED_FACE ( 'NONE', ( #204 ), #66, .T. ) ;
#283 = CARTESIAN_POINT ( 'NONE',  ( -60.37500000000000000, -1.534696190332140976E-15, 0.000000000000000000 ) ) ;
#284 = PLANE ( 'NONE',  #210 ) ;
#285 = ORIENTED_EDGE ( 'NONE', *, *, #559, .F. ) ;
#286 = LINE ( 'NONE', #2, #38 ) ;
#287 = ORIENTED_EDGE ( 'NONE', *, *, #216, .F. ) ;
#288 = ADVANCED_FACE ( 'NONE', ( #147 ), #520, .F. ) ;
#289 = VECTOR ( 'NONE', #595, 1000.000000000000000 ) ;
#290 = DIRECTION ( 'NONE',  ( 0.000000000000000000, 0.000000000000000000, -1.000000000000000000 ) ) ;
#291 = ADVANCED_FACE ( 'NONE', ( #567 ), #499, .F. ) ;
#292 = EDGE_LOOP ( 'NONE', ( #47, #334, #408, #430 ) ) ;
#293 = APPLICATION_PROTOCOL_DEFINITION ( 'draft international standard', 'automotive_design', 1998, #597 ) ;
#294 = ORIENTED_EDGE ( 'NONE', *, *, #7, .F. ) ;
#295 =( NAMED_UNIT ( * ) PLANE_ANGLE_UNIT ( ) SI_UNIT ( $, .RADIAN. ) );
#296 =( LENGTH_UNIT ( ) NAMED_UNIT ( * ) SI_UNIT ( .MILLI., .METRE. ) );
#297 = ORIENTED_EDGE ( 'NONE', *, *, #263, .T. ) ;
#298 = AXIS2_PLACEMENT_3D ( 'NONE', #53, #49, #507 ) ;
#299 = PRODUCT_DEFINITION_SHAPE ( 'NONE', 'NONE',  #400 ) ;
#300 = DIRECTION ( 'NONE',  ( 1.000000000000000000, 0.000000000000000000, -1.224646799147353207E-16 ) ) ;
#301 = CARTESIAN_POINT ( 'NONE',  ( 9.752763547080693473E-33, -7.673480951660704878E-16, 0.000000000000000000 ) ) ;
#302 = ORIENTED_EDGE ( 'NONE', *, *, #104, .F. ) ;
#303 = EDGE_LOOP ( 'NONE', ( #177, #380, #362, #59 ) ) ;
#304 = CIRCLE ( 'NONE', #145, 93.98882176640499608 ) ;
#305 = AXIS2_PLACEMENT_3D ( 'NONE', #270, #309, #306 ) ;
#306 = DIRECTION ( 'NONE',  ( 0.9126610484992603300, -0.08363501558208479014, -0.4000687374949649100 ) ) ;
#307 = FACE_BOUND ( 'NONE', #100, .T. ) ;
#308 = EDGE_CURVE ( 'NONE', #579, #470, #260, .T. ) ;
#309 = DIRECTION ( 'NONE',  ( 0.000000000000000000, 0.9788398053191057491, -0.2046280418780749566 ) ) ;
#310 = ORIENTED_EDGE ( 'NONE', *, *, #390, .T. ) ;
#311 = CARTESIAN_POINT ( 'NONE',  ( -68.20974510425776316, 133.5573402917288206, -56.06702863907348444 ) ) ;
#312 = DIRECTION ( 'NONE',  ( -0.8350098400741086113, 0.4716182658151730767, 0.2834339046919057137 ) ) ;
#313 = FACE_OUTER_BOUND ( 'NONE', #278, .T. ) ;
#314 = ADVANCED_FACE ( 'NONE', ( #313 ), #222, .T. ) ;
#315 = VERTEX_POINT ( 'NONE', #396 ) ;
#316 = DIRECTION ( 'NONE',  ( 0.4087172745948361996, 0.1867560432527944347, 0.8933489630353469435 ) ) ;
#317 = AXIS2_PLACEMENT_3D ( 'NONE', #188, #376, #560 ) ;
#318 = ORIENTED_EDGE ( 'NONE', *, *, #588, .T. ) ;
#319 = DIRECTION ( 'NONE',  ( -0.3683866941505637982, -0.8617995078079638827, 0.3487016660625098519 ) ) ;
#320 = DIRECTION ( 'NONE',  ( 0.8350098400741086113, 0.4716182658151730767, 0.2834339046919057137 ) ) ;
#321 = DIRECTION ( 'NONE',  ( 0.4087172745948361996, -0.1867560432527944347, -0.8933489630353469435 ) ) ;
#322 = LINE ( 'NONE', #186, #29 ) ;
#323 = ORIENTED_EDGE ( 'NONE', *, *, #94, .T. ) ;
#324 = FACE_OUTER_BOUND ( 'NONE', #467, .T. ) ;
#325 = LINE ( 'NONE', #518, #51 ) ;
#326 = SPHERICAL_SURFACE ( 'NONE', #107, 93.98882176640499608 ) ;
#327 = FACE_BOUND ( 'NONE', #60, .T. ) ;
#328 = ORIENTED_EDGE ( 'NONE', *, *, #437, .F. ) ;
#329 = LINE ( 'NONE', #409, #34 ) ;
#330 = ADVANCED_FACE ( 'NONE', ( #401 ), #211, .F. ) ;
#331 = VECTOR ( 'NONE', #500, 1000.000000000000114 ) ;
#332 = VECTOR ( 'NONE', #337, 1000.000000000000114 ) ;
#333 = CARTESIAN_POINT ( 'NONE',  ( -1.922703351593264394E-15, 151.2784296771081927, 0.000000000000000000 ) ) ;
#334 = ORIENTED_EDGE ( 'NONE', *, *, #516, .T. ) ;
#335 = B_SPLINE_CURVE_WITH_KNOTS ( 'NONE', 3,
 ( #578, #394, #163, #28, #580, #311, #169 ),
 .UNSPECIFIED., .F., .F.,
 ( 4, 3, 4 ),
 ( 2.043285681872961874E-07, 0.1002383411897818655, 0.1545514789717079562 ),
 .UNSPECIFIED. ) ;
#336 = PRODUCT_CONTEXT ( 'NONE', #98, 'mechanical' ) ;
#337 = DIRECTION ( 'NONE',  ( -0.9126610484992603300, -0.08363501558208479014, -0.4000687374949649100 ) ) ;
#338 = VERTEX_POINT ( 'NONE', #79 ) ;
#339 = VECTOR ( 'NONE', #141, 1000.000000000000000 ) ;
#340 = ORIENTED_EDGE ( 'NONE', *, *, #127, .T. ) ;
#341 = CARTESIAN_POINT ( 'NONE',  ( 72.37959328000000880, 5.362488183764337374E-16, -26.23889819430843318 ) ) ;
#342 = EDGE_LOOP ( 'NONE', ( #374, #340, #137, #528 ) ) ;
#343 = APPLICATION_PROTOCOL_DEFINITION ( 'draft international standard', 'automotive_design', 1998, #98 ) ;
#344 = ORIENTED_EDGE ( 'NONE', *, *, #136, .T. ) ;
#345 = AXIS2_PLACEMENT_3D ( 'NONE', #23, #350, #167 ) ;
#346 = EDGE_CURVE ( 'NONE', #205, #140, #113, .T. ) ;
#347 = CARTESIAN_POINT ( 'NONE',  ( 9.752763547080693473E-33, -7.673480951660704878E-16, 0.000000000000000000 ) ) ;
#348 = ORIENTED_EDGE ( 'NONE', *, *, #405, .F. ) ;
#349 = ADVANCED_FACE ( 'NONE', ( #491 ), #533, .T. ) ;
#350 = DIRECTION ( 'NONE',  ( 1.270969929881690398E-17, -1.000000000000000000, -0.000000000000000000 ) ) ;
#351 = ORIENTED_EDGE ( 'NONE', *, *, #111, .T. ) ;
#352 = VECTOR ( 'NONE', #369, 1000.000000000000000 ) ;
#353 = VECTOR ( 'NONE', #440, 999.9999999999997726 ) ;
#354 = LINE ( 'NONE', #535, #215 ) ;
#355 = ADVANCED_FACE ( 'NONE', ( #172 ), #74, .T. ) ;
#356 = DIRECTION ( 'NONE',  ( -0.9093477348258979243, 0.000000000000000000, -0.4160368939974055658 ) ) ;
#357 = CARTESIAN_POINT ( 'NONE',  ( 9.752763547080693473E-33, -7.673480951660704878E-16, 0.000000000000000000 ) ) ;
#358 = EDGE_LOOP ( 'NONE', ( #109, #571, #487, #250 ) ) ;
#359 = DIRECTION ( 'NONE',  ( 5.618660087365892913E-16, 0.9788398053191056380, -0.2046280418780751786 ) ) ;
#360 = VERTEX_POINT ( 'NONE', #488 ) ;
#361 = DIRECTION ( 'NONE',  ( 5.618660087365892913E-16, 0.9788398053191056380, -0.2046280418780751786 ) ) ;
#362 = ORIENTED_EDGE ( 'NONE', *, *, #501, .F. ) ;
#363 = FACE_OUTER_BOUND ( 'NONE', #202, .T. ) ;
#364 = AXIS2_PLACEMENT_3D ( 'NONE', #480, #153, #300 ) ;
#365 = CARTESIAN_POINT ( 'NONE',  ( 9.420130587861613947, 148.7101143843060811, -86.13165541403391501 ) ) ;
#366 = CARTESIAN_POINT ( 'NONE',  ( -49.19350857609210692, 171.1743425313131297, -72.63106741498620522 ) ) ;
#367 = DIRECTION ( 'NONE',  ( 0.2046280418780750121, 0.9788398053191057491, 2.505970765017750994E-17 ) ) ;
#368 = DIRECTION ( 'NONE',  ( 0.3683866941505637982, -0.8617995078079638827, 0.3487016660625098519 ) ) ;
#369 = DIRECTION ( 'NONE',  ( -0.4087172745948361996, -0.1867560432527944347, -0.8933489630353469435 ) ) ;
#370 = EDGE_CURVE ( 'NONE', #523, #338, #538, .T. ) ;
#371 = EDGE_LOOP ( 'NONE', ( #243, #351, #112, #328 ) ) ;
#372 = CARTESIAN_POINT ( 'NONE',  ( -60.37500000000000000, -1.534696190332140976E-15, 0.000000000000000000 ) ) ;
#373 = DIRECTION ( 'NONE',  ( -0.9126610484992603300, -0.08363501558208479014, -0.4000687374949649100 ) ) ;
#374 = ORIENTED_EDGE ( 'NONE', *, *, #228, .F. ) ;
#375 = EDGE_CURVE ( 'NONE', #526, #315, #496, .T. ) ;
#376 = DIRECTION ( 'NONE',  ( 0.000000000000000000, 0.000000000000000000, 1.000000000000000000 ) ) ;
#377 = CARTESIAN_POINT ( 'NONE',  ( -50.43927882905716586, 170.6051101114786093, -75.35399505431794864 ) ) ;
#378 = SPHERICAL_SURFACE ( 'NONE', #592, 51.74999999999999289 ) ;
#379 = CARTESIAN_POINT ( 'NONE',  ( -9.420130587861613947, 148.7101143843060811, -86.13165541403391501 ) ) ;
#380 = ORIENTED_EDGE ( 'NONE', *, *, #48, .T. ) ;
#381 = ORIENTED_EDGE ( 'NONE', *, *, #104, .T. ) ;
#382 = DIRECTION ( 'NONE',  ( 0.9126610484992603300, -0.08363501558208479014, -0.4000687374949649100 ) ) ;
#383 = AXIS2_PLACEMENT_3D ( 'NONE', #561, #280, #460 ) ;
#384 = AXIS2_PLACEMENT_3D ( 'NONE', #99, #290, #471 ) ;
#385 = ORIENTED_EDGE ( 'NONE', *, *, #55, .F. ) ;
#386 = DIRECTION ( 'NONE',  ( -0.4087172745948361996, -0.1867560432527944347, -0.8933489630353469435 ) ) ;
#387 = SURFACE_SIDE_STYLE ('',( #525 ) ) ;
#388 = ORIENTED_EDGE ( 'NONE', *, *, #69, .T. ) ;
#389 = VECTOR ( 'NONE', #446, 1000.000000000000000 ) ;
#390 = EDGE_CURVE ( 'NONE', #472, #489, #426, .T. ) ;
#391 = DIRECTION ( 'NONE',  ( 0.9093477348258979243, 0.000000000000000000, -0.4160368939974055658 ) ) ;
#392 = ORIENTED_EDGE ( 'NONE', *, *, #370, .T. ) ;
#393 = EDGE_CURVE ( 'NONE', #439, #512, #542, .T. ) ;
#394 = CARTESIAN_POINT ( 'NONE',  ( -52.24072393100004774, 32.70488557131454854, -42.28966828683667245 ) ) ;
#395 = ORIENTED_EDGE ( 'NONE', *, *, #584, .T. ) ;
#396 = CARTESIAN_POINT ( 'NONE',  ( -10.66590084082667467, 148.1408819644716175, -88.85458305336567264 ) ) ;
#397 = CARTESIAN_POINT ( 'NONE',  ( 71.01498272827049618, 151.2784296771081927, -58.48822298637087158 ) ) ;
#398 = EDGE_CURVE ( 'NONE', #338, #18, #335, .T. ) ;
#399 = AXIS2_PLACEMENT_3D ( 'NONE', #522, #200, #156 ) ;
#400 = PRODUCT_DEFINITION ( 'UNKNOWN', '', #24, #30 ) ;
#401 = FACE_OUTER_BOUND ( 'NONE', #303, .T. ) ;
#402 = FACE_OUTER_BOUND ( 'NONE', #65, .T. ) ;
#403 = DIRECTION ( 'NONE',  ( -1.270969929881690398E-17, 1.000000000000000000, 0.000000000000000000 ) ) ;
#404 = ORIENTED_EDGE ( 'NONE', *, *, #269, .F. ) ;
#405 = EDGE_CURVE ( 'NONE', #168, #43, #545, .T. ) ;
#406 = CIRCLE ( 'NONE', #435, 46.00000000000000000 ) ;
#407 = DIRECTION ( 'NONE',  ( -0.4087172745948361996, -0.1867560432527944347, -0.8933489630353469435 ) ) ;
#408 = ORIENTED_EDGE ( 'NONE', *, *, #308, .T. ) ;
#409 = CARTESIAN_POINT ( 'NONE',  ( -9.420130587861605065, 135.5596660099645305, -83.38253294676465543 ) ) ;
#410 = CARTESIAN_POINT ( 'NONE',  ( 9.420130587861624605, 135.5596660099645590, -83.38253294676465543 ) ) ;
#411 = EDGE_CURVE ( 'NONE', #577, #338, #238, .T. ) ;
#412 = DIRECTION ( 'NONE',  ( 0.8350098400741085003, -0.4716182658151734652, -0.2834339046919057137 ) ) ;
#413 = FACE_OUTER_BOUND ( 'NONE', #237, .T. ) ;
#414 = ORIENTED_EDGE ( 'NONE', *, *, #191, .F. ) ;
#415 = DIRECTION ( 'NONE',  ( -0.4087172745948361996, -0.1867560432527944347, -0.8933489630353469435 ) ) ;
#416 = CARTESIAN_POINT ( 'NONE',  ( 9.752763547080693473E-33, -7.673480951660704878E-16, 0.000000000000000000 ) ) ;
#417 = ORIENTED_EDGE ( 'NONE', *, *, #504, .T. ) ;
#418 = CARTESIAN_POINT ( 'NONE',  ( -9.420130587861619276, 148.7101143843060527, -86.13165541403391501 ) ) ;
#419 = CARTESIAN_POINT ( 'NONE',  ( 2.004092899028376255E-15, 28.04214265269844475, 0.000000000000000000 ) ) ;
#420 = AXIS2_PLACEMENT_3D ( 'NONE', #279, #272, #598 ) ;
#421 = ORIENTED_EDGE ( 'NONE', *, *, #111, .F. ) ;
#422 = ADVANCED_BREP_SHAPE_REPRESENTATION ( 'Head', ( #251, #399 ), #61 ) ;
#423 = CARTESIAN_POINT ( 'NONE',  ( 9.420130587861619276, 148.7101143843060527, -86.13165541403391501 ) ) ;
#424 = ORIENTED_EDGE ( 'NONE', *, *, #411, .T. ) ;
#425 = CIRCLE ( 'NONE', #505, 92.00000000000000000 ) ;
#426 = CIRCLE ( 'NONE', #166, 40.39113954838121145 ) ;
#427 = FILL_AREA_STYLE ('',( #64 ) ) ;
#428 = ORIENTED_EDGE ( 'NONE', *, *, #398, .T. ) ;
#429 = CARTESIAN_POINT ( 'NONE',  ( 0.000000000000000000, -23.70785734730154459, 0.000000000000000000 ) ) ;
#430 = ORIENTED_EDGE ( 'NONE', *, *, #69, .F. ) ;
#431 = PRODUCT ( 'Head', 'Head', '', ( #336 ) ) ;
#432 = ORIENTED_EDGE ( 'NONE', *, *, #241, .F. ) ;
#433 = DIRECTION ( 'NONE',  ( 1.000000000000000000, 0.000000000000000000, 0.000000000000000000 ) ) ;
#434 = AXIS2_PLACEMENT_3D ( 'NONE', #441, #540, #312 ) ;
#435 = AXIS2_PLACEMENT_3D ( 'NONE', #17, #195, #569 ) ;
#436 = ORIENTED_EDGE ( 'NONE', *, *, #122, .F. ) ;
#437 = EDGE_CURVE ( 'NONE', #105, #281, #354, .T. ) ;
#438 = DIRECTION ( 'NONE',  ( -0.9093477348258979243, -1.155753626769745650E-17, -0.4160368939974056213 ) ) ;
#439 = VERTEX_POINT ( 'NONE', #121 ) ;
#440 = DIRECTION ( 'NONE',  ( -0.9093477348258979243, -1.155753626769745650E-17, 0.4160368939974056213 ) ) ;
#441 = CARTESIAN_POINT ( 'NONE',  ( -9.420130587861613947, 148.7101143843060811, -86.13165541403391501 ) ) ;
#442 = EDGE_CURVE ( 'NONE', #512, #315, #76, .T. ) ;
#443 = CARTESIAN_POINT ( 'NONE',  ( 34.68672157409229584, 154.6617016461166827, -75.81609262791519654 ) ) ;
#444 = CARTESIAN_POINT ( 'NONE',  ( -63.59005817199260235, 139.8403312934878784, -62.90593778266254077 ) ) ;
#445 = AXIS2_PLACEMENT_3D ( 'NONE', #547, #78, #356 ) ;
#446 = DIRECTION ( 'NONE',  ( -0.4087172745948361996, -0.1867560432527944347, -0.8933489630353469435 ) ) ;
#447 = ORIENTED_EDGE ( 'NONE', *, *, #393, .T. ) ;
#448 = VECTOR ( 'NONE', #321, 1000.000000000000000 ) ;
#449 = DIRECTION ( 'NONE',  ( 0.4087172745948361996, -0.1867560432527944347, -0.8933489630353469435 ) ) ;
#450 = ADVANCED_FACE ( 'NONE', ( #324 ), #134, .F. ) ;
#451 = EDGE_LOOP ( 'NONE', ( #395, #323, #392, #428 ) ) ;
#452 = CARTESIAN_POINT ( 'NONE',  ( -10.66590084082667644, 148.1408819644715607, -88.85458305336565843 ) ) ;
#453 = CARTESIAN_POINT ( 'NONE',  ( 50.43927882905716586, 170.6051101114786093, -75.35399505431794864 ) ) ;
#454 = AXIS2_PLACEMENT_3D ( 'NONE', #116, #126, #129 ) ;
#455 = AXIS2_PLACEMENT_3D ( 'NONE', #35, #257, #219 ) ;
#456 = CARTESIAN_POINT ( 'NONE',  ( -49.19350857609210692, 171.1743425313131297, -72.63106741498620522 ) ) ;
#457 = DIRECTION ( 'NONE',  ( -0.4087172745948361996, 0.1867560432527944347, 0.8933489630353469435 ) ) ;
#458 = ORIENTED_EDGE ( 'NONE', *, *, #127, .F. ) ;
#459 = CARTESIAN_POINT ( 'NONE',  ( 49.19350857609210692, 171.1743425313131297, -72.63106741498620522 ) ) ;
#460 = DIRECTION ( 'NONE',  ( -0.9126610484992603300, -0.08363501558208479014, -0.4000687374949649100 ) ) ;
#461 = ORIENTED_EDGE ( 'NONE', *, *, #236, .F. ) ;
#462 = CARTESIAN_POINT ( 'NONE',  ( -50.43927882905718718, 170.6051101114787230, -75.35399505431796285 ) ) ;
#463 = CARTESIAN_POINT ( 'NONE',  ( 10.66590084082666934, 134.9904335901300954, -86.10546058609642728 ) ) ;
#464 = AXIS2_PLACEMENT_3D ( 'NONE', #301, #110, #58 ) ;
#465 = CARTESIAN_POINT ( 'NONE',  ( 92.00000000000000000, 151.2784296771081927, 0.000000000000000000 ) ) ;
#466 = CARTESIAN_POINT ( 'NONE',  ( 22.91730180516710647, -10.47165087750662238, -50.09122216209057399 ) ) ;
#467 = EDGE_LOOP ( 'NONE', ( #248, #179, #240, #13 ) ) ;
#468 = DIRECTION ( 'NONE',  ( 1.270969929881690398E-17, -1.000000000000000000, -0.000000000000000000 ) ) ;
#469 = CIRCLE ( 'NONE', #364, 93.98882176640499608 ) ;
#470 = VERTEX_POINT ( 'NONE', #556 ) ;
#471 = DIRECTION ( 'NONE',  ( 1.000000000000000000, 0.000000000000000000, 0.000000000000000000 ) ) ;
#472 = VERTEX_POINT ( 'NONE', #45 ) ;
#473 = ADVANCED_FACE ( 'NONE', ( #96 ), #183, .F. ) ;
#474 = CLOSED_SHELL ( 'NONE', ( #288, #282, #349, #566, #355, #314, #120, #245, #44, #259, #541, #73, #482, #82, #159, #450, #330, #473, #70, #291 ) ) ;
#475 = PRESENTATION_STYLE_ASSIGNMENT (( #150 ) ) ;
#476 = ORIENTED_EDGE ( 'NONE', *, *, #346, .F. ) ;
#477 = EDGE_CURVE ( 'NONE', #483, #185, #41, .T. ) ;
#478 = FACE_OUTER_BOUND ( 'NONE', #230, .T. ) ;
#479 = ORIENTED_EDGE ( 'NONE', *, *, #398, .F. ) ;
#480 = CARTESIAN_POINT ( 'NONE',  ( 0.000000000000000000, 170.5111782335950181, 0.000000000000000000 ) ) ;
#481 = FACE_OUTER_BOUND ( 'NONE', #451, .T. ) ;
#482 = ADVANCED_FACE ( 'NONE', ( #231 ), #181, .F. ) ;
#483 = VERTEX_POINT ( 'NONE', #510 ) ;
#484 = DIRECTION ( 'NONE',  ( 0.4087172745948361996, 0.1867560432527944347, 0.8933489630353469435 ) ) ;
#485 = CIRCLE ( 'NONE', #85, 60.37500000000000000 ) ;
#486 = AXIS2_PLACEMENT_3D ( 'NONE', #114, #316, #391 ) ;
#487 = ORIENTED_EDGE ( 'NONE', *, *, #212, .T. ) ;
#488 = CARTESIAN_POINT ( 'NONE',  ( 50.43927882905718718, 170.6051101114787230, -75.35399505431796285 ) ) ;
#489 = VERTEX_POINT ( 'NONE', #548 ) ;
#490 = AXIS2_PLACEMENT_3D ( 'NONE', #234, #1, #131 ) ;
#491 = FACE_OUTER_BOUND ( 'NONE', #119, .T. ) ;
#492 = UNCERTAINTY_MEASURE_WITH_UNIT (LENGTH_MEASURE( 1.000000000000000082E-05 ), #296, 'distance_accuracy_value', 'NONE');
#493 = ORIENTED_EDGE ( 'NONE', *, *, #216, .T. ) ;
#494 = DIRECTION ( 'NONE',  ( 1.000000000000000000, 0.000000000000000000, 0.000000000000000000 ) ) ;
#495 = ORIENTED_EDGE ( 'NONE', *, *, #191, .T. ) ;
#496 = LINE ( 'NONE', #589, #87 ) ;
#497 = ORIENTED_EDGE ( 'NONE', *, *, #546, .T. ) ;
#498 = VECTOR ( 'NONE', #415, 1000.000000000000000 ) ;
#499 = PLANE ( 'NONE',  #486 ) ;
#500 = DIRECTION ( 'NONE',  ( 0.9126610484992603300, -0.08363501558208479014, -0.4000687374949649100 ) ) ;
#501 = EDGE_CURVE ( 'NONE', #439, #526, #329, .T. ) ;
#502 = CARTESIAN_POINT ( 'NONE',  ( 0.000000000000000000, 170.5111782335950181, 0.000000000000000000 ) ) ;
#503 = DIRECTION ( 'NONE',  ( 1.270969929881690398E-17, -1.000000000000000000, -0.000000000000000000 ) ) ;
#504 = EDGE_CURVE ( 'NONE', #315, #534, #517, .T. ) ;
#505 = AXIS2_PLACEMENT_3D ( 'NONE', #95, #508, #277 ) ;
#506 = VECTOR ( 'NONE', #361, 1000.000000000000114 ) ;
#507 = DIRECTION ( 'NONE',  ( 0.3683866941505637982, -0.8617995078079638827, 0.3487016660625098519 ) ) ;
#508 = DIRECTION ( 'NONE',  ( 1.270969929881690398E-17, -1.000000000000000000, -0.000000000000000000 ) ) ;
#509 = ORIENTED_EDGE ( 'NONE', *, *, #390, .F. ) ;
#510 = CARTESIAN_POINT ( 'NONE',  ( -49.19350857609217087, 171.1743425313131297, -72.63106741498619101 ) ) ;
#511 = FACE_OUTER_BOUND ( 'NONE', #217, .T. ) ;
#512 = VERTEX_POINT ( 'NONE', #418 ) ;
#513 = DIRECTION ( 'NONE',  ( 0.000000000000000000, -0.000000000000000000, 1.000000000000000000 ) ) ;
#514 = CARTESIAN_POINT ( 'NONE',  ( 4.560585824491842805E-15, 264.5000000000000000, 0.000000000000000000 ) ) ;
#515 = ORIENTED_EDGE ( 'NONE', *, *, #132, .F. ) ;
#516 = EDGE_CURVE ( 'NONE', #43, #579, #37, .T. ) ;
#517 = LINE ( 'NONE', #452, #289 ) ;
#518 = CARTESIAN_POINT ( 'NONE',  ( -3.469446951953614189E-15, -11.88836809586084264, -56.86809982498851213 ) ) ;
#519 = ORIENTED_EDGE ( 'NONE', *, *, #565, .F. ) ;
#520 = SPHERICAL_SURFACE ( 'NONE', #384, 51.74999999999999289 ) ;
#521 = ORIENTED_EDGE ( 'NONE', *, *, #48, .F. ) ;
#522 = CARTESIAN_POINT ( 'NONE',  ( 0.000000000000000000, 0.000000000000000000, 0.000000000000000000 ) ) ;
#523 = VERTEX_POINT ( 'NONE', #553 ) ;
#524 = AXIS2_PLACEMENT_3D ( 'NONE', #333, #468, #549 ) ;
#525 = SURFACE_STYLE_FILL_AREA ( #427 ) ;
#526 = VERTEX_POINT ( 'NONE', #550 ) ;
#527 = LINE ( 'NONE', #67, #332 ) ;
#528 = ORIENTED_EDGE ( 'NONE', *, *, #546, .F. ) ;
#529 = DIRECTION ( 'NONE',  ( -1.270969929881690398E-17, 1.000000000000000000, 0.000000000000000000 ) ) ;
#530 = ORIENTED_EDGE ( 'NONE', *, *, #405, .T. ) ;
#531 = CARTESIAN_POINT ( 'NONE',  ( 62.34428791902753630, 140.4095637133224272, -60.18301014333079735 ) ) ;
#532 = VECTOR ( 'NONE', #72, 1000.000000000000000 ) ;
#533 = CONICAL_SURFACE ( 'NONE', #273, 60.37500000000000000, 0.2060836931830037078 ) ;
#534 = VERTEX_POINT ( 'NONE', #462 ) ;
#535 = CARTESIAN_POINT ( 'NONE',  ( 10.66590084082668710, 134.9904335901300101, -86.10546058609639886 ) ) ;
#536 = EDGE_LOOP ( 'NONE', ( #39, #226, #294, #509, #223, #414 ) ) ;
#537 = EDGE_CURVE ( 'NONE', #43, #360, #84, .T. ) ;
#538 = LINE ( 'NONE', #206, #353 ) ;
#539 = UNCERTAINTY_MEASURE_WITH_UNIT (LENGTH_MEASURE( 1.000000000000000082E-05 ), #246, 'distance_accuracy_value', 'NONE');
#540 = DIRECTION ( 'NONE',  ( -0.3683866941505635206, -0.8617995078079641047, 0.3487016660625097964 ) ) ;
#541 = ADVANCED_FACE ( 'NONE', ( #276 ), #91, .F. ) ;
#542 = LINE ( 'NONE', #266, #506 ) ;
#543 = PLANE ( 'NONE',  #445 ) ;
#544 = MECHANICAL_DESIGN_GEOMETRIC_PRESENTATION_REPRESENTATION (  '', ( #254 ), #52 ) ;
#545 = LINE ( 'NONE', #128, #244 ) ;
#546 = EDGE_CURVE ( 'NONE', #577, #151, #221, .T. ) ;
#547 = CARTESIAN_POINT ( 'NONE',  ( 21.67153155220204397, -9.902418457672105490, -47.36829452275883767 ) ) ;
#548 = CARTESIAN_POINT ( 'NONE',  ( 71.01498272827049618, 151.2784296771081927, -58.48822298637087158 ) ) ;
#549 = DIRECTION ( 'NONE',  ( 1.000000000000000000, 0.000000000000000000, 0.000000000000000000 ) ) ;
#550 = CARTESIAN_POINT ( 'NONE',  ( -10.66590084082666934, 134.9904335901300954, -86.10546058609642728 ) ) ;
#551 = CARTESIAN_POINT ( 'NONE',  ( -62.34428791902753630, 140.4095637133224272, -60.18301014333079735 ) ) ;
#552 = VECTOR ( 'NONE', #86, 1000.000000000000000 ) ;
#553 = CARTESIAN_POINT ( 'NONE',  ( 0.000000000000000000, -1.059198761779921218E-15, -59.35338237210428503 ) ) ;
#554 = PLANE ( 'NONE',  #383 ) ;
#555 = ORIENTED_EDGE ( 'NONE', *, *, #375, .F. ) ;
#556 = CARTESIAN_POINT ( 'NONE',  ( 63.59005817199260235, 139.8403312934879352, -62.90593778266254077 ) ) ;
#557 = CARTESIAN_POINT ( 'NONE',  ( -46.00000000000000000, -5.176358638957330999E-16, -5.633375276077824704E-15 ) ) ;
#558 = EDGE_LOOP ( 'NONE', ( #493, #22, #297, #447 ) ) ;
#559 = EDGE_CURVE ( 'NONE', #483, #534, #88, .T. ) ;
#560 = DIRECTION ( 'NONE',  ( 1.000000000000000000, 0.000000000000000000, 0.000000000000000000 ) ) ;
#561 = CARTESIAN_POINT ( 'NONE',  ( 62.34428791902753630, 140.4095637133224272, -60.18301014333079735 ) ) ;
#562 = VERTEX_POINT ( 'NONE', #465 ) ;
#563 = VECTOR ( 'NONE', #33, 1000.000000000000000 ) ;
#564 = AXIS2_PLACEMENT_3D ( 'NONE', #357, #32, #214 ) ;
#565 = EDGE_CURVE ( 'NONE', #140, #162, #180, .T. ) ;
#566 = ADVANCED_FACE ( 'NONE', ( #363 ), #326, .T. ) ;
#567 = FACE_OUTER_BOUND ( 'NONE', #155, .T. ) ;
#568 = ORIENTED_EDGE ( 'NONE', *, *, #442, .T. ) ;
#569 = DIRECTION ( 'NONE',  ( -1.000000000000000000, -2.250590712590144033E-17, 0.000000000000000000 ) ) ;
#570 = ORIENTED_EDGE ( 'NONE', *, *, #152, .F. ) ;
#571 = ORIENTED_EDGE ( 'NONE', *, *, #269, .T. ) ;
#572 = CIRCLE ( 'NONE', #464, 60.37500000000000000 ) ;
#573 = LINE ( 'NONE', #341, #40 ) ;
#574 = ORIENTED_EDGE ( 'NONE', *, *, #132, .T. ) ;
#575 = CARTESIAN_POINT ( 'NONE',  ( 9.420130587861605065, 135.5596660099645305, -83.38253294676465543 ) ) ;
#576 = CIRCLE ( 'NONE', #317, 51.74999999999999289 ) ;
#577 = VERTEX_POINT ( 'NONE', #283 ) ;
#578 = CARTESIAN_POINT ( 'NONE',  ( -47.05874527724021306, -1.365450597019413731E-15, -37.82347310773857174 ) ) ;
#579 = VERTEX_POINT ( 'NONE', #4 ) ;
#580 = CARTESIAN_POINT ( 'NONE',  ( -65.40426733647475999, 115.8362732671056676, -53.64594883482464382 ) ) ;
#581 = EDGE_CURVE ( 'NONE', #205, #162, #576, .T. ) ;
#582 = CARTESIAN_POINT ( 'NONE',  ( 60.37500000000000000, 0.000000000000000000, 9.330277801003896722E-15 ) ) ;
#583 = DIRECTION ( 'NONE',  ( 0.4087172745948361996, -0.1867560432527944347, -0.8933489630353469435 ) ) ;
#584 = EDGE_CURVE ( 'NONE', #18, #472, #3, .T. ) ;
#585 = CARTESIAN_POINT ( 'NONE',  ( 55.04853274364943871, 50.42573547431430114, -44.70963622201627174 ) ) ;
#586 = DIRECTION ( 'NONE',  ( -1.000000000000000000, -1.270969929881690244E-17, 0.000000000000000000 ) ) ;
#587 = ORIENTED_EDGE ( 'NONE', *, *, #346, .T. ) ;
#588 = EDGE_CURVE ( 'NONE', #148, #151, #469, .T. ) ;
#589 = CARTESIAN_POINT ( 'NONE',  ( -10.66590084082668710, 134.9904335901300101, -86.10546058609639886 ) ) ;
#590 = AXIS2_PLACEMENT_3D ( 'NONE', #365, #46, #274 ) ;
#591 = ORIENTED_EDGE ( 'NONE', *, *, #228, .T. ) ;
#592 = AXIS2_PLACEMENT_3D ( 'NONE', #429, #198, #433 ) ;
#593 = DIRECTION ( 'NONE',  ( -0.2046280418780750121, 0.9788398053191057491, 0.000000000000000000 ) ) ;
#594 = FACE_OUTER_BOUND ( 'NONE', #158, .T. ) ;
#595 = DIRECTION ( 'NONE',  ( -0.8350098400741086113, 0.4716182658151730767, 0.2834339046919057137 ) ) ;
#596 = DIRECTION ( 'NONE',  ( -5.618660087365892913E-16, 0.9788398053191056380, -0.2046280418780751786 ) ) ;
#597 = APPLICATION_CONTEXT ( 'automotive_design' ) ;
#598 = DIRECTION ( 'NONE',  ( 5.618660087365892913E-16, 0.9788398053191056380, -0.2046280418780751786 ) ) ;
#599 = DIRECTION ( 'NONE',  ( 0.000000000000000000, -0.9788398053191057491, 0.2046280418780749566 ) ) ;
ENDSEC;
END-ISO-10303-21;
