ISO-10303-21;
HEADER;
FILE_DESCRIPTION (( 'STEP AP214' ),
    '1' );
FILE_NAME ('Hip.STEP',
    '2026-07-30T17:57:44',
    ( '' ),
    ( '' ),
    'SwSTEP 2.0',
    'SolidWorks 2024',
    '' );
FILE_SCHEMA (( 'AUTOMOTIVE_DESIGN' ));
ENDSEC;

DATA;
#1 = EDGE_CURVE ( 'NONE', #49, #30, #13, .T. ) ;
#2 =( LENGTH_UNIT ( ) NAMED_UNIT ( * ) SI_UNIT ( .MILLI., .METRE. ) );
#3 = SURFACE_SIDE_STYLE ('',( #8 ) ) ;
#4 = CLOSED_SHELL ( 'NONE', ( #65, #38 ) ) ;
#5 = PRODUCT_CONTEXT ( 'NONE', #39, 'mechanical' ) ;
#6 = EDGE_LOOP ( 'NONE', ( #44, #22 ) ) ;
#7 =( GEOMETRIC_REPRESENTATION_CONTEXT ( 3 ) GLOBAL_UNCERTAINTY_ASSIGNED_CONTEXT ( ( #35 ) ) GLOBAL_UNIT_ASSIGNED_CONTEXT ( ( #2, #70, #32 ) ) REPRESENTATION_CONTEXT ( 'NONE', 'WORKASPACE' ) );
#8 = SURFACE_STYLE_FILL_AREA ( #63 ) ;
#9 = DIRECTION ( 'NONE',  ( -1.000000000000000000, 0.000000000000000000, -1.224646799147353207E-16 ) ) ;
#10 = CIRCLE ( 'NONE', #56, 48.87500000000000000 ) ;
#11 = PRESENTATION_STYLE_ASSIGNMENT (( #41 ) ) ;
#12 = AXIS2_PLACEMENT_3D ( 'NONE', #45, #72, #48 ) ;
#13 = CIRCLE ( 'NONE', #25, 48.87500000000000000 ) ;
#14 = SPHERICAL_SURFACE ( 'NONE', #31, 48.87500000000000000 ) ;
#15 = SPHERICAL_SURFACE ( 'NONE', #12, 48.87500000000000000 ) ;
#16 = CARTESIAN_POINT ( 'NONE',  ( 0.000000000000000000, 0.000000000000000000, 0.000000000000000000 ) ) ;
#17 = FILL_AREA_STYLE_COLOUR ( '', #20 ) ;
#18 = PRODUCT_RELATED_PRODUCT_CATEGORY ( 'part', '', ( #43 ) ) ;
#19 = DIRECTION ( 'NONE',  ( 1.000000000000000000, 0.000000000000000000, 0.000000000000000000 ) ) ;
#20 = COLOUR_RGB ( '',0.7921568627450980005, 0.8196078431372548767, 0.9333333333333333481 ) ;
#21 = FACE_OUTER_BOUND ( 'NONE', #33, .T. ) ;
#22 = ORIENTED_EDGE ( 'NONE', *, *, #40, .T. ) ;
#23 = CARTESIAN_POINT ( 'NONE',  ( 0.000000000000000000, 0.000000000000000000, 0.000000000000000000 ) ) ;
#24 = DIRECTION ( 'NONE',  ( 0.000000000000000000, 0.000000000000000000, -1.000000000000000000 ) ) ;
#25 = AXIS2_PLACEMENT_3D ( 'NONE', #57, #71, #52 ) ;
#26 = PRODUCT_DEFINITION_FORMATION_WITH_SPECIFIED_SOURCE ( 'ANY', '', #43, .NOT_KNOWN. ) ;
#27 = PRODUCT_DEFINITION ( 'UNKNOWN', '', #26, #53 ) ;
#28 = FACE_OUTER_BOUND ( 'NONE', #6, .T. ) ;
#29 = ORIENTED_EDGE ( 'NONE', *, *, #40, .F. ) ;
#30 = VERTEX_POINT ( 'NONE', #51 ) ;
#31 = AXIS2_PLACEMENT_3D ( 'NONE', #23, #24, #19 ) ;
#32 =( NAMED_UNIT ( * ) SI_UNIT ( $, .STERADIAN. ) SOLID_ANGLE_UNIT ( ) );
#33 = EDGE_LOOP ( 'NONE', ( #29, #58 ) ) ;
#34 = STYLED_ITEM ( 'NONE', ( #11 ), #54 ) ;
#35 = UNCERTAINTY_MEASURE_WITH_UNIT (LENGTH_MEASURE( 1.000000000000000082E-05 ), #2, 'distance_accuracy_value', 'NONE');
#36 = PRODUCT_DEFINITION_SHAPE ( 'NONE', 'NONE',  #27 ) ;
#37 =( LENGTH_UNIT ( ) NAMED_UNIT ( * ) SI_UNIT ( .MILLI., .METRE. ) );
#38 = ADVANCED_FACE ( 'NONE', ( #21 ), #15, .T. ) ;
#39 = APPLICATION_CONTEXT ( 'automotive_design' ) ;
#40 = EDGE_CURVE ( 'NONE', #49, #30, #10, .T. ) ;
#41 = SURFACE_STYLE_USAGE ( .BOTH. , #3 ) ;
#42 = DIRECTION ( 'NONE',  ( 1.000000000000000000, 0.000000000000000000, 0.000000000000000000 ) ) ;
#43 = PRODUCT ( 'Hip', 'Hip', '', ( #5 ) ) ;
#44 = ORIENTED_EDGE ( 'NONE', *, *, #1, .F. ) ;
#45 = CARTESIAN_POINT ( 'NONE',  ( 0.000000000000000000, 0.000000000000000000, 0.000000000000000000 ) ) ;
#46 =( NAMED_UNIT ( * ) PLANE_ANGLE_UNIT ( ) SI_UNIT ( $, .RADIAN. ) );
#47 =( GEOMETRIC_REPRESENTATION_CONTEXT ( 3 ) GLOBAL_UNCERTAINTY_ASSIGNED_CONTEXT ( ( #74 ) ) GLOBAL_UNIT_ASSIGNED_CONTEXT ( ( #37, #46, #66 ) ) REPRESENTATION_CONTEXT ( 'NONE', 'WORKASPACE' ) );
#48 = DIRECTION ( 'NONE',  ( 1.000000000000000000, 0.000000000000000000, 0.000000000000000000 ) ) ;
#49 = VERTEX_POINT ( 'NONE', #73 ) ;
#50 = PRESENTATION_LAYER_ASSIGNMENT (  '', '', ( #34 ) ) ;
#51 = CARTESIAN_POINT ( 'NONE',  ( 2.992730615416344127E-15, 48.87500000000000000, 0.000000000000000000 ) ) ;
#52 = DIRECTION ( 'NONE',  ( 1.000000000000000000, 0.000000000000000000, 0.000000000000000000 ) ) ;
#53 = PRODUCT_DEFINITION_CONTEXT ( 'detailed design', #60, 'design' ) ;
#54 = MANIFOLD_SOLID_BREP ( 'Oto\X2\010d\X0\it kolem osy1', #4 ) ;
#55 = ADVANCED_BREP_SHAPE_REPRESENTATION ( 'Hip', ( #54, #59 ), #47 ) ;
#56 = AXIS2_PLACEMENT_3D ( 'NONE', #16, #64, #9 ) ;
#57 = CARTESIAN_POINT ( 'NONE',  ( 0.000000000000000000, 0.000000000000000000, 0.000000000000000000 ) ) ;
#58 = ORIENTED_EDGE ( 'NONE', *, *, #1, .T. ) ;
#59 = AXIS2_PLACEMENT_3D ( 'NONE', #61, #68, #42 ) ;
#60 = APPLICATION_CONTEXT ( 'automotive_design' ) ;
#61 = CARTESIAN_POINT ( 'NONE',  ( 0.000000000000000000, 0.000000000000000000, 0.000000000000000000 ) ) ;
#62 = APPLICATION_PROTOCOL_DEFINITION ( 'draft international standard', 'automotive_design', 1998, #39 ) ;
#63 = FILL_AREA_STYLE ('',( #17 ) ) ;
#64 = DIRECTION ( 'NONE',  ( 1.224646799147353207E-16, 0.000000000000000000, -1.000000000000000000 ) ) ;
#65 = ADVANCED_FACE ( 'NONE', ( #28 ), #14, .T. ) ;
#66 =( NAMED_UNIT ( * ) SI_UNIT ( $, .STERADIAN. ) SOLID_ANGLE_UNIT ( ) );
#67 = MECHANICAL_DESIGN_GEOMETRIC_PRESENTATION_REPRESENTATION (  '', ( #34 ), #7 ) ;
#68 = DIRECTION ( 'NONE',  ( 0.000000000000000000, 0.000000000000000000, 1.000000000000000000 ) ) ;
#69 = APPLICATION_PROTOCOL_DEFINITION ( 'draft international standard', 'automotive_design', 1998, #60 ) ;
#70 =( NAMED_UNIT ( * ) PLANE_ANGLE_UNIT ( ) SI_UNIT ( $, .RADIAN. ) );
#71 = DIRECTION ( 'NONE',  ( 0.000000000000000000, 0.000000000000000000, 1.000000000000000000 ) ) ;
#72 = DIRECTION ( 'NONE',  ( 0.000000000000000000, 0.000000000000000000, -1.000000000000000000 ) ) ;
#73 = CARTESIAN_POINT ( 'NONE',  ( 2.992730615416344127E-15, -48.87500000000000000, 0.000000000000000000 ) ) ;
#74 = UNCERTAINTY_MEASURE_WITH_UNIT (LENGTH_MEASURE( 1.000000000000000082E-05 ), #37, 'distance_accuracy_value', 'NONE');
#75 = SHAPE_DEFINITION_REPRESENTATION ( #36, #55 ) ;
ENDSEC;
END-ISO-10303-21;
