ISO-10303-21;
HEADER;
FILE_DESCRIPTION (( 'STEP AP214' ),
    '1' );
FILE_NAME ('Pelvis.STEP',
    '2026-07-30T17:59:10',
    ( '' ),
    ( '' ),
    'SwSTEP 2.0',
    'SolidWorks 2024',
    '' );
FILE_SCHEMA (( 'AUTOMOTIVE_DESIGN' ));
ENDSEC;

DATA;
#1 = DIRECTION ( 'NONE',  ( 0.000000000000000000, -1.000000000000000000, -0.000000000000000000 ) ) ;
#2 = AXIS2_PLACEMENT_3D ( 'NONE', #50, #493, #90 ) ;
#3 = DIRECTION ( 'NONE',  ( -0.000000000000000000, -1.000000000000000000, -0.000000000000000000 ) ) ;
#4 = SURFACE_STYLE_FILL_AREA ( #282 ) ;
#5 = ORIENTED_EDGE ( 'NONE', *, *, #54, .T. ) ;
#6 = EDGE_CURVE ( 'NONE', #86, #425, #391, .T. ) ;
#7 = CARTESIAN_POINT ( 'NONE',  ( 0.000000000000000000, 1.110223024625156540E-13, 0.000000000000000000 ) ) ;
#8 = B_SPLINE_CURVE_WITH_KNOTS ( 'NONE', 3,
 ( #185, #517, #269, #229, #235, #355, #390, #523, #30, #38, #195, #159, #312, #298, #260, #266, #151, #67, #315, #87, #482, #343, #479, #224, #77, #383, #115, #121, #437, #193, #155, #381, #430, #307, #42, #124, #200, #275, #170, #319, #323, #367 ),
 .UNSPECIFIED., .F., .F.,
 ( 4, 2, 2, 2, 2, 2, 2, 2, 2, 2, 2, 2, 2, 2, 2, 2, 2, 2, 2, 2, 4 ),
 ( 0.2078594704418942063, 0.2202214659711911326, 0.2233119648535153712, 0.2264024637358396097, 0.2325834615004880590, 0.2387644592651365361, 0.2418549581474607746, 0.2449454570297850409, 0.2573074525590819395, 0.2696694480883788381, 0.2758504458530273151, 0.2820314436176757367, 0.2943934391469726908, 0.3067554346762695894, 0.3191174302055664880, 0.3252984279702149650, 0.3314794257348634421, 0.3562034167934572948, 0.3809274078520512030, 0.3932894033813481016, 0.4056513989106450557 ),
 .UNSPECIFIED. ) ;
#9 = EDGE_LOOP ( 'NONE', ( #424, #242, #409 ) ) ;
#10 = DIRECTION ( 'NONE',  ( 0.000000000000000000, 0.000000000000000000, -1.000000000000000000 ) ) ;
#11 = FACE_OUTER_BOUND ( 'NONE', #325, .T. ) ;
#12 = CARTESIAN_POINT ( 'NONE',  ( 66.47538923566636981, 117.5336636634899605, 88.31070919295014221 ) ) ;
#13 = CARTESIAN_POINT ( 'NONE',  ( -4.081483709483309530E-14, 9.673155518053004442, 60.03575675559825697 ) ) ;
#14 = CIRCLE ( 'NONE', #2, 72.80109889280518587 ) ;
#15 = ADVANCED_FACE ( 'NONE', ( #246, #202, #314 ), #522, .T. ) ;
#16 = CARTESIAN_POINT ( 'NONE',  ( 38.83031471406588508, 147.6313514791162049, 96.20062836812783758 ) ) ;
#17 = CARTESIAN_POINT ( 'NONE',  ( -37.26955920278114576, 12.84969738231722047, -105.1207464204605486 ) ) ;
#18 = PRESENTATION_STYLE_ASSIGNMENT (( #131 ) ) ;
#19 = CARTESIAN_POINT ( 'NONE',  ( 92.19500949225809450, 41.64016861450128459, 68.41570777203078535 ) ) ;
#20 = CARTESIAN_POINT ( 'NONE',  ( -11.86429453383659371, 19.60826670285024065, -111.8793157409933769 ) ) ;
#21 = CARTESIAN_POINT ( 'NONE',  ( 62.43164618695175250, 123.4713014117832728, 89.86722350768752676 ) ) ;
#22 = CARTESIAN_POINT ( 'NONE',  ( 93.37749976472652236, 9.673155518053007995, 60.03575675559832803 ) ) ;
#23 = AXIS2_PLACEMENT_3D ( 'NONE', #24, #433, #231 ) ;
#24 = CARTESIAN_POINT ( 'NONE',  ( 74.74999999999998579, 5.551115123125782702E-14, 0.000000000000000000 ) ) ;
#25 = EDGE_CURVE ( 'NONE', #237, #114, #459, .T. ) ;
#26 = VERTEX_POINT ( 'NONE', #336 ) ;
#27 = DIRECTION ( 'NONE',  ( 0.000000000000000000, 0.000000000000000000, -1.000000000000000000 ) ) ;
#28 = TOROIDAL_SURFACE ( 'NONE', #497, -204.6520259217354862, 320.0000000000000000 ) ;
#29 = ORIENTED_EDGE ( 'NONE', *, *, #162, .T. ) ;
#30 = CARTESIAN_POINT ( 'NONE',  ( -22.47581924793339780, 156.6636542900567974, 98.56838962542452975 ) ) ;
#31 = DIRECTION ( 'NONE',  ( 1.224646799147353207E-16, -0.000000000000000000, 1.000000000000000000 ) ) ;
#32 = ORIENTED_EDGE ( 'NONE', *, *, #466, .T. ) ;
#33 = ADVANCED_FACE ( 'NONE', ( #503 ), #145, .F. ) ;
#34 = CARTESIAN_POINT ( 'NONE',  ( -58.49458102594196873, 1.110223024625156540E-13, -92.27104903814365855 ) ) ;
#35 = CARTESIAN_POINT ( 'NONE',  ( 0.000000000000000000, 241.7500000000000284, 0.000000000000000000 ) ) ;
#36 = ORIENTED_EDGE ( 'NONE', *, *, #69, .T. ) ;
#37 = AXIS2_PLACEMENT_3D ( 'NONE', #13, #289, #490 ) ;
#38 = CARTESIAN_POINT ( 'NONE',  ( -26.30293190428269412, 155.0204055938089027, 98.13762233600564855 ) ) ;
#39 = DIRECTION ( 'NONE',  ( -1.000000000000000000, 0.000000000000000000, 1.224646799147353207E-16 ) ) ;
#40 = EDGE_LOOP ( 'NONE', ( #448, #123, #468 ) ) ;
#41 =( GEOMETRIC_REPRESENTATION_CONTEXT ( 3 ) GLOBAL_UNCERTAINTY_ASSIGNED_CONTEXT ( ( #456 ) ) GLOBAL_UNIT_ASSIGNED_CONTEXT ( ( #335, #211, #399 ) ) REPRESENTATION_CONTEXT ( 'NONE', 'WORKASPACE' ) );
#42 = CARTESIAN_POINT ( 'NONE',  ( -88.04625299972232710, 65.55237474389238628, 74.68414190613489723 ) ) ;
#43 = DIRECTION ( 'NONE',  ( 0.000000000000000000, 0.000000000000000000, -1.000000000000000000 ) ) ;
#44 = ORIENTED_EDGE ( 'NONE', *, *, #436, .T. ) ;
#45 = CARTESIAN_POINT ( 'NONE',  ( 0.000000000000000000, 195.5000000000000000, 0.000000000000000000 ) ) ;
#46 = ORIENTED_EDGE ( 'NONE', *, *, #466, .F. ) ;
#47 = AXIS2_PLACEMENT_3D ( 'NONE', #285, #410, #375 ) ;
#48 = CARTESIAN_POINT ( 'NONE',  ( 72.80109889280518587, 195.5000000000000000, -8.915563273348380327E-15 ) ) ;
#49 = ORIENTED_EDGE ( 'NONE', *, *, #519, .F. ) ;
#50 = CARTESIAN_POINT ( 'NONE',  ( 0.000000000000000000, 195.5000000000000000, 0.000000000000000000 ) ) ;
#51 = FILL_AREA_STYLE_COLOUR ( '', #368 ) ;
#52 = ORIENTED_EDGE ( 'NONE', *, *, #54, .F. ) ;
#53 = DIRECTION ( 'NONE',  ( -0.000000000000000000, -1.000000000000000000, -0.000000000000000000 ) ) ;
#54 = EDGE_CURVE ( 'NONE', #445, #208, #72, .T. ) ;
#55 = CARTESIAN_POINT ( 'NONE',  ( 102.6124383298633660, 1.110223024625156540E-13, 37.49999999999987921 ) ) ;
#56 = CARTESIAN_POINT ( 'NONE',  ( 84.21051050696233631, 78.94526138082051148, 78.19500273155760794 ) ) ;
#57 = CARTESIAN_POINT ( 'NONE',  ( -38.47911815865090546, 12.32519463455057362, -104.5962436726939444 ) ) ;
#58 = DIRECTION ( 'NONE',  ( 0.000000000000000000, 0.000000000000000000, 1.000000000000000000 ) ) ;
#59 = CARTESIAN_POINT ( 'NONE',  ( 1.221035748333195079E-14, 161.0000000000000853, 99.70513532418608804 ) ) ;
#60 = CARTESIAN_POINT ( 'NONE',  ( -13.95269395411442659, 19.33688746824387295, -111.6079365063869915 ) ) ;
#61 = DIRECTION ( 'NONE',  ( 6.576218706954179480E-16, 0.2535756755598267964, -0.9673155518052924950 ) ) ;
#62 = FACE_OUTER_BOUND ( 'NONE', #265, .T. ) ;
#63 = ADVANCED_FACE ( 'NONE', ( #62 ), #184, .F. ) ;
#64 = CARTESIAN_POINT ( 'NONE',  ( -3.657735210703057516E-14, -14.10404243539182900, 53.80271416395167705 ) ) ;
#65 = CIRCLE ( 'NONE', #259, 109.2500000000000142 ) ;
#66 = PRESENTATION_LAYER_ASSIGNMENT (  '', '', ( #95 ) ) ;
#67 = CARTESIAN_POINT ( 'NONE',  ( -48.37265019642936181, 139.8000272238847117, 94.14769607024192055 ) ) ;
#68 = ORIENTED_EDGE ( 'NONE', *, *, #362, .T. ) ;
#69 = EDGE_CURVE ( 'NONE', #237, #516, #339, .T. ) ;
#70 = EDGE_LOOP ( 'NONE', ( #68, #158, #227, #36, #361, #268, #300 ) ) ;
#71 = CARTESIAN_POINT ( 'NONE',  ( 9.732224367321684610, 19.85325341132542576, -112.1243024494684022 ) ) ;
#72 = CIRCLE ( 'NONE', #494, 86.25000000000001421 ) ;
#73 = VERTEX_POINT ( 'NONE', #34 ) ;
#74 = DIRECTION ( 'NONE',  ( 0.000000000000000000, 1.000000000000000000, 0.000000000000000000 ) ) ;
#75 = CIRCLE ( 'NONE', #102, 31.49404705654713155 ) ;
#76 = ADVANCED_FACE ( 'NONE', ( #80 ), #514, .F. ) ;
#77 = CARTESIAN_POINT ( 'NONE',  ( -66.46252903777171639, 117.6328450818809301, 88.33670897670678812 ) ) ;
#78 = CARTESIAN_POINT ( 'NONE',  ( 0.000000000000000000, 195.5000000000000000, 0.000000000000000000 ) ) ;
#79 = VERTEX_POINT ( 'NONE', #303 ) ;
#80 = FACE_OUTER_BOUND ( 'NONE', #317, .T. ) ;
#81 = CARTESIAN_POINT ( 'NONE',  ( 50.70597541869531000, 5.756774559953606207, -98.02782359809656043 ) ) ;
#82 = ORIENTED_EDGE ( 'NONE', *, *, #362, .F. ) ;
#83 = AXIS2_PLACEMENT_3D ( 'NONE', #45, #238, #96 ) ;
#84 = DIRECTION ( 'NONE',  ( 0.000000000000000000, 0.000000000000000000, -1.000000000000000000 ) ) ;
#85 = CARTESIAN_POINT ( 'NONE',  ( 54.71332914395062375, 2.959712718029235745, -95.23076175617217132 ) ) ;
#86 = VERTEX_POINT ( 'NONE', #352 ) ;
#87 = CARTESIAN_POINT ( 'NONE',  ( -55.41808419666405428, 132.3552918807615129, 92.19610561925266268 ) ) ;
#88 = DIRECTION ( 'NONE',  ( 1.000000000000000000, 0.000000000000000000, 0.000000000000000000 ) ) ;
#89 = EDGE_LOOP ( 'NONE', ( #404, #311, #481, #49 ) ) ;
#90 = DIRECTION ( 'NONE',  ( 0.000000000000000000, 0.000000000000000000, 1.000000000000000000 ) ) ;
#91 = EDGE_LOOP ( 'NONE', ( #511, #477 ) ) ;
#92 = SPHERICAL_SURFACE ( 'NONE', #149, 48.87500000000000000 ) ;
#93 = ORIENTED_EDGE ( 'NONE', *, *, #306, .T. ) ;
#94 = EDGE_CURVE ( 'NONE', #516, #346, #463, .T. ) ;
#95 = STYLED_ITEM ( 'NONE', ( #18 ), #487 ) ;
#96 = DIRECTION ( 'NONE',  ( 0.000000000000000000, 0.000000000000000000, 1.000000000000000000 ) ) ;
#97 = CARTESIAN_POINT ( 'NONE',  ( 77.88762717771669486, 96.04219115232336890, 82.67685512059105690 ) ) ;
#98 = CARTESIAN_POINT ( 'NONE',  ( -58.49458102594196873, 1.110223024625156540E-13, -92.27104903814365855 ) ) ;
#99 = CARTESIAN_POINT ( 'NONE',  ( 76.23645234722545183, 99.73385057174701274, 83.64460037132134573 ) ) ;
#100 = CARTESIAN_POINT ( 'NONE',  ( -2.789642905226654257, 20.32931995911346945, -112.6003689972564956 ) ) ;
#101 = CARTESIAN_POINT ( 'NONE',  ( 93.42823479225967276, 25.72083090319479126, 64.24255371999906572 ) ) ;
#102 = AXIS2_PLACEMENT_3D ( 'NONE', #316, #384, #27 ) ;
#103 = SHAPE_DEFINITION_REPRESENTATION ( #322, #380 ) ;
#104 = CARTESIAN_POINT ( 'NONE',  ( 42.13367574388624348, 145.1091530652365975, 95.53944994966676063 ) ) ;
#105 = CARTESIAN_POINT ( 'NONE',  ( 95.38343061791799471, 8.130293370924785989, 56.44131789950719735 ) ) ;
#106 = DIRECTION ( 'NONE',  ( 1.000000000000000000, 0.000000000000000000, 0.000000000000000000 ) ) ;
#107 = EDGE_LOOP ( 'NONE', ( #261, #277, #126, #301 ) ) ;
#108 = ADVANCED_FACE ( 'NONE', ( #163 ), #422, .F. ) ;
#109 = AXIS2_PLACEMENT_3D ( 'NONE', #498, #451, #502 ) ;
#110 = EDGE_LOOP ( 'NONE', ( #385, #369, #5 ) ) ;
#111 = CARTESIAN_POINT ( 'NONE',  ( 37.27494633577336458, 12.84739854654111824, -105.1184475846840201 ) ) ;
#112 = PRODUCT_RELATED_PRODUCT_CATEGORY ( 'part', '', ( #310 ) ) ;
#113 = CIRCLE ( 'NONE', #183, 48.87500000000000000 ) ;
#114 = VERTEX_POINT ( 'NONE', #349 ) ;
#115 = CARTESIAN_POINT ( 'NONE',  ( -72.56760832193090494, 107.1444416232848482, 85.58724011146011890 ) ) ;
#116 = CARTESIAN_POINT ( 'NONE',  ( -102.6124383298633660, 1.110223024625156540E-13, 37.49999999999986500 ) ) ;
#117 = ORIENTED_EDGE ( 'NONE', *, *, #436, .F. ) ;
#118 = CARTESIAN_POINT ( 'NONE',  ( 74.74999999999998579, -37.37499999999987921, 0.000000000000000000 ) ) ;
#119 = DIRECTION ( 'NONE',  ( 1.000000000000000000, 0.000000000000000000, -1.224646799147353207E-16 ) ) ;
#120 = ORIENTED_EDGE ( 'NONE', *, *, #345, .T. ) ;
#121 = CARTESIAN_POINT ( 'NONE',  ( -76.15943317133805124, 99.89972510543469753, 83.68808333493076645 ) ) ;
#122 = FACE_OUTER_BOUND ( 'NONE', #70, .T. ) ;
#123 = ORIENTED_EDGE ( 'NONE', *, *, #328, .T. ) ;
#124 = CARTESIAN_POINT ( 'NONE',  ( -91.10287753564236368, 49.83895901458010513, 70.56496900389380755 ) ) ;
#125 = DIRECTION ( 'NONE',  ( -0.000000000000000000, -1.000000000000000000, -0.000000000000000000 ) ) ;
#126 = ORIENTED_EDGE ( 'NONE', *, *, #69, .F. ) ;
#127 = FACE_OUTER_BOUND ( 'NONE', #107, .T. ) ;
#128 = DIRECTION ( 'NONE',  ( -0.000000000000000000, -0.000000000000000000, -1.000000000000000000 ) ) ;
#129 = ORIENTED_EDGE ( 'NONE', *, *, #421, .F. ) ;
#130 = CARTESIAN_POINT ( 'NONE',  ( 58.49458102594291375, 9.517575259169213895E-14, -92.27104903814306169 ) ) ;
#131 = SURFACE_STYLE_USAGE ( .BOTH. , #331 ) ;
#132 = EDGE_CURVE ( 'NONE', #187, #79, #284, .T. ) ;
#133 = EDGE_LOOP ( 'NONE', ( #82, #46 ) ) ;
#134 = AXIS2_PLACEMENT_3D ( 'NONE', #341, #507, #147 ) ;
#135 = CARTESIAN_POINT ( 'NONE',  ( 31.92379927786478788, 152.1890562380417862, 97.39540194650135163 ) ) ;
#136 = PLANE ( 'NONE',  #37 ) ;
#137 = CARTESIAN_POINT ( 'NONE',  ( 2.111945263435175857, 160.9714128571349363, 99.69764138484971738 ) ) ;
#138 = UNCERTAINTY_MEASURE_WITH_UNIT (LENGTH_MEASURE( 1.000000000000000082E-05 ), #171, 'distance_accuracy_value', 'NONE');
#139 = CARTESIAN_POINT ( 'NONE',  ( 2.354576006980805758E-13, -46.13552451907163032, -46.13552451907212060 ) ) ;
#140 = CARTESIAN_POINT ( 'NONE',  ( 4.709152013961563048E-13, 5.551115123125782702E-14, -92.27104903814333170 ) ) ;
#141 = CARTESIAN_POINT ( 'NONE',  ( 91.14655257748209749, 49.55667267198140280, 70.49096941824458895 ) ) ;
#142 = CARTESIAN_POINT ( 'NONE',  ( -11.16479629168184751, 19.69143940954742789, -111.9624884476905322 ) ) ;
#143 = EDGE_CURVE ( 'NONE', #114, #443, #8, .T. ) ;
#144 = CIRCLE ( 'NONE', #47, 48.87500000000000000 ) ;
#145 = PLANE ( 'NONE',  #464 ) ;
#146 = VECTOR ( 'NONE', #167, 1000.000000000000000 ) ;
#147 = DIRECTION ( 'NONE',  ( -1.000000000000000000, 0.000000000000000000, 0.000000000000000000 ) ) ;
#148 = EDGE_CURVE ( 'NONE', #172, #321, #263, .T. ) ;
#149 = AXIS2_PLACEMENT_3D ( 'NONE', #496, #363, #449 ) ;
#150 = CARTESIAN_POINT ( 'NONE',  ( 44.25767318535763195, 9.547674206209318726, -101.8187232443522134 ) ) ;
#151 = CARTESIAN_POINT ( 'NONE',  ( -42.17911444718762226, 145.1804953552871211, 95.55815188138045357 ) ) ;
#152 = EDGE_CURVE ( 'NONE', #234, #516, #65, .T. ) ;
#153 = CARTESIAN_POINT ( 'NONE',  ( 48.61224673563164345, 7.071605106968142707, -99.34265414511111203 ) ) ;
#154 = ORIENTED_EDGE ( 'NONE', *, *, #340, .F. ) ;
#155 = CARTESIAN_POINT ( 'NONE',  ( -80.84538307973870985, 88.65807566565979414, 80.74115578292600048 ) ) ;
#156 = CARTESIAN_POINT ( 'NONE',  ( 13.90020329235015950, 19.34442224520654818, -111.6154712833495353 ) ) ;
#157 = CIRCLE ( 'NONE', #288, 86.25000000000000000 ) ;
#158 = ORIENTED_EDGE ( 'NONE', *, *, #421, .T. ) ;
#159 = CARTESIAN_POINT ( 'NONE',  ( -30.92396795864520342, 152.6378404884339375, 97.51304790935327560 ) ) ;
#160 = CARTESIAN_POINT ( 'NONE',  ( 0.000000000000000000, 241.7500000000000284, 0.000000000000000000 ) ) ;
#161 = DIRECTION ( 'NONE',  ( 0.000000000000000000, 0.000000000000000000, -1.000000000000000000 ) ) ;
#162 = EDGE_CURVE ( 'NONE', #26, #425, #205, .T. ) ;
#163 = FACE_OUTER_BOUND ( 'NONE', #40, .T. ) ;
#164 = CARTESIAN_POINT ( 'NONE',  ( 58.49458102594291375, 9.517575259169213895E-14, -92.27104903814306169 ) ) ;
#165 = ORIENTED_EDGE ( 'NONE', *, *, #371, .T. ) ;
#166 = CARTESIAN_POINT ( 'NONE',  ( 0.000000000000000000, 62.17329106803109795, 204.6520259217354862 ) ) ;
#167 = DIRECTION ( 'NONE',  ( 1.000000000000000000, 2.465190328815661345E-32, 6.798421357623206949E-16 ) ) ;
#168 = VERTEX_POINT ( 'NONE', #48 ) ;
#169 = CIRCLE ( 'NONE', #109, 48.87500000000000000 ) ;
#170 = CARTESIAN_POINT ( 'NONE',  ( -93.31491308676278607, 25.84562192634960098, 64.27526690024421896 ) ) ;
#171 =( LENGTH_UNIT ( ) NAMED_UNIT ( * ) SI_UNIT ( .MILLI., .METRE. ) );
#172 = VERTEX_POINT ( 'NONE', #213 ) ;
#173 = CARTESIAN_POINT ( 'NONE',  ( -100.2276029249152316, 3.327388022789896205, 45.25188685565290569 ) ) ;
#174 = DIRECTION ( 'NONE',  ( 0.000000000000000000, 0.000000000000000000, -1.000000000000000000 ) ) ;
#175 = CARTESIAN_POINT ( 'NONE',  ( 56.83777585028262536, 130.7825294608805109, 91.78381586295537886 ) ) ;
#176 = DIRECTION ( 'NONE',  ( 0.000000000000000000, -0.7071067811865513475, 0.7071067811865437980 ) ) ;
#177 = CARTESIAN_POINT ( 'NONE',  ( 23.47871056156147773, 156.2339197959805688, 98.45573743613292095 ) ) ;
#178 = CARTESIAN_POINT ( 'NONE',  ( -34.82736458108919919, 13.84571995122197663, -106.1167689893652692 ) ) ;
#179 = CARTESIAN_POINT ( 'NONE',  ( 0.000000000000000000, 195.5000000000000000, 0.000000000000000000 ) ) ;
#180 = CARTESIAN_POINT ( 'NONE',  ( 28.28267953583304006, 154.1667339777934558, 97.91383770199111325 ) ) ;
#181 = CARTESIAN_POINT ( 'NONE',  ( -9.070433366165879363, 19.90979020410451383, -112.1808392422476146 ) ) ;
#182 = CARTESIAN_POINT ( 'NONE',  ( 19.54275019696743243, 157.7149295528755317, 98.84397481008439001 ) ) ;
#183 = AXIS2_PLACEMENT_3D ( 'NONE', #305, #31, #439 ) ;
#184 = SPHERICAL_SURFACE ( 'NONE', #134, 48.87500000000000000 ) ;
#185 = CARTESIAN_POINT ( 'NONE',  ( 1.221035748333195079E-14, 161.0000000000000853, 99.70513532418608804 ) ) ;
#186 = ORIENTED_EDGE ( 'NONE', *, *, #257, .T. ) ;
#187 = VERTEX_POINT ( 'NONE', #206 ) ;
#188 =( GEOMETRIC_REPRESENTATION_CONTEXT ( 3 ) GLOBAL_UNCERTAINTY_ASSIGNED_CONTEXT ( ( #138 ) ) GLOBAL_UNIT_ASSIGNED_CONTEXT ( ( #171, #442, #324 ) ) REPRESENTATION_CONTEXT ( 'NONE', 'WORKASPACE' ) );
#189 = CARTESIAN_POINT ( 'NONE',  ( -93.37749976472650815, 9.673155518053009772, 60.03575675559820013 ) ) ;
#190 = CARTESIAN_POINT ( 'NONE',  ( -74.74999999999998579, -37.37499999999987921, 0.000000000000000000 ) ) ;
#191 = FACE_OUTER_BOUND ( 'NONE', #133, .T. ) ;
#192 = B_SPLINE_CURVE_WITH_KNOTS ( 'NONE', 3,
 ( #434, #302, #273, #71, #267, #156, #230, #194, #276, #347, #431, #354, #524, #111, #309, #515, #150, #153, #81, #467, #85, #232, #360, #164 ),
 .UNSPECIFIED., .F., .F.,
 ( 4, 2, 2, 2, 2, 2, 2, 2, 2, 2, 2, 4 ),
 ( 0.06705095555915110972, 0.07540920478993042020, 0.07958832940532006850, 0.08376745402070973068, 0.09212570325148905503, 0.1004839524822683794, 0.1046630770976580416, 0.1088422017130477037, 0.1172004509438270697, 0.1255587001746064080, 0.1297378247899961257, 0.1339169494053857878 ),
 .UNSPECIFIED. ) ;
#193 = CARTESIAN_POINT ( 'NONE',  ( -80.11170512064306592, 90.56008853497077382, 81.23975646949504892 ) ) ;
#194 = CARTESIAN_POINT ( 'NONE',  ( 19.36921680790698375, 18.42492494944005799, -110.6959739875830309 ) ) ;
#195 = CARTESIAN_POINT ( 'NONE',  ( -28.17458362336578759, 154.1142529147849984, 97.90008012207660215 ) ) ;
#196 = CARTESIAN_POINT ( 'NONE',  ( -43.25595294345285424, 5.551115123125782702E-14, -3.856908391999656771E-15 ) ) ;
#197 = EDGE_CURVE ( 'NONE', #346, #73, #403, .T. ) ;
#198 = AXIS2_PLACEMENT_3D ( 'NONE', #78, #270, #43 ) ;
#199 = ORIENTED_EDGE ( 'NONE', *, *, #6, .F. ) ;
#200 = CARTESIAN_POINT ( 'NONE',  ( -92.16729814964817535, 41.89989361554547287, 68.48379304418064351 ) ) ;
#201 = CARTESIAN_POINT ( 'NONE',  ( 74.74999999999998579, 5.551115123125782702E-14, 0.000000000000000000 ) ) ;
#202 = FACE_BOUND ( 'NONE', #91, .T. ) ;
#203 = FACE_OUTER_BOUND ( 'NONE', #351, .T. ) ;
#204 = ORIENTED_EDGE ( 'NONE', *, *, #328, .F. ) ;
#205 = CIRCLE ( 'NONE', #353, 31.49404705654713155 ) ;
#206 = CARTESIAN_POINT ( 'NONE',  ( 106.2440470565471031, 5.551115123125782702E-14, 0.000000000000000000 ) ) ;
#207 = FACE_OUTER_BOUND ( 'NONE', #110, .T. ) ;
#208 = VERTEX_POINT ( 'NONE', #398 ) ;
#209 = AXIS2_PLACEMENT_3D ( 'NONE', #413, #58, #88 ) ;
#210 = DIRECTION ( 'NONE',  ( 0.000000000000000000, 0.000000000000000000, 1.000000000000000000 ) ) ;
#211 =( NAMED_UNIT ( * ) PLANE_ANGLE_UNIT ( ) SI_UNIT ( $, .RADIAN. ) );
#212 = CARTESIAN_POINT ( 'NONE',  ( 0.000000000000000000, 5.551115123125782702E-14, 0.000000000000000000 ) ) ;
#213 = CARTESIAN_POINT ( 'NONE',  ( 0.000000000000000000, 195.5000000000000000, -86.25000000000000000 ) ) ;
#214 = CARTESIAN_POINT ( 'NONE',  ( 48.44046956263248660, 139.7376894891676784, 94.13135462595911918 ) ) ;
#215 = DIRECTION ( 'NONE',  ( 0.000000000000000000, 0.000000000000000000, -1.000000000000000000 ) ) ;
#216 = CARTESIAN_POINT ( 'NONE',  ( 86.48123777440078186, 71.14893399991075285, 76.15124464371319846 ) ) ;
#217 = CARTESIAN_POINT ( 'NONE',  ( -5.580448225014623453, 20.21020014282677835, -112.4812491809698258 ) ) ;
#218 = DIRECTION ( 'NONE',  ( -0.000000000000000000, 0.000000000000000000, 1.000000000000000000 ) ) ;
#219 = CARTESIAN_POINT ( 'NONE',  ( 67.56458587512206293, 115.8031566557963288, 87.85706768711685299 ) ) ;
#220 = ADVANCED_FACE ( 'NONE', ( #127 ), #136, .T. ) ;
#221 = AXIS2_PLACEMENT_3D ( 'NONE', #118, #470, #106 ) ;
#222 = CARTESIAN_POINT ( 'NONE',  ( 88.86695184010940807, 61.36076935259245602, 73.58533896970399724 ) ) ;
#223 = AXIS2_PLACEMENT_3D ( 'NONE', #313, #119, #480 ) ;
#224 = CARTESIAN_POINT ( 'NONE',  ( -64.22480349809518430, 121.0219785299178881, 89.22514895065789631 ) ) ;
#225 = AXIS2_PLACEMENT_3D ( 'NONE', #357, #274, #397 ) ;
#226 = DIRECTION ( 'NONE',  ( 0.000000000000000000, 0.000000000000000000, -1.000000000000000000 ) ) ;
#227 = ORIENTED_EDGE ( 'NONE', *, *, #25, .F. ) ;
#228 = DIRECTION ( 'NONE',  ( -0.000000000000000000, -1.000000000000000000, -0.000000000000000000 ) ) ;
#229 = CARTESIAN_POINT ( 'NONE',  ( -13.45829854701033845, 159.4546189694245015, 99.30002342652852576 ) ) ;
#230 = CARTESIAN_POINT ( 'NONE',  ( 15.28004110408227945, 19.13512680320797799, -111.4061758413509580 ) ) ;
#231 = DIRECTION ( 'NONE',  ( 0.000000000000000000, 0.000000000000000000, -1.000000000000000000 ) ) ;
#232 = CARTESIAN_POINT ( 'NONE',  ( 56.63919112121716637, 1.502578943609169215, -93.77362798175214209 ) ) ;
#233 = AXIS2_PLACEMENT_3D ( 'NONE', #373, #370, #10 ) ;
#234 = VERTEX_POINT ( 'NONE', #130 ) ;
#235 = CARTESIAN_POINT ( 'NONE',  ( -14.47621146330494568, 159.2092931923825745, 99.23571282020199646 ) ) ;
#236 = SPHERICAL_SURFACE ( 'NONE', #333, 86.25000000000001421 ) ;
#237 = VERTEX_POINT ( 'NONE', #245 ) ;
#238 = DIRECTION ( 'NONE',  ( -0.000000000000000000, -1.000000000000000000, -0.000000000000000000 ) ) ;
#239 = ORIENTED_EDGE ( 'NONE', *, *, #162, .F. ) ;
#240 = CARTESIAN_POINT ( 'NONE',  ( -29.84710863311487827, 15.66017130243973021, -107.9312203405829962 ) ) ;
#241 = DIRECTION ( 'NONE',  ( -1.000000000000000000, 0.000000000000000000, 0.000000000000000000 ) ) ;
#242 = ORIENTED_EDGE ( 'NONE', *, *, #143, .T. ) ;
#243 = ADVANCED_FACE ( 'NONE', ( #278 ), #247, .F. ) ;
#244 = CIRCLE ( 'NONE', #395, 31.49404705654713155 ) ;
#245 = CARTESIAN_POINT ( 'NONE',  ( 93.37749976472652236, 9.673155518053007995, 60.03575675559832803 ) ) ;
#246 = FACE_BOUND ( 'NONE', #440, .T. ) ;
#247 = PLANE ( 'NONE',  #420 ) ;
#248 = CARTESIAN_POINT ( 'NONE',  ( 70.71121132865307857, 110.5587165856871081, 86.48227077495195658 ) ) ;
#249 = CARTESIAN_POINT ( 'NONE',  ( -44.29170169336617136, 9.529620081836768009, -101.8006691199801708 ) ) ;
#250 = EDGE_CURVE ( 'NONE', #346, #443, #294, .T. ) ;
#251 = DIRECTION ( 'NONE',  ( -0.000000000000000000, -1.000000000000000000, -0.000000000000000000 ) ) ;
#252 = CARTESIAN_POINT ( 'NONE',  ( 22.50361680461158187, 156.6275357449689238, 98.55892137646092976 ) ) ;
#253 = PRODUCT_DEFINITION_CONTEXT ( 'detailed design', #358, 'design' ) ;
#254 = CARTESIAN_POINT ( 'NONE',  ( -27.29534627239179301, 16.45321881607405956, -108.7242678542172598 ) ) ;
#255 = CARTESIAN_POINT ( 'NONE',  ( 82.31507546681794452, 84.73706719521798902, 79.71328812390576957 ) ) ;
#256 = CARTESIAN_POINT ( 'NONE',  ( 93.61227795215388880, 17.71792475979840020, 62.14464231149717222 ) ) ;
#257 = EDGE_CURVE ( 'NONE', #168, #445, #14, .T. ) ;
#258 = CARTESIAN_POINT ( 'NONE',  ( 4.222997066749850426, 160.8570791948835392, 99.66766953585945998 ) ) ;
#259 = AXIS2_PLACEMENT_3D ( 'NONE', #7, #3, #215 ) ;
#260 = CARTESIAN_POINT ( 'NONE',  ( -34.51498182220353783, 150.5144552321296487, 96.95641584669670010 ) ) ;
#261 = ORIENTED_EDGE ( 'NONE', *, *, #250, .F. ) ;
#262 = VECTOR ( 'NONE', #327, 1000.000000000000000 ) ;
#263 = CIRCLE ( 'NONE', #438, 320.0000000000000568 ) ;
#264 = FACE_BOUND ( 'NONE', #283, .T. ) ;
#265 = EDGE_LOOP ( 'NONE', ( #199, #492, #29 ) ) ;
#266 = CARTESIAN_POINT ( 'NONE',  ( -38.89932642443944388, 147.6817535743223289, 96.21384095973520800 ) ) ;
#267 = CARTESIAN_POINT ( 'NONE',  ( 11.12174950011695174, 19.70401779512883422, -111.9750668332718249 ) ) ;
#268 = ORIENTED_EDGE ( 'NONE', *, *, #371, .F. ) ;
#269 = CARTESIAN_POINT ( 'NONE',  ( -8.350514358784213442, 160.5483893604523189, 99.58674844122982961 ) ) ;
#270 = DIRECTION ( 'NONE',  ( -0.000000000000000000, -1.000000000000000000, -0.000000000000000000 ) ) ;
#271 = ORIENTED_EDGE ( 'NONE', *, *, #512, .F. ) ;
#272 = CARTESIAN_POINT ( 'NONE',  ( -92.89409292307020394, 5.551115123125782702E-14, 37.49999999999975131 ) ) ;
#273 = CARTESIAN_POINT ( 'NONE',  ( 5.562769645104491900, 20.21085050326114896, -112.4818995414041467 ) ) ;
#274 = DIRECTION ( 'NONE',  ( -1.224646799147353207E-16, 0.000000000000000000, -1.000000000000000000 ) ) ;
#275 = CARTESIAN_POINT ( 'NONE',  ( -93.11006026747310216, 29.87521017254259803, 65.33159806317173945 ) ) ;
#276 = CARTESIAN_POINT ( 'NONE',  ( 22.03830660619718174, 17.84065169279035956, -110.1117007309333218 ) ) ;
#277 = ORIENTED_EDGE ( 'NONE', *, *, #94, .F. ) ;
#278 = FACE_OUTER_BOUND ( 'NONE', #280, .T. ) ;
#279 = CARTESIAN_POINT ( 'NONE',  ( 0.000000000000000000, 241.7500000000000284, 0.000000000000000000 ) ) ;
#280 = EDGE_LOOP ( 'NONE', ( #366, #165, #465 ) ) ;
#281 = DIRECTION ( 'NONE',  ( -3.608795345259391506E-15, 0.7071067811865437980, 0.7071067811865513475 ) ) ;
#282 = FILL_AREA_STYLE ('',( #51 ) ) ;
#283 = EDGE_LOOP ( 'NONE', ( #93, #186 ) ) ;
#284 = CIRCLE ( 'NONE', #23, 31.49404705654713155 ) ;
#285 = CARTESIAN_POINT ( 'NONE',  ( 74.74999999999998579, -37.37499999999987921, 0.000000000000000000 ) ) ;
#286 = SPHERICAL_SURFACE ( 'NONE', #423, 86.25000000000001421 ) ;
#287 = CARTESIAN_POINT ( 'NONE',  ( 87.98881561086194836, 65.28364669006001009, 74.61369654043689081 ) ) ;
#288 = AXIS2_PLACEMENT_3D ( 'NONE', #179, #320, #488 ) ;
#289 = DIRECTION ( 'NONE',  ( -2.681535846537139988E-16, -0.9189238111116195817, 0.3944350762446166003 ) ) ;
#290 = CARTESIAN_POINT ( 'NONE',  ( 0.000000000000000000, 62.17329106803109795, 0.000000000000000000 ) ) ;
#291 = CARTESIAN_POINT ( 'NONE',  ( 1.052459510140318244, 160.9999999999999716, 99.70513532418605962 ) ) ;
#292 = DIRECTION ( 'NONE',  ( -1.000000000000000000, 0.000000000000000000, 0.000000000000000000 ) ) ;
#293 = CARTESIAN_POINT ( 'NONE',  ( 85.94693595040683931, 73.10085362629624228, 76.66292807212022353 ) ) ;
#294 = B_SPLINE_CURVE_WITH_KNOTS ( 'NONE', 3,
 ( #326, #406, #173, #457, #444, #446 ),
 .UNSPECIFIED., .F., .F.,
 ( 4, 2, 4 ),
 ( 1.471207780479723379E-16, 0.01310261768241179070, 0.02620523536482343221 ),
 .UNSPECIFIED. ) ;
#295 = CARTESIAN_POINT ( 'NONE',  ( -15.32945539179539374, 19.12724514191140557, -111.3982941800544921 ) ) ;
#296 = CARTESIAN_POINT ( 'NONE',  ( 0.000000000000000000, 241.7500000000000284, 0.000000000000000000 ) ) ;
#297 = CARTESIAN_POINT ( 'NONE',  ( 59.40782958068461284, 127.6039674630280700, 90.95057586757852164 ) ) ;
#298 = CARTESIAN_POINT ( 'NONE',  ( -33.62551239642588996, 151.0649273006237365, 97.10071863019351213 ) ) ;
#299 = CIRCLE ( 'NONE', #83, 72.80109889280518587 ) ;
#300 = ORIENTED_EDGE ( 'NONE', *, *, #148, .F. ) ;
#301 = ORIENTED_EDGE ( 'NONE', *, *, #478, .F. ) ;
#302 = CARTESIAN_POINT ( 'NONE',  ( 2.781962856605879164, 20.32931995911350853, -112.6003689972565525 ) ) ;
#303 = CARTESIAN_POINT ( 'NONE',  ( 43.25595294345285424, 5.551115123125782702E-14, 3.856908391999656771E-15 ) ) ;
#304 = AXIS2_PLACEMENT_3D ( 'NONE', #212, #1, #161 ) ;
#305 = CARTESIAN_POINT ( 'NONE',  ( 74.74999999999998579, -37.37499999999987921, 0.000000000000000000 ) ) ;
#306 = EDGE_CURVE ( 'NONE', #445, #168, #299, .T. ) ;
#307 = CARTESIAN_POINT ( 'NONE',  ( -86.05555698194102376, 73.32699278165188161, 76.72220902649202401 ) ) ;
#308 = AXIS2_PLACEMENT_3D ( 'NONE', #160, #518, #39 ) ;
#309 = CARTESIAN_POINT ( 'NONE',  ( 38.47214696767090913, 12.32815331828821392, -104.5992023564311495 ) ) ;
#310 = PRODUCT ( 'Pelvis', 'Pelvis', '', ( #364 ) ) ;
#311 = ORIENTED_EDGE ( 'NONE', *, *, #94, .T. ) ;
#312 = CARTESIAN_POINT ( 'NONE',  ( -31.83073307573889466, 152.1261439611414517, 97.37890988960612049 ) ) ;
#313 = CARTESIAN_POINT ( 'NONE',  ( -2.506264484840745200E-14, 62.17329106803109795, -204.6520259217354862 ) ) ;
#314 = FACE_OUTER_BOUND ( 'NONE', #89, .T. ) ;
#315 = CARTESIAN_POINT ( 'NONE',  ( -51.28562167617651824, 136.9200158047565026, 93.39271922751201771 ) ) ;
#316 = CARTESIAN_POINT ( 'NONE',  ( -74.74999999999998579, 5.551115123125782702E-14, 0.000000000000000000 ) ) ;
#317 = EDGE_LOOP ( 'NONE', ( #271, #432, #44 ) ) ;
#318 = ADVANCED_FACE ( 'NONE', ( #203 ), #92, .F. ) ;
#319 = CARTESIAN_POINT ( 'NONE',  ( -93.50774272557552536, 17.75599586576132083, 62.15462241198838456 ) ) ;
#320 = DIRECTION ( 'NONE',  ( -0.000000000000000000, -1.000000000000000000, -0.000000000000000000 ) ) ;
#321 = VERTEX_POINT ( 'NONE', #453 ) ;
#322 = PRODUCT_DEFINITION_SHAPE ( 'NONE', 'NONE',  #491 ) ;
#323 = CARTESIAN_POINT ( 'NONE',  ( -93.49541203198106132, 13.71346689121499018, 61.09489891867987410 ) ) ;
#324 =( NAMED_UNIT ( * ) SI_UNIT ( $, .STERADIAN. ) SOLID_ANGLE_UNIT ( ) );
#325 = EDGE_LOOP ( 'NONE', ( #129, #32, #435, #154, #472, #484, #509 ) ) ;
#326 = CARTESIAN_POINT ( 'NONE',  ( -102.6124383298633660, 1.110223024625156540E-13, 37.49999999999986500 ) ) ;
#327 = DIRECTION ( 'NONE',  ( -1.000000000000000000, 0.000000000000000000, -5.103607321094699719E-15 ) ) ;
#328 = EDGE_CURVE ( 'NONE', #426, #187, #144, .T. ) ;
#329 = CARTESIAN_POINT ( 'NONE',  ( 20.53338540196481787, 157.3688480447195843, 98.75325172384265215 ) ) ;
#330 = CARTESIAN_POINT ( 'NONE',  ( -74.74999999999998579, 5.551115123125782702E-14, 0.000000000000000000 ) ) ;
#331 = SURFACE_SIDE_STYLE ('',( #4 ) ) ;
#332 = CARTESIAN_POINT ( 'NONE',  ( 10.46277395799679510, 160.0983263984007579, 99.46876727217524206 ) ) ;
#333 = AXIS2_PLACEMENT_3D ( 'NONE', #35, #476, #471 ) ;
#334 = CARTESIAN_POINT ( 'NONE',  ( -33.59258970413364409, 14.31839344225445920, -106.5894424803977643 ) ) ;
#335 =( LENGTH_UNIT ( ) NAMED_UNIT ( * ) SI_UNIT ( .MILLI., .METRE. ) );
#336 = CARTESIAN_POINT ( 'NONE',  ( -106.2440470565471031, 5.551115123125782702E-14, 0.000000000000000000 ) ) ;
#337 = CARTESIAN_POINT ( 'NONE',  ( -22.07930406591872696, 17.83087436157382655, -110.1019233997169806 ) ) ;
#338 = CARTESIAN_POINT ( 'NONE',  ( 41.31424687119543648, 145.7522583973097028, 95.70803595940492414 ) ) ;
#339 = B_SPLINE_CURVE_WITH_KNOTS ( 'NONE', 3,
 ( #22, #105, #441, #359, #388, #508 ),
 .UNSPECIFIED., .F., .F.,
 ( 4, 2, 4 ),
 ( 2.647940464546886252E-17, 0.01310261768241168835, 0.02620523536482335242 ),
 .UNSPECIFIED. ) ;
#340 = EDGE_CURVE ( 'NONE', #73, #321, #474, .T. ) ;
#341 = CARTESIAN_POINT ( 'NONE',  ( -74.74999999999998579, -37.37499999999987921, 0.000000000000000000 ) ) ;
#342 = MECHANICAL_DESIGN_GEOMETRIC_PRESENTATION_REPRESENTATION (  '', ( #95 ), #41 ) ;
#343 = CARTESIAN_POINT ( 'NONE',  ( -59.35464897411905838, 127.5918889216023899, 90.94740955406672356 ) ) ;
#344 = APPLICATION_PROTOCOL_DEFINITION ( 'draft international standard', 'automotive_design', 1998, #358 ) ;
#345 = EDGE_CURVE ( 'NONE', #426, #79, #113, .T. ) ;
#346 = VERTEX_POINT ( 'NONE', #116 ) ;
#347 = CARTESIAN_POINT ( 'NONE',  ( 27.26807457392207112, 16.46145903265992061, -108.7325080708028651 ) ) ;
#348 = EDGE_CURVE ( 'NONE', #79, #187, #244, .T. ) ;
#349 = CARTESIAN_POINT ( 'NONE',  ( 1.221035748333195079E-14, 161.0000000000000853, 99.70513532418608804 ) ) ;
#350 = CARTESIAN_POINT ( 'NONE',  ( 0.000000000000000000, 195.5000000000000000, 0.000000000000000000 ) ) ;
#351 = EDGE_LOOP ( 'NONE', ( #204, #120, #400 ) ) ;
#352 = CARTESIAN_POINT ( 'NONE',  ( -74.74999999999998579, 11.50000000000012079, 0.000000000000000000 ) ) ;
#353 = AXIS2_PLACEMENT_3D ( 'NONE', #330, #53, #486 ) ;
#354 = CARTESIAN_POINT ( 'NONE',  ( 33.59012233773390932, 14.31940339307827159, -106.5904524312212089 ) ) ;
#355 = CARTESIAN_POINT ( 'NONE',  ( -16.50481289497168191, 158.6659608619826258, 99.09328167404959231 ) ) ;
#356 = CARTESIAN_POINT ( 'NONE',  ( 74.74999999999998579, 11.50000000000012079, 0.000000000000000000 ) ) ;
#357 = CARTESIAN_POINT ( 'NONE',  ( -74.74999999999998579, -37.37499999999987921, 0.000000000000000000 ) ) ;
#358 = APPLICATION_CONTEXT ( 'automotive_design' ) ;
#359 = CARTESIAN_POINT ( 'NONE',  ( 100.2276029249152174, 3.327388022789855793, 45.25188685565293412 ) ) ;
#360 = CARTESIAN_POINT ( 'NONE',  ( 57.57841771720779178, 0.7587258572662272105, -93.02977489540919009 ) ) ;
#361 = ORIENTED_EDGE ( 'NONE', *, *, #152, .F. ) ;
#362 = EDGE_CURVE ( 'NONE', #172, #387, #520, .T. ) ;
#363 = DIRECTION ( 'NONE',  ( 0.000000000000000000, 0.000000000000000000, 1.000000000000000000 ) ) ;
#364 = PRODUCT_CONTEXT ( 'NONE', #417, 'mechanical' ) ;
#365 = AXIS2_PLACEMENT_3D ( 'NONE', #190, #84, #394 ) ;
#366 = ORIENTED_EDGE ( 'NONE', *, *, #340, .T. ) ;
#367 = CARTESIAN_POINT ( 'NONE',  ( -93.37749976472650815, 9.673155518053009772, 60.03575675559820013 ) ) ;
#368 = COLOUR_RGB ( '',0.7921568627450980005, 0.8196078431372548767, 0.9333333333333333481 ) ;
#369 = ORIENTED_EDGE ( 'NONE', *, *, #306, .F. ) ;
#370 = DIRECTION ( 'NONE',  ( -0.000000000000000000, -1.000000000000000000, -0.000000000000000000 ) ) ;
#371 = EDGE_CURVE ( 'NONE', #321, #234, #192, .T. ) ;
#372 = CARTESIAN_POINT ( 'NONE',  ( 93.37749976472652236, 9.673155518053007995, 60.03575675559832803 ) ) ;
#373 = CARTESIAN_POINT ( 'NONE',  ( 0.000000000000000000, 1.110223024625156540E-13, 0.000000000000000000 ) ) ;
#374 = CARTESIAN_POINT ( 'NONE',  ( 44.54037243417304381, 143.1300408694273187, 95.02063816056191570 ) ) ;
#375 = DIRECTION ( 'NONE',  ( -1.000000000000000000, 0.000000000000000000, 0.000000000000000000 ) ) ;
#376 = APPLICATION_PROTOCOL_DEFINITION ( 'draft international standard', 'automotive_design', 1998, #417 ) ;
#377 = CARTESIAN_POINT ( 'NONE',  ( 64.77634834009138842, 120.1008806454823912, 88.98368894531994044 ) ) ;
#378 = CARTESIAN_POINT ( 'NONE',  ( 1.825276126705117579E-17, 20.32931995911352985, -112.6003689972565667 ) ) ;
#379 = CARTESIAN_POINT ( 'NONE',  ( 72.64814666080097538, 106.9920705199496638, 85.54729698701454765 ) ) ;
#380 = ADVANCED_BREP_SHAPE_REPRESENTATION ( 'Pelvis', ( #487, #209 ), #188 ) ;
#381 = CARTESIAN_POINT ( 'NONE',  ( -82.24215214061685231, 84.84203339151989098, 79.74080435073418016 ) ) ;
#382 = AXIS2_PLACEMENT_3D ( 'NONE', #350, #74, #447 ) ;
#383 = CARTESIAN_POINT ( 'NONE',  ( -70.63407656272056556, 110.6941532309966618, 86.51777463795272638 ) ) ;
#384 = DIRECTION ( 'NONE',  ( -0.000000000000000000, -1.000000000000000000, -0.000000000000000000 ) ) ;
#385 = ORIENTED_EDGE ( 'NONE', *, *, #396, .F. ) ;
#386 = DIRECTION ( 'NONE',  ( 0.000000000000000000, 0.000000000000000000, -1.000000000000000000 ) ) ;
#387 = VERTEX_POINT ( 'NONE', #392 ) ;
#388 = CARTESIAN_POINT ( 'NONE',  ( 101.5357867169900743, 1.680888856263768716, 41.41600262471315830 ) ) ;
#389 = ORIENTED_EDGE ( 'NONE', *, *, #396, .T. ) ;
#390 = CARTESIAN_POINT ( 'NONE',  ( -17.51808927625672752, 158.3670536551551606, 99.01492503359290254 ) ) ;
#391 = CIRCLE ( 'NONE', #225, 48.87500000000000000 ) ;
#392 = CARTESIAN_POINT ( 'NONE',  ( 1.197092246166537651E-14, 195.5000000000000000, 86.24999999999998579 ) ) ;
#393 = EDGE_LOOP ( 'NONE', ( #489, #389, #52 ) ) ;
#394 = DIRECTION ( 'NONE',  ( -1.000000000000000000, 0.000000000000000000, 0.000000000000000000 ) ) ;
#395 = AXIS2_PLACEMENT_3D ( 'NONE', #201, #228, #386 ) ;
#396 = EDGE_CURVE ( 'NONE', #168, #208, #407, .T. ) ;
#397 = DIRECTION ( 'NONE',  ( -1.000000000000000000, 0.000000000000000000, 1.224646799147353207E-16 ) ) ;
#398 = CARTESIAN_POINT ( 'NONE',  ( -5.281289321322961153E-15, 155.5000000000000284, 0.000000000000000000 ) ) ;
#399 =( NAMED_UNIT ( * ) SI_UNIT ( $, .STERADIAN. ) SOLID_ANGLE_UNIT ( ) );
#400 = ORIENTED_EDGE ( 'NONE', *, *, #348, .T. ) ;
#401 = CARTESIAN_POINT ( 'NONE',  ( -54.82333771713580717, 3.040361036235369685, -95.31141007437889812 ) ) ;
#402 = CARTESIAN_POINT ( 'NONE',  ( 92.89409292307016131, 9.673155518053007995, 60.03575675559832803 ) ) ;
#403 = CIRCLE ( 'NONE', #233, 109.2500000000000142 ) ;
#404 = ORIENTED_EDGE ( 'NONE', *, *, #152, .T. ) ;
#405 = ADVANCED_FACE ( 'NONE', ( #521 ), #236, .F. ) ;
#406 = CARTESIAN_POINT ( 'NONE',  ( -101.5357867169901311, 1.680888856263765607, 41.41600262471301619 ) ) ;
#407 = CIRCLE ( 'NONE', #308, 86.25000000000001421 ) ;
#408 = LINE ( 'NONE', #402, #146 ) ;
#409 = ORIENTED_EDGE ( 'NONE', *, *, #478, .T. ) ;
#410 = DIRECTION ( 'NONE',  ( 0.000000000000000000, 0.000000000000000000, -1.000000000000000000 ) ) ;
#411 = CARTESIAN_POINT ( 'NONE',  ( 64.19896365501222135, 120.9520176538435265, 89.20680914791189764 ) ) ;
#412 = CARTESIAN_POINT ( 'NONE',  ( -42.02482547882330266, 10.69561403273834266, -102.9666630708817081 ) ) ;
#413 = CARTESIAN_POINT ( 'NONE',  ( 0.000000000000000000, 0.000000000000000000, 0.000000000000000000 ) ) ;
#414 = CARTESIAN_POINT ( 'NONE',  ( 14.53915246053381161, 159.2208430871524740, 99.23874055232464286 ) ) ;
#415 = CARTESIAN_POINT ( 'NONE',  ( -9.768504492664863648, 19.84211490804148781, -112.1131639461845708 ) ) ;
#416 = CARTESIAN_POINT ( 'NONE',  ( 51.35382224677544372, 136.8491593310649250, 93.37414464949502246 ) ) ;
#417 = APPLICATION_CONTEXT ( 'automotive_design' ) ;
#418 = CARTESIAN_POINT ( 'NONE',  ( 8.401277519025775575, 160.4332968055385606, 99.55657765331096698 ) ) ;
#419 = CARTESIAN_POINT ( 'NONE',  ( 16.55403056981149845, 158.6783125772527114, 99.09651959836303092 ) ) ;
#420 = AXIS2_PLACEMENT_3D ( 'NONE', #139, #281, #176 ) ;
#421 = EDGE_CURVE ( 'NONE', #387, #114, #473, .T. ) ;
#422 = SPHERICAL_SURFACE ( 'NONE', #221, 48.87500000000000000 ) ;
#423 = AXIS2_PLACEMENT_3D ( 'NONE', #279, #128, #241 ) ;
#424 = ORIENTED_EDGE ( 'NONE', *, *, #25, .T. ) ;
#425 = VERTEX_POINT ( 'NONE', #196 ) ;
#426 = VERTEX_POINT ( 'NONE', #356 ) ;
#427 = PLANE ( 'NONE',  #382 ) ;
#428 = ADVANCED_FACE ( 'NONE', ( #122 ), #28, .T. ) ;
#429 = TOROIDAL_SURFACE ( 'NONE', #450, -204.6520259217354862, 320.0000000000000000 ) ;
#430 = CARTESIAN_POINT ( 'NONE',  ( -82.90551084229370815, 82.92779390395409678, 79.23899853324584797 ) ) ;
#431 = CARTESIAN_POINT ( 'NONE',  ( 29.82873284491091326, 15.66650096606724674, -107.9375500042101379 ) ) ;
#432 = ORIENTED_EDGE ( 'NONE', *, *, #6, .T. ) ;
#433 = DIRECTION ( 'NONE',  ( -0.000000000000000000, -1.000000000000000000, -0.000000000000000000 ) ) ;
#434 = CARTESIAN_POINT ( 'NONE',  ( 1.825276126705117579E-17, 20.32931995911352985, -112.6003689972565667 ) ) ;
#435 = ORIENTED_EDGE ( 'NONE', *, *, #148, .T. ) ;
#436 = EDGE_CURVE ( 'NONE', #425, #26, #75, .T. ) ;
#437 = CARTESIAN_POINT ( 'NONE',  ( -77.81757584709639275, 96.20464079435100757, 82.71944027043655012 ) ) ;
#438 = AXIS2_PLACEMENT_3D ( 'NONE', #166, #292, #210 ) ;
#439 = DIRECTION ( 'NONE',  ( 1.000000000000000000, 0.000000000000000000, -1.224646799147353207E-16 ) ) ;
#440 = EDGE_LOOP ( 'NONE', ( #239, #117 ) ) ;
#441 = CARTESIAN_POINT ( 'NONE',  ( 97.15140268276610414, 6.552086983830911926, 52.76453681361411441 ) ) ;
#442 =( NAMED_UNIT ( * ) PLANE_ANGLE_UNIT ( ) SI_UNIT ( $, .RADIAN. ) );
#443 = VERTEX_POINT ( 'NONE', #189 ) ;
#444 = CARTESIAN_POINT ( 'NONE',  ( -95.38343061791803734, 8.130293370924791319, 56.44131789950708367 ) ) ;
#445 = VERTEX_POINT ( 'NONE', #513 ) ;
#446 = CARTESIAN_POINT ( 'NONE',  ( -93.37749976472650815, 9.673155518053009772, 60.03575675559820013 ) ) ;
#447 = DIRECTION ( 'NONE',  ( 0.000000000000000000, -0.000000000000000000, 1.000000000000000000 ) ) ;
#448 = ORIENTED_EDGE ( 'NONE', *, *, #345, .F. ) ;
#449 = DIRECTION ( 'NONE',  ( 1.000000000000000000, 0.000000000000000000, 0.000000000000000000 ) ) ;
#450 = AXIS2_PLACEMENT_3D ( 'NONE', #290, #251, #174 ) ;
#451 = DIRECTION ( 'NONE',  ( 0.000000000000000000, 0.000000000000000000, 1.000000000000000000 ) ) ;
#452 = CARTESIAN_POINT ( 'NONE',  ( 43.74733595093931626, 143.7975138467521958, 95.19561199492980563 ) ) ;
#453 = CARTESIAN_POINT ( 'NONE',  ( 1.825276126705117579E-17, 20.32931995911352985, -112.6003689972565667 ) ) ;
#454 = LINE ( 'NONE', #140, #262 ) ;
#455 = CARTESIAN_POINT ( 'NONE',  ( 80.92699164553845037, 88.54382261004882082, 80.71120506445866738 ) ) ;
#456 = UNCERTAINTY_MEASURE_WITH_UNIT (LENGTH_MEASURE( 1.000000000000000082E-05 ), #335, 'distance_accuracy_value', 'NONE');
#457 = CARTESIAN_POINT ( 'NONE',  ( -97.15140268276611835, 6.552086983830948341, 52.76453681361405756 ) ) ;
#458 = DIRECTION ( 'NONE',  ( 1.000000000000000000, 0.000000000000000000, 0.000000000000000000 ) ) ;
#459 = B_SPLINE_CURVE_WITH_KNOTS ( 'NONE', 3,
 ( #372, #256, #101, #19, #141, #222, #287, #216, #293, #461, #56, #255, #455, #97, #99, #379, #248, #219, #12, #377, #411, #499, #21, #297, #175, #416, #214, #374, #452, #104, #338, #16, #460, #135, #180, #177, #252, #329, #182, #419, #414, #332, #418, #505, #258, #137, #291, #59 ),
 .UNSPECIFIED., .F., .F.,
 ( 4, 2, 2, 2, 2, 2, 2, 2, 2, 2, 2, 2, 2, 2, 2, 2, 2, 2, 2, 2, 2, 2, 2, 4 ),
 ( 0.009897553787966948541, 0.03464279336970804701, 0.05938803295144914896, 0.07176065274231969993, 0.07794696263775498235, 0.08413327253319027865, 0.09650589232406082962, 0.1088785121149313945, 0.1212511319058019593, 0.1274374418012372279, 0.1305305967489548691, 0.1336237516966725103, 0.1459963714875428531, 0.1583689912784132237, 0.1614621462261308094, 0.1645553011738483951, 0.1707416110692835109, 0.1831142308601537705, 0.1862073858078713562, 0.1893005407555889141, 0.1954868506510240300, 0.2016731605464591459, 0.2047663154941766761, 0.2078594704418942063 ),
 .UNSPECIFIED. ) ;
#460 = CARTESIAN_POINT ( 'NONE',  ( 37.13520869815944536, 148.8213141249542844, 96.51256957619190757 ) ) ;
#461 = CARTESIAN_POINT ( 'NONE',  ( 84.81194182811849203, 76.99805684923538251, 77.68455533553634496 ) ) ;
#462 = ADVANCED_FACE ( 'NONE', ( #191, #264 ), #427, .T. ) ;
#463 = LINE ( 'NONE', #272, #510 ) ;
#464 = AXIS2_PLACEMENT_3D ( 'NONE', #64, #61, #495 ) ;
#465 = ORIENTED_EDGE ( 'NONE', *, *, #519, .T. ) ;
#466 = EDGE_CURVE ( 'NONE', #387, #172, #157, .T. ) ;
#467 = CARTESIAN_POINT ( 'NONE',  ( 53.72579989753726437, 3.673533613827159705, -95.94458265197010860 ) ) ;
#468 = ORIENTED_EDGE ( 'NONE', *, *, #132, .T. ) ;
#469 = CLOSED_SHELL ( 'NONE', ( #405, #76, #318, #428, #462, #15, #506, #33, #243, #108, #63, #500, #220 ) ) ;
#470 = DIRECTION ( 'NONE',  ( 0.000000000000000000, 0.000000000000000000, 1.000000000000000000 ) ) ;
#471 = DIRECTION ( 'NONE',  ( -1.000000000000000000, 0.000000000000000000, 0.000000000000000000 ) ) ;
#472 = ORIENTED_EDGE ( 'NONE', *, *, #197, .F. ) ;
#473 = CIRCLE ( 'NONE', #223, 320.0000000000000568 ) ;
#474 = B_SPLINE_CURVE_WITH_KNOTS ( 'NONE', 3,
 ( #98, #401, #501, #249, #412, #57, #17, #178, #334, #240, #254, #337, #504, #295, #60, #20, #142, #415, #181, #217, #100, #378 ),
 .UNSPECIFIED., .F., .F.,
 ( 4, 2, 2, 2, 2, 2, 2, 2, 2, 2, 4 ),
 ( 3.675575354895166411E-07, 0.01676301455793938536, 0.02514433805814132727, 0.02933499980824231038, 0.03352566155834329348, 0.04190698505854524580, 0.05028830855874719813, 0.05447897030884817082, 0.05657430118389866064, 0.05866963205894915045, 0.06705095555915110972 ),
 .UNSPECIFIED. ) ;
#475 = DIRECTION ( 'NONE',  ( -1.000000000000000000, 0.000000000000000000, -6.798421357623208921E-16 ) ) ;
#476 = DIRECTION ( 'NONE',  ( -0.000000000000000000, -0.000000000000000000, -1.000000000000000000 ) ) ;
#477 = ORIENTED_EDGE ( 'NONE', *, *, #348, .F. ) ;
#478 = EDGE_CURVE ( 'NONE', #443, #237, #408, .T. ) ;
#479 = CARTESIAN_POINT ( 'NONE',  ( -60.60518583327881714, 125.9668304659900571, 90.52141072158948987 ) ) ;
#480 = DIRECTION ( 'NONE',  ( -1.224646799147352961E-16, 0.000000000000000000, -1.000000000000000000 ) ) ;
#481 = ORIENTED_EDGE ( 'NONE', *, *, #197, .T. ) ;
#482 = CARTESIAN_POINT ( 'NONE',  ( -56.75714624152269749, 130.7911027748221500, 91.78606330317320783 ) ) ;
#483 = CARTESIAN_POINT ( 'NONE',  ( 0.000000000000000000, 62.17329106803109795, 0.000000000000000000 ) ) ;
#484 = ORIENTED_EDGE ( 'NONE', *, *, #250, .T. ) ;
#485 = PRODUCT_DEFINITION_FORMATION_WITH_SPECIFIED_SOURCE ( 'ANY', '', #310, .NOT_KNOWN. ) ;
#486 = DIRECTION ( 'NONE',  ( 0.000000000000000000, 0.000000000000000000, -1.000000000000000000 ) ) ;
#487 = MANIFOLD_SOLID_BREP ( 'Zkosit1', #469 ) ;
#488 = DIRECTION ( 'NONE',  ( 0.000000000000000000, 0.000000000000000000, -1.000000000000000000 ) ) ;
#489 = ORIENTED_EDGE ( 'NONE', *, *, #257, .F. ) ;
#490 = DIRECTION ( 'NONE',  ( 0.000000000000000000, -0.3944350762446166003, -0.9189238111116195817 ) ) ;
#491 = PRODUCT_DEFINITION ( 'UNKNOWN', '', #485, #253 ) ;
#492 = ORIENTED_EDGE ( 'NONE', *, *, #512, .T. ) ;
#493 = DIRECTION ( 'NONE',  ( -0.000000000000000000, -1.000000000000000000, -0.000000000000000000 ) ) ;
#494 = AXIS2_PLACEMENT_3D ( 'NONE', #296, #218, #458 ) ;
#495 = DIRECTION ( 'NONE',  ( 0.000000000000000000, 0.9673155518052924950, 0.2535756755598267964 ) ) ;
#496 = CARTESIAN_POINT ( 'NONE',  ( 74.74999999999998579, -37.37499999999987921, 0.000000000000000000 ) ) ;
#497 = AXIS2_PLACEMENT_3D ( 'NONE', #483, #125, #226 ) ;
#498 = CARTESIAN_POINT ( 'NONE',  ( -74.74999999999998579, -37.37499999999987921, 0.000000000000000000 ) ) ;
#499 = CARTESIAN_POINT ( 'NONE',  ( 63.02692116296458380, 122.6367520913880611, 89.64845166295465617 ) ) ;
#500 = ADVANCED_FACE ( 'NONE', ( #207 ), #286, .F. ) ;
#501 = CARTESIAN_POINT ( 'NONE',  ( -50.82406586964047790, 5.811314365733442067, -98.08236340387689722 ) ) ;
#502 = DIRECTION ( 'NONE',  ( 1.000000000000000000, 0.000000000000000000, 0.000000000000000000 ) ) ;
#503 = FACE_OUTER_BOUND ( 'NONE', #9, .T. ) ;
#504 = CARTESIAN_POINT ( 'NONE',  ( -19.41504783324159433, 18.41552613683320061, -110.6865751749763120 ) ) ;
#505 = CARTESIAN_POINT ( 'NONE',  ( 5.272178346306499286, 160.7716640240196853, 99.64527848713247238 ) ) ;
#506 = ADVANCED_FACE ( 'NONE', ( #11 ), #429, .T. ) ;
#507 = DIRECTION ( 'NONE',  ( 0.000000000000000000, 0.000000000000000000, -1.000000000000000000 ) ) ;
#508 = CARTESIAN_POINT ( 'NONE',  ( 102.6124383298633660, 1.110223024625156540E-13, 37.49999999999987921 ) ) ;
#509 = ORIENTED_EDGE ( 'NONE', *, *, #143, .F. ) ;
#510 = VECTOR ( 'NONE', #475, 1000.000000000000000 ) ;
#511 = ORIENTED_EDGE ( 'NONE', *, *, #132, .F. ) ;
#512 = EDGE_CURVE ( 'NONE', #86, #26, #169, .T. ) ;
#513 = CARTESIAN_POINT ( 'NONE',  ( -72.80109889280518587, 195.5000000000000000, 0.000000000000000000 ) ) ;
#514 = SPHERICAL_SURFACE ( 'NONE', #365, 48.87500000000000000 ) ;
#515 = CARTESIAN_POINT ( 'NONE',  ( 41.99686796545703515, 10.70894919721309790, -102.9799982353560353 ) ) ;
#516 = VERTEX_POINT ( 'NONE', #55 ) ;
#517 = CARTESIAN_POINT ( 'NONE',  ( -4.206223089056893016, 161.0000000000000853, 99.70513532418608804 ) ) ;
#518 = DIRECTION ( 'NONE',  ( -1.224646799147353207E-16, 0.000000000000000000, -1.000000000000000000 ) ) ;
#519 = EDGE_CURVE ( 'NONE', #234, #73, #454, .T. ) ;
#520 = CIRCLE ( 'NONE', #198, 86.25000000000000000 ) ;
#521 = FACE_OUTER_BOUND ( 'NONE', #393, .T. ) ;
#522 = PLANE ( 'NONE',  #304 ) ;
#523 = CARTESIAN_POINT ( 'NONE',  ( -20.52037785731940644, 157.4007897360198172, 98.76162503690976280 ) ) ;
#524 = CARTESIAN_POINT ( 'NONE',  ( 34.83400327201420055, 13.84311368518045171, -106.1141627233233891 ) ) ;
ENDSEC;
END-ISO-10303-21;
