ISO-10303-21;
HEADER;
FILE_DESCRIPTION (( 'STEP AP214' ),
    '1' );
FILE_NAME ('Waist.STEP',
    '2026-07-30T18:00:40',
    ( '' ),
    ( '' ),
    'SwSTEP 2.0',
    'SolidWorks 2024',
    '' );
FILE_SCHEMA (( 'AUTOMOTIVE_DESIGN' ));
ENDSEC;

DATA;
#1 = ORIENTED_EDGE ( 'NONE', *, *, #68, .T. ) ;
#2 = APPLICATION_PROTOCOL_DEFINITION ( 'draft international standard', 'automotive_design', 1998, #64 ) ;
#3 = MECHANICAL_DESIGN_GEOMETRIC_PRESENTATION_REPRESENTATION (  '', ( #20 ), #51 ) ;
#4 =( NAMED_UNIT ( * ) PLANE_ANGLE_UNIT ( ) SI_UNIT ( $, .RADIAN. ) );
#5 = DIRECTION ( 'NONE',  ( 1.000000000000000000, 0.000000000000000000, 0.000000000000000000 ) ) ;
#6 = CIRCLE ( 'NONE', #41, 86.25000000000000000 ) ;
#7 = APPLICATION_CONTEXT ( 'automotive_design' ) ;
#8 = ORIENTED_EDGE ( 'NONE', *, *, #29, .T. ) ;
#9 = FILL_AREA_STYLE ('',( #26 ) ) ;
#10 = DIRECTION ( 'NONE',  ( 0.000000000000000000, 0.000000000000000000, 1.000000000000000000 ) ) ;
#11 = CARTESIAN_POINT ( 'NONE',  ( 5.281289321322960364E-15, -86.25000000000000000, 0.000000000000000000 ) ) ;
#12 = DIRECTION ( 'NONE',  ( 1.000000000000000000, 0.000000000000000000, 0.000000000000000000 ) ) ;
#13 = PRESENTATION_STYLE_ASSIGNMENT (( #16 ) ) ;
#14 = PRODUCT_DEFINITION ( 'UNKNOWN', '', #22, #27 ) ;
#15 = EDGE_LOOP ( 'NONE', ( #60, #8 ) ) ;
#16 = SURFACE_STYLE_USAGE ( .BOTH. , #28 ) ;
#17 = CARTESIAN_POINT ( 'NONE',  ( 0.000000000000000000, 0.000000000000000000, 0.000000000000000000 ) ) ;
#18 = SPHERICAL_SURFACE ( 'NONE', #24, 86.25000000000000000 ) ;
#19 = PRODUCT ( 'Waist', 'Waist', '', ( #52 ) ) ;
#20 = STYLED_ITEM ( 'NONE', ( #13 ), #36 ) ;
#21 = UNCERTAINTY_MEASURE_WITH_UNIT (LENGTH_MEASURE( 1.000000000000000082E-05 ), #61, 'distance_accuracy_value', 'NONE');
#22 = PRODUCT_DEFINITION_FORMATION_WITH_SPECIFIED_SOURCE ( 'ANY', '', #19, .NOT_KNOWN. ) ;
#23 = FACE_OUTER_BOUND ( 'NONE', #15, .T. ) ;
#24 = AXIS2_PLACEMENT_3D ( 'NONE', #62, #53, #5 ) ;
#25 = DIRECTION ( 'NONE',  ( 1.000000000000000000, 0.000000000000000000, 0.000000000000000000 ) ) ;
#26 = FILL_AREA_STYLE_COLOUR ( '', #50 ) ;
#27 = PRODUCT_DEFINITION_CONTEXT ( 'detailed design', #7, 'design' ) ;
#28 = SURFACE_SIDE_STYLE ('',( #57 ) ) ;
#29 = EDGE_CURVE ( 'NONE', #65, #40, #6, .T. ) ;
#30 = SHAPE_DEFINITION_REPRESENTATION ( #31, #59 ) ;
#31 = PRODUCT_DEFINITION_SHAPE ( 'NONE', 'NONE',  #14 ) ;
#32 = CARTESIAN_POINT ( 'NONE',  ( 0.000000000000000000, 0.000000000000000000, 0.000000000000000000 ) ) ;
#33 = DIRECTION ( 'NONE',  ( 0.000000000000000000, 0.000000000000000000, 1.000000000000000000 ) ) ;
#34 = CIRCLE ( 'NONE', #75, 86.25000000000000000 ) ;
#35 = DIRECTION ( 'NONE',  ( 1.000000000000000000, 0.000000000000000000, 0.000000000000000000 ) ) ;
#36 = MANIFOLD_SOLID_BREP ( 'Oto\X2\010d\X0\it kolem osy1', #37 ) ;
#37 = CLOSED_SHELL ( 'NONE', ( #46, #48 ) ) ;
#38 = DIRECTION ( 'NONE',  ( -1.000000000000000000, 0.000000000000000000, -1.224646799147353207E-16 ) ) ;
#39 = CARTESIAN_POINT ( 'NONE',  ( 5.281289321322960364E-15, 86.25000000000000000, 0.000000000000000000 ) ) ;
#40 = VERTEX_POINT ( 'NONE', #39 ) ;
#41 = AXIS2_PLACEMENT_3D ( 'NONE', #43, #33, #35 ) ;
#42 =( LENGTH_UNIT ( ) NAMED_UNIT ( * ) SI_UNIT ( .MILLI., .METRE. ) );
#43 = CARTESIAN_POINT ( 'NONE',  ( 0.000000000000000000, 0.000000000000000000, 0.000000000000000000 ) ) ;
#44 =( GEOMETRIC_REPRESENTATION_CONTEXT ( 3 ) GLOBAL_UNCERTAINTY_ASSIGNED_CONTEXT ( ( #21 ) ) GLOBAL_UNIT_ASSIGNED_CONTEXT ( ( #61, #4, #54 ) ) REPRESENTATION_CONTEXT ( 'NONE', 'WORKASPACE' ) );
#45 = CARTESIAN_POINT ( 'NONE',  ( 0.000000000000000000, 0.000000000000000000, 0.000000000000000000 ) ) ;
#46 = ADVANCED_FACE ( 'NONE', ( #71 ), #69, .T. ) ;
#47 = ORIENTED_EDGE ( 'NONE', *, *, #29, .F. ) ;
#48 = ADVANCED_FACE ( 'NONE', ( #23 ), #18, .T. ) ;
#49 = EDGE_LOOP ( 'NONE', ( #47, #1 ) ) ;
#50 = COLOUR_RGB ( '',0.7921568627450980005, 0.8196078431372548767, 0.9333333333333333481 ) ;
#51 =( GEOMETRIC_REPRESENTATION_CONTEXT ( 3 ) GLOBAL_UNCERTAINTY_ASSIGNED_CONTEXT ( ( #55 ) ) GLOBAL_UNIT_ASSIGNED_CONTEXT ( ( #42, #73, #67 ) ) REPRESENTATION_CONTEXT ( 'NONE', 'WORKASPACE' ) );
#52 = PRODUCT_CONTEXT ( 'NONE', #64, 'mechanical' ) ;
#53 = DIRECTION ( 'NONE',  ( 0.000000000000000000, 0.000000000000000000, -1.000000000000000000 ) ) ;
#54 =( NAMED_UNIT ( * ) SI_UNIT ( $, .STERADIAN. ) SOLID_ANGLE_UNIT ( ) );
#55 = UNCERTAINTY_MEASURE_WITH_UNIT (LENGTH_MEASURE( 1.000000000000000082E-05 ), #42, 'distance_accuracy_value', 'NONE');
#56 = PRESENTATION_LAYER_ASSIGNMENT (  '', '', ( #20 ) ) ;
#57 = SURFACE_STYLE_FILL_AREA ( #9 ) ;
#58 = APPLICATION_PROTOCOL_DEFINITION ( 'draft international standard', 'automotive_design', 1998, #7 ) ;
#59 = ADVANCED_BREP_SHAPE_REPRESENTATION ( 'Waist', ( #36, #66 ), #44 ) ;
#60 = ORIENTED_EDGE ( 'NONE', *, *, #68, .F. ) ;
#61 =( LENGTH_UNIT ( ) NAMED_UNIT ( * ) SI_UNIT ( .MILLI., .METRE. ) );
#62 = CARTESIAN_POINT ( 'NONE',  ( 0.000000000000000000, 0.000000000000000000, 0.000000000000000000 ) ) ;
#63 = DIRECTION ( 'NONE',  ( 1.224646799147353207E-16, 0.000000000000000000, -1.000000000000000000 ) ) ;
#64 = APPLICATION_CONTEXT ( 'automotive_design' ) ;
#65 = VERTEX_POINT ( 'NONE', #11 ) ;
#66 = AXIS2_PLACEMENT_3D ( 'NONE', #17, #10, #25 ) ;
#67 =( NAMED_UNIT ( * ) SI_UNIT ( $, .STERADIAN. ) SOLID_ANGLE_UNIT ( ) );
#68 = EDGE_CURVE ( 'NONE', #65, #40, #34, .T. ) ;
#69 = SPHERICAL_SURFACE ( 'NONE', #72, 86.25000000000000000 ) ;
#70 = DIRECTION ( 'NONE',  ( 0.000000000000000000, 0.000000000000000000, -1.000000000000000000 ) ) ;
#71 = FACE_OUTER_BOUND ( 'NONE', #49, .T. ) ;
#72 = AXIS2_PLACEMENT_3D ( 'NONE', #45, #70, #12 ) ;
#73 =( NAMED_UNIT ( * ) PLANE_ANGLE_UNIT ( ) SI_UNIT ( $, .RADIAN. ) );
#74 = PRODUCT_RELATED_PRODUCT_CATEGORY ( 'part', '', ( #19 ) ) ;
#75 = AXIS2_PLACEMENT_3D ( 'NONE', #32, #63, #38 ) ;
ENDSEC;
END-ISO-10303-21;
