ISO-10303-21;
HEADER;
FILE_DESCRIPTION (( 'STEP AP214' ),
    '1' );
FILE_NAME ('Forearm.STEP',
    '2026-07-30T17:55:52',
    ( '' ),
    ( '' ),
    'SwSTEP 2.0',
    'SolidWorks 2024',
    '' );
FILE_SCHEMA (( 'AUTOMOTIVE_DESIGN' ));
ENDSEC;

DATA;
#1 = CARTESIAN_POINT ( 'NONE',  ( 0.000000000000000000, 109.2500000000001279, -41.48131516079320136 ) ) ;
#2 = CIRCLE ( 'NONE', #234, 371.1299539226669140 ) ;
#3 = DIRECTION ( 'NONE',  ( -0.000000000000000000, -1.000000000000000000, -0.000000000000000000 ) ) ;
#4 = DIRECTION ( 'NONE',  ( 0.000000000000000000, 0.000000000000000000, -1.000000000000000000 ) ) ;
#5 = VERTEX_POINT ( 'NONE', #271 ) ;
#6 = DIRECTION ( 'NONE',  ( -1.000000000000000000, 0.000000000000000000, 0.000000000000000000 ) ) ;
#7 = CARTESIAN_POINT ( 'NONE',  ( -39.68447750243969097, 202.7569244773740991, -12.55614272696200295 ) ) ;
#8 = PRODUCT_DEFINITION_SHAPE ( 'NONE', 'NONE',  #64 ) ;
#9 = PRODUCT_DEFINITION_FORMATION_WITH_SPECIFIED_SOURCE ( 'ANY', '', #296, .NOT_KNOWN. ) ;
#10 = CARTESIAN_POINT ( 'NONE',  ( -41.84448467038156849, 200.1827281749501424, -2.583295699901800191 ) ) ;
#11 = DIRECTION ( 'NONE',  ( -0.6427876096865450251, -0.7660444431189733505, 0.000000000000000000 ) ) ;
#12 = CARTESIAN_POINT ( 'NONE',  ( 2.112445960343598798E-15, 254.2499999999999716, 0.000000000000000000 ) ) ;
#13 = B_SPLINE_CURVE_WITH_KNOTS ( 'NONE', 3,
 ( #163, #219, #195, #379, #132, #90, #125, #259, #384, #255, #196, #315, #31, #94, #65, #319, #231, #143, #97, #206, #145, #391, #178, #15, #399, #71, #167, #294, #229, #272, #38, #169, #353, #17, #139, #10, #292, #264, #401, #110, #330, #297, #270, #7, #327, #107, #99, #69, #175, #103, #204, #171, #351, #208, #201, #43, #266, #322, #357, #325, #396, #135, #301, #41, #74, #239 ),
 .UNSPECIFIED., .F., .F.,
 ( 4, 2, 2, 2, 2, 2, 2, 2, 2, 2, 2, 2, 2, 2, 2, 2, 2, 2, 2, 2, 2, 2, 2, 2, 2, 2, 2, 2, 2, 2, 2, 2, 4 ),
 ( 2.576066382412435817E-07, 0.007805369835107047252, 0.01561048206357585656, 0.02341559429204465720, 0.02536687234916183004, 0.02731815040627900287, 0.03122070652051340059, 0.03512326263474780524, 0.03707454069186499890, 0.03902581874898218561, 0.04683093097745093941, 0.04878220903456815388, 0.05073348709168536835, 0.05463604320591976260, 0.05658732126303695625, 0.05853859932015414297, 0.06244115543438850946, 0.06439243349150569617, 0.06634371154862288289, 0.07024626766285725632, 0.07219754571997442916, 0.07414882377709160199, 0.07805137989132594767, 0.08195393600556030722, 0.08585649211979465290, 0.09366160434826333037, 0.09756416046249767604, 0.09951543851961489051, 0.1014667165767320772, 0.1092718288052009074, 0.1170769410336697514, 0.1209794971479041942, 0.1248820532621386370 ),
 .UNSPECIFIED. ) ;
#14 = AXIS2_PLACEMENT_3D ( 'NONE', #232, #274, #217 ) ;
#15 = CARTESIAN_POINT ( 'NONE',  ( -39.65405193007891427, 202.7931842625418426, 12.58979237584257582 ) ) ;
#16 = DIRECTION ( 'NONE',  ( -1.000000000000000000, 0.000000000000000000, 1.224646799147353207E-16 ) ) ;
#17 = CARTESIAN_POINT ( 'NONE',  ( -41.93199374720901318, 200.0784389182564382, -0.6114335039179109588 ) ) ;
#18 = EDGE_LOOP ( 'NONE', ( #27, #336, #49, #343 ) ) ;
#19 = AXIS2_PLACEMENT_3D ( 'NONE', #298, #332, #16 ) ;
#20 = DIRECTION ( 'NONE',  ( -5.162077718371462800E-16, 0.000000000000000000, 1.000000000000000000 ) ) ;
#21 = TOROIDAL_SURFACE ( 'NONE', #335, 892.8125804631979463, 858.3125804631979463 ) ;
#22 = ORIENTED_EDGE ( 'NONE', *, *, #106, .T. ) ;
#23 = PRODUCT_CONTEXT ( 'NONE', #137, 'mechanical' ) ;
#24 = ADVANCED_FACE ( 'NONE', ( #202 ), #75, .F. ) ;
#25 = EDGE_CURVE ( 'NONE', #84, #354, #88, .T. ) ;
#26 = DIRECTION ( 'NONE',  ( -0.000000000000000000, 0.000000000000000000, 1.000000000000000000 ) ) ;
#27 = ORIENTED_EDGE ( 'NONE', *, *, #299, .F. ) ;
#28 = VECTOR ( 'NONE', #20, 1000.000000000000000 ) ;
#29 = PRESENTATION_STYLE_ASSIGNMENT (( #250 ) ) ;
#30 = CARTESIAN_POINT ( 'NONE',  ( 29.12043955712206866, 235.7500000000000000, -3.566225309339350711E-15 ) ) ;
#31 = CARTESIAN_POINT ( 'NONE',  ( -30.50921173426125677, 213.6915804196071917, 25.98949576900608349 ) ) ;
#32 = ORIENTED_EDGE ( 'NONE', *, *, #25, .T. ) ;
#33 = CIRCLE ( 'NONE', #150, 34.49999999999998579 ) ;
#34 = DIRECTION ( 'NONE',  ( -5.162077718371462800E-16, 0.000000000000000000, 1.000000000000000000 ) ) ;
#35 = EDGE_CURVE ( 'NONE', #5, #84, #320, .T. ) ;
#36 = EDGE_CURVE ( 'NONE', #354, #84, #123, .T. ) ;
#37 = CARTESIAN_POINT ( 'NONE',  ( 0.000000000000000000, -6.866343926656839381E-24, 0.000000000000000000 ) ) ;
#38 = CARTESIAN_POINT ( 'NONE',  ( -41.63958141194554230, 200.4269223693255810, 4.619927060586935141 ) ) ;
#39 = CIRCLE ( 'NONE', #355, 34.49999999999997158 ) ;
#40 = ORIENTED_EDGE ( 'NONE', *, *, #35, .T. ) ;
#41 = CARTESIAN_POINT ( 'NONE',  ( -13.69367007388846424, 233.7315626047738419, -33.70846656826640952 ) ) ;
#42 = CARTESIAN_POINT ( 'NONE',  ( -11.99999999999975131, 235.7500000000000000, -6.194493262045627171E-15 ) ) ;
#43 = CARTESIAN_POINT ( 'NONE',  ( -27.53021424842230758, 217.2418113756849039, -28.32110139524025882 ) ) ;
#44 = ORIENTED_EDGE ( 'NONE', *, *, #393, .F. ) ;
#45 = MECHANICAL_DESIGN_GEOMETRIC_PRESENTATION_REPRESENTATION (  '', ( #177 ), #198 ) ;
#46 = DIRECTION ( 'NONE',  ( -0.000000000000000000, -1.000000000000000000, -0.000000000000000000 ) ) ;
#47 = EDGE_LOOP ( 'NONE', ( #66, #32 ) ) ;
#48 = DIRECTION ( 'NONE',  ( -0.000000000000000000, -1.000000000000000000, -0.000000000000000000 ) ) ;
#49 = ORIENTED_EDGE ( 'NONE', *, *, #356, .T. ) ;
#50 = CARTESIAN_POINT ( 'NONE',  ( 0.000000000000000000, -6.866343926656839381E-24, -892.8125804631979463 ) ) ;
#51 = ORIENTED_EDGE ( 'NONE', *, *, #214, .T. ) ;
#52 = AXIS2_PLACEMENT_3D ( 'NONE', #50, #408, #310 ) ;
#53 = DIRECTION ( 'NONE',  ( -0.000000000000000000, -0.000000000000000000, -1.000000000000000000 ) ) ;
#54 = TOROIDAL_SURFACE ( 'NONE', #269, 892.8125804631979463, 858.3125804631979463 ) ;
#55 = FACE_BOUND ( 'NONE', #47, .T. ) ;
#56 = ORIENTED_EDGE ( 'NONE', *, *, #141, .T. ) ;
#57 = DIRECTION ( 'NONE',  ( 0.000000000000000000, 0.000000000000000000, 1.000000000000000000 ) ) ;
#58 = DIRECTION ( 'NONE',  ( 0.000000000000000000, 0.000000000000000000, -1.000000000000000000 ) ) ;
#59 = FACE_OUTER_BOUND ( 'NONE', #126, .T. ) ;
#60 = DIRECTION ( 'NONE',  ( -0.000000000000000000, -0.000000000000000000, -1.000000000000000000 ) ) ;
#61 = ORIENTED_EDGE ( 'NONE', *, *, #189, .T. ) ;
#62 = EDGE_CURVE ( 'NONE', #382, #385, #180, .T. ) ;
#63 = CARTESIAN_POINT ( 'NONE',  ( 0.000000000000000000, 235.7500000000000000, 0.000000000000000000 ) ) ;
#64 = PRODUCT_DEFINITION ( 'UNKNOWN', '', #9, #375 ) ;
#65 = CARTESIAN_POINT ( 'NONE',  ( -32.65405674647750089, 211.1354536707408158, 23.90466430572787715 ) ) ;
#66 = ORIENTED_EDGE ( 'NONE', *, *, #36, .T. ) ;
#67 = CLOSED_SHELL ( 'NONE', ( #258, #226, #24, #409, #314, #376, #358, #174, #328, #156, #287 ) ) ;
#68 = CARTESIAN_POINT ( 'NONE',  ( -11.99999999999976907, 235.7500000000000000, 33.87482702907876586 ) ) ;
#69 = CARTESIAN_POINT ( 'NONE',  ( -36.59464855385220972, 206.4392392273547614, -18.79568374969922218 ) ) ;
#70 = CARTESIAN_POINT ( 'NONE',  ( 2.112445960343598798E-15, 235.7500000000000000, 0.000000000000000000 ) ) ;
#71 = CARTESIAN_POINT ( 'NONE',  ( -40.45709555173459648, 201.8361541414238332, 10.25955759407440127 ) ) ;
#72 = TOROIDAL_SURFACE ( 'NONE', #308, -326.6299539226668003, 371.1299539226669140 ) ;
#73 = FILL_AREA_STYLE_COLOUR ( '', #101 ) ;
#74 = CARTESIAN_POINT ( 'NONE',  ( -12.84782893947402727, 234.7395968154762329, -33.80882164630543230 ) ) ;
#75 = SPHERICAL_SURFACE ( 'NONE', #350, 34.49999999999998579 ) ;
#76 = CARTESIAN_POINT ( 'NONE',  ( 0.000000000000000000, 1.051129754263496902E-13, 0.000000000000000000 ) ) ;
#77 = EDGE_CURVE ( 'NONE', #344, #116, #144, .T. ) ;
#78 = DIRECTION ( 'NONE',  ( -0.000000000000000000, -1.000000000000000000, -0.000000000000000000 ) ) ;
#79 = EDGE_CURVE ( 'NONE', #151, #111, #194, .T. ) ;
#80 = CARTESIAN_POINT ( 'NONE',  ( 0.000000000000000000, 156.4891392005121418, 0.000000000000000000 ) ) ;
#81 = DIRECTION ( 'NONE',  ( 0.000000000000000000, 1.000000000000000000, 0.000000000000000000 ) ) ;
#82 = CARTESIAN_POINT ( 'NONE',  ( 0.000000000000000000, -9.999999999999907629, 0.000000000000000000 ) ) ;
#83 = PLANE ( 'NONE',  #119 ) ;
#84 = VERTEX_POINT ( 'NONE', #173 ) ;
#85 = AXIS2_PLACEMENT_3D ( 'NONE', #118, #53, #120 ) ;
#86 = DIRECTION ( 'NONE',  ( 0.000000000000000000, -1.000000000000000000, -0.000000000000000000 ) ) ;
#87 = ORIENTED_EDGE ( 'NONE', *, *, #108, .F. ) ;
#88 = CIRCLE ( 'NONE', #303, 26.95482331605979098 ) ;
#89 = DIRECTION ( 'NONE',  ( 0.000000000000000000, 0.000000000000000000, -1.000000000000000000 ) ) ;
#90 = CARTESIAN_POINT ( 'NONE',  ( -23.54471985396314793, 221.9915386385456202, 30.73560923953342439 ) ) ;
#91 = AXIS2_PLACEMENT_3D ( 'NONE', #218, #340, #58 ) ;
#92 = PLANE ( 'NONE',  #276 ) ;
#93 = EDGE_CURVE ( 'NONE', #344, #151, #243, .T. ) ;
#94 = CARTESIAN_POINT ( 'NONE',  ( -31.95090335260853465, 211.9734392540289321, 24.62970238848030746 ) ) ;
#95 = CARTESIAN_POINT ( 'NONE',  ( 2.112445960343598798E-15, 254.2499999999999716, 0.000000000000000000 ) ) ;
#96 = ORIENTED_EDGE ( 'NONE', *, *, #62, .F. ) ;
#97 = CARTESIAN_POINT ( 'NONE',  ( -35.00545062839128008, 208.3331715643661823, 21.08439011281818765 ) ) ;
#98 = CARTESIAN_POINT ( 'NONE',  ( 0.000000000000000000, 109.2500000000001279, 0.000000000000000000 ) ) ;
#99 = CARTESIAN_POINT ( 'NONE',  ( -37.73323292546389496, 205.0823272120148886, -16.84135009586132981 ) ) ;
#100 = CARTESIAN_POINT ( 'NONE',  ( -11.99999999999974776, 235.7500000000000000, -26.53299832284330861 ) ) ;
#101 = COLOUR_RGB ( '',0.7921568627450980005, 0.8196078431372548767, 0.9333333333333333481 ) ;
#102 = EDGE_CURVE ( 'NONE', #366, #191, #364, .T. ) ;
#103 = CARTESIAN_POINT ( 'NONE',  ( -34.08327731692488527, 209.4321749213006569, -22.36214065591970623 ) ) ;
#104 = TOROIDAL_SURFACE ( 'NONE', #127, -326.6299539226668003, 371.1299539226669140 ) ;
#105 = DIRECTION ( 'NONE',  ( -0.000000000000000000, -1.000000000000000000, -0.000000000000000000 ) ) ;
#106 = EDGE_CURVE ( 'NONE', #238, #371, #386, .T. ) ;
#107 = CARTESIAN_POINT ( 'NONE',  ( -38.26390009509606216, 204.4499027061340826, -15.81955980293115971 ) ) ;
#108 = EDGE_CURVE ( 'NONE', #181, #385, #249, .T. ) ;
#109 = EDGE_LOOP ( 'NONE', ( #392, #302, #305, #131, #61, #176 ) ) ;
#110 = CARTESIAN_POINT ( 'NONE',  ( -40.95193204184256786, 201.2464309765908013, -8.358367812931520646 ) ) ;
#111 = VERTEX_POINT ( 'NONE', #265 ) ;
#112 = CARTESIAN_POINT ( 'NONE',  ( 0.000000000000000000, 109.2500000000001279, 0.000000000000000000 ) ) ;
#113 = ORIENTED_EDGE ( 'NONE', *, *, #260, .T. ) ;
#114 =( GEOMETRIC_REPRESENTATION_CONTEXT ( 3 ) GLOBAL_UNCERTAINTY_ASSIGNED_CONTEXT ( ( #121 ) ) GLOBAL_UNIT_ASSIGNED_CONTEXT ( ( #291, #389, #117 ) ) REPRESENTATION_CONTEXT ( 'NONE', 'WORKASPACE' ) );
#115 = FACE_OUTER_BOUND ( 'NONE', #329, .T. ) ;
#116 = VERTEX_POINT ( 'NONE', #100 ) ;
#117 =( NAMED_UNIT ( * ) SI_UNIT ( $, .STERADIAN. ) SOLID_ANGLE_UNIT ( ) );
#118 = CARTESIAN_POINT ( 'NONE',  ( 0.000000000000000000, -9.999999999999907629, 0.000000000000000000 ) ) ;
#119 = AXIS2_PLACEMENT_3D ( 'NONE', #247, #86, #244 ) ;
#120 = DIRECTION ( 'NONE',  ( -1.000000000000000000, 0.000000000000000000, 0.000000000000000000 ) ) ;
#121 = UNCERTAINTY_MEASURE_WITH_UNIT (LENGTH_MEASURE( 1.000000000000000082E-05 ), #291, 'distance_accuracy_value', 'NONE');
#122 = CARTESIAN_POINT ( 'NONE',  ( 0.000000000000000000, 1.051129754263496902E-13, -34.49999999999997158 ) ) ;
#123 = CIRCLE ( 'NONE', #252, 26.95482331605979098 ) ;
#124 = CARTESIAN_POINT ( 'NONE',  ( 0.000000000000000000, 156.4891392005121418, 0.000000000000000000 ) ) ;
#125 = CARTESIAN_POINT ( 'NONE',  ( -25.13715527206094791, 220.0937480080533248, 29.89330489239712207 ) ) ;
#126 = EDGE_LOOP ( 'NONE', ( #155, #333, #186, #388 ) ) ;
#127 = AXIS2_PLACEMENT_3D ( 'NONE', #80, #237, #360 ) ;
#128 = ADVANCED_BREP_SHAPE_REPRESENTATION ( 'Forearm', ( #136, #130 ), #114 ) ;
#129 = DIRECTION ( 'NONE',  ( 0.000000000000000000, 0.000000000000000000, -1.000000000000000000 ) ) ;
#130 = AXIS2_PLACEMENT_3D ( 'NONE', #373, #187, #277 ) ;
#131 = ORIENTED_EDGE ( 'NONE', *, *, #93, .T. ) ;
#132 = CARTESIAN_POINT ( 'NONE',  ( -20.31674861236597707, 225.8384849625097957, 32.12141873701217776 ) ) ;
#133 = DIRECTION ( 'NONE',  ( -0.7660444431189733505, 0.6427876096865449140, -3.954380951106728662E-16 ) ) ;
#134 = AXIS2_PLACEMENT_3D ( 'NONE', #230, #138, #400 ) ;
#135 = CARTESIAN_POINT ( 'NONE',  ( -16.22423539136372739, 230.7157522963784118, -33.26697778232417591 ) ) ;
#136 = MANIFOLD_SOLID_BREP ( 'Odebrat povrchem1', #67 ) ;
#137 = APPLICATION_CONTEXT ( 'automotive_design' ) ;
#138 = DIRECTION ( 'NONE',  ( -0.000000000000000000, -1.000000000000000000, -0.000000000000000000 ) ) ;
#139 = CARTESIAN_POINT ( 'NONE',  ( -41.91491075680972500, 200.0987976334371297, -1.268101621895446174 ) ) ;
#140 = ORIENTED_EDGE ( 'NONE', *, *, #108, .T. ) ;
#141 = EDGE_CURVE ( 'NONE', #371, #191, #411, .T. ) ;
#142 = CIRCLE ( 'NONE', #284, 28.74999999999999645 ) ;
#143 = CARTESIAN_POINT ( 'NONE',  ( -34.67863958321969164, 208.7226498015488687, 21.51298937471300476 ) ) ;
#144 = LINE ( 'NONE', #42, #28 ) ;
#145 = CARTESIAN_POINT ( 'NONE',  ( -37.74039212807648624, 205.0737952065813090, 16.95808980614389228 ) ) ;
#146 = AXIS2_PLACEMENT_3D ( 'NONE', #70, #48, #304 ) ;
#147 = DIRECTION ( 'NONE',  ( 0.000000000000000000, 0.000000000000000000, -1.000000000000000000 ) ) ;
#148 = ORIENTED_EDGE ( 'NONE', *, *, #214, .F. ) ;
#149 =( NAMED_UNIT ( * ) PLANE_ANGLE_UNIT ( ) SI_UNIT ( $, .RADIAN. ) );
#150 = AXIS2_PLACEMENT_3D ( 'NONE', #383, #348, #289 ) ;
#151 = VERTEX_POINT ( 'NONE', #405 ) ;
#152 = CARTESIAN_POINT ( 'NONE',  ( 2.112445960343598798E-15, 254.2499999999999716, 0.000000000000000000 ) ) ;
#153 = DIRECTION ( 'NONE',  ( 1.000000000000000000, 0.000000000000000000, 0.000000000000000000 ) ) ;
#154 = EDGE_CURVE ( 'NONE', #238, #366, #225, .T. ) ;
#155 = ORIENTED_EDGE ( 'NONE', *, *, #141, .F. ) ;
#156 = ADVANCED_FACE ( 'NONE', ( #374 ), #311, .F. ) ;
#157 = CARTESIAN_POINT ( 'NONE',  ( -123.1261029523157902, 103.3150675755852603, -7.246667507224545164E-14 ) ) ;
#158 = DIRECTION ( 'NONE',  ( -0.6427876096865449140, -0.7660444431189733505, 0.000000000000000000 ) ) ;
#159 = ORIENTED_EDGE ( 'NONE', *, *, #25, .F. ) ;
#160 = FACE_OUTER_BOUND ( 'NONE', #18, .T. ) ;
#161 = CIRCLE ( 'NONE', #395, 34.49999999999998579 ) ;
#162 = CIRCLE ( 'NONE', #380, 41.48131516079317294 ) ;
#163 = CARTESIAN_POINT ( 'NONE',  ( -11.99999999999976907, 235.7500000000000000, 33.87482702907876586 ) ) ;
#164 = EDGE_LOOP ( 'NONE', ( #221, #361, #275, #413, #263, #402, #347 ) ) ;
#165 = FACE_OUTER_BOUND ( 'NONE', #164, .T. ) ;
#166 = ORIENTED_EDGE ( 'NONE', *, *, #77, .F. ) ;
#167 = CARTESIAN_POINT ( 'NONE',  ( -40.79536184130014220, 201.4330240755806471, 9.054741498453974913 ) ) ;
#168 = VERTEX_POINT ( 'NONE', #242 ) ;
#169 = CARTESIAN_POINT ( 'NONE',  ( -41.85658151905064273, 200.1683117120897748, 2.663666859056558422 ) ) ;
#170 = DIRECTION ( 'NONE',  ( 0.000000000000000000, 0.000000000000000000, -1.000000000000000000 ) ) ;
#171 = CARTESIAN_POINT ( 'NONE',  ( -30.55976486186362351, 213.6313335481702325, -25.94457632664244429 ) ) ;
#172 = EDGE_CURVE ( 'NONE', #116, #382, #268, .T. ) ;
#173 = CARTESIAN_POINT ( 'NONE',  ( 26.95482331605979098, 5.290906601729261638E-14, -3.301013809559506850E-15 ) ) ;
#174 = ADVANCED_FACE ( 'NONE', ( #115, #55 ), #83, .T. ) ;
#175 = CARTESIAN_POINT ( 'NONE',  ( -35.98349949576721940, 207.1675783129380761, -19.73188788215685108 ) ) ;
#176 = ORIENTED_EDGE ( 'NONE', *, *, #260, .F. ) ;
#177 = STYLED_ITEM ( 'NONE', ( #29 ), #136 ) ;
#178 = CARTESIAN_POINT ( 'NONE',  ( -39.20504447339607168, 203.3282905121451734, 13.72167972114923451 ) ) ;
#179 = CARTESIAN_POINT ( 'NONE',  ( 0.000000000000000000, 5.204170427930421283E-14, 0.000000000000000000 ) ) ;
#180 = CIRCLE ( 'NONE', #146, 29.12043955712206866 ) ;
#181 = VERTEX_POINT ( 'NONE', #184 ) ;
#182 = APPLICATION_PROTOCOL_DEFINITION ( 'draft international standard', 'automotive_design', 1998, #137 ) ;
#183 = CARTESIAN_POINT ( 'NONE',  ( 5.079995983608798479E-15, 109.2500000000001279, 41.48131516079320136 ) ) ;
#184 = CARTESIAN_POINT ( 'NONE',  ( -20.04062223158386047, 226.1675595688168983, 9.629649721936179265E-32 ) ) ;
#185 = AXIS2_PLACEMENT_3D ( 'NONE', #82, #211, #6 ) ;
#186 = ORIENTED_EDGE ( 'NONE', *, *, #154, .T. ) ;
#187 = DIRECTION ( 'NONE',  ( 0.000000000000000000, 0.000000000000000000, 1.000000000000000000 ) ) ;
#188 = CARTESIAN_POINT ( 'NONE',  ( 2.112445960343598798E-15, 235.7500000000000000, 0.000000000000000000 ) ) ;
#189 = EDGE_CURVE ( 'NONE', #151, #366, #316, .T. ) ;
#190 = UNCERTAINTY_MEASURE_WITH_UNIT (LENGTH_MEASURE( 1.000000000000000082E-05 ), #367, 'distance_accuracy_value', 'NONE');
#191 = VERTEX_POINT ( 'NONE', #183 ) ;
#192 = CARTESIAN_POINT ( 'NONE',  ( 0.000000000000000000, 156.4891392005121418, 326.6299539226668003 ) ) ;
#193 = FACE_OUTER_BOUND ( 'NONE', #283, .T. ) ;
#194 = CIRCLE ( 'NONE', #134, 35.93750000000000000 ) ;
#195 = CARTESIAN_POINT ( 'NONE',  ( -15.37021655906655049, 231.7335323079117302, 33.47515179673247587 ) ) ;
#196 = CARTESIAN_POINT ( 'NONE',  ( -28.63834774184081766, 215.9211893038294647, 27.51382635197368032 ) ) ;
#197 = CARTESIAN_POINT ( 'NONE',  ( -26.95482331605979098, 5.290906601729261638E-14, 0.000000000000000000 ) ) ;
#198 =( GEOMETRIC_REPRESENTATION_CONTEXT ( 3 ) GLOBAL_UNCERTAINTY_ASSIGNED_CONTEXT ( ( #190 ) ) GLOBAL_UNIT_ASSIGNED_CONTEXT ( ( #367, #149, #212 ) ) REPRESENTATION_CONTEXT ( 'NONE', 'WORKASPACE' ) );
#199 = CARTESIAN_POINT ( 'NONE',  ( -11.99999999999973532, 235.7500000000000000, -33.87482702907878007 ) ) ;
#200 = LINE ( 'NONE', #317, #398 ) ;
#201 = CARTESIAN_POINT ( 'NONE',  ( -28.30023643002030198, 216.3241346743882900, -27.76781381547318261 ) ) ;
#202 = FACE_OUTER_BOUND ( 'NONE', #240, .T. ) ;
#203 = AXIS2_PLACEMENT_3D ( 'NONE', #95, #60, #257 ) ;
#204 = CARTESIAN_POINT ( 'NONE',  ( -32.71989684200838155, 211.0569885003550610, -23.89857311646343163 ) ) ;
#205 = FILL_AREA_STYLE ('',( #73 ) ) ;
#206 = CARTESIAN_POINT ( 'NONE',  ( -36.59625120230967354, 206.4373292652979899, 18.88864970556086575 ) ) ;
#207 = ORIENTED_EDGE ( 'NONE', *, *, #35, .F. ) ;
#208 = CARTESIAN_POINT ( 'NONE',  ( -28.68383849396274954, 215.8669755365583001, -27.47915184089338680 ) ) ;
#209 = DIRECTION ( 'NONE',  ( -0.7660444431189733505, 0.6427876096865449140, -3.954380951106728169E-16 ) ) ;
#210 = DIRECTION ( 'NONE',  ( 0.000000000000000000, 0.000000000000000000, -1.000000000000000000 ) ) ;
#211 = DIRECTION ( 'NONE',  ( -0.000000000000000000, -0.000000000000000000, -1.000000000000000000 ) ) ;
#212 =( NAMED_UNIT ( * ) SI_UNIT ( $, .STERADIAN. ) SOLID_ANGLE_UNIT ( ) );
#213 = AXIS2_PLACEMENT_3D ( 'NONE', #293, #209, #11 ) ;
#214 = EDGE_CURVE ( 'NONE', #5, #354, #142, .T. ) ;
#215 = SURFACE_SIDE_STYLE ('',( #278 ) ) ;
#216 = CIRCLE ( 'NONE', #91, 35.93750000000000000 ) ;
#217 = DIRECTION ( 'NONE',  ( -1.224646799147353207E-16, 0.000000000000000000, -1.000000000000000000 ) ) ;
#218 = CARTESIAN_POINT ( 'NONE',  ( 0.000000000000000000, 235.7500000000000000, 0.000000000000000000 ) ) ;
#219 = CARTESIAN_POINT ( 'NONE',  ( -13.69490049505531104, 233.7300962459279390, 33.74287522756528546 ) ) ;
#220 = CARTESIAN_POINT ( 'NONE',  ( -4.000063275770413671E-14, 156.4891392005121418, -326.6299539226668003 ) ) ;
#221 = ORIENTED_EDGE ( 'NONE', *, *, #93, .F. ) ;
#222 = DIRECTION ( 'NONE',  ( 0.000000000000000000, 0.000000000000000000, -1.000000000000000000 ) ) ;
#223 = EDGE_CURVE ( 'NONE', #181, #168, #161, .T. ) ;
#224 = DIRECTION ( 'NONE',  ( 0.000000000000000000, -0.000000000000000000, 1.000000000000000000 ) ) ;
#225 = CIRCLE ( 'NONE', #52, 858.3125804631979463 ) ;
#226 = ADVANCED_FACE ( 'NONE', ( #412 ), #21, .F. ) ;
#227 = CARTESIAN_POINT ( 'NONE',  ( 4.652513720333575812E-15, 1.051129754263496902E-13, 34.49999999999997158 ) ) ;
#228 = APPLICATION_CONTEXT ( 'automotive_design' ) ;
#229 = CARTESIAN_POINT ( 'NONE',  ( -41.33453816277318538, 200.7904587574233233, 6.557719176079477741 ) ) ;
#230 = CARTESIAN_POINT ( 'NONE',  ( 0.000000000000000000, 235.7500000000000000, 0.000000000000000000 ) ) ;
#231 = CARTESIAN_POINT ( 'NONE',  ( -34.01582560653667286, 209.5125607394824385, 22.34095164461754379 ) ) ;
#232 = CARTESIAN_POINT ( 'NONE',  ( 1.093380068902743991E-13, -6.866343926656839381E-24, 892.8125804631979463 ) ) ;
#233 = PRESENTATION_LAYER_ASSIGNMENT (  '', '', ( #177 ) ) ;
#234 = AXIS2_PLACEMENT_3D ( 'NONE', #220, #285, #341 ) ;
#235 = FACE_OUTER_BOUND ( 'NONE', #404, .T. ) ;
#236 = ORIENTED_EDGE ( 'NONE', *, *, #189, .F. ) ;
#237 = DIRECTION ( 'NONE',  ( -0.000000000000000000, -1.000000000000000000, -0.000000000000000000 ) ) ;
#238 = VERTEX_POINT ( 'NONE', #122 ) ;
#239 = CARTESIAN_POINT ( 'NONE',  ( -11.99999999999973532, 235.7500000000000000, -33.87482702907878007 ) ) ;
#240 = EDGE_LOOP ( 'NONE', ( #96, #318, #279, #140 ) ) ;
#241 = APPLICATION_PROTOCOL_DEFINITION ( 'draft international standard', 'automotive_design', 1998, #228 ) ;
#242 = CARTESIAN_POINT ( 'NONE',  ( -6.976818558448571023E-20, 219.7500000000000000, 0.000000000000000000 ) ) ;
#243 = CIRCLE ( 'NONE', #312, 35.93750000000000000 ) ;
#244 = DIRECTION ( 'NONE',  ( 0.000000000000000000, 0.000000000000000000, -1.000000000000000000 ) ) ;
#245 = EDGE_CURVE ( 'NONE', #111, #307, #216, .T. ) ;
#246 = ORIENTED_EDGE ( 'NONE', *, *, #410, .F. ) ;
#247 = CARTESIAN_POINT ( 'NONE',  ( 34.49999999999997868, 5.255648771317484508E-14, 0.000000000000000000 ) ) ;
#248 = EDGE_LOOP ( 'NONE', ( #207, #51, #159 ) ) ;
#249 = CIRCLE ( 'NONE', #213, 34.39426110239819678 ) ;
#250 = SURFACE_STYLE_USAGE ( .BOTH. , #215 ) ;
#251 = DIRECTION ( 'NONE',  ( 0.000000000000000000, 0.000000000000000000, 1.000000000000000000 ) ) ;
#252 = AXIS2_PLACEMENT_3D ( 'NONE', #331, #397, #147 ) ;
#253 = ORIENTED_EDGE ( 'NONE', *, *, #154, .F. ) ;
#254 = PLANE ( 'NONE',  #324 ) ;
#255 = CARTESIAN_POINT ( 'NONE',  ( -28.25682371837425677, 216.3758719294567925, 27.79993615256971395 ) ) ;
#256 = CIRCLE ( 'NONE', #286, 34.39426110239819678 ) ;
#257 = DIRECTION ( 'NONE',  ( -1.000000000000000000, 0.000000000000000000, 0.000000000000000000 ) ) ;
#258 = ADVANCED_FACE ( 'NONE', ( #193 ), #365, .F. ) ;
#259 = CARTESIAN_POINT ( 'NONE',  ( -27.09565816556329665, 217.7596951486159185, 28.61829340759714313 ) ) ;
#260 = EDGE_CURVE ( 'NONE', #191, #366, #162, .T. ) ;
#261 = ORIENTED_EDGE ( 'NONE', *, *, #102, .F. ) ;
#262 = SPHERICAL_SURFACE ( 'NONE', #203, 34.49999999999998579 ) ;
#263 = ORIENTED_EDGE ( 'NONE', *, *, #372, .T. ) ;
#264 = CARTESIAN_POINT ( 'NONE',  ( -41.57628195026275364, 200.5023597301953373, -5.212595656716970893 ) ) ;
#265 = CARTESIAN_POINT ( 'NONE',  ( 4.740535209022297222E-15, 235.7500000000000000, 35.93750000000000000 ) ) ;
#266 = CARTESIAN_POINT ( 'NONE',  ( -27.14306008553961291, 217.7032037401881439, -28.58632938822654168 ) ) ;
#267 = CARTESIAN_POINT ( 'NONE',  ( 0.000000000000000000, 235.7500000000000000, 0.000000000000000000 ) ) ;
#268 = CIRCLE ( 'NONE', #334, 29.12043955712206866 ) ;
#269 = AXIS2_PLACEMENT_3D ( 'NONE', #37, #3, #222 ) ;
#270 = CARTESIAN_POINT ( 'NONE',  ( -40.27750630994563608, 202.0501802655169854, -10.78896387700360648 ) ) ;
#271 = CARTESIAN_POINT ( 'NONE',  ( -1.760429773774320121E-15, 18.75000000000008882, 0.000000000000000000 ) ) ;
#272 = CARTESIAN_POINT ( 'NONE',  ( -41.54870476442521010, 200.5352249404908491, 5.273947172768199465 ) ) ;
#273 = ORIENTED_EDGE ( 'NONE', *, *, #36, .F. ) ;
#274 = DIRECTION ( 'NONE',  ( 1.000000000000000000, 0.000000000000000000, -1.224646799147353207E-16 ) ) ;
#275 = ORIENTED_EDGE ( 'NONE', *, *, #172, .T. ) ;
#276 = AXIS2_PLACEMENT_3D ( 'NONE', #63, #288, #224 ) ;
#277 = DIRECTION ( 'NONE',  ( 1.000000000000000000, 0.000000000000000000, 0.000000000000000000 ) ) ;
#278 = SURFACE_STYLE_FILL_AREA ( #205 ) ;
#279 = ORIENTED_EDGE ( 'NONE', *, *, #223, .F. ) ;
#280 = CARTESIAN_POINT ( 'NONE',  ( 0.000000000000000000, -9.999999999999907629, 0.000000000000000000 ) ) ;
#281 = FACE_OUTER_BOUND ( 'NONE', #109, .T. ) ;
#282 = DIRECTION ( 'NONE',  ( -0.6427876096865450251, -0.7660444431189733505, 0.000000000000000000 ) ) ;
#283 = EDGE_LOOP ( 'NONE', ( #148, #40, #273 ) ) ;
#284 = AXIS2_PLACEMENT_3D ( 'NONE', #280, #26, #403 ) ;
#285 = DIRECTION ( 'NONE',  ( 1.000000000000000000, 0.000000000000000000, -1.224646799147353207E-16 ) ) ;
#286 = AXIS2_PLACEMENT_3D ( 'NONE', #387, #346, #282 ) ;
#287 = ADVANCED_FACE ( 'NONE', ( #321 ), #254, .T. ) ;
#288 = DIRECTION ( 'NONE',  ( 0.000000000000000000, 1.000000000000000000, 0.000000000000000000 ) ) ;
#289 = DIRECTION ( 'NONE',  ( -1.000000000000000000, 0.000000000000000000, 1.224646799147353207E-16 ) ) ;
#290 = EDGE_LOOP ( 'NONE', ( #44, #359, #87, #349, #166 ) ) ;
#291 =( LENGTH_UNIT ( ) NAMED_UNIT ( * ) SI_UNIT ( .MILLI., .METRE. ) );
#292 = CARTESIAN_POINT ( 'NONE',  ( -41.79085337484082174, 200.2466434640862758, -3.244324806099356362 ) ) ;
#293 = CARTESIAN_POINT ( 'NONE',  ( 2.067582649361590974, 252.5150921614921060, 1.067302232516089607E-15 ) ) ;
#294 = CARTESIAN_POINT ( 'NONE',  ( -41.21121878413436690, 200.9374250699526101, 7.189275302756356290 ) ) ;
#295 = DIRECTION ( 'NONE',  ( 0.000000000000000000, 0.000000000000000000, -1.000000000000000000 ) ) ;
#296 = PRODUCT ( 'Forearm', 'Forearm', '', ( #23 ) ) ;
#297 = CARTESIAN_POINT ( 'NONE',  ( -40.46188738552263686, 201.8304434562917891, -10.18754515793928483 ) ) ;
#298 = CARTESIAN_POINT ( 'NONE',  ( 0.000000000000000000, -9.999999999999907629, 0.000000000000000000 ) ) ;
#299 = EDGE_CURVE ( 'NONE', #382, #168, #33, .T. ) ;
#300 = EDGE_CURVE ( 'NONE', #111, #191, #2, .T. ) ;
#301 = CARTESIAN_POINT ( 'NONE',  ( -15.38129994488552654, 231.7203236430437983, -33.43773011361884784 ) ) ;
#302 = ORIENTED_EDGE ( 'NONE', *, *, #245, .T. ) ;
#303 = AXIS2_PLACEMENT_3D ( 'NONE', #179, #81, #210 ) ;
#304 = DIRECTION ( 'NONE',  ( 0.000000000000000000, 0.000000000000000000, 1.000000000000000000 ) ) ;
#305 = ORIENTED_EDGE ( 'NONE', *, *, #393, .T. ) ;
#306 = CARTESIAN_POINT ( 'NONE',  ( 0.000000000000000000, -6.866343926656839381E-24, 0.000000000000000000 ) ) ;
#307 = VERTEX_POINT ( 'NONE', #68 ) ;
#308 = AXIS2_PLACEMENT_3D ( 'NONE', #124, #313, #4 ) ;
#309 = DIRECTION ( 'NONE',  ( -1.000000000000000000, 0.000000000000000000, 0.000000000000000000 ) ) ;
#310 = DIRECTION ( 'NONE',  ( 0.000000000000000000, 0.000000000000000000, 1.000000000000000000 ) ) ;
#311 = SPHERICAL_SURFACE ( 'NONE', #85, 28.74999999999999645 ) ;
#312 = AXIS2_PLACEMENT_3D ( 'NONE', #267, #323, #390 ) ;
#313 = DIRECTION ( 'NONE',  ( -0.000000000000000000, -1.000000000000000000, -0.000000000000000000 ) ) ;
#314 = ADVANCED_FACE ( 'NONE', ( #165 ), #92, .T. ) ;
#315 = CARTESIAN_POINT ( 'NONE',  ( -29.77065545484554931, 214.5717575189339641, 26.62420500042830085 ) ) ;
#316 = CIRCLE ( 'NONE', #370, 371.1299539226669140 ) ;
#317 = CARTESIAN_POINT ( 'NONE',  ( -11.99999999999975131, 235.7500000000000000, -6.194493262045627171E-15 ) ) ;
#318 = ORIENTED_EDGE ( 'NONE', *, *, #299, .T. ) ;
#319 = CARTESIAN_POINT ( 'NONE',  ( -33.67910316912666957, 209.9138509139728512, 22.74137065317119877 ) ) ;
#320 = CIRCLE ( 'NONE', #19, 28.74999999999999645 ) ;
#321 = FACE_OUTER_BOUND ( 'NONE', #290, .T. ) ;
#322 = CARTESIAN_POINT ( 'NONE',  ( -25.19712903455685549, 220.0222740611373808, -29.85834742324906088 ) ) ;
#323 = DIRECTION ( 'NONE',  ( -0.000000000000000000, -1.000000000000000000, -0.000000000000000000 ) ) ;
#324 = AXIS2_PLACEMENT_3D ( 'NONE', #157, #133, #158 ) ;
#325 = CARTESIAN_POINT ( 'NONE',  ( -20.37470374949089802, 225.7694167196317494, -32.10049523423676732 ) ) ;
#326 = DIRECTION ( 'NONE',  ( -1.000000000000000000, 0.000000000000000000, 0.000000000000000000 ) ) ;
#327 = CARTESIAN_POINT ( 'NONE',  ( -39.23948037858194482, 203.2872513984256386, -13.67690759011915169 ) ) ;
#328 = ADVANCED_FACE ( 'NONE', ( #59 ), #54, .F. ) ;
#329 = EDGE_LOOP ( 'NONE', ( #22, #338 ) ) ;
#330 = CARTESIAN_POINT ( 'NONE',  ( -40.79876036327543432, 201.4289738748069283, -8.973231990964386284 ) ) ;
#331 = CARTESIAN_POINT ( 'NONE',  ( 0.000000000000000000, 5.204170427930421283E-14, 0.000000000000000000 ) ) ;
#332 = DIRECTION ( 'NONE',  ( -1.224646799147353207E-16, 0.000000000000000000, -1.000000000000000000 ) ) ;
#333 = ORIENTED_EDGE ( 'NONE', *, *, #106, .F. ) ;
#334 = AXIS2_PLACEMENT_3D ( 'NONE', #188, #337, #57 ) ;
#335 = AXIS2_PLACEMENT_3D ( 'NONE', #306, #377, #89 ) ;
#336 = ORIENTED_EDGE ( 'NONE', *, *, #172, .F. ) ;
#337 = DIRECTION ( 'NONE',  ( -0.000000000000000000, -1.000000000000000000, -0.000000000000000000 ) ) ;
#338 = ORIENTED_EDGE ( 'NONE', *, *, #410, .T. ) ;
#339 = PRODUCT_RELATED_PRODUCT_CATEGORY ( 'part', '', ( #296 ) ) ;
#340 = DIRECTION ( 'NONE',  ( -0.000000000000000000, -1.000000000000000000, -0.000000000000000000 ) ) ;
#341 = DIRECTION ( 'NONE',  ( -1.224646799147353207E-16, 0.000000000000000000, -1.000000000000000000 ) ) ;
#342 = DIRECTION ( 'NONE',  ( -0.000000000000000000, -1.000000000000000000, -0.000000000000000000 ) ) ;
#343 = ORIENTED_EDGE ( 'NONE', *, *, #223, .T. ) ;
#344 = VERTEX_POINT ( 'NONE', #199 ) ;
#345 = AXIS2_PLACEMENT_3D ( 'NONE', #352, #105, #170 ) ;
#346 = DIRECTION ( 'NONE',  ( -0.7660444431189733505, 0.6427876096865449140, -3.954380951106728169E-16 ) ) ;
#347 = ORIENTED_EDGE ( 'NONE', *, *, #79, .F. ) ;
#348 = DIRECTION ( 'NONE',  ( -1.224646799147353207E-16, 0.000000000000000000, -1.000000000000000000 ) ) ;
#349 = ORIENTED_EDGE ( 'NONE', *, *, #356, .F. ) ;
#350 = AXIS2_PLACEMENT_3D ( 'NONE', #12, #363, #326 ) ;
#351 = CARTESIAN_POINT ( 'NONE',  ( -29.82027893026866039, 214.5126185638214622, -26.58287398936825596 ) ) ;
#352 = CARTESIAN_POINT ( 'NONE',  ( 0.000000000000000000, 1.051129754263496902E-13, 0.000000000000000000 ) ) ;
#353 = CARTESIAN_POINT ( 'NONE',  ( -41.92957335697484211, 200.0813234270134728, 1.355821018076692530 ) ) ;
#354 = VERTEX_POINT ( 'NONE', #197 ) ;
#355 = AXIS2_PLACEMENT_3D ( 'NONE', #76, #46, #362 ) ;
#356 = EDGE_CURVE ( 'NONE', #116, #181, #256, .T. ) ;
#357 = CARTESIAN_POINT ( 'NONE',  ( -23.60815236357792557, 221.9159427173248957, -30.70426812714708831 ) ) ;
#358 = ADVANCED_FACE ( 'NONE', ( #160 ), #262, .F. ) ;
#359 = ORIENTED_EDGE ( 'NONE', *, *, #372, .F. ) ;
#360 = DIRECTION ( 'NONE',  ( 0.000000000000000000, 0.000000000000000000, -1.000000000000000000 ) ) ;
#361 = ORIENTED_EDGE ( 'NONE', *, *, #77, .T. ) ;
#362 = DIRECTION ( 'NONE',  ( 0.000000000000000000, 0.000000000000000000, -1.000000000000000000 ) ) ;
#363 = DIRECTION ( 'NONE',  ( -0.000000000000000000, -0.000000000000000000, -1.000000000000000000 ) ) ;
#364 = CIRCLE ( 'NONE', #394, 41.48131516079317294 ) ;
#365 = SPHERICAL_SURFACE ( 'NONE', #185, 28.74999999999999645 ) ;
#366 = VERTEX_POINT ( 'NONE', #1 ) ;
#367 =( LENGTH_UNIT ( ) NAMED_UNIT ( * ) SI_UNIT ( .MILLI., .METRE. ) );
#368 = ORIENTED_EDGE ( 'NONE', *, *, #79, .T. ) ;
#369 = DIRECTION ( 'NONE',  ( -0.000000000000000000, 0.000000000000000000, 1.000000000000000000 ) ) ;
#370 = AXIS2_PLACEMENT_3D ( 'NONE', #192, #309, #251 ) ;
#371 = VERTEX_POINT ( 'NONE', #227 ) ;
#372 = EDGE_CURVE ( 'NONE', #385, #307, #200, .T. ) ;
#373 = CARTESIAN_POINT ( 'NONE',  ( 0.000000000000000000, 0.000000000000000000, 0.000000000000000000 ) ) ;
#374 = FACE_OUTER_BOUND ( 'NONE', #248, .T. ) ;
#375 = PRODUCT_DEFINITION_CONTEXT ( 'detailed design', #228, 'design' ) ;
#376 = ADVANCED_FACE ( 'NONE', ( #281 ), #72, .T. ) ;
#377 = DIRECTION ( 'NONE',  ( -0.000000000000000000, -1.000000000000000000, -0.000000000000000000 ) ) ;
#378 = ORIENTED_EDGE ( 'NONE', *, *, #300, .T. ) ;
#379 = CARTESIAN_POINT ( 'NONE',  ( -18.68112868675113702, 227.7877408849799110, 32.66434083844090708 ) ) ;
#380 = AXIS2_PLACEMENT_3D ( 'NONE', #112, #342, #129 ) ;
#381 = CARTESIAN_POINT ( 'NONE',  ( -11.99999999999977440, 235.7500000000000000, 26.53299832284329440 ) ) ;
#382 = VERTEX_POINT ( 'NONE', #30 ) ;
#383 = CARTESIAN_POINT ( 'NONE',  ( 2.112445960343598798E-15, 254.2499999999999716, 0.000000000000000000 ) ) ;
#384 = CARTESIAN_POINT ( 'NONE',  ( -27.48585118708664510, 217.2946812134102004, 28.35193679256500232 ) ) ;
#385 = VERTEX_POINT ( 'NONE', #381 ) ;
#386 = CIRCLE ( 'NONE', #345, 34.49999999999997158 ) ;
#387 = CARTESIAN_POINT ( 'NONE',  ( 2.067582649361590974, 252.5150921614921060, 1.067302232516089607E-15 ) ) ;
#388 = ORIENTED_EDGE ( 'NONE', *, *, #102, .T. ) ;
#389 =( NAMED_UNIT ( * ) PLANE_ANGLE_UNIT ( ) SI_UNIT ( $, .RADIAN. ) );
#390 = DIRECTION ( 'NONE',  ( 0.000000000000000000, 0.000000000000000000, -1.000000000000000000 ) ) ;
#391 = CARTESIAN_POINT ( 'NONE',  ( -38.96944308920109279, 203.6090693081795564, 14.27259896366646252 ) ) ;
#392 = ORIENTED_EDGE ( 'NONE', *, *, #300, .F. ) ;
#393 = EDGE_CURVE ( 'NONE', #307, #344, #13, .T. ) ;
#394 = AXIS2_PLACEMENT_3D ( 'NONE', #98, #78, #295 ) ;
#395 = AXIS2_PLACEMENT_3D ( 'NONE', #152, #369, #153 ) ;
#396 = CARTESIAN_POINT ( 'NONE',  ( -18.73014567603676284, 227.7293247119005173, -32.65034283506484059 ) ) ;
#397 = DIRECTION ( 'NONE',  ( 0.000000000000000000, 1.000000000000000000, 0.000000000000000000 ) ) ;
#398 = VECTOR ( 'NONE', #34, 1000.000000000000000 ) ;
#399 = CARTESIAN_POINT ( 'NONE',  ( -39.86561819654719585, 202.5410494044064933, 12.01328886682805575 ) ) ;
#400 = DIRECTION ( 'NONE',  ( 0.000000000000000000, 0.000000000000000000, -1.000000000000000000 ) ) ;
#401 = CARTESIAN_POINT ( 'NONE',  ( -41.36420015682090678, 200.7551089694534880, -6.489919095816175876 ) ) ;
#402 = ORIENTED_EDGE ( 'NONE', *, *, #245, .F. ) ;
#403 = DIRECTION ( 'NONE',  ( 1.000000000000000000, 0.000000000000000000, 0.000000000000000000 ) ) ;
#404 = EDGE_LOOP ( 'NONE', ( #368, #378, #261, #236 ) ) ;
#405 = CARTESIAN_POINT ( 'NONE',  ( 0.000000000000000000, 235.7500000000000000, -35.93750000000000000 ) ) ;
#406 = EDGE_LOOP ( 'NONE', ( #246, #56, #113, #253 ) ) ;
#407 = SHAPE_DEFINITION_REPRESENTATION ( #8, #128 ) ;
#408 = DIRECTION ( 'NONE',  ( -1.000000000000000000, 0.000000000000000000, 0.000000000000000000 ) ) ;
#409 = ADVANCED_FACE ( 'NONE', ( #235 ), #104, .T. ) ;
#410 = EDGE_CURVE ( 'NONE', #371, #238, #39, .T. ) ;
#411 = CIRCLE ( 'NONE', #14, 858.3125804631979463 ) ;
#412 = FACE_OUTER_BOUND ( 'NONE', #406, .T. ) ;
#413 = ORIENTED_EDGE ( 'NONE', *, *, #62, .T. ) ;
ENDSEC;
END-ISO-10303-21;
