ISO-10303-21;
HEADER;
FILE_DESCRIPTION (( 'STEP AP214' ),
    '1' );
FILE_NAME ('Sura.STEP',
    '2026-07-30T17:59:44',
    ( '' ),
    ( '' ),
    'SwSTEP 2.0',
    'SolidWorks 2024',
    '' );
FILE_SCHEMA (( 'AUTOMOTIVE_DESIGN' ));
ENDSEC;

DATA;
#1 = AXIS2_PLACEMENT_3D ( 'NONE', #318, #130, #284 ) ;
#2 = ORIENTED_EDGE ( 'NONE', *, *, #13, .T. ) ;
#3 = TOROIDAL_SURFACE ( 'NONE', #227, 1525.706653311018954, 1491.206653311018954 ) ;
#4 = CARTESIAN_POINT ( 'NONE',  ( 0.000000000000000000, 379.5000000000000000, 0.000000000000000000 ) ) ;
#5 = CARTESIAN_POINT ( 'NONE',  ( 0.000000000000000000, 185.0000000000001421, 0.000000000000000000 ) ) ;
#6 = EDGE_CURVE ( 'NONE', #108, #256, #232, .T. ) ;
#7 = ORIENTED_EDGE ( 'NONE', *, *, #266, .F. ) ;
#8 = CARTESIAN_POINT ( 'NONE',  ( 5.281114900858998771E-15, 397.9999999999999432, 0.000000000000000000 ) ) ;
#9 = DIRECTION ( 'NONE',  ( -1.000000000000000000, 0.000000000000000000, 1.224646799147353207E-16 ) ) ;
#10 = CARTESIAN_POINT ( 'NONE',  ( -15.12067284634998465, 355.8287529213093308, -38.05124707869081391 ) ) ;
#11 = CARTESIAN_POINT ( 'NONE',  ( -21.80778450209815489, 360.2876623504089935, -33.59233764959130752 ) ) ;
#12 = CARTESIAN_POINT ( 'NONE',  ( -32.93508017676588651, 379.5000000000000000, -14.38000000000009138 ) ) ;
#13 = EDGE_CURVE ( 'NONE', #191, #304, #86, .T. ) ;
#14 = CARTESIAN_POINT ( 'NONE',  ( -31.14493006641869499, 373.1625365679620927, -20.71746343203797025 ) ) ;
#15 = ORIENTED_EDGE ( 'NONE', *, *, #301, .T. ) ;
#16 = LINE ( 'NONE', #131, #100 ) ;
#17 = SPHERICAL_SURFACE ( 'NONE', #225, 34.49999999999998579 ) ;
#18 = ORIENTED_EDGE ( 'NONE', *, *, #269, .T. ) ;
#19 = EDGE_LOOP ( 'NONE', ( #135, #156, #359 ) ) ;
#20 = CARTESIAN_POINT ( 'NONE',  ( 0.000000000000000000, 9.107298248878237246E-14, 0.000000000000000000 ) ) ;
#21 = CIRCLE ( 'NONE', #127, 46.02010445039983466 ) ;
#22 = DIRECTION ( 'NONE',  ( 0.000000000000000000, 1.000000000000000000, 0.000000000000000000 ) ) ;
#23 = CIRCLE ( 'NONE', #370, 555.6241985274972421 ) ;
#24 = CARTESIAN_POINT ( 'NONE',  ( 0.000000000000000000, 9.107298248878237246E-14, 0.000000000000000000 ) ) ;
#25 = EDGE_CURVE ( 'NONE', #274, #254, #365, .T. ) ;
#26 = PLANE ( 'NONE',  #173 ) ;
#27 = DIRECTION ( 'NONE',  ( 0.000000000000000000, 0.000000000000000000, -1.000000000000000000 ) ) ;
#28 = DIRECTION ( 'NONE',  ( 0.000000000000000000, 0.7071067811865510144, -0.7071067811865441310 ) ) ;
#29 = CARTESIAN_POINT ( 'NONE',  ( 0.000000000000000000, 0.000000000000000000, 0.000000000000000000 ) ) ;
#30 = CARTESIAN_POINT ( 'NONE',  ( 0.000000000000000000, 1.826201454844575323E-13, -34.49999999999997158 ) ) ;
#31 = VERTEX_POINT ( 'NONE', #12 ) ;
#32 = CARTESIAN_POINT ( 'NONE',  ( 0.000000000000000000, 253.9310743748057178, 0.000000000000000000 ) ) ;
#33 = CARTESIAN_POINT ( 'NONE',  ( 21.39332922489361266, 359.9566717726244178, -33.92332822737594000 ) ) ;
#34 = CARTESIAN_POINT ( 'NONE',  ( -6.188283541734118022E-14, 253.9310743748057178, -505.3116985274972421 ) ) ;
#35 = ORIENTED_EDGE ( 'NONE', *, *, #402, .T. ) ;
#36 = CARTESIAN_POINT ( 'NONE',  ( 15.11376073104541184, 355.8239522425694190, -38.05604775743097434 ) ) ;
#37 = ORIENTED_EDGE ( 'NONE', *, *, #237, .T. ) ;
#38 = AXIS2_PLACEMENT_3D ( 'NONE', #32, #306, #215 ) ;
#39 = AXIS2_PLACEMENT_3D ( 'NONE', #57, #265, #331 ) ;
#40 = CIRCLE ( 'NONE', #350, 28.31187913226532515 ) ;
#41 = ORIENTED_EDGE ( 'NONE', *, *, #25, .T. ) ;
#42 = EDGE_CURVE ( 'NONE', #59, #31, #16, .T. ) ;
#43 = CARTESIAN_POINT ( 'NONE',  ( -9.004303125173866107, 353.5486673373040389, -40.33133266269631889 ) ) ;
#44 = ORIENTED_EDGE ( 'NONE', *, *, #305, .F. ) ;
#45 = DIRECTION ( 'NONE',  ( 0.000000000000000000, 0.000000000000000000, 1.000000000000000000 ) ) ;
#46 = EDGE_CURVE ( 'NONE', #321, #319, #387, .T. ) ;
#47 = ORIENTED_EDGE ( 'NONE', *, *, #269, .F. ) ;
#48 = ORIENTED_EDGE ( 'NONE', *, *, #81, .T. ) ;
#49 = CARTESIAN_POINT ( 'NONE',  ( -1.147723111536866458, 352.3687924043495627, -41.51120759565078799 ) ) ;
#50 =( LENGTH_UNIT ( ) NAMED_UNIT ( * ) SI_UNIT ( .MILLI., .METRE. ) );
#51 = APPLICATION_CONTEXT ( 'automotive_design' ) ;
#52 = CARTESIAN_POINT ( 'NONE',  ( -22.52905709263770007, 360.9169815787479934, -32.96301842125232184 ) ) ;
#53 = CIRCLE ( 'NONE', #1, 34.49999999999998579 ) ;
#54 = CARTESIAN_POINT ( 'NONE',  ( -28.31187913226532871, 9.107298248878237246E-14, 0.000000000000000000 ) ) ;
#55 = UNCERTAINTY_MEASURE_WITH_UNIT (LENGTH_MEASURE( 1.000000000000000082E-05 ), #374, 'distance_accuracy_value', 'NONE');
#56 = DIRECTION ( 'NONE',  ( -0.000000000000000000, -1.000000000000000000, -0.000000000000000000 ) ) ;
#57 = CARTESIAN_POINT ( 'NONE',  ( 0.000000000000000000, -9.860761315262647568E-29, 0.000000000000000000 ) ) ;
#58 = SPHERICAL_SURFACE ( 'NONE', #155, 28.74999999999999645 ) ;
#59 = VERTEX_POINT ( 'NONE', #73 ) ;
#60 = CARTESIAN_POINT ( 'NONE',  ( 27.38429421962634791, 366.3482095909072314, -27.53179040909313713 ) ) ;
#61 = ORIENTED_EDGE ( 'NONE', *, *, #77, .F. ) ;
#62 = CARTESIAN_POINT ( 'NONE',  ( 22.84918074527655918, 361.2213765726392580, -32.65862342736109980 ) ) ;
#63 = AXIS2_PLACEMENT_3D ( 'NONE', #4, #96, #102 ) ;
#64 = DIRECTION ( 'NONE',  ( -1.224646799147353207E-16, 0.000000000000000000, -1.000000000000000000 ) ) ;
#65 = ORIENTED_EDGE ( 'NONE', *, *, #301, .F. ) ;
#66 = CARTESIAN_POINT ( 'NONE',  ( -1.760429773774320121E-15, 23.75000000000018119, 0.000000000000000000 ) ) ;
#67 = DIRECTION ( 'NONE',  ( -1.000000000000000000, 0.000000000000000000, 0.000000000000000000 ) ) ;
#68 = ORIENTED_EDGE ( 'NONE', *, *, #208, .F. ) ;
#69 = DIRECTION ( 'NONE',  ( -1.000000000000000000, 0.000000000000000000, 0.000000000000000000 ) ) ;
#70 = ORIENTED_EDGE ( 'NONE', *, *, #208, .T. ) ;
#71 = CIRCLE ( 'NONE', #174, 34.49999999999997158 ) ;
#72 = CARTESIAN_POINT ( 'NONE',  ( -20.66318947044920762, 359.3757760876404745, -34.50422391235966302 ) ) ;
#73 = CARTESIAN_POINT ( 'NONE',  ( -25.32223528837846160, 379.5000000000000000, -14.38000000000004874 ) ) ;
#74 = CARTESIAN_POINT ( 'NONE',  ( -4.599424933384234748, 352.6467132240191518, -41.23328677598135528 ) ) ;
#75 = EDGE_LOOP ( 'NONE', ( #310, #320, #391, #337, #47 ) ) ;
#76 = PRODUCT_CONTEXT ( 'NONE', #51, 'mechanical' ) ;
#77 = EDGE_CURVE ( 'NONE', #289, #254, #21, .T. ) ;
#78 = ORIENTED_EDGE ( 'NONE', *, *, #160, .F. ) ;
#79 = ORIENTED_EDGE ( 'NONE', *, *, #97, .F. ) ;
#80 = MANIFOLD_SOLID_BREP ( 'Odebrat povrchem1', #166 ) ;
#81 = EDGE_CURVE ( 'NONE', #319, #191, #328, .T. ) ;
#82 = DIRECTION ( 'NONE',  ( 0.000000000000000000, 1.000000000000000000, 0.000000000000000000 ) ) ;
#83 = CARTESIAN_POINT ( 'NONE',  ( -32.63841182494554971, 377.8830036297618449, -15.99699637023825538 ) ) ;
#84 = FILL_AREA_STYLE_COLOUR ( '', #333 ) ;
#85 = ADVANCED_FACE ( 'NONE', ( #326 ), #143, .T. ) ;
#86 = CIRCLE ( 'NONE', #369, 29.12043955712208643 ) ;
#87 = DIRECTION ( 'NONE',  ( 0.000000000000000000, 0.000000000000000000, 1.000000000000000000 ) ) ;
#88 = DIRECTION ( 'NONE',  ( -0.000000000000000000, -1.000000000000000000, -0.000000000000000000 ) ) ;
#89 = FACE_OUTER_BOUND ( 'NONE', #129, .T. ) ;
#90 = CIRCLE ( 'NONE', #340, 35.93750000000000000 ) ;
#91 = CARTESIAN_POINT ( 'NONE',  ( 3.989918806359320946, 352.5841005742037737, -41.29589942579645623 ) ) ;
#92 = CIRCLE ( 'NONE', #314, 28.74999999999999645 ) ;
#93 = DIRECTION ( 'NONE',  ( 1.000000000000000000, 0.000000000000000000, 0.000000000000000000 ) ) ;
#94 = CARTESIAN_POINT ( 'NONE',  ( 2.285667541796940760, 352.4119293464941620, -41.46807065350625976 ) ) ;
#95 = CARTESIAN_POINT ( 'NONE',  ( 0.000000000000000000, -4.999999999999817035, 0.000000000000000000 ) ) ;
#96 = DIRECTION ( 'NONE',  ( -0.000000000000000000, -1.000000000000000000, -0.000000000000000000 ) ) ;
#97 = EDGE_CURVE ( 'NONE', #168, #134, #40, .T. ) ;
#98 = APPLICATION_PROTOCOL_DEFINITION ( 'draft international standard', 'automotive_design', 1998, #51 ) ;
#99 = DIRECTION ( 'NONE',  ( 0.000000000000000000, 0.000000000000000000, -1.000000000000000000 ) ) ;
#100 = VECTOR ( 'NONE', #105, 1000.000000000000000 ) ;
#101 = DIRECTION ( 'NONE',  ( -0.000000000000000000, -0.000000000000000000, -1.000000000000000000 ) ) ;
#102 = DIRECTION ( 'NONE',  ( 0.000000000000000000, 0.000000000000000000, -1.000000000000000000 ) ) ;
#103 = DIRECTION ( 'NONE',  ( -0.000000000000000000, -0.000000000000000000, -1.000000000000000000 ) ) ;
#104 = CARTESIAN_POINT ( 'NONE',  ( -25.79607700994660391, 364.2373065926935851, -29.64269340730662350 ) ) ;
#105 = DIRECTION ( 'NONE',  ( -1.000000000000000000, 0.000000000000000000, 0.000000000000000000 ) ) ;
#106 = CARTESIAN_POINT ( 'NONE',  ( -24.57947945991445238, 362.8629927779387003, -31.01700722206153316 ) ) ;
#107 = EDGE_LOOP ( 'NONE', ( #183, #198, #230, #78, #229 ) ) ;
#108 = VERTEX_POINT ( 'NONE', #175 ) ;
#109 = ORIENTED_EDGE ( 'NONE', *, *, #6, .F. ) ;
#110 = DIRECTION ( 'NONE',  ( -0.000000000000000000, -1.000000000000000000, -0.000000000000000000 ) ) ;
#111 = CARTESIAN_POINT ( 'NONE',  ( 3.168599172329815493E-15, 363.5000000000000000, 0.000000000000000000 ) ) ;
#112 = ADVANCED_FACE ( 'NONE', ( #89 ), #263, .F. ) ;
#113 = CARTESIAN_POINT ( 'NONE',  ( 5.281114900858998771E-15, 379.5000000000000000, 0.000000000000000000 ) ) ;
#114 = CARTESIAN_POINT ( 'NONE',  ( 5.281114900858998771E-15, 395.9399999999998840, 2.060000000000015152 ) ) ;
#115 = AXIS2_PLACEMENT_3D ( 'NONE', #128, #103, #69 ) ;
#116 = UNCERTAINTY_MEASURE_WITH_UNIT (LENGTH_MEASURE( 1.000000000000000082E-05 ), #50, 'distance_accuracy_value', 'NONE');
#117 = CARTESIAN_POINT ( 'NONE',  ( 29.12043955712209353, 379.5000000000000000, -3.566225309339353077E-15 ) ) ;
#118 = PLANE ( 'NONE',  #185 ) ;
#119 = DIRECTION ( 'NONE',  ( 1.000000000000000000, 0.000000000000000000, 0.000000000000000000 ) ) ;
#120 = AXIS2_PLACEMENT_3D ( 'NONE', #113, #56, #329 ) ;
#121 = DIRECTION ( 'NONE',  ( 0.000000000000000000, 0.000000000000000000, -1.000000000000000000 ) ) ;
#122 = ADVANCED_FACE ( 'NONE', ( #210, #177 ), #26, .T. ) ;
#123 = CARTESIAN_POINT ( 'NONE',  ( 31.13864350624658073, 373.1458619392309402, -20.73413806076916899 ) ) ;
#124 = EDGE_LOOP ( 'NONE', ( #65, #37, #79 ) ) ;
#125 = DIRECTION ( 'NONE',  ( -1.224646799147353207E-16, 0.000000000000000000, -1.000000000000000000 ) ) ;
#126 = CARTESIAN_POINT ( 'NONE',  ( 22.49620372301742677, 360.9008379443499734, -32.97916205565044834 ) ) ;
#127 = AXIS2_PLACEMENT_3D ( 'NONE', #162, #317, #287 ) ;
#128 = CARTESIAN_POINT ( 'NONE',  ( 5.281114900858998771E-15, 397.9999999999999432, 0.000000000000000000 ) ) ;
#129 = EDGE_LOOP ( 'NONE', ( #355, #290, #271, #70 ) ) ;
#130 = DIRECTION ( 'NONE',  ( -0.000000000000000000, 0.000000000000000000, 1.000000000000000000 ) ) ;
#131 = CARTESIAN_POINT ( 'NONE',  ( 0.000000000000000000, 379.5000000000000000, -14.38000000000009138 ) ) ;
#132 = CARTESIAN_POINT ( 'NONE',  ( 32.93508017676588651, 379.5000000000000000, -14.38000000000009138 ) ) ;
#133 = EDGE_LOOP ( 'NONE', ( #282, #335, #48, #2, #152, #309, #7 ) ) ;
#134 = VERTEX_POINT ( 'NONE', #393 ) ;
#135 = ORIENTED_EDGE ( 'NONE', *, *, #13, .F. ) ;
#136 = EDGE_LOOP ( 'NONE', ( #202, #194, #345, #41, #61 ) ) ;
#137 = ADVANCED_FACE ( 'NONE', ( #299 ), #3, .F. ) ;
#138 = DIRECTION ( 'NONE',  ( 0.000000000000000000, 0.000000000000000000, -1.000000000000000000 ) ) ;
#139 = CIRCLE ( 'NONE', #262, 34.49999999999998579 ) ;
#140 = SURFACE_STYLE_FILL_AREA ( #292 ) ;
#141 = CARTESIAN_POINT ( 'NONE',  ( 5.018455897798352175E-15, 379.5000000000000000, 35.93750000000000000 ) ) ;
#142 = CARTESIAN_POINT ( 'NONE',  ( 0.000000000000000000, -9.860761315262647568E-29, 0.000000000000000000 ) ) ;
#143 = PLANE ( 'NONE',  #213 ) ;
#144 = DIRECTION ( 'NONE',  ( 0.000000000000000000, 0.7071067811865441310, 0.7071067811865510144 ) ) ;
#145 = VERTEX_POINT ( 'NONE', #141 ) ;
#146 = DIRECTION ( 'NONE',  ( 0.000000000000000000, 0.000000000000000000, 1.000000000000000000 ) ) ;
#147 = PRODUCT_DEFINITION_FORMATION_WITH_SPECIFIED_SOURCE ( 'ANY', '', #346, .NOT_KNOWN. ) ;
#148 = DIRECTION ( 'NONE',  ( -0.000000000000000000, 0.000000000000000000, 1.000000000000000000 ) ) ;
#149 = CARTESIAN_POINT ( 'NONE',  ( 0.000000000000000000, -4.999999999999817035, 0.000000000000000000 ) ) ;
#150 = ORIENTED_EDGE ( 'NONE', *, *, #343, .T. ) ;
#151 = CARTESIAN_POINT ( 'NONE',  ( 0.000000000000000000, -4.999999999999817035, 0.000000000000000000 ) ) ;
#152 = ORIENTED_EDGE ( 'NONE', *, *, #160, .T. ) ;
#153 = CARTESIAN_POINT ( 'NONE',  ( 21.76870312637354843, 360.2688030346022288, -33.61119696539793011 ) ) ;
#154 = AXIS2_PLACEMENT_3D ( 'NONE', #325, #234, #172 ) ;
#155 = AXIS2_PLACEMENT_3D ( 'NONE', #151, #344, #67 ) ;
#156 = ORIENTED_EDGE ( 'NONE', *, *, #252, .T. ) ;
#157 =( GEOMETRIC_REPRESENTATION_CONTEXT ( 3 ) GLOBAL_UNCERTAINTY_ASSIGNED_CONTEXT ( ( #116 ) ) GLOBAL_UNIT_ASSIGNED_CONTEXT ( ( #50, #362, #322 ) ) REPRESENTATION_CONTEXT ( 'NONE', 'WORKASPACE' ) );
#158 = CARTESIAN_POINT ( 'NONE',  ( 0.000000000000000000, 379.5000000000000000, 0.000000000000000000 ) ) ;
#159 = DIRECTION ( 'NONE',  ( 0.000000000000000000, 0.000000000000000000, -1.000000000000000000 ) ) ;
#160 = EDGE_CURVE ( 'NONE', #304, #59, #307, .T. ) ;
#161 = CARTESIAN_POINT ( 'NONE',  ( -28.86105995805394286, 368.6130174588094519, -25.26698254119072118 ) ) ;
#162 = CARTESIAN_POINT ( 'NONE',  ( 0.000000000000000000, 185.0000000000001421, 0.000000000000000000 ) ) ;
#163 = EDGE_CURVE ( 'NONE', #319, #59, #257, .T. ) ;
#164 = CARTESIAN_POINT ( 'NONE',  ( 0.000000000000000000, 1.826201454844575323E-13, 0.000000000000000000 ) ) ;
#165 = AXIS2_PLACEMENT_3D ( 'NONE', #95, #101, #380 ) ;
#166 = CLOSED_SHELL ( 'NONE', ( #395, #137, #356, #180, #85, #364, #386, #122, #112, #276, #294 ) ) ;
#167 = ORIENTED_EDGE ( 'NONE', *, *, #25, .F. ) ;
#168 = VERTEX_POINT ( 'NONE', #54 ) ;
#169 = CARTESIAN_POINT ( 'NONE',  ( -0.5733006685431358829, 352.3543242872194128, -41.52567571278112268 ) ) ;
#170 = DIRECTION ( 'NONE',  ( 0.000000000000000000, -0.000000000000000000, 1.000000000000000000 ) ) ;
#171 = CIRCLE ( 'NONE', #63, 35.93750000000000000 ) ;
#172 = DIRECTION ( 'NONE',  ( 0.000000000000000000, 0.000000000000000000, 1.000000000000000000 ) ) ;
#173 = AXIS2_PLACEMENT_3D ( 'NONE', #204, #178, #363 ) ;
#174 = AXIS2_PLACEMENT_3D ( 'NONE', #209, #268, #400 ) ;
#175 = CARTESIAN_POINT ( 'NONE',  ( 4.930434409109633132E-15, 1.826201454844575323E-13, 34.49999999999997158 ) ) ;
#176 = DIRECTION ( 'NONE',  ( 0.000000000000000000, 0.000000000000000000, -1.000000000000000000 ) ) ;
#177 = FACE_BOUND ( 'NONE', #389, .T. ) ;
#178 = DIRECTION ( 'NONE',  ( 0.000000000000000000, -1.000000000000000000, -0.000000000000000000 ) ) ;
#179 = DIRECTION ( 'NONE',  ( -0.000000000000000000, -1.000000000000000000, -0.000000000000000000 ) ) ;
#180 = ADVANCED_FACE ( 'NONE', ( #397 ), #196, .T. ) ;
#181 = DIRECTION ( 'NONE',  ( 1.000000000000000000, 0.000000000000000000, -1.224646799147353207E-16 ) ) ;
#182 = CARTESIAN_POINT ( 'NONE',  ( 0.000000000000000000, -4.999999999999817035, 0.000000000000000000 ) ) ;
#183 = ORIENTED_EDGE ( 'NONE', *, *, #252, .F. ) ;
#184 = SHAPE_DEFINITION_REPRESENTATION ( #283, #259 ) ;
#185 = AXIS2_PLACEMENT_3D ( 'NONE', #300, #28, #144 ) ;
#186 = CARTESIAN_POINT ( 'NONE',  ( 30.47242114391705314, 371.5968210860198155, -22.28317891398048545 ) ) ;
#187 = AXIS2_PLACEMENT_3D ( 'NONE', #114, #236, #207 ) ;
#188 = PRODUCT_RELATED_PRODUCT_CATEGORY ( 'part', '', ( #346 ) ) ;
#189 = CARTESIAN_POINT ( 'NONE',  ( 11.12275229512102470, 354.1512921326541914, -39.72870786734623039 ) ) ;
#190 = CARTESIAN_POINT ( 'NONE',  ( 5.635837361160896553E-15, 185.0000000000001421, 46.02010445039983466 ) ) ;
#191 = VERTEX_POINT ( 'NONE', #117 ) ;
#192 = FACE_OUTER_BOUND ( 'NONE', #136, .T. ) ;
#193 = AXIS2_PLACEMENT_3D ( 'NONE', #217, #181, #125 ) ;
#194 = ORIENTED_EDGE ( 'NONE', *, *, #266, .T. ) ;
#195 = AXIS2_PLACEMENT_3D ( 'NONE', #223, #231, #348 ) ;
#196 = TOROIDAL_SURFACE ( 'NONE', #351, -505.3116985274972421, 555.6241985274972421 ) ;
#197 = CARTESIAN_POINT ( 'NONE',  ( -2.298847354999698389, 352.4271267149509868, -41.45287328504944924 ) ) ;
#198 = ORIENTED_EDGE ( 'NONE', *, *, #81, .F. ) ;
#199 = EDGE_CURVE ( 'NONE', #256, #108, #71, .T. ) ;
#200 = CARTESIAN_POINT ( 'NONE',  ( -2.877896266601096098, 352.4712602230881089, -41.40873977691221342 ) ) ;
#201 = ORIENTED_EDGE ( 'NONE', *, *, #212, .T. ) ;
#202 = ORIENTED_EDGE ( 'NONE', *, *, #212, .F. ) ;
#203 = ORIENTED_EDGE ( 'NONE', *, *, #97, .T. ) ;
#204 = CARTESIAN_POINT ( 'NONE',  ( 34.49999999999997868, 9.131007274222876615E-14, 0.000000000000000000 ) ) ;
#205 = CARTESIAN_POINT ( 'NONE',  ( -27.42194133770377462, 366.4006730392854934, -27.47932696071488579 ) ) ;
#206 = AXIS2_PLACEMENT_3D ( 'NONE', #267, #396, #87 ) ;
#207 = DIRECTION ( 'NONE',  ( 0.000000000000000000, 0.7071067811865443531, 0.7071067811865507924 ) ) ;
#208 = EDGE_CURVE ( 'NONE', #254, #289, #242, .T. ) ;
#209 = CARTESIAN_POINT ( 'NONE',  ( 0.000000000000000000, 1.826201454844575323E-13, 0.000000000000000000 ) ) ;
#210 = FACE_OUTER_BOUND ( 'NONE', #279, .T. ) ;
#211 = AXIS2_PLACEMENT_3D ( 'NONE', #182, #148, #119 ) ;
#212 = EDGE_CURVE ( 'NONE', #145, #289, #23, .T. ) ;
#213 = AXIS2_PLACEMENT_3D ( 'NONE', #367, #82, #170 ) ;
#214 = CARTESIAN_POINT ( 'NONE',  ( 29.26468265737570462, 369.3111694062492347, -24.56883059375095968 ) ) ;
#215 = DIRECTION ( 'NONE',  ( 0.000000000000000000, 0.000000000000000000, -1.000000000000000000 ) ) ;
#216 = CARTESIAN_POINT ( 'NONE',  ( 24.56325933616195201, 362.8453914632067381, -31.03460853679355225 ) ) ;
#217 = CARTESIAN_POINT ( 'NONE',  ( 1.868451769415159833E-13, -9.860761315262647568E-29, 1525.706653311018954 ) ) ;
#218 = CARTESIAN_POINT ( 'NONE',  ( 5.688599418417961573, 352.8281194472885431, -41.05188055271188574 ) ) ;
#219 = DIRECTION ( 'NONE',  ( -0.000000000000000000, -1.000000000000000000, -0.000000000000000000 ) ) ;
#220 = CARTESIAN_POINT ( 'NONE',  ( 27.88685059331941574, 367.0746458540473327, -26.80535414595289367 ) ) ;
#221 = CARTESIAN_POINT ( 'NONE',  ( 20.24312627904442152, 359.0428275494564332, -34.83717245054392464 ) ) ;
#222 = CARTESIAN_POINT ( 'NONE',  ( -5.722998609375696155, 352.8199946575603576, -41.06000534244009259 ) ) ;
#223 = CARTESIAN_POINT ( 'NONE',  ( 0.000000000000000000, 253.9310743748057178, 505.3116985274972421 ) ) ;
#224 = CARTESIAN_POINT ( 'NONE',  ( -12.14507336967569273, 354.5926637110899833, -39.28733628891043850 ) ) ;
#225 = AXIS2_PLACEMENT_3D ( 'NONE', #8, #311, #249 ) ;
#226 = CARTESIAN_POINT ( 'NONE',  ( 0.000000000000000000, 379.5000000000000000, -14.38000000000009138 ) ) ;
#227 = AXIS2_PLACEMENT_3D ( 'NONE', #142, #110, #233 ) ;
#228 = CARTESIAN_POINT ( 'NONE',  ( -19.05039636133448511, 358.2041078937380121, -35.67589210626223206 ) ) ;
#229 = ORIENTED_EDGE ( 'NONE', *, *, #323, .T. ) ;
#230 = ORIENTED_EDGE ( 'NONE', *, *, #163, .T. ) ;
#231 = DIRECTION ( 'NONE',  ( -1.000000000000000000, 0.000000000000000000, 0.000000000000000000 ) ) ;
#232 = CIRCLE ( 'NONE', #399, 34.49999999999997158 ) ;
#233 = DIRECTION ( 'NONE',  ( 0.000000000000000000, 0.000000000000000000, -1.000000000000000000 ) ) ;
#234 = DIRECTION ( 'NONE',  ( -1.000000000000000000, 0.000000000000000000, 0.000000000000000000 ) ) ;
#235 = APPLICATION_CONTEXT ( 'automotive_design' ) ;
#236 = DIRECTION ( 'NONE',  ( 0.000000000000000000, 0.7071067811865510144, -0.7071067811865441310 ) ) ;
#237 = EDGE_CURVE ( 'NONE', #382, #134, #92, .T. ) ;
#238 = AXIS2_PLACEMENT_3D ( 'NONE', #29, #146, #93 ) ;
#239 = CARTESIAN_POINT ( 'NONE',  ( 0.000000000000000000, 253.9310743748057178, 0.000000000000000000 ) ) ;
#240 = CARTESIAN_POINT ( 'NONE',  ( 28.82650221190158746, 368.5549901645447903, -25.32500983545557816 ) ) ;
#241 = AXIS2_PLACEMENT_3D ( 'NONE', #20, #313, #138 ) ;
#242 = CIRCLE ( 'NONE', #295, 46.02010445039983466 ) ;
#243 = DIRECTION ( 'NONE',  ( -1.224646799147353207E-16, 0.000000000000000000, -1.000000000000000000 ) ) ;
#244 = FACE_OUTER_BOUND ( 'NONE', #124, .T. ) ;
#245 = CARTESIAN_POINT ( 'NONE',  ( 6.239649946583016193E-21, 352.3543242872192991, -41.52567571278103742 ) ) ;
#246 = DIRECTION ( 'NONE',  ( -1.000000000000000000, 0.000000000000000000, 1.224646799147353207E-16 ) ) ;
#247 = ORIENTED_EDGE ( 'NONE', *, *, #371, .T. ) ;
#248 = DIRECTION ( 'NONE',  ( 1.000000000000000000, 0.000000000000000000, -1.224646799147353207E-16 ) ) ;
#249 = DIRECTION ( 'NONE',  ( -1.000000000000000000, 0.000000000000000000, 0.000000000000000000 ) ) ;
#250 = CARTESIAN_POINT ( 'NONE',  ( -30.48411497265463765, 371.6242991268139804, -22.25570087318626733 ) ) ;
#251 = ORIENTED_EDGE ( 'NONE', *, *, #6, .T. ) ;
#252 = EDGE_CURVE ( 'NONE', #191, #357, #139, .T. ) ;
#253 = CARTESIAN_POINT ( 'NONE',  ( -27.92660434078673859, 367.1339639457436874, -26.74603605425646791 ) ) ;
#254 = VERTEX_POINT ( 'NONE', #378 ) ;
#255 = CARTESIAN_POINT ( 'NONE',  ( -29.29204206338851080, 369.3603835626361160, -24.51961643736422047 ) ) ;
#256 = VERTEX_POINT ( 'NONE', #30 ) ;
#257 = CIRCLE ( 'NONE', #187, 34.37677704497615849 ) ;
#258 = ORIENTED_EDGE ( 'NONE', *, *, #199, .T. ) ;
#259 = ADVANCED_BREP_SHAPE_REPRESENTATION ( 'Sura', ( #80, #238 ), #272 ) ;
#260 = CARTESIAN_POINT ( 'NONE',  ( 5.281114900858998771E-15, 379.5000000000000000, 0.000000000000000000 ) ) ;
#261 = DIRECTION ( 'NONE',  ( -0.000000000000000000, -1.000000000000000000, -0.000000000000000000 ) ) ;
#262 = AXIS2_PLACEMENT_3D ( 'NONE', #375, #243, #246 ) ;
#263 = TOROIDAL_SURFACE ( 'NONE', #39, 1525.706653311018954, 1491.206653311018954 ) ;
#264 = FACE_OUTER_BOUND ( 'NONE', #19, .T. ) ;
#265 = DIRECTION ( 'NONE',  ( -0.000000000000000000, -1.000000000000000000, -0.000000000000000000 ) ) ;
#266 = EDGE_CURVE ( 'NONE', #145, #31, #171, .T. ) ;
#267 = CARTESIAN_POINT ( 'NONE',  ( 5.281114900858998771E-15, 379.5000000000000000, 0.000000000000000000 ) ) ;
#268 = DIRECTION ( 'NONE',  ( -0.000000000000000000, -1.000000000000000000, -0.000000000000000000 ) ) ;
#269 = EDGE_CURVE ( 'NONE', #274, #321, #353, .T. ) ;
#270 = CARTESIAN_POINT ( 'NONE',  ( 6.252429138010260345, 352.9287072500089266, -40.95129274999153068 ) ) ;
#271 = ORIENTED_EDGE ( 'NONE', *, *, #305, .T. ) ;
#272 =( GEOMETRIC_REPRESENTATION_CONTEXT ( 3 ) GLOBAL_UNCERTAINTY_ASSIGNED_CONTEXT ( ( #55 ) ) GLOBAL_UNIT_ASSIGNED_CONTEXT ( ( #374, #277, #377 ) ) REPRESENTATION_CONTEXT ( 'NONE', 'WORKASPACE' ) );
#273 = CARTESIAN_POINT ( 'NONE',  ( -29.12043955712207932, 379.5000000000000000, 0.000000000000000000 ) ) ;
#274 = VERTEX_POINT ( 'NONE', #334 ) ;
#275 = FACE_OUTER_BOUND ( 'NONE', #107, .T. ) ;
#276 = ADVANCED_FACE ( 'NONE', ( #336 ), #58, .F. ) ;
#277 =( NAMED_UNIT ( * ) PLANE_ANGLE_UNIT ( ) SI_UNIT ( $, .RADIAN. ) );
#278 = CARTESIAN_POINT ( 'NONE',  ( 1.145066953113449415, 352.3543242872192991, -41.52567571278112979 ) ) ;
#279 = EDGE_LOOP ( 'NONE', ( #258, #251 ) ) ;
#280 = CARTESIAN_POINT ( 'NONE',  ( -16.94088870636165822, 356.8125134731795356, -37.06748652682075829 ) ) ;
#281 = PRESENTATION_LAYER_ASSIGNMENT (  '', '', ( #360 ) ) ;
#282 = ORIENTED_EDGE ( 'NONE', *, *, #371, .F. ) ;
#283 = PRODUCT_DEFINITION_SHAPE ( 'NONE', 'NONE',  #298 ) ;
#284 = DIRECTION ( 'NONE',  ( 1.000000000000000000, 0.000000000000000000, 0.000000000000000000 ) ) ;
#285 = EDGE_LOOP ( 'NONE', ( #379, #15, #373 ) ) ;
#286 = CARTESIAN_POINT ( 'NONE',  ( -32.22215862882122650, 376.2918714872865849, -17.58812851271351008 ) ) ;
#287 = DIRECTION ( 'NONE',  ( 0.000000000000000000, 0.000000000000000000, -1.000000000000000000 ) ) ;
#288 = DIRECTION ( 'NONE',  ( -0.000000000000000000, -1.000000000000000000, -0.000000000000000000 ) ) ;
#289 = VERTEX_POINT ( 'NONE', #190 ) ;
#290 = ORIENTED_EDGE ( 'NONE', *, *, #199, .F. ) ;
#291 = CARTESIAN_POINT ( 'NONE',  ( 6.239649946583016193E-21, 352.3543242872192991, -41.52567571278103742 ) ) ;
#292 = FILL_AREA_STYLE ('',( #84 ) ) ;
#293 = MECHANICAL_DESIGN_GEOMETRIC_PRESENTATION_REPRESENTATION (  '', ( #360 ), #157 ) ;
#294 = ADVANCED_FACE ( 'NONE', ( #401 ), #118, .T. ) ;
#295 = AXIS2_PLACEMENT_3D ( 'NONE', #5, #179, #99 ) ;
#296 = CARTESIAN_POINT ( 'NONE',  ( -19.46490842406307564, 358.4913747290053152, -35.38862527099487920 ) ) ;
#297 = SURFACE_STYLE_USAGE ( .BOTH. , #366 ) ;
#298 = PRODUCT_DEFINITION ( 'UNKNOWN', '', #147, #394 ) ;
#299 = FACE_OUTER_BOUND ( 'NONE', #388, .T. ) ;
#300 = CARTESIAN_POINT ( 'NONE',  ( 0.000000000000000000, 196.9400000000019304, -196.9399999999999409 ) ) ;
#301 = EDGE_CURVE ( 'NONE', #382, #168, #332, .T. ) ;
#302 = APPLICATION_PROTOCOL_DEFINITION ( 'draft international standard', 'automotive_design', 1998, #235 ) ;
#303 = CARTESIAN_POINT ( 'NONE',  ( 9.023576366848512720, 353.4945863282183609, -40.38541367178214614 ) ) ;
#304 = VERTEX_POINT ( 'NONE', #273 ) ;
#305 = EDGE_CURVE ( 'NONE', #256, #254, #398, .T. ) ;
#306 = DIRECTION ( 'NONE',  ( -0.000000000000000000, -1.000000000000000000, -0.000000000000000000 ) ) ;
#307 = CIRCLE ( 'NONE', #206, 29.12043955712208643 ) ;
#308 = CARTESIAN_POINT ( 'NONE',  ( 32.63854184515412271, 377.8837123073271869, -15.99628769267283701 ) ) ;
#309 = ORIENTED_EDGE ( 'NONE', *, *, #42, .T. ) ;
#310 = ORIENTED_EDGE ( 'NONE', *, *, #338, .F. ) ;
#311 = DIRECTION ( 'NONE',  ( -0.000000000000000000, -0.000000000000000000, -1.000000000000000000 ) ) ;
#312 = CARTESIAN_POINT ( 'NONE',  ( 4.556892088339925095, 352.6558133381667517, -41.22418666183363456 ) ) ;
#313 = DIRECTION ( 'NONE',  ( 0.000000000000000000, 1.000000000000000000, 0.000000000000000000 ) ) ;
#314 = AXIS2_PLACEMENT_3D ( 'NONE', #149, #64, #9 ) ;
#315 = ORIENTED_EDGE ( 'NONE', *, *, #77, .T. ) ;
#316 = CARTESIAN_POINT ( 'NONE',  ( -11.11554846633135618, 354.2174135403248556, -39.66258645967553065 ) ) ;
#317 = DIRECTION ( 'NONE',  ( -0.000000000000000000, -1.000000000000000000, -0.000000000000000000 ) ) ;
#318 = CARTESIAN_POINT ( 'NONE',  ( 5.281114900858998771E-15, 397.9999999999999432, 0.000000000000000000 ) ) ;
#319 = VERTEX_POINT ( 'NONE', #361 ) ;
#320 = ORIENTED_EDGE ( 'NONE', *, *, #42, .F. ) ;
#321 = VERTEX_POINT ( 'NONE', #132 ) ;
#322 =( NAMED_UNIT ( * ) SI_UNIT ( $, .STERADIAN. ) SOLID_ANGLE_UNIT ( ) );
#323 = EDGE_CURVE ( 'NONE', #304, #357, #53, .T. ) ;
#324 = B_SPLINE_CURVE_WITH_KNOTS ( 'NONE', 3,
 ( #383, #83, #286, #14, #250, #255, #161, #253, #205, #104, #106, #52, #11, #72, #385, #296, #228, #280, #10, #354, #224, #316, #349, #43, #381, #222, #74, #200, #197, #49, #169, #291 ),
 .UNSPECIFIED., .F., .F.,
 ( 4, 2, 2, 2, 2, 2, 2, 2, 2, 2, 2, 2, 2, 2, 2, 4 ),
 ( 2.812057476554502335E-07, 0.006820915827397803360, 0.01364155044904794868, 0.01705186775987296496, 0.02046218507069798645, 0.02728281969234791493, 0.03069313700317288091, 0.03239829565858540206, 0.03410345431399792321, 0.04092408893564820904, 0.04262924759106076489, 0.04433440624647332073, 0.04774472355729849488, 0.05115504086812366208, 0.05286019952353625262, 0.05456535817894883622 ),
 .UNSPECIFIED. ) ;
#325 = CARTESIAN_POINT ( 'NONE',  ( 0.000000000000000000, -9.860761315262647568E-29, -1525.706653311018954 ) ) ;
#326 = FACE_OUTER_BOUND ( 'NONE', #133, .T. ) ;
#327 = CIRCLE ( 'NONE', #193, 1491.206653311018954 ) ;
#328 = CIRCLE ( 'NONE', #120, 29.12043955712208643 ) ;
#329 = DIRECTION ( 'NONE',  ( -1.776356839400250465E-15, 0.000000000000000000, 1.000000000000000000 ) ) ;
#330 = PRESENTATION_STYLE_ASSIGNMENT (( #297 ) ) ;
#331 = DIRECTION ( 'NONE',  ( 0.000000000000000000, 0.000000000000000000, -1.000000000000000000 ) ) ;
#332 = CIRCLE ( 'NONE', #211, 28.74999999999999645 ) ;
#333 = COLOUR_RGB ( '',0.7921568627450980005, 0.8196078431372548767, 0.9333333333333333481 ) ;
#334 = CARTESIAN_POINT ( 'NONE',  ( 6.239649946583016193E-21, 352.3543242872192991, -41.52567571278103742 ) ) ;
#335 = ORIENTED_EDGE ( 'NONE', *, *, #46, .T. ) ;
#336 = FACE_OUTER_BOUND ( 'NONE', #285, .T. ) ;
#337 = ORIENTED_EDGE ( 'NONE', *, *, #46, .F. ) ;
#338 = EDGE_CURVE ( 'NONE', #31, #274, #324, .T. ) ;
#339 = CARTESIAN_POINT ( 'NONE',  ( 19.44234435706690434, 358.4616831614038119, -35.41831683859653168 ) ) ;
#340 = AXIS2_PLACEMENT_3D ( 'NONE', #158, #219, #121 ) ;
#341 = SPHERICAL_SURFACE ( 'NONE', #165, 28.74999999999999645 ) ;
#342 = CARTESIAN_POINT ( 'NONE',  ( 32.93508017676588651, 379.5000000000000000, -14.38000000000009138 ) ) ;
#343 = EDGE_CURVE ( 'NONE', #134, #168, #358, .T. ) ;
#344 = DIRECTION ( 'NONE',  ( -0.000000000000000000, -0.000000000000000000, -1.000000000000000000 ) ) ;
#345 = ORIENTED_EDGE ( 'NONE', *, *, #338, .T. ) ;
#346 = PRODUCT ( 'Sura', 'Sura', '', ( #76 ) ) ;
#347 = SPHERICAL_SURFACE ( 'NONE', #115, 34.49999999999998579 ) ;
#348 = DIRECTION ( 'NONE',  ( 0.000000000000000000, 0.000000000000000000, 1.000000000000000000 ) ) ;
#349 = CARTESIAN_POINT ( 'NONE',  ( -10.59044139724794675, 354.0403187224861767, -39.83968127751409583 ) ) ;
#350 = AXIS2_PLACEMENT_3D ( 'NONE', #24, #22, #176 ) ;
#351 = AXIS2_PLACEMENT_3D ( 'NONE', #239, #88, #27 ) ;
#352 = DIRECTION ( 'NONE',  ( -1.000000000000000000, 0.000000000000000000, 0.000000000000000000 ) ) ;
#353 = B_SPLINE_CURVE_WITH_KNOTS ( 'NONE', 3,
 ( #245, #278, #94, #91, #312, #218, #270, #303, #189, #36, #372, #339, #221, #33, #153, #126, #62, #216, #376, #60, #220, #240, #214, #186, #123, #403, #308, #342 ),
 .UNSPECIFIED., .F., .F.,
 ( 4, 2, 2, 2, 2, 2, 2, 2, 2, 2, 2, 2, 2, 4 ),
 ( 0.05456535817894883622, 0.05797111179701099765, 0.05967398860604208183, 0.06137686541507316601, 0.06818837265119744029, 0.07499987988732170763, 0.07840563350538388987, 0.08010851031441493242, 0.08181138712344597497, 0.08862289435957018680, 0.09202864797763229965, 0.09543440159569441250, 0.1022459088318186382, 0.1090574160679428639 ),
 .UNSPECIFIED. ) ;
#354 = CARTESIAN_POINT ( 'NONE',  ( -12.64927162146048012, 354.7906064565960378, -39.08939354340419214 ) ) ;
#355 = ORIENTED_EDGE ( 'NONE', *, *, #402, .F. ) ;
#356 = ADVANCED_FACE ( 'NONE', ( #264 ), #347, .F. ) ;
#357 = VERTEX_POINT ( 'NONE', #111 ) ;
#358 = CIRCLE ( 'NONE', #241, 28.31187913226532515 ) ;
#359 = ORIENTED_EDGE ( 'NONE', *, *, #323, .F. ) ;
#360 = STYLED_ITEM ( 'NONE', ( #330 ), #80 ) ;
#361 = CARTESIAN_POINT ( 'NONE',  ( 25.32223528837847581, 379.5000000000000000, -14.38000000000004874 ) ) ;
#362 =( NAMED_UNIT ( * ) PLANE_ANGLE_UNIT ( ) SI_UNIT ( $, .RADIAN. ) );
#363 = DIRECTION ( 'NONE',  ( 0.000000000000000000, 0.000000000000000000, -1.000000000000000000 ) ) ;
#364 = ADVANCED_FACE ( 'NONE', ( #192 ), #390, .T. ) ;
#365 = CIRCLE ( 'NONE', #195, 555.6241985274972421 ) ;
#366 = SURFACE_SIDE_STYLE ('',( #140 ) ) ;
#367 = CARTESIAN_POINT ( 'NONE',  ( 0.000000000000000000, 379.5000000000000000, 0.000000000000000000 ) ) ;
#368 = DIRECTION ( 'NONE',  ( -1.224646799147353207E-16, 0.000000000000000000, -1.000000000000000000 ) ) ;
#369 = AXIS2_PLACEMENT_3D ( 'NONE', #260, #261, #45 ) ;
#370 = AXIS2_PLACEMENT_3D ( 'NONE', #34, #248, #368 ) ;
#371 = EDGE_CURVE ( 'NONE', #321, #145, #90, .T. ) ;
#372 = CARTESIAN_POINT ( 'NONE',  ( 16.93122874383594834, 356.8081503845621683, -37.07184961543818247 ) ) ;
#373 = ORIENTED_EDGE ( 'NONE', *, *, #343, .F. ) ;
#374 =( LENGTH_UNIT ( ) NAMED_UNIT ( * ) SI_UNIT ( .MILLI., .METRE. ) );
#375 = CARTESIAN_POINT ( 'NONE',  ( 5.281114900858998771E-15, 397.9999999999999432, 0.000000000000000000 ) ) ;
#376 = CARTESIAN_POINT ( 'NONE',  ( 25.77347097995285452, 364.2121910370637465, -29.66780896293645142 ) ) ;
#377 =( NAMED_UNIT ( * ) SI_UNIT ( $, .STERADIAN. ) SOLID_ANGLE_UNIT ( ) );
#378 = CARTESIAN_POINT ( 'NONE',  ( 0.000000000000000000, 185.0000000000001421, -46.02010445039983466 ) ) ;
#379 = ORIENTED_EDGE ( 'NONE', *, *, #237, .F. ) ;
#380 = DIRECTION ( 'NONE',  ( -1.000000000000000000, 0.000000000000000000, 0.000000000000000000 ) ) ;
#381 = CARTESIAN_POINT ( 'NONE',  ( -7.925445231780567035, 353.2709541363656740, -40.60904586363477620 ) ) ;
#382 = VERTEX_POINT ( 'NONE', #66 ) ;
#383 = CARTESIAN_POINT ( 'NONE',  ( -32.93508017676588651, 379.5000000000000000, -14.38000000000009138 ) ) ;
#384 = EDGE_LOOP ( 'NONE', ( #247, #201, #68, #167, #18 ) ) ;
#385 = CARTESIAN_POINT ( 'NONE',  ( -20.27118732547306834, 359.0771744240650492, -34.80282557593523762 ) ) ;
#386 = ADVANCED_FACE ( 'NONE', ( #275 ), #17, .F. ) ;
#387 = LINE ( 'NONE', #226, #392 ) ;
#388 = EDGE_LOOP ( 'NONE', ( #109, #35, #315, #44 ) ) ;
#389 = EDGE_LOOP ( 'NONE', ( #203, #150 ) ) ;
#390 = TOROIDAL_SURFACE ( 'NONE', #38, -505.3116985274972421, 555.6241985274972421 ) ;
#391 = ORIENTED_EDGE ( 'NONE', *, *, #163, .F. ) ;
#392 = VECTOR ( 'NONE', #352, 1000.000000000000000 ) ;
#393 = CARTESIAN_POINT ( 'NONE',  ( 28.31187913226532871, 9.107298248878237246E-14, -3.467205215717547744E-15 ) ) ;
#394 = PRODUCT_DEFINITION_CONTEXT ( 'detailed design', #235, 'design' ) ;
#395 = ADVANCED_FACE ( 'NONE', ( #244 ), #341, .F. ) ;
#396 = DIRECTION ( 'NONE',  ( -0.000000000000000000, -1.000000000000000000, -0.000000000000000000 ) ) ;
#397 = FACE_OUTER_BOUND ( 'NONE', #384, .T. ) ;
#398 = CIRCLE ( 'NONE', #154, 1491.206653311018954 ) ;
#399 = AXIS2_PLACEMENT_3D ( 'NONE', #164, #288, #159 ) ;
#400 = DIRECTION ( 'NONE',  ( 0.000000000000000000, 0.000000000000000000, -1.000000000000000000 ) ) ;
#401 = FACE_OUTER_BOUND ( 'NONE', #75, .T. ) ;
#402 = EDGE_CURVE ( 'NONE', #108, #289, #327, .T. ) ;
#403 = CARTESIAN_POINT ( 'NONE',  ( 32.22181245112348336, 376.2892877962029843, -17.59071220379701117 ) ) ;
ENDSEC;
END-ISO-10303-21;
